<?xml version="1.0" encoding="UTF-8" standalone="no"?>
<!DOCTYPE svg PUBLIC "-//W3C//DTD SVG 1.1//EN" "http://www.w3.org/Graphics/SVG/1.1/DTD/svg11.dtd">
<svg width="100%" height="100%" viewBox="0 0 500 500" version="1.1" xmlns="http://www.w3.org/2000/svg" xmlns:xlink="http://www.w3.org/1999/xlink" xml:space="preserve" xmlns:serif="http://www.serif.com/" style="fill-rule:evenodd;clip-rule:evenodd;stroke-linejoin:round;stroke-miterlimit:2;">
    <g id="stripe_color6">
    </g>
    <g id="stripe_color6_pre">
    </g>
    <g id="stripe_color5">
    </g>
    <g id="stripe_color5_pre">
    </g>
    <g id="stripe_color4">
    </g>
    <g id="stripe_color4_pre">
    </g>
    <g id="stripe_color3">
    </g>
    <g id="stripe_color3_pre">
    </g>
    <g id="stripe_color2">
    </g>
    <g id="stripe_color2_pre">
    </g>
    <g id="stripe_color1">
    </g>
    <g id="stripe_color1_pre">
    </g>
    <g id="solid_color6">
    </g>
    <g id="solid_color6_pre">
    </g>
    <g id="solid_color5">
    </g>
    <g id="solid_color5_pre">
    </g>
    <g id="solid_color4">
    </g>
    <g id="solid_color4_pre">
    </g>
    <g id="solid_color3">
    </g>
    <g id="solid_color3_pre">
    </g>
    <g id="solid_color2">
    </g>
    <g id="solid_color2_pre">
    </g>
    <g id="solid_color1">
    </g>
    <g id="solid_color1_pre">
    </g>
    <g id="point_color2">
        <path d="M273.349,485.123C273.296,485.147 273.243,485.17 273.189,485.191C272.878,485.312 272.538,485.369 272.184,485.349C271.645,485.317 267.217,485.046 264.846,485.08C264.01,488.136 261.805,491.538 256.358,492.965C256,493.059 255.64,493.067 255.3,493.001C255.256,493.004 255.212,493.006 255.168,493.007C239.029,493.303 239.104,491.964 226.31,492.199C224.023,492.241 211.613,492.468 197.813,489.839C197.093,489.702 196.292,489.301 195.556,488.747C194.95,488.29 194.059,487.465 193.951,487.364C193.82,487.279 193.701,487.183 193.592,487.078C182.961,489.649 176.77,489.847 169.531,489.669C165.032,489.557 165.013,489.917 160.595,488.944C160.501,488.923 160.41,488.897 160.321,488.866C136.049,485.098 121.246,470.127 118.359,467.116L117.995,466.736C117.868,466.623 117.753,466.496 117.653,466.359C107.574,454.347 107.111,434.724 107.253,433.013C108.401,419.178 107.491,418.912 113.089,406.209C113.182,405.997 113.303,405.806 113.444,405.637C114.033,404.337 115.445,402.083 122.743,387.268C125.738,381.189 128.636,381.003 138.63,353.279C140.434,348.272 140.056,341.865 139.563,337.069C139.338,334.882 139.098,332.986 138.964,331.604C137.91,332.174 136.699,332.967 135.29,334.013C127.275,339.961 114.519,342.049 105.591,339.221C99.353,337.245 94.909,333.005 94.472,326.345C94.348,326.123 94.259,325.877 94.211,325.614C93.852,323.652 94.218,320.354 95.457,316.612C97.188,311.39 100.569,305.22 105.46,300.802C113.672,293.384 123.877,284.436 138.53,283.451C138.82,283.431 139.101,283.464 139.365,283.542C145.33,283.403 157.924,282.929 167.832,291.114C176.906,298.61 183.985,317.124 182.284,334.088L182.23,334.6L182.211,334.68L182.137,335.375C182.099,335.741 182.051,336.204 182.006,336.655C181.469,342 179.87,355.092 173.057,366.275C164.632,380.105 165.031,381.083 161,386.61C152.724,397.959 151.769,398.032 147.273,406.862C147.249,407.162 147.167,407.461 147.024,407.746C146.408,408.965 136.798,429.582 150.625,445.583C157.852,453.948 168.181,455.203 172.117,455.307C170.674,450.658 170.15,444.719 170.807,438.077C172.825,417.672 185.872,390.427 215.855,375.187C221.041,372.55 221.86,372.175 225.67,370.492C223.876,369.212 222.318,367.941 220.847,366.667C217.26,366.437 215.103,366.43 202.399,362.056C201.409,361.715 200.786,360.789 200.783,359.797C200.758,359.691 200.74,359.582 200.73,359.471C200.357,355.509 200.192,355.571 200.226,351.542C200.237,350.251 201.054,346.284 201.577,343.735C199.555,342.478 196.521,340.569 196.029,340.226C192.66,337.869 188.76,332.757 187.023,330.353L186.905,330.332C185.61,330.067 184.774,328.8 185.039,327.505C185.101,327.205 185.355,326.555 185.84,325.761C187.031,323.81 189.8,320.102 189.964,319.927C192.84,316.867 193.125,316.412 195.561,314.298C195.521,314.161 195.494,314.019 195.479,313.874C194.283,311.016 187.521,301.274 184.859,284.462C181.699,264.506 177.85,245.06 188.016,203.328C190.474,193.236 196.316,182.713 197.784,180.133C197.988,179.485 198.465,178.927 199.14,178.643L199.857,178.44L200.698,178.403C201.336,178.439 202.268,178.657 203.381,179.062C208.266,180.836 217.952,186.435 219.066,187.081C238.793,198.523 258.609,221.235 263.711,228.472C265.843,227.113 271.808,224.143 285.578,221.952C287.814,221.596 297.503,220.036 313.367,222.76C314.134,221.919 315.509,220.632 317.809,219.119C324.139,214.956 352.846,193.647 374.407,190.645C374.955,190.568 375.486,190.684 375.931,190.941C376.462,191.049 376.96,191.338 377.324,191.795C379.014,193.92 386.278,208.877 388.004,216.041C392.494,234.679 392.277,263.757 390.171,282.604C389.529,288.35 388.686,293.172 387.764,296.533C387.897,296.803 387.982,297.103 388.005,297.421C388.074,298.366 388.164,298.382 388.97,308.527C391.146,309.792 396.133,313.08 398.579,316.84C398.629,316.917 398.674,316.994 398.713,317.074C399.414,317.684 399.725,318.675 399.423,319.615C398.213,323.38 395.663,328.011 394.155,330.591C397.663,334.247 399.343,337.571 399.708,338.29C399.739,338.352 399.768,338.415 399.793,338.478C400.655,339.306 400.782,340.668 400.044,341.646C397.677,344.783 397.545,344.625 394.339,346.962C389.606,350.41 388.307,351.02 386.634,351.532C385.408,353.234 379.223,362.86 368.232,371.42C363.384,375.196 349.144,381.999 336.155,385.545C336.266,385.841 336.401,386.195 336.566,386.619C343.081,403.373 344.455,422.445 344.78,433.365L345.054,433.528C345.092,433.56 345.257,433.709 345.512,433.982C347.257,435.85 356.317,446.604 353.638,459.462C351.554,469.464 350.286,470.86 343.859,477.716C343.546,478.05 343.159,478.274 342.747,478.387C342.662,478.643 342.574,478.888 342.483,479.121C341.978,480.42 341.262,482.672 339.285,484.921C337.316,487.161 334.09,489.447 328.422,490.655C318.58,492.753 312.685,488.093 310.671,486.177C307.116,491.886 301.318,496.104 291.688,495C283.156,494.022 276.877,488.468 274.442,486.161C273.996,485.738 273.679,485.425 273.501,485.268C273.447,485.221 273.397,485.173 273.349,485.123ZM345.797,436.044C345.895,435.761 346.16,434.924 345.432,433.935C345.896,434.565 346.005,435.347 345.797,436.044ZM387.096,312.508C388.387,312.406 388.894,311.578 389.126,310.909C388.81,311.82 387.997,312.419 387.096,312.508ZM314.416,222.914C314.642,222.931 314.869,222.98 315.091,223.065C314.843,222.971 314.62,222.925 314.416,222.914ZM171.485,457.475C171.441,458.073 171.584,458.697 172.111,459.27C171.645,458.764 171.439,458.111 171.485,457.475ZM342.84,437.657C343.518,437.863 344.043,437.732 344.404,437.576C343.9,437.781 343.348,437.803 342.84,437.657ZM215.577,297.761C215.187,297.903 214.836,298.169 214.53,298.576C214.802,298.214 215.158,297.95 215.55,297.793C215.728,297.722 215.913,297.672 216.101,297.645C215.92,297.662 215.745,297.7 215.577,297.761ZM172.25,455.884C171.671,456.398 171.522,456.993 171.486,457.459C171.531,456.877 171.788,456.31 172.25,455.884ZM344.924,437.284C345.233,437.062 345.478,436.776 345.651,436.416C345.487,436.749 345.243,437.049 344.924,437.284Z" style="fill:rgb(131,124,107);"/>
        <path d="M310.527,486.406C306.959,491.998 301.189,496.09 291.688,495C283.156,494.022 276.877,488.468 274.442,486.161C273.996,485.738 273.679,485.425 273.501,485.268C273.447,485.221 273.397,485.173 273.349,485.123C273.296,485.147 273.243,485.17 273.189,485.191C272.878,485.312 272.538,485.369 272.184,485.349C271.645,485.317 267.217,485.046 264.846,485.08C264.01,488.136 261.805,491.538 256.358,492.965C256,493.059 255.64,493.067 255.3,493.001C255.256,493.004 255.212,493.006 255.168,493.007C239.029,493.303 239.104,491.964 226.31,492.199C224.023,492.241 211.613,492.468 197.813,489.839C197.093,489.702 196.292,489.301 195.556,488.747C194.95,488.29 194.059,487.465 193.951,487.364C193.82,487.279 193.701,487.183 193.592,487.078C182.961,489.649 176.77,489.847 169.531,489.669C165.032,489.557 165.013,489.917 160.595,488.944C160.501,488.923 160.41,488.897 160.321,488.866C136.049,485.098 121.246,470.127 118.359,467.116L117.995,466.736C117.868,466.623 117.753,466.496 117.653,466.359C107.574,454.347 107.111,434.724 107.253,433.013C108.401,419.178 107.491,418.912 113.089,406.209C113.182,405.997 113.303,405.806 113.444,405.637C114.033,404.337 115.445,402.083 122.743,387.268C125.738,381.189 128.636,381.003 138.63,353.279C140.434,348.272 140.056,341.865 139.563,337.069C139.338,334.882 139.098,332.986 138.964,331.604C137.91,332.174 136.699,332.967 135.29,334.013C127.275,339.961 114.519,342.049 105.591,339.221C99.353,337.245 94.909,333.005 94.472,326.345C94.348,326.123 94.259,325.877 94.211,325.614C93.852,323.652 94.218,320.354 95.457,316.612C97.188,311.39 100.569,305.22 105.46,300.802C113.672,293.384 123.877,284.436 138.53,283.451C138.82,283.431 139.101,283.464 139.365,283.542C145.33,283.403 157.924,282.929 167.832,291.114C176.906,298.61 183.985,317.124 182.284,334.088L182.23,334.6L182.211,334.68L182.137,335.375C182.099,335.741 182.051,336.204 182.006,336.655C181.469,342 179.87,355.092 173.057,366.275C164.632,380.105 165.031,381.083 161,386.61C152.724,397.959 151.769,398.032 147.273,406.862C147.249,407.162 147.167,407.461 147.024,407.746C146.408,408.965 136.798,429.582 150.625,445.583C157.852,453.948 168.181,455.203 172.117,455.307C170.674,450.658 170.15,444.719 170.807,438.077C172.825,417.672 185.872,390.427 215.855,375.187C221.041,372.55 221.86,372.175 225.67,370.492C223.876,369.212 222.318,367.941 220.847,366.667C217.26,366.437 215.103,366.43 202.399,362.056C201.409,361.715 200.786,360.789 200.783,359.797C200.758,359.691 200.74,359.582 200.73,359.471C200.357,355.509 200.192,355.571 200.226,351.542C200.237,350.251 201.054,346.284 201.577,343.735C199.555,342.478 196.521,340.569 196.029,340.226C192.66,337.869 188.76,332.757 187.023,330.353L186.905,330.332C185.61,330.067 184.774,328.8 185.039,327.505C185.101,327.205 185.355,326.555 185.84,325.761C187.031,323.81 189.8,320.102 189.964,319.927C192.84,316.867 193.125,316.412 195.561,314.298C195.521,314.161 195.494,314.019 195.479,313.874C194.283,311.016 187.521,301.274 184.859,284.462C181.699,264.506 177.85,245.06 188.016,203.328C190.474,193.236 196.316,182.713 197.784,180.133C197.988,179.485 198.465,178.927 199.14,178.643L199.857,178.44L200.698,178.403C201.336,178.439 202.268,178.657 203.381,179.062C208.266,180.836 217.952,186.435 219.066,187.081C238.793,198.523 258.609,221.235 263.711,228.472C265.843,227.113 271.808,224.143 285.578,221.952C287.805,221.598 297.431,220.048 313.191,222.73L312.585,223.239L312.145,224.033L312.035,225.005L312.3,225.903L312.763,226.526L313.278,226.917L313.868,227.2C314.115,227.301 314.492,227.438 314.986,227.616L314.877,227.659L314.595,227.677C314.308,227.735 314.006,227.74 313.7,227.684C298.05,224.839 288.495,226.339 286.331,226.683C269.472,229.365 266.697,232.31 265.353,233.2L264.585,233.615L263.842,233.827L263.18,233.866C264.164,233.245 264.574,231.979 264.093,230.881C263.562,229.67 262.148,229.117 260.937,229.648C260.363,229.9 259.808,230.178 259.269,230.482C259.769,231.168 260.159,231.74 260.428,232.18C260.624,232.501 260.884,232.759 261.181,232.948C261.508,233.355 261.97,233.658 262.518,233.782L263.154,233.868L263.18,233.866C263.079,233.93 262.972,233.987 262.86,234.036C259.852,235.354 257.573,237.611 255.178,240.79C254.583,241.579 253.981,242.424 253.359,243.327C253.03,243.805 252.696,244.298 252.356,244.806C251.49,246.101 250.586,247.495 249.62,248.989C243.932,254.526 235.342,262.981 228.01,274.75C224.808,279.89 222.478,283.873 220.762,286.976C218.837,289.197 217.207,291.078 215.736,292.842C214.511,294.311 213.395,295.698 212.312,297.132C208.899,301.648 205.802,306.623 200.568,316.056C200.97,315.228 200.873,314.205 200.24,313.459L200.23,313.446C200.156,312.834 199.874,311.872 199.224,310.644C199.063,310.34 198.88,310.003 198.678,309.631C197.687,311.378 196.616,313.297 195.442,315.426C194.804,316.584 195.227,318.042 196.384,318.68C196.743,318.878 197.13,318.974 197.513,318.978C196.216,320.176 195.6,320.926 193.455,323.208C193.352,323.317 191.759,325.644 190.674,327.234C192.082,329.239 195.66,334.121 198.775,336.3C199.236,336.623 202.028,338.376 203.969,339.583C204.739,340.061 205.375,340.454 205.679,340.637L205.759,340.684C206.171,340.902 206.51,341.236 206.735,341.641C206.746,341.729 206.753,341.818 206.754,341.908C206.757,342.066 206.524,343.171 206.228,344.596C205.72,347.04 205.026,350.425 205.016,351.582C204.988,354.987 205.119,355.278 205.401,358.019C216.034,361.631 217.971,361.681 221.204,361.89C221.717,361.923 222.182,362.116 222.554,362.416C223.043,362.457 223.523,362.648 223.922,362.993C228.789,367.214 234.671,371.366 247.664,375.982C262.768,381.347 272.717,380.806 280.196,381.077C281.518,381.125 282.551,382.237 282.503,383.558C282.455,384.879 281.344,385.913 280.023,385.865C272.213,385.581 261.831,386.099 246.06,380.496C239.325,378.103 234.388,375.817 230.497,373.583C230.429,373.621 230.359,373.656 230.286,373.689C224.071,376.443 224.126,376.357 218.026,379.457C193.835,391.754 181.309,412.315 177.033,430.038C175.102,438.041 174.823,445.447 175.97,451.158C175.488,450.824 174.884,450.665 174.259,450.756C172.951,450.947 172.044,452.164 172.235,453.473C172.584,455.861 172.99,458.059 173.456,460.091L173.585,460.085L174.142,460.004C174.831,461.059 176.235,461.405 177.341,460.768C177.778,460.517 178.106,460.148 178.308,459.724C181.358,472.052 187.068,477.264 196.819,482.371C197.678,482.821 198.151,483.721 198.099,484.631C197.99,484.545 197.887,484.461 197.81,484.392C197.673,484.268 197.539,484.148 197.412,484.037C197.4,483.91 197.379,483.783 197.346,483.656C197.018,482.376 195.711,481.603 194.431,481.931C192.393,482.454 190.522,482.89 188.781,483.252C190.561,484.413 192.497,485.515 194.596,486.615C195.767,487.229 197.216,486.776 197.829,485.605C197.993,485.293 198.08,484.961 198.099,484.631C198.386,484.857 198.723,485.099 198.792,485.149C201.65,485.691 204.445,486.106 207.094,486.424C206.17,486.599 205.214,486.784 204.225,486.98C204.191,486.987 204.164,487.012 204.154,487.045C204.144,487.078 204.153,487.113 204.177,487.138C206.144,489.11 209.951,489.926 214.447,490.276C221.148,490.799 229.383,490.298 235.274,491.148C235.424,491.169 248.197,492.186 256.33,489.133C259.844,487.813 262.491,485.733 262.916,482.503C263.121,480.948 263.477,480.032 263.559,479.393C263.594,479.119 263.579,478.892 263.49,478.687C263.36,478.387 263.066,478.131 262.502,477.848C262.394,477.794 262.346,477.727 262.229,477.584C261.929,477.215 261.233,476.376 258.408,474.132C257.998,473.807 257.928,473.502 257.799,473.201C257.659,472.873 257.459,472.545 256.768,472.198C255.142,471.382 255.259,471.16 255.048,470.869C255.091,470.818 255.12,470.776 255.136,470.744C255.159,470.698 255.14,470.642 255.094,470.619C255.048,470.595 254.992,470.614 254.969,470.66C254.889,470.819 254.442,471.245 253.709,471.85C251.692,473.515 247.523,476.484 242.668,478.859C242.407,478.7 242.172,478.488 241.981,478.225C241.202,477.157 241.437,475.657 242.505,474.879C242.69,474.744 254.331,470.389 258.345,456.217C263.174,439.166 249.705,423.656 247.816,421.447C246.957,420.443 247.074,418.93 248.079,418.07C249.084,417.211 250.597,417.329 251.456,418.333C253.58,420.816 268.384,438.354 262.955,457.523C261.469,462.769 259.081,466.842 256.536,469.952C258.575,471.593 259.991,472.483 261.032,473.226C263.153,474.739 264.126,475.76 265.125,479.285C265.144,479.353 265.215,479.72 265.264,480.295C266.759,480.299 268.712,480.376 270.215,480.447C268.846,477.125 268.245,472.299 268.532,462.51C268.557,461.65 268.578,460.867 268.596,460.146C268.638,458.436 268.661,457.079 268.679,455.895C268.818,454.339 269.083,452.48 269.533,450.156C269.766,448.952 269.724,448.34 269.813,447.453C269.857,447.02 269.932,446.52 270.086,445.853C270.383,444.565 271.67,443.761 272.958,444.058C273.294,444.136 273.598,444.281 273.857,444.475L273.925,443.311C273.944,443.007 273.904,442.712 273.816,442.438C277.361,440.197 283.716,436.974 292.21,435.886C293.422,435.731 301.638,434.693 307.834,435.399C309.122,435.546 310.328,435.782 311.403,436.104C311.71,436.196 312.005,436.295 312.289,436.4L312.189,435.479L312.249,435.451C312.676,435.139 314.317,433.994 316.729,432.971C319.637,431.737 323.666,430.678 328.04,431.465C328.923,431.624 334.387,432.614 338.7,434.26C339.162,434.436 339.61,434.621 340.042,434.814C340.061,435.645 340.074,436.42 340.083,437.133C340.483,436.572 341.12,436.186 341.86,436.132C342.107,436.113 342.349,436.134 342.578,436.187C343.039,436.496 343.445,436.815 343.784,437.14C343.945,437.295 344.08,437.468 344.188,437.652C343.745,437.784 343.276,437.782 342.84,437.657C343.395,437.825 343.847,437.768 344.191,437.656C344.275,437.8 344.343,437.951 344.395,438.106C344.409,438.184 344.418,438.264 344.424,438.345C344.445,438.625 344.464,438.939 344.482,439.286C344.551,438.893 344.522,438.487 344.395,438.106C344.366,437.942 344.321,437.783 344.261,437.633C344.311,437.614 344.359,437.595 344.404,437.576C344.356,437.595 344.308,437.613 344.259,437.629C343.969,436.905 343.338,436.364 342.578,436.187C341.852,435.7 340.989,435.238 340.042,434.814C339.804,424.381 338.638,405.165 332.101,388.356C331.824,387.643 331.608,387.071 331.465,386.687C329.319,387.142 327.249,387.479 325.306,387.666C323.99,387.792 322.819,386.827 322.692,385.511C322.566,384.195 323.532,383.023 324.848,382.897C338.659,381.569 359.382,372.241 365.288,367.641C373.682,361.103 379.152,353.9 381.664,350.346C381.393,349.147 382.081,347.918 383.274,347.538C385.934,346.69 386.113,347.027 391.517,343.09C393.608,341.567 394.12,341.355 395.218,340.039C394.627,338.933 393.078,336.283 390.272,333.472C390.091,333.414 389.914,333.333 389.746,333.229C388.62,332.535 388.27,331.058 388.965,329.933C389.474,329.107 392.759,323.81 394.46,319.297C392.137,315.892 386.415,312.593 386.011,312.362C385.456,312.152 385.023,311.754 384.758,311.267C384.492,310.915 384.319,310.485 384.282,310.012C383.943,305.72 383.72,303.064 383.57,301.366C383.459,301.329 383.35,301.284 383.243,301.23C382.063,300.633 381.59,299.19 382.187,298.011L382.24,297.905C381.384,292.712 380.39,287.616 378.135,282.082C374.989,274.362 369.389,265.789 358.288,254.908C353.074,249.798 347.876,245.587 342.966,242.125C329.882,232.901 318.843,229.003 314.986,227.616L315.634,227.355L316.261,226.823C316.446,226.608 316.728,225.783 319.123,224.033C317.684,223.493 316.613,223.122 315.981,222.883C315.46,222.465 314.768,222.266 314.06,222.392L313.532,222.583C314.325,221.743 315.665,220.53 317.809,219.119C324.139,214.956 352.846,193.647 374.407,190.645C374.955,190.568 375.486,190.684 375.931,190.941C376.462,191.049 376.96,191.338 377.324,191.795C379.014,193.92 386.278,208.877 388.004,216.041C392.494,234.679 392.277,263.757 390.171,282.604C389.529,288.35 388.686,293.172 387.764,296.533C387.897,296.803 387.982,297.103 388.005,297.421C388.074,298.366 388.164,298.382 388.97,308.527C391.146,309.792 396.133,313.08 398.579,316.84C398.629,316.917 398.674,316.994 398.713,317.074C399.414,317.684 399.725,318.675 399.423,319.615C398.213,323.38 395.663,328.011 394.155,330.591C397.663,334.247 399.343,337.571 399.708,338.29C399.739,338.352 399.768,338.415 399.793,338.478C400.655,339.306 400.782,340.668 400.044,341.646C397.677,344.783 397.545,344.625 394.339,346.962C389.606,350.41 388.307,351.02 386.634,351.532C385.408,353.234 379.223,362.86 368.232,371.42C363.384,375.196 349.144,381.999 336.155,385.545C336.266,385.841 336.401,386.195 336.566,386.619C343.081,403.373 344.455,422.445 344.78,433.365L345.054,433.528C345.092,433.56 345.257,433.709 345.512,433.982C347.257,435.85 356.317,446.604 353.638,459.462C351.554,469.464 350.286,470.86 343.859,477.716C343.546,478.05 343.159,478.274 342.747,478.387C342.662,478.643 342.574,478.888 342.483,479.121C341.978,480.42 341.262,482.672 339.285,484.921C337.316,487.161 334.09,489.447 328.422,490.655C318.727,492.722 312.862,488.231 310.764,486.265L310.671,486.177L310.527,486.406ZM273.463,456.299C273.331,457.804 273.328,459 273.39,460.057C273.425,458.576 273.447,457.365 273.463,456.299ZM254.92,471.012C255.115,471.301 255.047,471.544 256.684,472.365C257.443,472.746 257.557,473.099 257.703,473.461C257.81,473.726 257.933,473.994 258.292,474.279C261.094,476.505 261.786,477.336 262.084,477.702C262.225,477.874 262.288,477.95 262.418,478.016C262.927,478.271 263.201,478.491 263.319,478.762C263.436,479.032 263.395,479.346 263.297,479.78C263.157,480.393 262.896,481.231 262.731,482.479C262.454,484.583 261.206,486.182 259.389,487.398C257.558,488.624 255.15,489.46 252.566,490.026C244.793,491.728 235.429,490.981 235.301,490.963C229.407,490.113 221.167,490.613 214.461,490.09C210.114,489.751 206.413,488.988 204.436,487.128C205.572,486.903 206.664,486.693 207.714,486.497C221.97,483.827 228.661,483.606 235.348,481.856C237.908,481.186 240.473,480.147 242.868,478.968C247.689,476.595 251.82,473.651 253.828,471.994C254.331,471.579 254.701,471.242 254.92,471.012ZM305.761,278.691C345.533,278.004 378.212,300.03 378.691,327.845C379.171,355.661 347.271,378.8 307.5,379.486C267.728,380.172 235.049,358.147 234.57,330.332C234.09,302.516 265.99,279.377 305.761,278.691ZM348.939,240.55C348.819,240.781 348.696,241.019 348.571,241.265C365.605,253.162 374.017,265.556 377.943,272.905C377.972,272.358 377.998,271.802 378.02,271.239C374.425,265.4 369.26,258.954 361.641,251.487C357.348,247.28 353.068,243.66 348.939,240.55ZM345.797,436.044C345.895,435.761 346.16,434.924 345.432,433.935C345.896,434.565 346.005,435.347 345.797,436.044ZM344.904,440.987C344.91,441.353 344.917,441.648 344.928,441.867C344.934,441.977 344.931,442.086 344.922,442.194L345.022,442.508C345.029,442.571 345.052,442.898 345.074,443.448C345.203,446.763 345.481,459.944 344.351,470.004C346.731,467.04 347.672,464.612 348.948,458.485C350.45,451.278 347.468,444.885 344.904,440.987ZM171.485,457.475C171.441,458.073 171.584,458.697 172.111,459.27C171.645,458.764 171.439,458.111 171.485,457.475ZM313.592,435.253C314.296,435.354 314.948,435.765 315.331,436.428C314.983,435.825 314.449,435.348 313.592,435.253ZM344.924,437.284C345.233,437.062 345.478,436.776 345.651,436.416C345.487,436.749 345.243,437.049 344.924,437.284ZM387.096,312.508C388.387,312.406 388.894,311.578 389.126,310.909C388.81,311.82 387.997,312.419 387.096,312.508ZM172.25,455.884C171.671,456.398 171.522,456.993 171.486,457.459C171.531,456.877 171.788,456.31 172.25,455.884Z" style="fill:rgb(62,59,52);"/>
        <path d="M218.9,216.914C222.434,219.552 228.476,224.279 241.024,234.492C241.709,235.049 241.521,235.252 249.267,241.821C250.88,243.189 251.926,244.246 252.577,245.08C252.737,245.284 252.877,245.502 252.983,245.681L252.905,245.756C247.768,250.971 236.954,260.395 228.01,274.75C220.707,286.472 217.94,292.175 216.65,295.154C213.575,287.593 207.839,270.832 207.298,267.166C206.837,264.039 202.735,240.676 202.856,223.831C202.886,219.671 203.169,215.924 203.862,213.03C204.247,211.42 204.727,210.104 205.437,209.233C205.666,208.953 206.034,209.095 206.424,209.177C207.142,209.33 207.92,209.667 208.723,210.088C212.514,212.077 216.648,215.828 218.116,216.643C218.367,216.782 218.632,216.871 218.9,216.914ZM370.905,212.086C371.516,211.797 372.028,211.623 372.436,211.51L372.509,211.466L372.518,211.487C372.749,212.029 373.134,213.05 373.33,214.225C378.362,244.445 377.47,244.548 377.738,248.215C377.874,250.083 378.473,262.975 377.943,272.905C374.017,265.556 365.605,253.162 348.571,241.265C352.449,233.672 353.518,233.674 357.358,227.266C363.59,216.862 368.213,213.359 370.905,212.086Z" style="fill:rgb(40,36,28);"/>
        <path d="M273.349,485.123C273.296,485.147 273.243,485.17 273.189,485.191C272.878,485.312 272.538,485.369 272.184,485.349C271.645,485.317 267.217,485.046 264.846,485.08C264.01,488.136 261.805,491.538 256.358,492.965C256,493.059 255.64,493.067 255.3,493.001C255.256,493.004 255.212,493.006 255.168,493.007C239.029,493.303 239.104,491.964 226.31,492.199C224.023,492.241 211.613,492.468 197.813,489.839C197.093,489.702 196.292,489.301 195.556,488.747C194.95,488.29 194.059,487.465 193.951,487.364C193.82,487.279 193.701,487.183 193.592,487.078C182.961,489.649 176.77,489.847 169.531,489.669C165.032,489.557 165.013,489.917 160.595,488.944C160.501,488.923 160.41,488.897 160.321,488.866C136.049,485.098 121.246,470.127 118.359,467.116L117.995,466.736C117.868,466.623 117.753,466.496 117.653,466.359C107.574,454.347 107.111,434.724 107.253,433.013C108.401,419.178 107.491,418.912 113.089,406.209C113.182,405.997 113.303,405.806 113.444,405.637C114.033,404.337 115.445,402.083 122.743,387.268C125.738,381.189 128.636,381.003 138.63,353.279C140.434,348.272 140.056,341.865 139.563,337.069C139.338,334.882 139.098,332.986 138.964,331.604C137.91,332.174 136.699,332.967 135.29,334.013C127.275,339.961 114.519,342.049 105.591,339.221C99.353,337.245 94.909,333.005 94.472,326.345C94.348,326.123 94.259,325.877 94.211,325.614C93.852,323.652 94.218,320.354 95.457,316.612C97.188,311.39 100.569,305.22 105.46,300.802C113.672,293.384 123.877,284.436 138.53,283.451C138.82,283.431 139.101,283.464 139.365,283.542C145.33,283.403 157.924,282.929 167.832,291.114C176.906,298.61 183.985,317.124 182.284,334.088L182.23,334.6L182.211,334.68L182.137,335.375C182.099,335.741 182.051,336.204 182.006,336.655C181.469,342 179.87,355.092 173.057,366.275C164.632,380.105 165.031,381.083 161,386.61C152.724,397.959 151.769,398.032 147.273,406.862C147.249,407.162 147.167,407.461 147.024,407.746C146.408,408.965 136.798,429.582 150.625,445.583C157.852,453.948 168.181,455.203 172.117,455.307C170.674,450.658 170.15,444.719 170.807,438.077C172.825,417.672 185.872,390.427 215.855,375.187C221.041,372.55 221.86,372.175 225.67,370.492C223.876,369.212 222.318,367.941 220.847,366.667C217.26,366.437 215.103,366.43 202.399,362.056C201.409,361.715 200.786,360.789 200.783,359.797C200.758,359.691 200.74,359.582 200.73,359.471C200.357,355.509 200.192,355.571 200.226,351.542C200.237,350.251 201.054,346.284 201.577,343.735C199.555,342.478 196.521,340.569 196.029,340.226C192.66,337.869 188.76,332.757 187.023,330.353L186.905,330.332C185.61,330.067 184.774,328.8 185.039,327.505C185.101,327.205 185.355,326.555 185.84,325.761C187.031,323.81 189.8,320.102 189.964,319.927C192.84,316.867 193.125,316.412 195.561,314.298C195.521,314.161 195.494,314.019 195.479,313.874C194.283,311.016 187.521,301.274 184.859,284.462C181.699,264.506 177.85,245.06 188.016,203.328C190.474,193.236 196.316,182.713 197.784,180.133C197.988,179.485 198.465,178.927 199.14,178.643L199.857,178.44L200.698,178.403C201.336,178.439 202.268,178.657 203.381,179.062C208.266,180.836 217.952,186.435 219.066,187.081C238.793,198.523 258.609,221.235 263.711,228.472C265.843,227.113 271.808,224.143 285.578,221.952C287.814,221.596 297.503,220.036 313.367,222.76C314.134,221.919 315.509,220.632 317.809,219.119C324.139,214.956 352.846,193.647 374.407,190.645C374.955,190.568 375.486,190.684 375.931,190.941C376.462,191.049 376.96,191.338 377.324,191.795C379.014,193.92 386.278,208.877 388.004,216.041C392.494,234.679 392.277,263.757 390.171,282.604C389.529,288.35 388.686,293.172 387.764,296.533C387.897,296.803 387.982,297.103 388.005,297.421C388.074,298.366 388.164,298.382 388.97,308.527C391.146,309.792 396.133,313.08 398.579,316.84C398.629,316.917 398.674,316.994 398.713,317.074C399.414,317.684 399.725,318.675 399.423,319.615C398.213,323.38 395.663,328.011 394.155,330.591C397.663,334.247 399.343,337.571 399.708,338.29C399.739,338.352 399.768,338.415 399.793,338.478C400.655,339.306 400.782,340.668 400.044,341.646C397.677,344.783 397.545,344.625 394.339,346.962C389.606,350.41 388.307,351.02 386.634,351.532C385.408,353.234 379.223,362.86 368.232,371.42C363.384,375.196 349.144,381.999 336.155,385.545C336.266,385.841 336.401,386.195 336.566,386.619C343.081,403.373 344.455,422.445 344.78,433.365L345.054,433.528C345.092,433.56 345.257,433.709 345.512,433.982C347.257,435.85 356.317,446.604 353.638,459.462C351.554,469.464 350.286,470.86 343.859,477.716C343.546,478.05 343.159,478.274 342.747,478.387C342.662,478.643 342.574,478.888 342.483,479.121C341.978,480.42 341.262,482.672 339.285,484.921C337.316,487.161 334.09,489.447 328.422,490.655C318.58,492.753 312.685,488.093 310.671,486.177C307.116,491.886 301.318,496.104 291.688,495C283.156,494.022 276.877,488.468 274.442,486.161C273.996,485.738 273.679,485.425 273.501,485.268C273.447,485.221 273.397,485.173 273.349,485.123ZM387.096,312.508C388.387,312.406 388.894,311.578 389.126,310.909C388.81,311.82 387.997,312.419 387.096,312.508ZM344.904,440.987C344.91,441.353 344.917,441.648 344.928,441.867C344.934,441.977 344.931,442.086 344.922,442.194L345.022,442.508C345.029,442.571 345.052,442.898 345.074,443.448C345.203,446.763 345.481,459.944 344.351,470.004C346.731,467.04 347.672,464.612 348.948,458.485C350.45,451.278 347.468,444.885 344.904,440.987ZM137.864,288.311C124.97,289.549 116.01,297.729 108.672,304.357C104.42,308.198 101.509,313.579 100.005,318.119C99.233,320.45 98.806,322.531 98.849,323.996C99.087,324.368 99.226,324.809 99.227,325.283C99.24,330.25 102.553,333.233 107.037,334.654C114.674,337.073 125.579,335.254 132.435,330.166C138.185,325.9 141.949,325.279 144.479,325.87C146.668,326.38 148.19,327.794 149.402,329.389C150.145,330.368 150.68,331.45 151.408,332.006C152.459,332.809 152.66,334.313 151.857,335.364C151.055,336.414 149.55,336.616 148.5,335.813C147.641,335.157 146.869,334.082 146.051,332.925C145.42,332.033 144.784,330.985 143.635,330.604C143.691,331.742 144.054,333.908 144.329,336.579C144.886,342.004 145.177,349.241 143.136,354.903C133,383.023 130.078,383.219 127.041,389.385C118.604,406.51 118.231,406.319 117.701,407.89C117.595,408.207 117.428,408.486 117.219,408.72C112.228,420.122 113.091,420.587 112.027,433.409C111.9,434.945 112.296,452.602 121.383,463.351L121.414,463.389C121.525,463.499 121.66,463.636 121.817,463.8C124.549,466.649 138.689,480.942 161.865,484.253C162.113,484.288 162.346,484.36 162.561,484.463C165.624,485.08 165.956,484.788 169.649,484.879C176.951,485.06 183.13,484.829 194.431,481.931C195.711,481.603 197.018,482.376 197.346,483.656C197.379,483.783 197.4,483.91 197.412,484.037C197.539,484.148 197.673,484.268 197.81,484.392C198.089,484.643 198.696,485.08 198.792,485.149C212.083,487.67 224.018,487.449 226.222,487.409C239.016,487.174 238.942,488.513 255.08,488.217C255.211,488.215 255.34,488.223 255.466,488.241C261.337,486.495 260.58,480.817 260.516,480.591C259.95,478.595 259.45,477.983 258.249,477.126C257.114,476.316 255.56,475.336 253.289,473.488L253.232,473.44C249.123,477.194 245.438,478.669 245.328,478.75C244.259,479.528 242.76,479.294 241.981,478.225C241.202,477.157 241.437,475.657 242.505,474.879C242.69,474.744 254.331,470.389 258.345,456.217C263.174,439.166 249.705,423.656 247.816,421.447C246.957,420.443 247.074,418.93 248.079,418.07C249.084,417.211 250.597,417.329 251.456,418.333C253.58,420.816 268.384,438.354 262.955,457.523C261.469,462.769 259.081,466.842 256.536,469.952C258.575,471.593 259.991,472.483 261.032,473.226C263.153,474.739 264.126,475.76 265.125,479.285C265.144,479.353 265.215,479.72 265.264,480.295C266.759,480.299 268.712,480.376 270.215,480.447C268.846,477.125 268.245,472.299 268.532,462.51C268.818,452.765 268.559,452.792 269.143,443.025C269.222,441.705 270.358,440.698 271.677,440.777C272.997,440.856 274.004,441.991 273.925,443.311C273.345,453.005 273.604,452.978 273.32,462.65C272.964,474.788 273.881,478.105 276.336,481.428C276.449,481.497 276.558,481.578 276.662,481.668C277.586,482.48 282.728,488.324 290.43,489.947C292.286,486.108 292.351,485.869 291.977,481.259C291.898,480.289 291.775,479.446 291.693,478.943C290.897,478.043 290.886,476.667 291.709,475.753L292.145,475.365L292.632,475.094L293.193,474.932L293.852,474.91L294.681,475.142L295.474,475.73L295.898,476.334L296.188,477.049C296.365,477.624 296.58,478.753 296.752,480.871C297.17,486.026 297.172,486.87 295.551,490.342C297.532,490.22 299.253,489.755 300.75,489.035C300.738,488.804 300.76,488.568 300.819,488.332C300.989,487.648 301.825,484.312 301.875,480.665C301.906,478.47 301.68,476.14 300.698,474.321C300.07,473.158 300.505,471.704 301.668,471.075C302.831,470.447 304.286,470.882 304.914,472.045C306.262,474.542 306.707,477.717 306.666,480.731C306.651,481.799 306.578,482.844 306.474,483.82C307.071,482.905 307.59,481.935 308.043,480.94C310.854,474.77 311.316,467.679 311.785,465.147C314.368,451.217 312.522,438.885 311.793,431.885C311.545,429.506 311.437,427.669 311.579,426.491C311.636,426.016 311.732,425.61 311.852,425.274L312.305,424.382C313.059,423.296 314.553,423.027 315.639,423.782C316.66,424.491 316.959,425.855 316.363,426.918C316.361,427.178 316.353,429.424 316.558,431.388C317.317,438.677 319.184,451.516 316.496,466.02C316.022,468.578 315.481,475.459 312.898,481.779C313.116,481.894 313.319,482.045 313.499,482.232C314.093,482.847 316.796,485.598 321.61,486.244C321.639,486.172 321.671,486.101 321.707,486.031C321.888,485.68 324.223,483.105 323.917,478.11C323.859,477.169 323.738,476.806 323.675,476.498C323.577,476.021 323.529,475.601 323.62,474.878C323.784,473.566 324.983,472.635 326.295,472.799C327.606,472.964 328.538,474.163 328.373,475.474C328.347,475.683 328.418,475.755 328.457,475.935C328.542,476.334 328.642,476.884 328.699,477.816C328.925,481.505 328.102,484.221 327.272,486.001L327.423,485.97C328.429,485.755 329.336,485.502 330.155,485.219C331.414,482.823 331.654,482.921 332.187,480.153C332.255,479.798 332.269,478.873 332.268,478.102C332.198,477.863 332.164,477.61 332.173,477.348C332.202,476.458 332.291,476.038 332.318,475.946L332.615,475.302L333.219,474.669L333.669,474.413L334.281,474.24L334.969,474.24L335.582,474.416L336.182,474.792L336.614,475.277L336.927,475.947L337.028,476.509C337.066,476.957 337.07,478.589 337.007,479.83C337.519,478.855 337.787,477.98 338.018,477.385C341.063,469.553 340.454,447.911 340.287,443.635C340.273,443.295 340.257,443.003 340.257,443.003C340.248,442.902 340.245,442.8 340.248,442.699C340.19,442.51 340.154,442.312 340.143,442.106C339.954,438.328 340.959,411.132 332.101,388.356C331.824,387.643 331.608,387.071 331.465,386.687C329.319,387.142 327.249,387.479 325.306,387.666C323.99,387.792 322.819,386.827 322.692,385.511C322.566,384.195 323.532,383.023 324.848,382.897C338.659,381.569 359.382,372.241 365.288,367.641C373.682,361.103 379.152,353.9 381.664,350.346C381.393,349.147 382.081,347.918 383.274,347.538C385.934,346.69 386.113,347.027 391.517,343.09C393.608,341.567 394.12,341.355 395.218,340.039C394.627,338.933 393.078,336.283 390.272,333.472C390.091,333.414 389.914,333.333 389.746,333.229C388.62,332.535 388.27,331.058 388.965,329.933C389.474,329.107 392.759,323.81 394.46,319.297C392.137,315.892 386.415,312.593 386.011,312.362C385.456,312.152 385.023,311.754 384.758,311.267C384.492,310.915 384.319,310.485 384.282,310.012C383.943,305.72 383.72,303.064 383.57,301.366C383.459,301.329 383.35,301.284 383.243,301.23C382.063,300.633 381.59,299.19 382.187,298.011C383.466,295.485 384.563,289.653 385.41,282.071C387.464,263.694 387.724,235.337 383.346,217.163C381.892,211.129 376.239,199.071 374.085,195.539C353.36,198.939 326.466,219.159 320.442,223.122C316.821,225.504 316.475,226.574 316.261,226.823L315.634,227.355L314.877,227.659L314.595,227.677C314.308,227.735 314.006,227.74 313.7,227.684C298.05,224.839 288.495,226.339 286.331,226.683C269.472,229.365 266.697,232.31 265.353,233.2L264.585,233.615L263.842,233.827L263.154,233.868L262.518,233.782C261.97,233.658 261.508,233.355 261.181,232.948C260.884,232.759 260.624,232.501 260.428,232.18C257.225,226.942 236.879,202.951 216.662,191.226C215.728,190.683 208.506,186.491 203.577,184.312C202.856,183.993 202.021,183.698 201.392,183.49C199.44,187.001 194.758,195.892 192.671,204.462C182.74,245.225 186.504,264.22 189.591,283.713C191.852,297.991 197.252,306.917 199.224,310.644C199.874,311.872 200.156,312.834 200.23,313.446L200.24,313.459C201.096,314.467 200.972,315.979 199.964,316.835C196.458,319.81 196.59,319.872 193.455,323.208C193.352,323.317 191.759,325.644 190.674,327.234C192.082,329.239 195.66,334.121 198.775,336.3C199.236,336.623 202.028,338.376 203.969,339.583C204.739,340.061 205.375,340.454 205.679,340.637L205.759,340.684C206.171,340.902 206.51,341.236 206.735,341.641C206.746,341.729 206.753,341.818 206.754,341.908C206.757,342.066 206.524,343.171 206.228,344.596C205.72,347.04 205.026,350.425 205.016,351.582C204.988,354.987 205.119,355.278 205.401,358.019C216.034,361.631 217.971,361.681 221.204,361.89C221.717,361.923 222.182,362.116 222.554,362.416C223.043,362.457 223.523,362.648 223.922,362.993C228.789,367.214 234.671,371.366 247.664,375.982C262.768,381.347 272.717,380.806 280.196,381.077C281.518,381.125 282.551,382.237 282.503,383.558C282.455,384.879 281.344,385.913 280.023,385.865C272.213,385.581 261.831,386.099 246.06,380.496C239.325,378.103 234.388,375.817 230.497,373.583C230.429,373.621 230.359,373.656 230.286,373.689C224.071,376.443 224.126,376.357 218.026,379.457C193.835,391.754 181.309,412.315 177.033,430.038C174.271,441.482 174.888,451.705 178.222,457.497C178.882,458.643 178.487,460.109 177.341,460.768C176.235,461.405 174.831,461.059 174.142,460.004L173.585,460.085C170.91,460.218 156.612,459.839 147,448.716C133.105,432.636 139.853,412.481 142.131,406.97C142.133,406.614 142.215,406.254 142.385,405.914C147.572,395.563 148.23,395.991 157.129,383.788C161.092,378.353 160.682,377.381 168.966,363.783C174.895,354.05 176.531,342.748 177.128,337.247C177.088,336.997 177.088,336.736 177.133,336.473C179.847,320.464 173.47,301.986 164.781,294.808C155.36,287.024 143.146,288.299 138.336,288.352C138.174,288.354 138.017,288.34 137.864,288.311ZM343.825,240.034C348.171,231.348 349.177,231.599 353.248,224.804C361.424,211.156 367.542,207.986 370.554,207.05C370.739,206.95 370.932,206.854 371.11,206.783L372.436,206.456L373.557,206.512C374.978,206.785 377.163,208.079 378.055,213.438C383.153,244.047 382.244,244.152 382.516,247.866C382.693,250.297 383.594,270.75 382.014,280.494C381.802,281.799 380.571,282.687 379.266,282.475C378.916,282.418 378.596,282.288 378.319,282.103C377.44,282.039 376.63,281.492 376.273,280.622C374.815,277.065 367.936,260.411 345.175,244.741C344.776,244.465 344.371,244.19 343.961,243.916C343.43,243.56 343.087,243.028 342.958,242.45C342.941,242.065 343.018,241.67 343.199,241.299C343.415,240.857 343.624,240.436 343.825,240.034ZM370.905,212.086C368.213,213.359 363.59,216.862 357.358,227.266C353.518,233.674 352.449,233.672 348.571,241.265C365.605,253.162 374.017,265.556 377.943,272.905C378.473,262.975 377.874,250.083 377.738,248.215C377.47,244.548 378.362,244.445 373.33,214.225C373.134,213.05 372.749,212.029 372.518,211.487L372.509,211.466L372.436,211.51C372.028,211.623 371.516,211.797 370.905,212.086ZM217.781,301.983L217.352,302.242L216.637,302.423L215.985,302.399L215.376,302.211L214.849,301.889L214.373,301.413C214.236,301.242 214.059,300.981 213.865,300.626C211.644,296.573 203.236,272.455 202.559,267.865C202.09,264.685 197.942,240.926 198.065,223.796C198.098,219.22 198.44,215.1 199.203,211.915C199.788,209.471 200.646,207.528 201.725,206.206C203.341,204.224 205.854,203.844 208.775,204.879C210.593,205.524 212.629,206.789 214.509,208.112C214.791,208.184 215.065,208.31 215.315,208.49C219.662,211.626 219.977,211.185 244.048,230.777C244.739,231.339 244.552,231.54 252.366,238.167C255.192,240.564 256.568,242.257 257.223,243.415C257.969,244.734 258.029,245.702 257.951,246.385L257.629,247.522L257.045,248.409C256.894,248.588 256.722,248.74 256.536,248.863C256.47,248.952 256.397,249.037 256.318,249.118C251.323,254.189 240.773,263.325 232.076,277.283C222.973,291.896 221.128,296.834 220.269,298.934C219.666,300.409 219.272,300.972 218.446,301.616C218.24,301.777 218.015,301.899 217.781,301.983ZM215.577,297.761C215.187,297.903 214.836,298.169 214.53,298.576C214.802,298.214 215.158,297.95 215.55,297.793C215.728,297.722 215.913,297.672 216.101,297.645C215.92,297.662 215.745,297.7 215.577,297.761ZM218.9,216.914C218.632,216.871 218.367,216.782 218.116,216.643C216.648,215.828 212.514,212.077 208.723,210.088C207.92,209.667 207.142,209.33 206.424,209.177C206.034,209.095 205.666,208.953 205.437,209.233C204.727,210.104 204.247,211.42 203.862,213.03C203.169,215.924 202.886,219.671 202.856,223.831C202.735,240.676 206.837,264.039 207.298,267.166C207.839,270.832 213.575,287.593 216.65,295.154C217.94,292.175 220.707,286.472 228.01,274.75C236.954,260.395 247.768,250.971 252.905,245.756L252.983,245.681C252.877,245.502 252.737,245.284 252.577,245.08C251.926,244.246 250.88,243.189 249.267,241.821C241.521,235.252 241.709,235.049 241.024,234.492C228.476,224.279 222.434,219.552 218.9,216.914ZM344.924,437.284C345.233,437.062 345.478,436.776 345.651,436.416C345.487,436.749 345.243,437.049 344.924,437.284ZM314.416,222.914C314.642,222.931 314.869,222.98 315.091,223.065C314.843,222.971 314.62,222.925 314.416,222.914ZM171.485,457.475C171.441,458.073 171.584,458.697 172.111,459.27C171.645,458.764 171.439,458.111 171.485,457.475ZM172.25,455.884C171.671,456.398 171.522,456.993 171.486,457.459C171.531,456.877 171.788,456.31 172.25,455.884ZM342.84,437.657C343.518,437.863 344.043,437.732 344.404,437.576C343.9,437.781 343.348,437.803 342.84,437.657ZM345.797,436.044C345.895,435.761 346.16,434.924 345.432,433.935C345.896,434.565 346.005,435.347 345.797,436.044Z" style="fill:rgb(33,33,33);"/>
    </g>
</svg>
