<?xml version="1.0" encoding="UTF-8" standalone="no"?>
<!DOCTYPE svg PUBLIC "-//W3C//DTD SVG 1.1//EN" "http://www.w3.org/Graphics/SVG/1.1/DTD/svg11.dtd">
<svg width="100%" height="100%" viewBox="0 0 500 500" version="1.1" xmlns="http://www.w3.org/2000/svg" xmlns:xlink="http://www.w3.org/1999/xlink" xml:space="preserve" xmlns:serif="http://www.serif.com/" style="fill-rule:evenodd;clip-rule:evenodd;stroke-linejoin:round;stroke-miterlimit:2;">
    <g id="stripe_color6">
    </g>
    <g id="stripe_color6_pre">
    </g>
    <g id="stripe_color5">
    </g>
    <g id="stripe_color5_pre">
    </g>
    <g id="stripe_color4">
    </g>
    <g id="stripe_color4_pre">
    </g>
    <g id="stripe_color3">
    </g>
    <g id="stripe_color3_pre">
    </g>
    <g id="stripe_color2">
    </g>
    <g id="stripe_color2_pre">
    </g>
    <g id="stripe_color1">
    </g>
    <g id="stripe_color1_pre">
    </g>
    <g id="stripe">
    </g>
    <g id="stripe_pre">
    </g>
    <g id="solid_color6">
    </g>
    <g id="solid_color6_pre">
    </g>
    <g id="solid_color5">
    </g>
    <g id="solid_color5_pre">
    </g>
    <g id="solid_color4">
    </g>
    <g id="solid_color4_pre">
    </g>
    <g id="solid_color3">
    </g>
    <g id="solid_color3_pre">
    </g>
    <g id="solid_color2">
    </g>
    <g id="solid_color2_pre">
    </g>
    <g id="solid_color1">
    </g>
    <g id="solid_color1_pre">
    </g>
    <g id="solid">
    </g>
    <g id="solid_pre">
    </g>
    <g id="point_color6">
    </g>
    <g id="point_color6_pre">
    </g>
    <g id="point_color5">
    </g>
    <g id="point_color5_pre">
    </g>
    <g id="point_color4">
    </g>
    <g id="point_color4_pre">
    </g>
    <g id="point_color3">
    </g>
    <g id="point_color3_pre">
    </g>
    <g id="point_color2">
    </g>
    <g id="point_color2_pre">
    </g>
    <g id="point_color1">
    </g>
    <g id="point_color1_pre">
    </g>
    <g id="point">
    </g>
    <g id="point_pre">
    </g>
    <g id="spot_color6">
    </g>
    <g id="spot_color6_pre">
    </g>
    <g id="spot_color5">
    </g>
    <g id="spot_color5_pre">
    </g>
    <g id="spot_color4">
    </g>
    <g id="spot_color4_pre">
    </g>
    <g id="spot_color3">
    </g>
    <g id="spot_color3_pre">
    </g>
    <g id="color2">
    </g>
    <g id="color2_pre">
    </g>
    <g id="color1">
    </g>
    <g id="color1_pre">
    </g>
    <g id="spot">
    </g>
    <g id="spot_pre">
    </g>
    <g id="closed">
    </g>
    <g id="open">
    </g>
    <g id="extras6_pre">
    </g>
    <g id="extras5_pre">
    </g>
    <g id="extras4_pre">
    </g>
    <g id="extras3_pre">
    </g>
    <g id="extras2_pre">
    </g>
    <g id="extras1_pre">
    </g>
    <g id="face6">
        <path d="M313.967,348.162C312.956,347.542 312.323,346.846 312.182,346.692C311.461,345.9 311.235,345.295 311.235,344.833C311.236,344.403 311.43,344.088 311.63,343.853C311.695,343.777 311.76,343.709 311.818,343.649C312.18,343.177 312.629,342.916 313.107,342.777C313.784,342.385 313.923,342.436 314.507,342.317C314.65,342.287 315.613,342.022 316.687,342.366C316.696,342.369 316.705,342.373 316.712,342.378C317.466,342.554 318.252,342.947 318.972,343.707C318.988,343.724 318.997,343.746 318.999,343.768C319.17,343.928 319.302,344.098 319.379,344.263C319.485,344.49 319.507,344.666 319.491,344.8C319.516,344.825 319.527,344.861 319.517,344.897C319.477,345.054 319.493,345.193 319.074,345.807C318.966,345.966 318.86,346.111 318.756,346.245C318.753,346.258 318.747,346.271 318.738,346.283C318.643,346.411 318.551,346.531 318.463,346.643C318.165,347.161 317.682,347.628 317.188,347.976C316.887,348.209 316.636,348.333 316.404,348.428C316.371,348.442 316.34,348.456 316.308,348.469C316.185,348.561 316.039,348.641 315.867,348.694C315.813,348.72 315.762,348.738 315.715,348.751C315.705,348.753 315.696,348.756 315.688,348.758C315.276,348.905 314.78,348.797 314.37,348.446C314.14,348.309 314.027,348.221 313.967,348.162Z"/>
        <path d="M301.135,356.043C301.62,356.681 303.186,358.051 306.096,358.486C308.203,358.801 309.453,357.749 310.38,356.543C311.192,355.486 311.8,354.312 312.403,353.458C312.742,352.977 313.323,352.729 313.905,352.815C314.487,352.901 314.97,353.307 315.156,353.866C316.321,357.374 320.074,356.713 320.554,356.641C321.091,356.559 321.673,356.667 322.32,356.261C323.044,355.805 323.784,354.796 324.744,352.695C325.101,351.913 326.027,351.568 326.809,351.925C327.592,352.283 327.937,353.208 327.579,353.991C326.224,356.957 325.002,358.257 323.98,358.9C322.88,359.591 321.934,359.585 321.021,359.723C320.367,359.822 316.153,360.399 313.59,357.389C313.36,357.743 313.116,358.098 312.852,358.442C311.302,360.459 309.158,362.095 305.635,361.569C300.716,360.834 298.583,357.96 298.293,357.364L298.13,356.858L298.16,356.203L298.454,355.616L298.875,355.249C299.614,354.808 300.571,355.05 301.012,355.788C301.062,355.871 301.102,355.956 301.135,356.043Z"/>
        <g transform="matrix(1,0.00079755,-0.00079755,1,-4.07981,2.01792)">
            <g transform="matrix(1.56824,0.433746,-0.369677,1.33659,265.867,-13.2984)">
                <ellipse cx="108.592" cy="217.507" rx="9.992" ry="13.03" style="fill:rgb(197,88,138);"/>
            </g>
            <g transform="matrix(1.15585,0.12577,-0.120278,1.10538,258.958,67.5391)">
                <ellipse cx="108.592" cy="217.507" rx="9.992" ry="13.03"/>
            </g>
            <g transform="matrix(0.338831,-0.00848314,0.00586713,0.234343,273.627,259.709)">
                <path d="M225.728,305.26C226.269,310.098 229.833,313.097 233.16,313.948C229.339,316.461 226.853,321.104 226.437,323.842C225.44,320.177 222.392,316.072 219.242,314.603C221.398,313.415 225.302,311.239 225.728,305.26Z" style="fill:white;"/>
            </g>
            <g transform="matrix(1.84009,0.678217,-0.522655,1.41803,41.1162,-323.42)">
                <ellipse cx="262.175" cy="327.471" rx="3.067" ry="5.334" style="fill:white;"/>
            </g>
            <g transform="matrix(0.474919,0.0128599,-0.00760487,0.280848,336.493,215.452)">
                <path d="M61.259,381.98C63.048,376.716 66.626,376.716 68.415,379.348C70.204,381.98 70.204,387.243 68.415,392.507C67.163,396.455 63.943,400.403 61.259,403.035C58.576,400.403 55.356,396.455 54.103,392.507C52.314,387.243 52.314,381.98 54.103,379.348C55.892,376.716 59.47,376.716 61.259,381.98Z" style="fill:white;"/>
            </g>
        </g>
        <g transform="matrix(1,0.00079755,-0.00079755,1,-81.1747,4.84981)">
            <g transform="matrix(1.56824,0.433746,-0.369677,1.33659,265.867,-13.2984)">
                <ellipse cx="108.592" cy="217.507" rx="9.992" ry="13.03" style="fill:rgb(197,88,138);"/>
            </g>
            <g transform="matrix(1.15585,0.12577,-0.120278,1.10538,258.952,67.4694)">
                <ellipse cx="108.592" cy="217.507" rx="9.992" ry="13.03"/>
            </g>
            <g transform="matrix(0.338831,-0.00848314,0.00586713,0.234343,273.627,259.709)">
                <path d="M225.728,305.26C226.269,310.098 229.833,313.097 233.16,313.948C229.339,316.461 226.853,321.104 226.437,323.842C225.44,320.177 222.392,316.072 219.242,314.603C221.398,313.415 225.302,311.239 225.728,305.26Z" style="fill:white;"/>
            </g>
            <g transform="matrix(1.84009,0.678217,-0.522655,1.41803,41.1162,-323.42)">
                <ellipse cx="262.175" cy="327.471" rx="3.067" ry="5.334" style="fill:white;"/>
            </g>
            <g transform="matrix(0.474919,0.0128599,-0.00760487,0.280848,336.493,215.452)">
                <path d="M61.259,381.98C63.048,376.716 66.626,376.716 68.415,379.348C70.204,381.98 70.204,387.243 68.415,392.507C67.163,396.455 63.943,400.403 61.259,403.035C58.576,400.403 55.356,396.455 54.103,392.507C52.314,387.243 52.314,381.98 54.103,379.348C55.892,376.716 59.47,376.716 61.259,381.98Z" style="fill:white;"/>
            </g>
        </g>
    </g>
</svg>
