<?xml version="1.0" encoding="UTF-8" standalone="no"?>
<!DOCTYPE svg PUBLIC "-//W3C//DTD SVG 1.1//EN" "http://www.w3.org/Graphics/SVG/1.1/DTD/svg11.dtd">
<svg width="100%" height="100%" viewBox="0 0 500 500" version="1.1" xmlns="http://www.w3.org/2000/svg" xmlns:xlink="http://www.w3.org/1999/xlink" xml:space="preserve" xmlns:serif="http://www.serif.com/" style="fill-rule:evenodd;clip-rule:evenodd;stroke-linejoin:round;stroke-miterlimit:2;">
    <g id="Layer2">
        <g transform="matrix(0.956732,-0.290972,0.290972,0.956732,-0.542025,85.6058)">
            <path d="M251.457,338.145C251.223,338.146 250.985,338.107 250.753,338.024C249.682,337.641 249.124,336.461 249.507,335.391C249.933,334.199 251.491,331.699 254.025,329.224C257.718,325.617 263.456,322.045 270.334,322.5C275.175,322.82 280.643,325.118 286.349,331.031C286.713,331.408 287.569,332.214 289.626,336.698C289.875,337.241 290.078,338.09 290.168,338.501C290.289,338.715 290.373,338.955 290.411,339.213C290.488,339.742 290.357,340.253 290.08,340.664L289.949,340.978L289.339,341.704L288.874,341.99L288.363,342.159L287.608,342.193L286.78,341.964C286.32,341.76 285.611,341.274 284.695,340.263C284.544,340.095 284.438,339.979 284.352,339.882C274.288,331.597 268.952,332.349 266.12,332.666C265.297,332.758 264.546,332.853 263.857,332.952C262.771,333.394 262.047,333.459 261.616,333.502C260.896,333.776 260.07,334.055 259.392,334.188L259.21,334.322C258.939,334.524 258.633,334.649 258.319,334.701L257.751,334.988C256.437,335.823 255.314,336.553 254.917,336.816L254.81,336.887C254.669,336.987 254.518,337.067 254.361,337.127C253.928,337.444 253.506,337.723 253.211,337.877L252.32,338.186L251.484,338.154L251.457,338.145Z"/>
        </g>
        <path d="M251.457,338.145C251.223,338.146 250.985,338.107 250.753,338.024C249.682,337.641 249.124,336.461 249.507,335.391C249.933,334.199 251.491,331.699 254.025,329.224C257.718,325.617 263.456,322.045 270.334,322.5C275.175,322.82 280.643,325.118 286.349,331.031C286.713,331.408 287.569,332.214 289.626,336.698C289.875,337.241 290.078,338.09 290.168,338.501C290.289,338.715 290.373,338.955 290.411,339.213C290.488,339.742 290.357,340.253 290.08,340.664L289.949,340.978L289.339,341.704L288.874,341.99L288.363,342.159L287.608,342.193L286.78,341.964C286.32,341.76 285.611,341.274 284.695,340.263C284.544,340.095 284.438,339.979 284.352,339.882C274.288,331.597 268.952,332.349 266.12,332.666C265.297,332.758 264.546,332.853 263.857,332.952C262.771,333.394 262.047,333.459 261.616,333.502C260.896,333.776 260.07,334.055 259.392,334.188L259.21,334.322C258.939,334.524 258.633,334.649 258.319,334.701L257.751,334.988C256.437,335.823 255.314,336.553 254.917,336.816L254.81,336.887C254.669,336.987 254.518,337.067 254.361,337.127C253.928,337.444 253.506,337.723 253.211,337.877L252.32,338.186L251.484,338.154L251.457,338.145Z"/>
        <path d="M313.967,348.162C312.956,347.542 312.323,346.846 312.182,346.692C311.461,345.9 311.235,345.295 311.235,344.833C311.236,344.403 311.43,344.088 311.63,343.853C311.695,343.777 311.76,343.709 311.818,343.649C312.18,343.177 312.629,342.916 313.107,342.777C313.784,342.385 313.923,342.436 314.507,342.317C314.65,342.287 315.613,342.022 316.687,342.366C316.696,342.369 316.705,342.373 316.712,342.378C317.466,342.554 318.252,342.947 318.972,343.707C318.988,343.724 318.997,343.746 318.999,343.768C319.17,343.928 319.302,344.098 319.379,344.263C319.485,344.49 319.507,344.666 319.491,344.8C319.516,344.825 319.527,344.861 319.517,344.897C319.477,345.054 319.493,345.193 319.074,345.807C318.966,345.966 318.86,346.111 318.756,346.245C318.753,346.258 318.747,346.271 318.738,346.283C318.643,346.411 318.551,346.531 318.463,346.643C318.165,347.161 317.682,347.628 317.188,347.976C316.887,348.209 316.636,348.333 316.404,348.428C316.371,348.442 316.34,348.456 316.308,348.469C316.185,348.561 316.039,348.641 315.867,348.694C315.813,348.72 315.762,348.738 315.715,348.751C315.705,348.753 315.696,348.756 315.688,348.758C315.276,348.905 314.78,348.797 314.37,348.446C314.14,348.309 314.027,348.221 313.967,348.162Z"/>
        <path d="M301.135,356.043C301.62,356.681 303.186,358.051 306.096,358.486C308.203,358.801 309.453,357.749 310.38,356.543C311.192,355.486 311.8,354.312 312.403,353.458C312.742,352.977 313.323,352.729 313.905,352.815C314.487,352.901 314.97,353.307 315.156,353.866C316.321,357.374 320.074,356.713 320.554,356.641C321.091,356.559 321.673,356.667 322.32,356.261C323.044,355.805 323.784,354.796 324.744,352.695C325.101,351.913 326.027,351.568 326.809,351.925C327.592,352.283 327.937,353.208 327.579,353.991C326.224,356.957 325.002,358.257 323.98,358.9C322.88,359.591 321.934,359.585 321.021,359.723C320.367,359.822 316.153,360.399 313.59,357.389C313.36,357.743 313.116,358.098 312.852,358.442C311.302,360.459 309.158,362.095 305.635,361.569C300.716,360.834 298.583,357.96 298.293,357.364L298.13,356.858L298.16,356.203L298.454,355.616L298.875,355.249C299.614,354.808 300.571,355.05 301.012,355.788C301.062,355.871 301.102,355.956 301.135,356.043Z"/>
    </g>
</svg>
