<?xml version="1.0" encoding="UTF-8" standalone="no"?>
<!DOCTYPE svg PUBLIC "-//W3C//DTD SVG 1.1//EN" "http://www.w3.org/Graphics/SVG/1.1/DTD/svg11.dtd">
<svg width="100%" height="100%" viewBox="0 0 500 500" version="1.1" xmlns="http://www.w3.org/2000/svg" xmlns:xlink="http://www.w3.org/1999/xlink" xml:space="preserve" xmlns:serif="http://www.serif.com/" style="fill-rule:evenodd;clip-rule:evenodd;stroke-linejoin:round;stroke-miterlimit:2;">
    <g id="Layer1">
        <path d="M273.349,485.123C273.296,485.147 273.243,485.17 273.189,485.191C272.878,485.312 272.538,485.369 272.184,485.349C271.645,485.317 267.217,485.046 264.846,485.08C264.01,488.136 261.805,491.538 256.358,492.965C256,493.059 255.64,493.067 255.3,493.001C255.256,493.004 255.212,493.006 255.168,493.007C239.029,493.303 239.104,491.964 226.31,492.199C224.023,492.241 211.613,492.468 197.813,489.839C197.093,489.702 196.292,489.301 195.556,488.747C194.95,488.29 194.059,487.465 193.951,487.364C193.82,487.279 193.701,487.183 193.592,487.078C182.961,489.649 176.77,489.847 169.531,489.669C165.032,489.557 165.013,489.917 160.595,488.944C160.501,488.923 160.41,488.897 160.321,488.866C136.049,485.098 121.246,470.127 118.359,467.116L117.995,466.736C117.868,466.623 117.753,466.496 117.653,466.359C107.574,454.347 107.111,434.724 107.253,433.013C108.401,419.178 107.491,418.912 113.089,406.209C113.182,405.997 113.303,405.806 113.444,405.637C114.033,404.337 115.445,402.083 122.743,387.268C125.738,381.189 128.636,381.003 138.63,353.279C140.434,348.272 140.056,341.865 139.563,337.069C139.338,334.882 139.098,332.986 138.964,331.604C137.91,332.174 136.699,332.967 135.29,334.013C127.275,339.961 114.519,342.049 105.591,339.221C99.353,337.245 94.909,333.005 94.472,326.345C94.348,326.123 94.259,325.877 94.211,325.614C93.852,323.652 94.218,320.354 95.457,316.612C97.188,311.39 100.569,305.22 105.46,300.802C113.672,293.384 123.877,284.436 138.53,283.451C138.82,283.431 139.101,283.464 139.365,283.542C145.33,283.403 157.924,282.929 167.832,291.114C176.906,298.61 183.985,317.124 182.284,334.088L182.23,334.6L182.211,334.68L182.137,335.375C182.099,335.741 182.051,336.204 182.006,336.655C181.469,342 179.87,355.092 173.057,366.275C164.632,380.105 165.031,381.083 161,386.61C152.724,397.959 151.769,398.032 147.273,406.862C147.249,407.162 147.167,407.461 147.024,407.746C146.408,408.965 136.798,429.582 150.625,445.583C157.852,453.948 168.181,455.203 172.117,455.307C170.674,450.658 170.15,444.719 170.807,438.077C172.825,417.672 185.872,390.427 215.855,375.187C221.041,372.55 221.86,372.175 225.67,370.492C223.876,369.212 222.318,367.941 220.847,366.667C217.26,366.437 215.103,366.43 202.399,362.056C201.409,361.715 200.786,360.789 200.783,359.797C200.758,359.691 200.74,359.582 200.73,359.471C200.357,355.509 200.192,355.571 200.226,351.542C200.237,350.251 201.054,346.284 201.577,343.735C199.555,342.478 196.521,340.569 196.029,340.226C192.66,337.869 188.76,332.757 187.023,330.353L186.905,330.332C185.61,330.067 184.774,328.8 185.039,327.505C185.101,327.205 185.355,326.555 185.84,325.761C187.031,323.81 189.8,320.102 189.964,319.927C192.84,316.867 193.125,316.412 195.561,314.298C195.521,314.161 195.494,314.019 195.479,313.874C194.283,311.016 187.521,301.274 184.859,284.462C181.699,264.506 177.85,245.06 188.016,203.328C190.474,193.236 196.316,182.713 197.784,180.133C197.988,179.485 198.465,178.927 199.14,178.643L199.857,178.44L200.698,178.403C201.336,178.439 202.268,178.657 203.381,179.062C208.266,180.836 217.952,186.435 219.066,187.081C238.793,198.523 258.609,221.235 263.711,228.472C265.843,227.113 271.808,224.143 285.578,221.952C287.814,221.596 297.503,220.036 313.367,222.76C314.134,221.919 315.509,220.632 317.809,219.119C324.139,214.956 352.846,193.647 374.407,190.645C374.955,190.568 375.486,190.684 375.931,190.941C376.462,191.049 376.96,191.338 377.324,191.795C379.014,193.92 386.278,208.877 388.004,216.041C392.494,234.679 392.277,263.757 390.171,282.604C389.529,288.35 388.686,293.172 387.764,296.533C387.897,296.803 387.982,297.103 388.005,297.421C388.074,298.366 388.164,298.382 388.97,308.527C391.146,309.792 396.133,313.08 398.579,316.84C398.629,316.917 398.674,316.994 398.713,317.074C399.414,317.684 399.725,318.675 399.423,319.615C398.213,323.38 395.663,328.011 394.155,330.591C397.663,334.247 399.343,337.571 399.708,338.29C399.739,338.352 399.768,338.415 399.793,338.478C400.655,339.306 400.782,340.668 400.044,341.646C397.677,344.783 397.545,344.625 394.339,346.962C389.606,350.41 388.307,351.02 386.634,351.532C385.408,353.234 379.223,362.86 368.232,371.42C363.384,375.196 349.144,381.999 336.155,385.545C336.266,385.841 336.401,386.195 336.566,386.619C343.081,403.373 344.455,422.445 344.78,433.365L345.054,433.528C345.092,433.56 345.257,433.709 345.512,433.982C347.257,435.85 356.317,446.604 353.638,459.462C351.554,469.464 350.286,470.86 343.859,477.716C343.546,478.05 343.159,478.274 342.747,478.387C342.662,478.643 342.574,478.888 342.483,479.121C341.978,480.42 341.262,482.672 339.285,484.921C337.316,487.161 334.09,489.447 328.422,490.655C318.58,492.753 312.685,488.093 310.671,486.177C307.116,491.886 301.318,496.104 291.688,495C283.156,494.022 276.877,488.468 274.442,486.161C273.996,485.738 273.679,485.425 273.501,485.268C273.447,485.221 273.397,485.173 273.349,485.123ZM345.797,436.044C345.895,435.761 346.16,434.924 345.432,433.935C345.896,434.565 346.005,435.347 345.797,436.044ZM387.096,312.508C388.387,312.406 388.894,311.578 389.126,310.909C388.81,311.82 387.997,312.419 387.096,312.508ZM314.416,222.914C314.642,222.931 314.869,222.98 315.091,223.065C314.843,222.971 314.62,222.925 314.416,222.914ZM171.485,457.475C171.441,458.073 171.584,458.697 172.111,459.27C171.645,458.764 171.439,458.111 171.485,457.475ZM342.84,437.657C343.518,437.863 344.043,437.732 344.404,437.576C343.9,437.781 343.348,437.803 342.84,437.657ZM215.577,297.761C215.187,297.903 214.836,298.169 214.53,298.576C214.802,298.214 215.158,297.95 215.55,297.793C215.728,297.722 215.913,297.672 216.101,297.645C215.92,297.662 215.745,297.7 215.577,297.761ZM172.25,455.884C171.671,456.398 171.522,456.993 171.486,457.459C171.531,456.877 171.788,456.31 172.25,455.884ZM344.924,437.284C345.233,437.062 345.478,436.776 345.651,436.416C345.487,436.749 345.243,437.049 344.924,437.284Z" style="fill:rgb(228,228,228);"/>
        <path d="M218.9,216.914C222.434,219.552 228.476,224.279 241.024,234.492C241.709,235.049 241.521,235.252 249.267,241.821C250.88,243.189 251.926,244.246 252.577,245.08C252.737,245.284 252.877,245.502 252.983,245.681L252.905,245.756C247.768,250.971 236.954,260.395 228.01,274.75C220.707,286.472 217.94,292.175 216.65,295.154C213.575,287.593 207.839,270.832 207.298,267.166C206.837,264.039 202.735,240.676 202.856,223.831C202.886,219.671 203.169,215.924 203.862,213.03C204.247,211.42 204.727,210.104 205.437,209.233C205.666,208.953 206.034,209.095 206.424,209.177C207.142,209.33 207.92,209.667 208.723,210.088C212.514,212.077 216.648,215.828 218.116,216.643C218.367,216.782 218.632,216.871 218.9,216.914ZM370.905,212.086C371.516,211.797 372.028,211.623 372.436,211.51L372.509,211.466L372.518,211.487C372.749,212.029 373.134,213.05 373.33,214.225C378.362,244.445 377.47,244.548 377.738,248.215C377.874,250.083 378.473,262.975 377.943,272.905C374.017,265.556 365.605,253.162 348.571,241.265C352.449,233.672 353.518,233.674 357.358,227.266C363.59,216.862 368.213,213.359 370.905,212.086Z" style="fill:rgb(177,177,177);"/>
        <path d="M149.551,329.591C149.502,329.523 149.452,329.456 149.402,329.389C148.19,327.794 146.668,326.38 144.479,325.87C141.949,325.279 138.185,325.9 132.435,330.166C125.579,335.254 114.674,337.073 107.037,334.654C102.553,333.233 99.24,330.25 99.227,325.283C99.226,324.809 99.087,324.368 98.849,323.996C98.806,322.531 99.233,320.45 100.005,318.119C101.509,313.579 104.42,308.198 108.672,304.357C116.01,297.729 124.97,289.549 137.864,288.311C138.017,288.34 138.174,288.354 138.336,288.352C143.146,288.299 155.36,287.024 164.781,294.808C171.668,300.497 177.103,313.286 177.709,326.317C177.74,326.998 177.759,327.679 177.764,328.36C174.276,327.894 167.093,327.425 157.346,329.682C154.762,330.281 152.587,330.86 150.797,331.384C150.386,330.868 150.005,330.218 149.551,329.591ZM169.864,362.239C169.576,362.757 169.277,363.272 168.966,363.783C161.398,376.207 161.086,378.091 158.066,382.469C157.781,382.882 157.471,383.318 157.129,383.788C157.037,383.914 156.946,384.039 156.856,384.162C153.607,383.113 148.317,381.832 145.341,381.813C138.058,381.766 132.721,383.228 130.248,384.053C130.727,383.301 131.242,382.466 131.81,381.476C133.966,377.719 136.879,371.741 141.381,359.689C141.662,358.939 141.948,358.165 142.241,357.366C154.042,354.434 165.38,358.403 170.806,360.454C170.507,361.052 170.193,361.648 169.864,362.239ZM145.138,400.663C144.339,402.09 143.459,403.771 142.385,405.914C142.215,406.254 142.133,406.614 142.131,406.97C141.02,409.659 138.844,415.833 138.521,423.319C138.493,423.985 138.478,424.661 138.481,425.346C135.605,425 129.488,424.414 123.683,424.921C119.087,425.322 114.665,426.356 112.413,428.915C112.397,428.933 112.38,428.951 112.363,428.968C112.435,427.927 112.497,426.987 112.558,426.122C113.008,419.766 113.399,417.446 117.219,408.72C117.428,408.486 117.595,408.207 117.701,407.89C118.069,406.799 118.362,406.558 121.33,400.78C121.743,399.975 122.208,399.063 122.733,398.027C128.747,395.743 132.16,396.196 146.214,398.813C145.865,399.389 145.51,399.998 145.138,400.663ZM140.477,437.477C141.8,441.287 143.879,445.104 147,448.716C147.538,449.338 148.09,449.927 148.655,450.484C149.16,450.982 149.674,451.455 150.196,451.904C148.7,452.89 145.939,454.714 141.159,457.879C133.349,463.048 131.016,466.751 128.638,469.928C128.084,469.495 127.561,469.073 127.069,468.664C124.385,466.44 122.615,464.632 121.817,463.8C121.66,463.636 121.525,463.499 121.414,463.389L121.383,463.351C117.353,458.583 115.032,452.457 113.708,446.981C113.515,446.182 113.343,445.397 113.19,444.633C114.816,443.106 117.653,441.171 124.772,438.992C134.732,435.943 137.532,435.405 139.837,435.43C140.028,436.112 140.24,436.794 140.477,437.477ZM160.892,457.985C166.87,460.072 172.076,460.16 173.585,460.085L174.142,460.004C174.831,461.059 176.235,461.405 177.341,460.768C178.487,460.109 178.882,458.643 178.222,457.497C174.888,451.705 174.271,441.482 177.033,430.038C181.309,412.315 193.835,391.754 218.026,379.457C224.126,376.357 224.071,376.443 230.286,373.689C230.359,373.656 230.429,373.621 230.497,373.583C231.4,374.101 232.359,374.622 233.383,375.147C234.628,375.784 235.971,376.427 237.427,377.076C242.039,384.248 246.949,399.657 237.796,428.33C229.32,454.881 215.776,471.442 199.6,485.299C199.331,485.25 199.062,485.2 198.792,485.149C198.696,485.08 198.089,484.643 197.81,484.392C197.768,484.354 197.727,484.316 197.686,484.28C197.592,484.196 197.5,484.114 197.412,484.037C197.4,483.91 197.379,483.783 197.346,483.656C197.018,482.376 195.711,481.603 194.431,481.931C183.13,484.829 176.951,485.06 169.649,484.879C165.956,484.788 165.624,485.08 162.561,484.463C162.346,484.36 162.113,484.288 161.865,484.253C157.12,483.575 152.754,482.437 148.787,481.031C148.089,480.783 147.402,480.527 146.728,480.264C146.621,478.255 146.859,475.316 149.036,469.843C151.324,464.091 155.662,459.481 158.674,457.128C159.421,457.446 160.162,457.731 160.892,457.985ZM200.7,314.293C200.245,314.452 199.868,314.637 199.591,314.892C199.181,315.268 198.542,315.241 198.166,314.83C197.789,314.42 197.817,313.782 198.227,313.405C198.656,313.012 199.258,312.713 199.999,312.446C199.838,311.939 199.589,311.333 199.224,310.644C197.252,306.917 191.852,297.991 189.591,283.713C186.504,264.22 182.74,245.225 192.671,204.462C194.758,195.892 199.44,187.001 201.392,183.49C202.021,183.698 202.856,183.993 203.577,184.312C208.506,186.491 215.728,190.683 216.662,191.226C236.879,202.951 257.225,226.942 260.428,232.18C260.624,232.501 260.884,232.759 261.181,232.948C261.508,233.355 261.97,233.658 262.518,233.782L263.154,233.868L263.842,233.827L264.585,233.615L265.353,233.2C265.406,233.165 265.46,233.128 265.518,233.087C266.078,249.76 268.884,264.253 268.622,274.355C268.429,281.746 266.553,286.868 261.457,289.102C260.726,289.422 257.793,290.703 254.143,289.381C251.807,288.535 249.137,286.605 246.61,282.518C246.044,281.603 245.401,279.656 244.799,277.176C243.839,273.23 242.928,267.887 242.385,263.42C242.99,262.724 243.591,262.047 244.185,261.391C249.093,255.971 253.555,251.923 256.318,249.118C256.397,249.037 256.47,248.952 256.536,248.863C256.722,248.74 256.894,248.588 257.045,248.409L257.629,247.522L257.951,246.385C258.029,245.702 257.969,244.734 257.223,243.415C256.568,242.257 255.192,240.564 252.366,238.167C244.552,231.54 244.739,231.339 244.048,230.777C219.977,211.185 219.662,211.626 215.315,208.49C215.065,208.31 214.791,208.184 214.509,208.112C212.629,206.789 210.593,205.524 208.775,204.879C205.854,203.844 203.341,204.224 201.725,206.206C200.646,207.528 199.788,209.471 199.203,211.915C198.44,215.1 198.098,219.22 198.065,223.796C197.942,240.926 202.09,264.685 202.559,267.865C203.236,272.455 211.644,296.573 213.865,300.626C214.059,300.981 214.236,301.242 214.373,301.413L214.849,301.889L215.001,301.982C215.327,301.392 215.646,300.763 215.956,300.095C216.191,299.59 216.791,299.37 217.296,299.605C217.801,299.839 218.021,300.439 217.786,300.944C217.568,301.414 217.346,301.866 217.12,302.301C212.701,310.807 206.957,312.606 202.992,313.666C202.114,313.901 201.332,314.072 200.7,314.293ZM274.877,229.035C277.71,228.267 281.424,227.464 286.331,226.683C288.185,226.388 295.467,225.244 307.362,226.714C308.101,226.805 308.857,226.906 309.631,227.019C314.362,240.043 315.107,258.249 316.402,267.057C317.432,274.061 316.859,283.355 314.336,290.499C312.583,295.462 309.863,299.382 306.189,300.98C302.654,302.517 299.796,302.552 297.436,301.467C295.114,300.399 293.24,298.203 291.704,295.07C287.434,286.36 285.648,270.111 281.784,252.726C279.068,240.502 276.697,236.491 275.022,233.718C274.606,233.029 274.233,232.411 273.905,231.77C273.566,231.641 273.308,231.334 273.261,230.949L273.123,229.829C273.11,229.729 273.113,229.631 273.129,229.537C273.671,229.372 274.253,229.204 274.877,229.035ZM317.177,225.665C317.758,225.074 318.737,224.243 320.442,223.122C326.466,219.159 353.36,198.939 374.085,195.539C376.239,199.071 381.892,211.129 383.346,217.163C387.724,235.337 387.464,263.694 385.41,282.071C384.904,286.597 384.309,290.5 383.64,293.448C383.308,294.909 382.958,296.135 382.592,297.087C380.249,288.733 378.648,284.967 377.738,283.211C377.495,283.105 377.294,282.905 377.194,282.637L376.809,281.601C376.78,281.523 376.761,281.443 376.752,281.363C377.164,281.797 377.726,282.06 378.319,282.103C378.596,282.288 378.916,282.418 379.266,282.475C379.395,282.496 379.523,282.506 379.649,282.506C380.804,282.507 381.823,281.67 382.014,280.494C383.594,270.75 382.693,250.297 382.516,247.866C382.244,244.152 383.153,244.047 378.055,213.438C377.163,208.079 374.978,206.785 373.557,206.512L372.436,206.456L371.11,206.783C370.932,206.854 370.739,206.95 370.554,207.05C367.542,207.986 361.424,211.156 353.248,224.804C349.177,231.599 348.171,231.348 343.825,240.034C343.624,240.436 343.415,240.857 343.199,241.299C343.018,241.67 342.941,242.065 342.958,242.45C343.087,243.028 343.43,243.56 343.961,243.916C344.371,244.19 344.776,244.465 345.175,244.741C346.58,245.708 347.924,246.678 349.21,247.65C349.935,248.197 350.642,248.745 351.331,249.292C351.669,254.004 352.486,262.31 351.435,269.253C350.531,275.23 348.187,280.172 343.375,281.51C340.752,282.238 338.372,280.857 336.397,278.328C332.361,273.159 329.943,263.149 329.641,261.886C326.312,247.96 318.937,232.536 315.865,227.377C315.836,227.329 315.807,227.281 315.778,227.233L316.261,226.823C316.374,226.691 316.524,226.33 317.177,225.665ZM340.27,461.557C339.999,467.737 339.367,473.916 338.018,477.385C337.787,477.98 337.519,478.855 337.007,479.83C337.07,478.589 337.066,476.957 337.028,476.509L336.927,475.947L336.614,475.277L336.182,474.792L335.582,474.416L334.969,474.24L334.281,474.24L333.669,474.413L333.219,474.669L332.615,475.302L332.318,475.946C332.291,476.038 332.202,476.458 332.173,477.348C332.164,477.61 332.198,477.863 332.268,478.102C332.269,478.873 332.255,479.798 332.187,480.153C331.654,482.921 331.414,482.823 330.155,485.219C329.336,485.502 328.429,485.755 327.423,485.97L327.272,486.001C328.102,484.221 328.925,481.505 328.699,477.816C328.642,476.884 328.542,476.334 328.457,475.935C328.418,475.755 328.347,475.683 328.373,475.474C328.538,474.163 327.606,472.964 326.295,472.799C324.983,472.635 323.784,473.566 323.62,474.878C323.529,475.601 323.577,476.021 323.675,476.498C323.738,476.806 323.859,477.169 323.917,478.11C324.223,483.105 321.888,485.68 321.707,486.031C321.671,486.101 321.639,486.172 321.61,486.244C316.796,485.598 314.093,482.847 313.499,482.232C313.319,482.045 313.116,481.894 312.898,481.779C315.481,475.459 316.022,468.578 316.496,466.02C316.585,465.54 316.669,465.061 316.748,464.585C316.899,463.68 317.032,462.782 317.149,461.892C318.255,461.306 319.599,460.823 321.093,460.438C326.319,459.09 333.417,458.913 337.85,459.248C338.813,459.321 339.658,459.424 340.346,459.543C340.324,460.212 340.299,460.885 340.27,461.557ZM312.678,458.898C312.47,460.935 312.179,463.023 311.785,465.147C311.316,467.679 310.854,474.77 308.043,480.94C307.59,481.935 307.071,482.905 306.474,483.82C306.578,482.844 306.651,481.799 306.666,480.731C306.707,477.717 306.262,474.542 304.914,472.045C304.286,470.882 302.831,470.447 301.668,471.075C300.505,471.704 300.07,473.158 300.698,474.321C301.68,476.14 301.906,478.47 301.875,480.665C301.825,484.312 300.989,487.648 300.819,488.332C300.76,488.568 300.738,488.804 300.75,489.035C299.253,489.755 297.532,490.22 295.551,490.342C297.172,486.87 297.17,486.026 296.752,480.871C296.58,478.753 296.365,477.624 296.188,477.049L295.898,476.334L295.474,475.73L294.681,475.142L293.852,474.91L293.193,474.932L292.632,475.094L292.145,475.365L291.709,475.753C290.886,476.667 290.897,478.043 291.693,478.943C291.775,479.446 291.898,480.289 291.977,481.259C292.351,485.869 292.286,486.108 290.43,489.947C282.728,488.324 277.586,482.48 276.662,481.668C276.558,481.578 276.449,481.497 276.336,481.428C274.061,478.349 273.107,475.275 273.263,465.186C273.275,464.386 273.294,463.542 273.32,462.65C273.326,462.446 273.332,462.246 273.338,462.049C277.284,457.846 282.712,455.615 288.399,454.65C297.818,453.053 307.925,454.939 312.85,456.788C312.855,456.79 312.86,456.792 312.865,456.793C312.812,457.489 312.75,458.19 312.678,458.898Z" style="fill:rgb(195,195,195);"/>
        <path d="M273.349,485.123C273.296,485.147 273.243,485.17 273.189,485.191C272.878,485.312 272.538,485.369 272.184,485.349C271.645,485.317 267.217,485.046 264.846,485.08C264.01,488.136 261.805,491.538 256.358,492.965C256,493.059 255.64,493.067 255.3,493.001C255.256,493.004 255.212,493.006 255.168,493.007C239.029,493.303 239.104,491.964 226.31,492.199C224.023,492.241 211.613,492.468 197.813,489.839C197.093,489.702 196.292,489.301 195.556,488.747C194.95,488.29 194.059,487.465 193.951,487.364C193.82,487.279 193.701,487.183 193.592,487.078C182.961,489.649 176.77,489.847 169.531,489.669C165.032,489.557 165.013,489.917 160.595,488.944C160.501,488.923 160.41,488.897 160.321,488.866C136.049,485.098 121.246,470.127 118.359,467.116L117.995,466.736C117.868,466.623 117.753,466.496 117.653,466.359C107.574,454.347 107.111,434.724 107.253,433.013C108.401,419.178 107.491,418.912 113.089,406.209C113.182,405.997 113.303,405.806 113.444,405.637C114.033,404.337 115.445,402.083 122.743,387.268C125.738,381.189 128.636,381.003 138.63,353.279C140.434,348.272 140.056,341.865 139.563,337.069C139.338,334.882 139.098,332.986 138.964,331.604C137.91,332.174 136.699,332.967 135.29,334.013C127.275,339.961 114.519,342.049 105.591,339.221C99.353,337.245 94.909,333.005 94.472,326.345C94.348,326.123 94.259,325.877 94.211,325.614C93.852,323.652 94.218,320.354 95.457,316.612C97.188,311.39 100.569,305.22 105.46,300.802C113.672,293.384 123.877,284.436 138.53,283.451C138.82,283.431 139.101,283.464 139.365,283.542C145.33,283.403 157.924,282.929 167.832,291.114C176.906,298.61 183.985,317.124 182.284,334.088L182.23,334.6L182.211,334.68L182.137,335.375C182.099,335.741 182.051,336.204 182.006,336.655C181.469,342 179.87,355.092 173.057,366.275C164.632,380.105 165.031,381.083 161,386.61C152.724,397.959 151.769,398.032 147.273,406.862C147.249,407.162 147.167,407.461 147.024,407.746C146.408,408.965 136.798,429.582 150.625,445.583C157.852,453.948 168.181,455.203 172.117,455.307C170.674,450.658 170.15,444.719 170.807,438.077C172.825,417.672 185.872,390.427 215.855,375.187C221.041,372.55 221.86,372.175 225.67,370.492C223.876,369.212 222.318,367.941 220.847,366.667C217.26,366.437 215.103,366.43 202.399,362.056C201.409,361.715 200.786,360.789 200.783,359.797C200.758,359.691 200.74,359.582 200.73,359.471C200.357,355.509 200.192,355.571 200.226,351.542C200.237,350.251 201.054,346.284 201.577,343.735C199.555,342.478 196.521,340.569 196.029,340.226C192.66,337.869 188.76,332.757 187.023,330.353L186.905,330.332C185.61,330.067 184.774,328.8 185.039,327.505C185.101,327.205 185.355,326.555 185.84,325.761C187.031,323.81 189.8,320.102 189.964,319.927C192.84,316.867 193.125,316.412 195.561,314.298C195.521,314.161 195.494,314.019 195.479,313.874C194.283,311.016 187.521,301.274 184.859,284.462C181.699,264.506 177.85,245.06 188.016,203.328C190.474,193.236 196.316,182.713 197.784,180.133C197.988,179.485 198.465,178.927 199.14,178.643L199.857,178.44L200.698,178.403C201.336,178.439 202.268,178.657 203.381,179.062C208.266,180.836 217.952,186.435 219.066,187.081C238.793,198.523 258.609,221.235 263.711,228.472C265.843,227.113 271.808,224.143 285.578,221.952C287.814,221.596 297.503,220.036 313.367,222.76C314.134,221.919 315.509,220.632 317.809,219.119C324.139,214.956 352.846,193.647 374.407,190.645C374.955,190.568 375.486,190.684 375.931,190.941C376.462,191.049 376.96,191.338 377.324,191.795C379.014,193.92 386.278,208.877 388.004,216.041C392.494,234.679 392.277,263.757 390.171,282.604C389.529,288.35 388.686,293.172 387.764,296.533C387.897,296.803 387.982,297.103 388.005,297.421C388.074,298.366 388.164,298.382 388.97,308.527C391.146,309.792 396.133,313.08 398.579,316.84C398.629,316.917 398.674,316.994 398.713,317.074C399.414,317.684 399.725,318.675 399.423,319.615C398.213,323.38 395.663,328.011 394.155,330.591C397.663,334.247 399.343,337.571 399.708,338.29C399.739,338.352 399.768,338.415 399.793,338.478C400.655,339.306 400.782,340.668 400.044,341.646C397.677,344.783 397.545,344.625 394.339,346.962C389.606,350.41 388.307,351.02 386.634,351.532C385.408,353.234 379.223,362.86 368.232,371.42C363.384,375.196 349.144,381.999 336.155,385.545C336.266,385.841 336.401,386.195 336.566,386.619C343.081,403.373 344.455,422.445 344.78,433.365L345.054,433.528C345.092,433.56 345.257,433.709 345.512,433.982C347.257,435.85 356.317,446.604 353.638,459.462C351.554,469.464 350.286,470.86 343.859,477.716C343.546,478.05 343.159,478.274 342.747,478.387C342.662,478.643 342.574,478.888 342.483,479.121C341.978,480.42 341.262,482.672 339.285,484.921C337.316,487.161 334.09,489.447 328.422,490.655C318.58,492.753 312.685,488.093 310.671,486.177C307.116,491.886 301.318,496.104 291.688,495C283.156,494.022 276.877,488.468 274.442,486.161C273.996,485.738 273.679,485.425 273.501,485.268C273.447,485.221 273.397,485.173 273.349,485.123ZM387.096,312.508C388.387,312.406 388.894,311.578 389.126,310.909C388.81,311.82 387.997,312.419 387.096,312.508ZM344.904,440.987C344.91,441.353 344.917,441.648 344.928,441.867C344.934,441.977 344.931,442.086 344.922,442.194L345.022,442.508C345.029,442.571 345.052,442.898 345.074,443.448C345.203,446.763 345.481,459.944 344.351,470.004C346.731,467.04 347.672,464.612 348.948,458.485C350.45,451.278 347.468,444.885 344.904,440.987ZM137.864,288.311C124.97,289.549 116.01,297.729 108.672,304.357C104.42,308.198 101.509,313.579 100.005,318.119C99.233,320.45 98.806,322.531 98.849,323.996C99.087,324.368 99.226,324.809 99.227,325.283C99.24,330.25 102.553,333.233 107.037,334.654C114.674,337.073 125.579,335.254 132.435,330.166C138.185,325.9 141.949,325.279 144.479,325.87C146.668,326.38 148.19,327.794 149.402,329.389C150.145,330.368 150.68,331.45 151.408,332.006C152.459,332.809 152.66,334.313 151.857,335.364C151.055,336.414 149.55,336.616 148.5,335.813C147.641,335.157 146.869,334.082 146.051,332.925C145.42,332.033 144.784,330.985 143.635,330.604C143.691,331.742 144.054,333.908 144.329,336.579C144.886,342.004 145.177,349.241 143.136,354.903C133,383.023 130.078,383.219 127.041,389.385C118.604,406.51 118.231,406.319 117.701,407.89C117.595,408.207 117.428,408.486 117.219,408.72C112.228,420.122 113.091,420.587 112.027,433.409C111.9,434.945 112.296,452.602 121.383,463.351L121.414,463.389C121.525,463.499 121.66,463.636 121.817,463.8C124.549,466.649 138.689,480.942 161.865,484.253C162.113,484.288 162.346,484.36 162.561,484.463C165.624,485.08 165.956,484.788 169.649,484.879C176.951,485.06 183.13,484.829 194.431,481.931C195.711,481.603 197.018,482.376 197.346,483.656C197.379,483.783 197.4,483.91 197.412,484.037C197.539,484.148 197.673,484.268 197.81,484.392C198.089,484.643 198.696,485.08 198.792,485.149C212.083,487.67 224.018,487.449 226.222,487.409C239.016,487.174 238.942,488.513 255.08,488.217C255.211,488.215 255.34,488.223 255.466,488.241C261.337,486.495 260.58,480.817 260.516,480.591C259.95,478.595 259.45,477.983 258.249,477.126C257.114,476.316 255.56,475.336 253.289,473.488L253.232,473.44C249.123,477.194 245.438,478.669 245.328,478.75C244.259,479.528 242.76,479.294 241.981,478.225C241.202,477.157 241.437,475.657 242.505,474.879C242.69,474.744 254.331,470.389 258.345,456.217C263.174,439.166 249.705,423.656 247.816,421.447C246.957,420.443 247.074,418.93 248.079,418.07C249.084,417.211 250.597,417.329 251.456,418.333C253.58,420.816 268.384,438.354 262.955,457.523C261.469,462.769 259.081,466.842 256.536,469.952C258.575,471.593 259.991,472.483 261.032,473.226C263.153,474.739 264.126,475.76 265.125,479.285C265.144,479.353 265.215,479.72 265.264,480.295C266.759,480.299 268.712,480.376 270.215,480.447C268.846,477.125 268.245,472.299 268.532,462.51C268.818,452.765 268.559,452.792 269.143,443.025C269.222,441.705 270.358,440.698 271.677,440.777C272.997,440.856 274.004,441.991 273.925,443.311C273.345,453.005 273.604,452.978 273.32,462.65C272.964,474.788 273.881,478.105 276.336,481.428C276.449,481.497 276.558,481.578 276.662,481.668C277.586,482.48 282.728,488.324 290.43,489.947C292.286,486.108 292.351,485.869 291.977,481.259C291.898,480.289 291.775,479.446 291.693,478.943C290.897,478.043 290.886,476.667 291.709,475.753L292.145,475.365L292.632,475.094L293.193,474.932L293.852,474.91L294.681,475.142L295.474,475.73L295.898,476.334L296.188,477.049C296.365,477.624 296.58,478.753 296.752,480.871C297.17,486.026 297.172,486.87 295.551,490.342C297.532,490.22 299.253,489.755 300.75,489.035C300.738,488.804 300.76,488.568 300.819,488.332C300.989,487.648 301.825,484.312 301.875,480.665C301.906,478.47 301.68,476.14 300.698,474.321C300.07,473.158 300.505,471.704 301.668,471.075C302.831,470.447 304.286,470.882 304.914,472.045C306.262,474.542 306.707,477.717 306.666,480.731C306.651,481.799 306.578,482.844 306.474,483.82C307.071,482.905 307.59,481.935 308.043,480.94C310.854,474.77 311.316,467.679 311.785,465.147C314.368,451.217 312.522,438.885 311.793,431.885C311.545,429.506 311.437,427.669 311.579,426.491C311.636,426.016 311.732,425.61 311.852,425.274L312.305,424.382C313.059,423.296 314.553,423.027 315.639,423.782C316.66,424.491 316.959,425.855 316.363,426.918C316.361,427.178 316.353,429.424 316.558,431.388C317.317,438.677 319.184,451.516 316.496,466.02C316.022,468.578 315.481,475.459 312.898,481.779C313.116,481.894 313.319,482.045 313.499,482.232C314.093,482.847 316.796,485.598 321.61,486.244C321.639,486.172 321.671,486.101 321.707,486.031C321.888,485.68 324.223,483.105 323.917,478.11C323.859,477.169 323.738,476.806 323.675,476.498C323.577,476.021 323.529,475.601 323.62,474.878C323.784,473.566 324.983,472.635 326.295,472.799C327.606,472.964 328.538,474.163 328.373,475.474C328.347,475.683 328.418,475.755 328.457,475.935C328.542,476.334 328.642,476.884 328.699,477.816C328.925,481.505 328.102,484.221 327.272,486.001L327.423,485.97C328.429,485.755 329.336,485.502 330.155,485.219C331.414,482.823 331.654,482.921 332.187,480.153C332.255,479.798 332.269,478.873 332.268,478.102C332.198,477.863 332.164,477.61 332.173,477.348C332.202,476.458 332.291,476.038 332.318,475.946L332.615,475.302L333.219,474.669L333.669,474.413L334.281,474.24L334.969,474.24L335.582,474.416L336.182,474.792L336.614,475.277L336.927,475.947L337.028,476.509C337.066,476.957 337.07,478.589 337.007,479.83C337.519,478.855 337.787,477.98 338.018,477.385C341.063,469.553 340.454,447.911 340.287,443.635C340.273,443.295 340.257,443.003 340.257,443.003C340.248,442.902 340.245,442.8 340.248,442.699C340.19,442.51 340.154,442.312 340.143,442.106C339.954,438.328 340.959,411.132 332.101,388.356C331.824,387.643 331.608,387.071 331.465,386.687C329.319,387.142 327.249,387.479 325.306,387.666C323.99,387.792 322.819,386.827 322.692,385.511C322.566,384.195 323.532,383.023 324.848,382.897C338.659,381.569 359.382,372.241 365.288,367.641C373.682,361.103 379.152,353.9 381.664,350.346C381.393,349.147 382.081,347.918 383.274,347.538C385.934,346.69 386.113,347.027 391.517,343.09C393.608,341.567 394.12,341.355 395.218,340.039C394.627,338.933 393.078,336.283 390.272,333.472C390.091,333.414 389.914,333.333 389.746,333.229C388.62,332.535 388.27,331.058 388.965,329.933C389.474,329.107 392.759,323.81 394.46,319.297C392.137,315.892 386.415,312.593 386.011,312.362C385.456,312.152 385.023,311.754 384.758,311.267C384.492,310.915 384.319,310.485 384.282,310.012C383.943,305.72 383.72,303.064 383.57,301.366C383.459,301.329 383.35,301.284 383.243,301.23C382.063,300.633 381.59,299.19 382.187,298.011C383.466,295.485 384.563,289.653 385.41,282.071C387.464,263.694 387.724,235.337 383.346,217.163C381.892,211.129 376.239,199.071 374.085,195.539C353.36,198.939 326.466,219.159 320.442,223.122C316.821,225.504 316.475,226.574 316.261,226.823L315.634,227.355L314.877,227.659L314.595,227.677C314.308,227.735 314.006,227.74 313.7,227.684C298.05,224.839 288.495,226.339 286.331,226.683C269.472,229.365 266.697,232.31 265.353,233.2L264.585,233.615L263.842,233.827L263.154,233.868L262.518,233.782C261.97,233.658 261.508,233.355 261.181,232.948C260.884,232.759 260.624,232.501 260.428,232.18C257.225,226.942 236.879,202.951 216.662,191.226C215.728,190.683 208.506,186.491 203.577,184.312C202.856,183.993 202.021,183.698 201.392,183.49C199.44,187.001 194.758,195.892 192.671,204.462C182.74,245.225 186.504,264.22 189.591,283.713C191.852,297.991 197.252,306.917 199.224,310.644C199.874,311.872 200.156,312.834 200.23,313.446L200.24,313.459C201.096,314.467 200.972,315.979 199.964,316.835C196.458,319.81 196.59,319.872 193.455,323.208C193.352,323.317 191.759,325.644 190.674,327.234C192.082,329.239 195.66,334.121 198.775,336.3C199.236,336.623 202.028,338.376 203.969,339.583C204.739,340.061 205.375,340.454 205.679,340.637L205.759,340.684C206.171,340.902 206.51,341.236 206.735,341.641C206.746,341.729 206.753,341.818 206.754,341.908C206.757,342.066 206.524,343.171 206.228,344.596C205.72,347.04 205.026,350.425 205.016,351.582C204.988,354.987 205.119,355.278 205.401,358.019C216.034,361.631 217.971,361.681 221.204,361.89C221.717,361.923 222.182,362.116 222.554,362.416C223.043,362.457 223.523,362.648 223.922,362.993C228.789,367.214 234.671,371.366 247.664,375.982C262.768,381.347 272.717,380.806 280.196,381.077C281.518,381.125 282.551,382.237 282.503,383.558C282.455,384.879 281.344,385.913 280.023,385.865C272.213,385.581 261.831,386.099 246.06,380.496C239.325,378.103 234.388,375.817 230.497,373.583C230.429,373.621 230.359,373.656 230.286,373.689C224.071,376.443 224.126,376.357 218.026,379.457C193.835,391.754 181.309,412.315 177.033,430.038C174.271,441.482 174.888,451.705 178.222,457.497C178.882,458.643 178.487,460.109 177.341,460.768C176.235,461.405 174.831,461.059 174.142,460.004L173.585,460.085C170.91,460.218 156.612,459.839 147,448.716C133.105,432.636 139.853,412.481 142.131,406.97C142.133,406.614 142.215,406.254 142.385,405.914C147.572,395.563 148.23,395.991 157.129,383.788C161.092,378.353 160.682,377.381 168.966,363.783C174.895,354.05 176.531,342.748 177.128,337.247C177.088,336.997 177.088,336.736 177.133,336.473C179.847,320.464 173.47,301.986 164.781,294.808C155.36,287.024 143.146,288.299 138.336,288.352C138.174,288.354 138.017,288.34 137.864,288.311ZM343.825,240.034C348.171,231.348 349.177,231.599 353.248,224.804C361.424,211.156 367.542,207.986 370.554,207.05C370.739,206.95 370.932,206.854 371.11,206.783L372.436,206.456L373.557,206.512C374.978,206.785 377.163,208.079 378.055,213.438C383.153,244.047 382.244,244.152 382.516,247.866C382.693,250.297 383.594,270.75 382.014,280.494C381.802,281.799 380.571,282.687 379.266,282.475C378.916,282.418 378.596,282.288 378.319,282.103C377.44,282.039 376.63,281.492 376.273,280.622C374.815,277.065 367.936,260.411 345.175,244.741C344.776,244.465 344.371,244.19 343.961,243.916C343.43,243.56 343.087,243.028 342.958,242.45C342.941,242.065 343.018,241.67 343.199,241.299C343.415,240.857 343.624,240.436 343.825,240.034ZM370.905,212.086C368.213,213.359 363.59,216.862 357.358,227.266C353.518,233.674 352.449,233.672 348.571,241.265C365.605,253.162 374.017,265.556 377.943,272.905C378.473,262.975 377.874,250.083 377.738,248.215C377.47,244.548 378.362,244.445 373.33,214.225C373.134,213.05 372.749,212.029 372.518,211.487L372.509,211.466L372.436,211.51C372.028,211.623 371.516,211.797 370.905,212.086ZM217.781,301.983L217.352,302.242L216.637,302.423L215.985,302.399L215.376,302.211L214.849,301.889L214.373,301.413C214.236,301.242 214.059,300.981 213.865,300.626C211.644,296.573 203.236,272.455 202.559,267.865C202.09,264.685 197.942,240.926 198.065,223.796C198.098,219.22 198.44,215.1 199.203,211.915C199.788,209.471 200.646,207.528 201.725,206.206C203.341,204.224 205.854,203.844 208.775,204.879C210.593,205.524 212.629,206.789 214.509,208.112C214.791,208.184 215.065,208.31 215.315,208.49C219.662,211.626 219.977,211.185 244.048,230.777C244.739,231.339 244.552,231.54 252.366,238.167C255.192,240.564 256.568,242.257 257.223,243.415C257.969,244.734 258.029,245.702 257.951,246.385L257.629,247.522L257.045,248.409C256.894,248.588 256.722,248.74 256.536,248.863C256.47,248.952 256.397,249.037 256.318,249.118C251.323,254.189 240.773,263.325 232.076,277.283C222.973,291.896 221.128,296.834 220.269,298.934C219.666,300.409 219.272,300.972 218.446,301.616C218.24,301.777 218.015,301.899 217.781,301.983ZM215.577,297.761C215.187,297.903 214.836,298.169 214.53,298.576C214.802,298.214 215.158,297.95 215.55,297.793C215.728,297.722 215.913,297.672 216.101,297.645C215.92,297.662 215.745,297.7 215.577,297.761ZM218.9,216.914C218.632,216.871 218.367,216.782 218.116,216.643C216.648,215.828 212.514,212.077 208.723,210.088C207.92,209.667 207.142,209.33 206.424,209.177C206.034,209.095 205.666,208.953 205.437,209.233C204.727,210.104 204.247,211.42 203.862,213.03C203.169,215.924 202.886,219.671 202.856,223.831C202.735,240.676 206.837,264.039 207.298,267.166C207.839,270.832 213.575,287.593 216.65,295.154C217.94,292.175 220.707,286.472 228.01,274.75C236.954,260.395 247.768,250.971 252.905,245.756L252.983,245.681C252.877,245.502 252.737,245.284 252.577,245.08C251.926,244.246 250.88,243.189 249.267,241.821C241.521,235.252 241.709,235.049 241.024,234.492C228.476,224.279 222.434,219.552 218.9,216.914ZM344.924,437.284C345.233,437.062 345.478,436.776 345.651,436.416C345.487,436.749 345.243,437.049 344.924,437.284ZM314.416,222.914C314.642,222.931 314.869,222.98 315.091,223.065C314.843,222.971 314.62,222.925 314.416,222.914ZM171.485,457.475C171.441,458.073 171.584,458.697 172.111,459.27C171.645,458.764 171.439,458.111 171.485,457.475ZM172.25,455.884C171.671,456.398 171.522,456.993 171.486,457.459C171.531,456.877 171.788,456.31 172.25,455.884ZM342.84,437.657C343.518,437.863 344.043,437.732 344.404,437.576C343.9,437.781 343.348,437.803 342.84,437.657ZM345.797,436.044C345.895,435.761 346.16,434.924 345.432,433.935C345.896,434.565 346.005,435.347 345.797,436.044Z" style="fill:rgb(137,137,137);"/>
    </g>
</svg>
