<svg xmlns="http://www.w3.org/2000/svg" xmlns:xlink="http://www.w3.org/1999/xlink" width="200" zoomAndPan="magnify" viewBox="0 0 150 149.999998" height="200" preserveAspectRatio="xMidYMid meet" version="1.2"><defs/><g id="be55002d68"><g style="fill:#ff96a6;fill-opacity:1;"><g transform="translate(0.468751, 65.429951)"><path style="stroke:none" d="M 17.042969 2.523438 C 13.585938 2.523438 10.597656 1.808594 8.074219 0.378906 C 5.507812 -1.074219 3.539062 -3.132812 2.167969 -5.789062 C 0.835938 -8.378906 0.167969 -11.402344 0.167969 -14.855469 C 0.167969 -17.429688 0.546875 -19.765625 1.304688 -21.859375 C 2.074219 -24.003906 3.195312 -25.84375 4.660156 -27.390625 C 6.136719 -28.953125 7.941406 -30.148438 10.074219 -30.976562 C 12.15625 -31.789062 14.480469 -32.191406 17.042969 -32.191406 C 18.769531 -32.191406 20.460938 -31.972656 22.125 -31.535156 C 23.832031 -31.085938 25.339844 -30.433594 26.648438 -29.582031 C 27.617188 -28.980469 28.285156 -28.199219 28.648438 -27.234375 C 28.996094 -26.320312 29.066406 -25.410156 28.859375 -24.507812 C 28.652344 -23.605469 28.222656 -22.84375 27.570312 -22.214844 C 26.859375 -21.535156 25.996094 -21.152344 24.976562 -21.070312 C 23.988281 -20.988281 22.988281 -21.273438 21.972656 -21.917969 C 21.292969 -22.355469 20.558594 -22.675781 19.773438 -22.871094 C 18.929688 -23.082031 18.078125 -23.1875 17.210938 -23.1875 C 15.605469 -23.1875 14.277344 -22.878906 13.234375 -22.261719 C 12.238281 -21.671875 11.480469 -20.804688 10.964844 -19.664062 C 10.386719 -18.398438 10.101562 -16.796875 10.101562 -14.855469 C 10.101562 -12.9375 10.390625 -11.328125 10.96875 -10.03125 C 11.488281 -8.867188 12.242188 -7.992188 13.234375 -7.40625 C 14.277344 -6.789062 15.605469 -6.480469 17.210938 -6.480469 C 18.101562 -6.480469 18.976562 -6.59375 19.84375 -6.816406 C 20.683594 -7.03125 21.472656 -7.363281 22.222656 -7.816406 C 23.238281 -8.417969 24.21875 -8.679688 25.15625 -8.597656 C 26.121094 -8.515625 26.949219 -8.160156 27.640625 -7.527344 C 28.289062 -6.929688 28.722656 -6.191406 28.9375 -5.3125 C 29.144531 -4.453125 29.097656 -3.582031 28.796875 -2.707031 C 28.484375 -1.792969 27.894531 -1.023438 27.027344 -0.398438 C 25.703125 0.5625 24.144531 1.292969 22.34375 1.796875 C 20.601562 2.28125 18.835938 2.523438 17.042969 2.523438 Z M 17.042969 -1.683594 C 18.449219 -1.683594 19.839844 -1.875 21.210938 -2.257812 C 22.527344 -2.625 23.644531 -3.144531 24.566406 -3.808594 C 24.707031 -3.914062 24.792969 -4 24.816406 -4.070312 C 24.851562 -4.171875 24.863281 -4.257812 24.84375 -4.324219 C 24.835938 -4.371094 24.816406 -4.40625 24.796875 -4.425781 C 24.804688 -4.414062 24.816406 -4.40625 24.832031 -4.402344 L 24.839844 -4.398438 C 24.828125 -4.402344 24.8125 -4.402344 24.796875 -4.40625 C 24.8125 -4.402344 24.824219 -4.402344 24.835938 -4.40625 C 24.824219 -4.402344 24.804688 -4.398438 24.78125 -4.390625 C 24.671875 -4.359375 24.546875 -4.300781 24.40625 -4.21875 C 23.300781 -3.550781 22.128906 -3.054688 20.890625 -2.738281 C 19.679688 -2.425781 18.453125 -2.273438 17.210938 -2.273438 C 14.835938 -2.273438 12.796875 -2.777344 11.089844 -3.785156 C 9.332031 -4.828125 8.007812 -6.335938 7.125 -8.316406 C 6.304688 -10.160156 5.890625 -12.339844 5.890625 -14.855469 C 5.890625 -17.402344 6.304688 -19.585938 7.132812 -21.40625 C 8.015625 -23.351562 9.335938 -24.84375 11.089844 -25.882812 C 12.796875 -26.890625 14.835938 -27.394531 17.210938 -27.394531 C 18.421875 -27.394531 19.617188 -27.25 20.792969 -26.953125 C 22.03125 -26.644531 23.175781 -26.148438 24.234375 -25.46875 C 24.382812 -25.371094 24.507812 -25.308594 24.613281 -25.277344 C 24.636719 -25.269531 24.652344 -25.265625 24.664062 -25.265625 C 24.660156 -25.265625 24.648438 -25.265625 24.636719 -25.265625 C 24.65625 -25.265625 24.671875 -25.269531 24.683594 -25.269531 C 24.671875 -25.265625 24.660156 -25.257812 24.65625 -25.253906 C 24.703125 -25.296875 24.738281 -25.363281 24.753906 -25.445312 C 24.773438 -25.523438 24.757812 -25.625 24.710938 -25.746094 C 24.683594 -25.820312 24.566406 -25.921875 24.355469 -26.050781 C 23.421875 -26.660156 22.320312 -27.128906 21.050781 -27.464844 C 19.738281 -27.8125 18.402344 -27.984375 17.042969 -27.984375 C 15.007812 -27.984375 13.191406 -27.675781 11.601562 -27.054688 C 10.054688 -26.453125 8.761719 -25.601562 7.714844 -24.496094 C 6.652344 -23.375 5.835938 -22.023438 5.261719 -20.433594 C 4.671875 -18.796875 4.375 -16.9375 4.375 -14.855469 C 4.375 -12.082031 4.886719 -9.703125 5.910156 -7.71875 C 6.898438 -5.804688 8.308594 -4.324219 10.148438 -3.28125 C 12.027344 -2.214844 14.328125 -1.683594 17.042969 -1.683594 Z M 17.042969 -1.683594 "/></g></g><g style="fill:#ff96a6;fill-opacity:1;"><g transform="translate(27.611675, 65.429951)"><path style="stroke:none" d="M 12.121094 2.523438 C 9.625 2.523438 7.433594 2.003906 5.546875 0.957031 C 3.613281 -0.113281 2.117188 -1.632812 1.050781 -3.609375 C 0.0117188 -5.535156 -0.503906 -7.769531 -0.503906 -10.308594 C -0.503906 -12.222656 -0.214844 -13.949219 0.367188 -15.492188 C 0.960938 -17.074219 1.828125 -18.441406 2.960938 -19.59375 C 4.101562 -20.75 5.460938 -21.628906 7.035156 -22.230469 C 8.570312 -22.8125 10.261719 -23.101562 12.121094 -23.101562 C 14.613281 -23.101562 16.804688 -22.582031 18.695312 -21.535156 C 20.621094 -20.46875 22.121094 -18.953125 23.183594 -16.996094 C 24.226562 -15.085938 24.746094 -12.855469 24.746094 -10.308594 C 24.746094 -8.402344 24.457031 -6.671875 23.875 -5.113281 C 23.28125 -3.515625 22.414062 -2.140625 21.277344 -0.984375 C 20.136719 0.171875 18.777344 1.050781 17.203125 1.652344 C 15.671875 2.234375 13.976562 2.523438 12.121094 2.523438 Z M 12.121094 -1.683594 C 13.460938 -1.683594 14.65625 -1.882812 15.707031 -2.28125 C 16.710938 -2.664062 17.570312 -3.214844 18.28125 -3.9375 C 18.996094 -4.664062 19.546875 -5.546875 19.933594 -6.582031 C 20.335938 -7.664062 20.535156 -8.90625 20.535156 -10.308594 C 20.535156 -12.140625 20.1875 -13.699219 19.488281 -14.984375 C 18.8125 -16.226562 17.867188 -17.183594 16.65625 -17.855469 C 15.402344 -18.546875 13.890625 -18.894531 12.121094 -18.894531 C 10.777344 -18.894531 9.582031 -18.695312 8.535156 -18.296875 C 7.527344 -17.914062 6.671875 -17.363281 5.960938 -16.640625 C 5.242188 -15.910156 4.691406 -15.035156 4.304688 -14.007812 C 3.902344 -12.941406 3.703125 -11.710938 3.703125 -10.308594 C 3.703125 -8.476562 4.054688 -6.90625 4.757812 -5.605469 C 5.429688 -4.355469 6.375 -3.394531 7.585938 -2.726562 C 8.839844 -2.03125 10.351562 -1.683594 12.121094 -1.683594 Z M 12.121094 -5.679688 C 12.746094 -5.679688 13.277344 -5.824219 13.71875 -6.105469 C 14.144531 -6.378906 14.492188 -6.820312 14.757812 -7.429688 C 15.074219 -8.15625 15.234375 -9.117188 15.234375 -10.308594 C 15.234375 -12.035156 14.925781 -13.253906 14.3125 -13.964844 C 13.777344 -14.585938 13.046875 -14.898438 12.121094 -14.898438 C 11.484375 -14.898438 10.945312 -14.757812 10.5 -14.480469 C 10.082031 -14.21875 9.742188 -13.789062 9.480469 -13.191406 C 9.164062 -12.464844 9.007812 -11.503906 9.007812 -10.308594 C 9.007812 -8.605469 9.320312 -7.378906 9.945312 -6.632812 C 10.476562 -6 11.203125 -5.679688 12.121094 -5.679688 Z M 12.121094 -1.472656 C 9.894531 -1.472656 8.09375 -2.292969 6.71875 -3.929688 C 5.4375 -5.457031 4.796875 -7.582031 4.796875 -10.308594 C 4.796875 -12.089844 5.074219 -13.613281 5.625 -14.875 C 6.234375 -16.269531 7.113281 -17.328125 8.269531 -18.050781 C 9.394531 -18.753906 10.679688 -19.105469 12.121094 -19.105469 C 14.335938 -19.105469 16.128906 -18.308594 17.503906 -16.710938 C 18.796875 -15.210938 19.441406 -13.074219 19.441406 -10.308594 C 19.441406 -8.53125 19.167969 -7.007812 18.613281 -5.742188 C 18.007812 -4.359375 17.136719 -3.300781 15.992188 -2.5625 C 14.859375 -1.835938 13.570312 -1.472656 12.121094 -1.472656 Z M 12.121094 -1.472656 "/></g></g><g style="fill:#ff96a6;fill-opacity:1;"><g transform="translate(51.850947, 65.429951)"><path style="stroke:none" d="M 5.429688 2.441406 C 3.992188 2.441406 2.84375 1.996094 1.980469 1.105469 C 1.136719 0.234375 0.714844 -0.917969 0.714844 -2.355469 L 0.714844 -18.265625 C 0.714844 -19.714844 1.144531 -20.871094 2.003906 -21.730469 C 2.863281 -22.589844 3.992188 -23.019531 5.386719 -23.019531 C 6.78125 -23.019531 7.910156 -22.589844 8.769531 -21.730469 C 9.628906 -20.871094 10.058594 -19.714844 10.058594 -18.265625 L 10.058594 -15.191406 L 5.976562 -14.46875 L 5.238281 -16.488281 L 5.535156 -17.234375 C 6.253906 -19.03125 7.378906 -20.457031 8.902344 -21.511719 C 10.441406 -22.574219 12.242188 -23.101562 14.308594 -23.101562 C 16.425781 -23.101562 18.199219 -22.574219 19.636719 -21.515625 C 21.105469 -20.433594 22.113281 -18.839844 22.65625 -16.730469 L 23.339844 -14.097656 L 16.988281 -14.097656 L 18.0625 -16.945312 C 18.785156 -18.855469 19.976562 -20.363281 21.644531 -21.46875 C 23.289062 -22.558594 25.164062 -23.101562 27.269531 -23.101562 C 29.230469 -23.101562 30.890625 -22.695312 32.25 -21.875 C 33.671875 -21.015625 34.726562 -19.746094 35.40625 -18.0625 C 36.015625 -16.5625 36.316406 -14.722656 36.316406 -12.539062 L 36.316406 -2.355469 C 36.316406 -0.90625 35.878906 0.257812 35.007812 1.128906 C 34.132812 2.003906 32.984375 2.441406 31.5625 2.441406 C 30.125 2.441406 28.976562 1.996094 28.117188 1.105469 C 27.269531 0.234375 26.847656 -0.917969 26.847656 -2.355469 L 26.847656 -12.332031 C 26.847656 -12.960938 26.800781 -13.484375 26.707031 -13.90625 C 26.636719 -14.207031 26.554688 -14.425781 26.460938 -14.5625 C 26.433594 -14.597656 26.386719 -14.628906 26.320312 -14.660156 C 26.140625 -14.734375 25.882812 -14.769531 25.542969 -14.769531 C 24.835938 -14.769531 24.300781 -14.546875 23.9375 -14.097656 C 23.464844 -13.515625 23.230469 -12.617188 23.230469 -11.40625 L 23.230469 -2.355469 C 23.230469 -0.917969 22.808594 0.234375 21.960938 1.105469 C 21.101562 1.996094 19.953125 2.441406 18.515625 2.441406 C 17.09375 2.441406 15.945312 2.003906 15.070312 1.128906 C 14.199219 0.257812 13.761719 -0.90625 13.761719 -2.355469 L 13.761719 -12.332031 C 13.761719 -12.960938 13.714844 -13.484375 13.617188 -13.90625 C 13.550781 -14.207031 13.46875 -14.425781 13.371094 -14.5625 C 13.273438 -14.699219 12.980469 -14.769531 12.5 -14.769531 C 11.792969 -14.769531 11.257812 -14.546875 10.890625 -14.097656 C 10.421875 -13.515625 10.183594 -12.617188 10.183594 -11.40625 L 10.183594 -2.355469 C 10.183594 -0.882812 9.761719 0.28125 8.917969 1.140625 C 8.0625 2.007812 6.898438 2.441406 5.429688 2.441406 Z M 5.429688 -1.769531 C 5.640625 -1.769531 5.800781 -1.785156 5.914062 -1.824219 C 5.933594 -1.832031 5.945312 -1.835938 5.949219 -1.839844 C 5.9375 -1.832031 5.929688 -1.824219 5.917969 -1.8125 C 5.90625 -1.800781 5.898438 -1.792969 5.894531 -1.785156 C 5.902344 -1.792969 5.90625 -1.8125 5.914062 -1.835938 C 5.957031 -1.957031 5.976562 -2.132812 5.976562 -2.355469 L 5.976562 -11.40625 C 5.976562 -13.613281 6.523438 -15.394531 7.625 -16.75 C 8.226562 -17.492188 8.953125 -18.054688 9.796875 -18.433594 C 10.609375 -18.796875 11.511719 -18.980469 12.5 -18.980469 C 13.386719 -18.980469 14.175781 -18.832031 14.871094 -18.539062 C 15.667969 -18.203125 16.3125 -17.691406 16.800781 -17 C 17.578125 -15.90625 17.96875 -14.347656 17.96875 -12.332031 L 17.96875 -2.355469 C 17.96875 -2.160156 17.988281 -2.003906 18.027344 -1.894531 C 18.035156 -1.871094 18.042969 -1.855469 18.046875 -1.84375 C 18.054688 -1.839844 18.070312 -1.828125 18.097656 -1.820312 C 18.199219 -1.785156 18.335938 -1.769531 18.515625 -1.769531 C 18.691406 -1.769531 18.828125 -1.785156 18.921875 -1.816406 C 18.9375 -1.824219 18.945312 -1.828125 18.949219 -1.832031 C 18.949219 -1.828125 18.945312 -1.824219 18.941406 -1.824219 L 18.9375 -1.820312 C 18.945312 -1.832031 18.953125 -1.851562 18.960938 -1.875 C 19 -1.992188 19.019531 -2.152344 19.019531 -2.355469 L 19.019531 -11.40625 C 19.019531 -13.613281 19.570312 -15.394531 20.667969 -16.75 C 21.273438 -17.492188 21.996094 -18.054688 22.84375 -18.433594 C 23.65625 -18.796875 24.558594 -18.980469 25.542969 -18.980469 C 26.441406 -18.980469 27.238281 -18.835938 27.9375 -18.542969 C 28.746094 -18.207031 29.394531 -17.691406 29.890625 -17 C 30.667969 -15.90625 31.058594 -14.347656 31.058594 -12.332031 L 31.058594 -2.355469 C 31.058594 -2.152344 31.078125 -1.992188 31.117188 -1.875 C 31.125 -1.851562 31.132812 -1.832031 31.140625 -1.820312 L 31.136719 -1.824219 C 31.132812 -1.824219 31.128906 -1.828125 31.128906 -1.832031 C 31.132812 -1.828125 31.140625 -1.824219 31.15625 -1.816406 C 31.25 -1.785156 31.386719 -1.769531 31.5625 -1.769531 C 31.742188 -1.769531 31.878906 -1.785156 31.980469 -1.820312 C 32.007812 -1.828125 32.023438 -1.839844 32.03125 -1.84375 C 32.035156 -1.855469 32.042969 -1.871094 32.050781 -1.894531 C 32.089844 -2.003906 32.109375 -2.160156 32.109375 -2.355469 L 32.109375 -12.539062 C 32.109375 -14.175781 31.90625 -15.492188 31.503906 -16.484375 C 31.175781 -17.300781 30.699219 -17.894531 30.074219 -18.269531 C 29.386719 -18.6875 28.449219 -18.894531 27.269531 -18.894531 C 26.007812 -18.894531 24.910156 -18.582031 23.972656 -17.960938 C 23.058594 -17.355469 22.402344 -16.523438 22 -15.457031 L 20.03125 -16.203125 L 20.03125 -18.304688 L 20.621094 -18.304688 L 20.621094 -16.203125 L 18.582031 -15.675781 C 18.285156 -16.820312 17.804688 -17.636719 17.140625 -18.125 C 16.445312 -18.640625 15.503906 -18.894531 14.308594 -18.894531 C 13.117188 -18.894531 12.113281 -18.613281 11.296875 -18.046875 C 10.464844 -17.472656 9.847656 -16.683594 9.445312 -15.671875 L 7.492188 -16.453125 L 9.464844 -17.179688 L 9.929688 -15.917969 L 7.953125 -15.191406 L 5.847656 -15.191406 L 5.847656 -18.265625 C 5.847656 -18.464844 5.832031 -18.621094 5.792969 -18.730469 C 5.785156 -18.753906 5.78125 -18.765625 5.777344 -18.773438 C 5.78125 -18.765625 5.785156 -18.761719 5.792969 -18.753906 C 5.792969 -18.753906 5.796875 -18.75 5.796875 -18.75 C 5.789062 -18.753906 5.78125 -18.757812 5.765625 -18.765625 C 5.675781 -18.796875 5.550781 -18.8125 5.386719 -18.8125 C 5.222656 -18.8125 5.09375 -18.796875 5.007812 -18.765625 C 4.992188 -18.757812 4.984375 -18.753906 4.976562 -18.75 C 4.976562 -18.75 4.980469 -18.753906 4.980469 -18.753906 C 4.988281 -18.761719 4.992188 -18.765625 4.996094 -18.773438 C 4.992188 -18.765625 4.988281 -18.753906 4.980469 -18.730469 C 4.941406 -18.621094 4.925781 -18.464844 4.925781 -18.265625 L 4.925781 -2.355469 C 4.925781 -2.152344 4.941406 -1.992188 4.980469 -1.875 C 4.992188 -1.851562 5 -1.832031 5.003906 -1.820312 L 5.003906 -1.824219 C 5 -1.824219 4.996094 -1.828125 4.992188 -1.832031 C 5 -1.828125 5.007812 -1.824219 5.023438 -1.816406 C 5.117188 -1.785156 5.25 -1.769531 5.429688 -1.769531 Z M 5.429688 -1.769531 "/></g></g><g style="fill:#ff96a6;fill-opacity:1;"><g transform="translate(88.756916, 65.429951)"><path style="stroke:none" d="M 5.34375 2.398438 C 3.871094 2.398438 2.703125 1.910156 1.835938 0.933594 C 1.03125 0.03125 0.632812 -1.136719 0.632812 -2.566406 L 0.632812 -18.011719 C 0.632812 -19.480469 1.039062 -20.664062 1.855469 -21.554688 C 2.722656 -22.503906 3.882812 -22.976562 5.34375 -22.976562 C 6.792969 -22.976562 7.953125 -22.511719 8.832031 -21.578125 C 9.675781 -20.683594 10.101562 -19.496094 10.101562 -18.011719 L 10.101562 -2.566406 C 10.101562 -1.136719 9.699219 0.03125 8.894531 0.933594 C 8.027344 1.910156 6.84375 2.398438 5.34375 2.398438 Z M 5.34375 -1.808594 C 5.519531 -1.808594 5.652344 -1.828125 5.738281 -1.859375 C 5.75 -1.863281 5.757812 -1.867188 5.757812 -1.867188 C 5.753906 -1.867188 5.75 -1.863281 5.75 -1.859375 C 5.84375 -1.96875 5.890625 -2.203125 5.890625 -2.566406 L 5.890625 -18.011719 C 5.890625 -18.25 5.867188 -18.441406 5.820312 -18.582031 C 5.804688 -18.640625 5.785156 -18.675781 5.769531 -18.691406 C 5.722656 -18.742188 5.582031 -18.769531 5.34375 -18.769531 C 5.179688 -18.769531 5.058594 -18.753906 4.976562 -18.722656 C 4.96875 -18.71875 4.960938 -18.714844 4.957031 -18.714844 C 4.960938 -18.714844 4.960938 -18.714844 4.960938 -18.714844 C 4.945312 -18.699219 4.929688 -18.660156 4.910156 -18.601562 C 4.863281 -18.453125 4.839844 -18.257812 4.839844 -18.011719 L 4.839844 -2.566406 C 4.839844 -2.203125 4.886719 -1.96875 4.980469 -1.859375 C 4.980469 -1.859375 4.988281 -1.859375 4.996094 -1.855469 C 5.070312 -1.824219 5.1875 -1.808594 5.34375 -1.808594 Z M 5.34375 -22.683594 C 3.824219 -22.683594 2.59375 -23.105469 1.644531 -23.957031 C 0.632812 -24.867188 0.125 -26.066406 0.125 -27.5625 C 0.125 -29.101562 0.640625 -30.316406 1.667969 -31.210938 C 2.613281 -32.035156 3.835938 -32.445312 5.34375 -32.445312 C 6.890625 -32.445312 8.128906 -32.027344 9.0625 -31.195312 C 10.0625 -30.300781 10.5625 -29.089844 10.5625 -27.5625 C 10.5625 -26.078125 10.070312 -24.882812 9.085938 -23.976562 C 8.148438 -23.113281 6.902344 -22.683594 5.34375 -22.683594 Z M 5.34375 -26.890625 C 5.808594 -26.890625 6.101562 -26.949219 6.234375 -27.070312 C 6.3125 -27.144531 6.355469 -27.308594 6.355469 -27.5625 C 6.355469 -27.835938 6.320312 -28 6.253906 -28.058594 C 6.121094 -28.175781 5.820312 -28.238281 5.34375 -28.238281 C 4.886719 -28.238281 4.585938 -28.171875 4.433594 -28.039062 C 4.367188 -27.980469 4.335938 -27.824219 4.335938 -27.5625 C 4.335938 -27.320312 4.375 -27.160156 4.457031 -27.089844 C 4.605469 -26.957031 4.898438 -26.890625 5.34375 -26.890625 Z M 5.34375 -26.890625 "/></g></g><g style="fill:#ff96a6;fill-opacity:1;"><g transform="translate(99.487846, 65.429951)"><path style="stroke:none" d="M 5.34375 2.441406 C 3.910156 2.441406 2.761719 1.996094 1.898438 1.105469 C 1.054688 0.234375 0.632812 -0.917969 0.632812 -2.355469 L 0.632812 -18.265625 C 0.632812 -19.714844 1.0625 -20.871094 1.921875 -21.730469 C 2.78125 -22.589844 3.90625 -23.019531 5.300781 -23.019531 C 6.695312 -23.019531 7.824219 -22.589844 8.683594 -21.730469 C 9.542969 -20.871094 9.972656 -19.714844 9.972656 -18.265625 L 9.972656 -15.402344 L 5.941406 -14.554688 L 5.117188 -16.429688 L 5.464844 -17.261719 C 6.257812 -19.179688 7.511719 -20.644531 9.21875 -21.652344 C 10.851562 -22.621094 12.691406 -23.101562 14.730469 -23.101562 C 16.761719 -23.101562 18.472656 -22.699219 19.863281 -21.894531 C 21.335938 -21.042969 22.429688 -19.777344 23.144531 -18.101562 C 23.789062 -16.589844 24.113281 -14.734375 24.113281 -12.539062 L 24.113281 -2.355469 C 24.113281 -0.917969 23.691406 0.234375 22.847656 1.105469 C 21.984375 1.996094 20.835938 2.441406 19.398438 2.441406 C 17.976562 2.441406 16.828125 2.003906 15.957031 1.128906 C 15.082031 0.257812 14.644531 -0.90625 14.644531 -2.355469 L 14.644531 -12.289062 C 14.644531 -12.910156 14.589844 -13.425781 14.484375 -13.832031 C 14.414062 -14.113281 14.324219 -14.316406 14.222656 -14.441406 C 14.039062 -14.660156 13.648438 -14.769531 13.046875 -14.769531 C 12.109375 -14.769531 11.390625 -14.507812 10.894531 -13.980469 C 10.363281 -13.417969 10.101562 -12.613281 10.101562 -11.574219 L 10.101562 -2.355469 C 10.101562 -0.882812 9.675781 0.28125 8.832031 1.140625 C 7.976562 2.007812 6.816406 2.441406 5.34375 2.441406 Z M 5.34375 -1.769531 C 5.554688 -1.769531 5.71875 -1.785156 5.828125 -1.824219 C 5.847656 -1.832031 5.859375 -1.835938 5.863281 -1.839844 C 5.855469 -1.832031 5.84375 -1.824219 5.832031 -1.8125 C 5.824219 -1.800781 5.816406 -1.792969 5.8125 -1.785156 C 5.816406 -1.792969 5.824219 -1.8125 5.832031 -1.835938 C 5.871094 -1.957031 5.890625 -2.132812 5.890625 -2.355469 L 5.890625 -11.574219 C 5.890625 -13.730469 6.539062 -15.492188 7.832031 -16.867188 C 9.160156 -18.273438 10.898438 -18.980469 13.046875 -18.980469 C 14.96875 -18.980469 16.441406 -18.359375 17.464844 -17.121094 C 18.390625 -16.003906 18.851562 -14.390625 18.851562 -12.289062 L 18.851562 -2.355469 C 18.851562 -2.160156 18.871094 -2.003906 18.910156 -1.894531 C 18.917969 -1.871094 18.925781 -1.855469 18.933594 -1.84375 L 18.929688 -1.84375 C 18.9375 -1.839844 18.957031 -1.828125 18.984375 -1.820312 C 19.082031 -1.785156 19.222656 -1.769531 19.398438 -1.769531 C 19.578125 -1.769531 19.710938 -1.785156 19.804688 -1.816406 C 19.820312 -1.824219 19.828125 -1.828125 19.835938 -1.832031 C 19.832031 -1.828125 19.828125 -1.824219 19.824219 -1.824219 L 19.824219 -1.820312 C 19.832031 -1.832031 19.839844 -1.851562 19.847656 -1.875 C 19.886719 -1.992188 19.90625 -2.152344 19.90625 -2.355469 L 19.90625 -12.539062 C 19.90625 -14.160156 19.695312 -15.464844 19.273438 -16.449219 C 18.925781 -17.269531 18.417969 -17.867188 17.757812 -18.253906 C 17.015625 -18.679688 16.007812 -18.894531 14.730469 -18.894531 C 13.457031 -18.894531 12.335938 -18.605469 11.359375 -18.03125 C 10.457031 -17.496094 9.789062 -16.703125 9.351562 -15.648438 L 7.40625 -16.453125 L 9.332031 -17.300781 L 9.796875 -16.25 L 7.871094 -15.402344 L 5.765625 -15.402344 L 5.765625 -18.265625 C 5.765625 -18.464844 5.746094 -18.621094 5.710938 -18.730469 C 5.703125 -18.753906 5.695312 -18.765625 5.691406 -18.773438 C 5.695312 -18.765625 5.699219 -18.761719 5.707031 -18.753906 C 5.710938 -18.753906 5.710938 -18.75 5.710938 -18.75 C 5.707031 -18.753906 5.695312 -18.757812 5.679688 -18.765625 C 5.59375 -18.796875 5.46875 -18.8125 5.300781 -18.8125 C 5.136719 -18.8125 5.011719 -18.796875 4.921875 -18.765625 C 4.910156 -18.757812 4.898438 -18.753906 4.894531 -18.75 C 4.894531 -18.75 4.894531 -18.753906 4.898438 -18.753906 C 4.902344 -18.761719 4.910156 -18.765625 4.914062 -18.773438 C 4.90625 -18.765625 4.902344 -18.753906 4.894531 -18.730469 C 4.859375 -18.621094 4.839844 -18.464844 4.839844 -18.265625 L 4.839844 -2.355469 C 4.839844 -2.152344 4.859375 -1.992188 4.898438 -1.875 C 4.90625 -1.851562 4.914062 -1.832031 4.921875 -1.820312 L 4.917969 -1.824219 C 4.917969 -1.824219 4.914062 -1.828125 4.910156 -1.832031 C 4.914062 -1.828125 4.925781 -1.824219 4.941406 -1.816406 C 5.03125 -1.785156 5.167969 -1.769531 5.34375 -1.769531 Z M 5.34375 -1.769531 "/></g></g><g style="fill:#ff96a6;fill-opacity:1;"><g transform="translate(124.105859, 65.429951)"><path style="stroke:none" d="M 12.332031 10.101562 C 10.675781 10.101562 9.074219 9.945312 7.523438 9.640625 C 5.914062 9.320312 4.449219 8.820312 3.121094 8.144531 C 2.15625 7.632812 1.480469 6.96875 1.101562 6.144531 C 0.734375 5.355469 0.621094 4.542969 0.765625 3.703125 C 0.902344 2.914062 1.230469 2.214844 1.753906 1.613281 C 2.292969 0.988281 2.960938 0.558594 3.757812 0.332031 C 4.695312 0.0664062 5.625 0.175781 6.546875 0.667969 L 5.554688 2.523438 L 6.496094 0.644531 C 7.539062 1.164062 8.511719 1.5 9.410156 1.648438 C 10.40625 1.8125 11.238281 1.894531 11.910156 1.894531 C 13.21875 1.894531 14.140625 1.636719 14.671875 1.121094 C 15.1875 0.621094 15.445312 -0.230469 15.445312 -1.429688 L 15.445312 -7.324219 L 20.738281 -7.324219 L 19.945312 -4.625 C 19.378906 -2.691406 18.207031 -1.15625 16.433594 -0.0195312 C 14.753906 1.058594 12.867188 1.597656 10.773438 1.597656 C 8.519531 1.597656 6.535156 1.066406 4.820312 -0.00390625 C 3.105469 -1.070312 1.78125 -2.554688 0.847656 -4.460938 C -0.0546875 -6.292969 -0.503906 -8.398438 -0.503906 -10.773438 C -0.503906 -12.554688 -0.25 -14.179688 0.265625 -15.652344 C 0.789062 -17.164062 1.546875 -18.472656 2.53125 -19.578125 C 3.539062 -20.707031 4.75 -21.582031 6.171875 -22.195312 C 7.574219 -22.800781 9.109375 -23.101562 10.773438 -23.101562 C 12.929688 -23.101562 14.839844 -22.5625 16.492188 -21.476562 C 18.238281 -20.332031 19.375 -18.804688 19.910156 -16.894531 L 20.105469 -16.207031 L 19.417969 -14.496094 L 15.359375 -15.277344 L 15.359375 -18.265625 C 15.359375 -19.726562 15.804688 -20.890625 16.695312 -21.753906 C 17.566406 -22.597656 18.691406 -23.019531 20.074219 -23.019531 C 21.496094 -23.019531 22.636719 -22.589844 23.496094 -21.730469 C 24.355469 -20.871094 24.785156 -19.714844 24.785156 -18.265625 L 24.785156 -2.0625 C 24.785156 1.878906 23.683594 4.898438 21.484375 6.996094 C 19.308594 9.066406 16.257812 10.101562 12.332031 10.101562 Z M 12.332031 5.890625 C 15.136719 5.890625 17.21875 5.242188 18.578125 3.945312 C 19.910156 2.679688 20.578125 0.675781 20.578125 -2.0625 L 20.578125 -18.265625 C 20.578125 -18.464844 20.558594 -18.621094 20.523438 -18.730469 C 20.515625 -18.753906 20.511719 -18.765625 20.503906 -18.773438 C 20.507812 -18.765625 20.515625 -18.761719 20.519531 -18.753906 C 20.527344 -18.75 20.527344 -18.746094 20.53125 -18.742188 C 20.527344 -18.75 20.515625 -18.753906 20.496094 -18.757812 C 20.398438 -18.792969 20.257812 -18.8125 20.074219 -18.8125 C 19.828125 -18.8125 19.679688 -18.785156 19.625 -18.730469 C 19.628906 -18.738281 19.632812 -18.742188 19.636719 -18.75 C 19.632812 -18.742188 19.628906 -18.730469 19.625 -18.714844 C 19.585938 -18.609375 19.570312 -18.460938 19.570312 -18.265625 L 19.570312 -15.277344 L 17.464844 -15.277344 L 15.511719 -16.058594 L 15.929688 -17.109375 L 17.886719 -16.328125 L 15.859375 -15.761719 C 15.609375 -16.65625 15.050781 -17.390625 14.183594 -17.957031 C 13.230469 -18.582031 12.09375 -18.894531 10.773438 -18.894531 C 9.6875 -18.894531 8.710938 -18.707031 7.839844 -18.332031 C 6.988281 -17.964844 6.269531 -17.445312 5.675781 -16.78125 C 5.058594 -16.089844 4.582031 -15.253906 4.238281 -14.269531 C 3.882812 -13.242188 3.703125 -12.078125 3.703125 -10.773438 C 3.703125 -9.050781 4.011719 -7.566406 4.625 -6.3125 C 5.203125 -5.132812 6.011719 -4.21875 7.046875 -3.574219 C 8.078125 -2.929688 9.324219 -2.609375 10.773438 -2.609375 C 12.042969 -2.609375 13.171875 -2.925781 14.160156 -3.558594 C 15.050781 -4.132812 15.636719 -4.882812 15.910156 -5.8125 L 17.925781 -5.21875 L 17.925781 -3.113281 L 17.546875 -3.113281 L 17.546875 -5.21875 L 19.652344 -5.21875 L 19.652344 -1.429688 C 19.652344 0.957031 18.96875 2.816406 17.605469 4.140625 C 16.257812 5.449219 14.359375 6.101562 11.910156 6.101562 C 11.007812 6.101562 9.949219 6 8.726562 5.800781 C 7.410156 5.582031 6.039062 5.121094 4.613281 4.40625 L 4.566406 4.382812 C 4.589844 4.390625 4.617188 4.394531 4.648438 4.398438 C 4.734375 4.410156 4.824219 4.40625 4.914062 4.378906 C 4.921875 4.378906 4.929688 4.371094 4.9375 4.363281 C 4.925781 4.378906 4.917969 4.394531 4.914062 4.417969 C 4.917969 4.40625 4.917969 4.390625 4.914062 4.375 L 4.917969 4.375 C 4.894531 4.324219 4.875 4.292969 4.855469 4.273438 C 4.894531 4.3125 4.957031 4.351562 5.042969 4.398438 C 6.015625 4.898438 7.117188 5.269531 8.339844 5.511719 C 9.625 5.765625 10.953125 5.890625 12.332031 5.890625 Z M 12.203125 -6.605469 C 12.886719 -6.605469 13.445312 -6.75 13.886719 -7.03125 C 14.328125 -7.316406 14.679688 -7.742188 14.945312 -8.3125 C 15.25 -8.972656 15.402344 -9.792969 15.402344 -10.773438 C 15.402344 -12.1875 15.09375 -13.253906 14.480469 -13.964844 C 13.945312 -14.585938 13.1875 -14.898438 12.203125 -14.898438 C 11.523438 -14.898438 10.960938 -14.757812 10.523438 -14.472656 C 10.078125 -14.1875 9.722656 -13.761719 9.457031 -13.203125 C 9.15625 -12.5625 9.007812 -11.75 9.007812 -10.773438 C 9.007812 -9.351562 9.316406 -8.277344 9.9375 -7.550781 C 10.46875 -6.921875 11.226562 -6.605469 12.203125 -6.605469 Z M 12.203125 -2.398438 C 9.929688 -2.398438 8.101562 -3.207031 6.730469 -4.824219 C 5.441406 -6.339844 4.796875 -8.320312 4.796875 -10.773438 C 4.796875 -12.375 5.082031 -13.78125 5.648438 -14.992188 C 6.253906 -16.285156 7.121094 -17.289062 8.246094 -18.015625 C 9.378906 -18.742188 10.699219 -19.105469 12.203125 -19.105469 C 14.472656 -19.105469 16.296875 -18.308594 17.671875 -16.710938 C 18.964844 -15.210938 19.609375 -13.230469 19.609375 -10.773438 C 19.609375 -9.171875 19.328125 -7.765625 18.765625 -6.542969 C 18.15625 -5.234375 17.289062 -4.214844 16.160156 -3.488281 C 15.027344 -2.761719 13.710938 -2.398438 12.203125 -2.398438 Z M 12.203125 -2.398438 "/></g></g><g style="fill:#ff96a6;fill-opacity:1;"><g transform="translate(19.945313, 104.429948)"><path style="stroke:none" d="M 13.464844 2.523438 C 12.128906 2.523438 10.792969 2.425781 9.457031 2.230469 C 8.089844 2.027344 6.800781 1.714844 5.582031 1.292969 C 4.328125 0.859375 3.195312 0.316406 2.183594 -0.335938 C 1.304688 -0.921875 0.6875 -1.652344 0.328125 -2.523438 C -0.0195312 -3.359375 -0.125 -4.203125 0.00390625 -5.050781 C 0.132812 -5.902344 0.46875 -6.65625 1.019531 -7.308594 C 1.636719 -8.042969 2.414062 -8.5 3.359375 -8.675781 C 4.347656 -8.859375 5.34375 -8.636719 6.34375 -8.007812 L 5.21875 -6.226562 L 6.289062 -8.039062 C 7.34375 -7.414062 8.460938 -6.960938 9.632812 -6.671875 C 10.84375 -6.375 12.121094 -6.226562 13.464844 -6.226562 C 15.222656 -6.226562 16.417969 -6.464844 17.058594 -6.933594 C 17.304688 -7.113281 17.476562 -7.300781 17.578125 -7.496094 C 17.671875 -7.671875 17.714844 -7.878906 17.714844 -8.121094 C 17.714844 -8.304688 17.691406 -8.445312 17.644531 -8.550781 C 17.605469 -8.632812 17.542969 -8.707031 17.449219 -8.78125 C 16.992188 -9.140625 16.054688 -9.46875 14.632812 -9.765625 L 10.003906 -10.734375 C 6.921875 -11.382812 4.578125 -12.523438 2.976562 -14.160156 C 1.273438 -15.902344 0.421875 -18.15625 0.421875 -20.914062 C 0.421875 -22.621094 0.773438 -24.183594 1.484375 -25.601562 C 2.183594 -27 3.167969 -28.203125 4.433594 -29.210938 C 5.667969 -30.191406 7.117188 -30.9375 8.789062 -31.449219 C 10.40625 -31.945312 12.175781 -32.191406 14.097656 -32.191406 C 15.972656 -32.191406 17.757812 -31.957031 19.457031 -31.484375 C 21.191406 -31.003906 22.757812 -30.292969 24.152344 -29.351562 C 24.996094 -28.773438 25.566406 -28.039062 25.871094 -27.152344 C 26.148438 -26.351562 26.207031 -25.546875 26.054688 -24.746094 C 25.886719 -23.886719 25.5 -23.152344 24.886719 -22.542969 C 24.234375 -21.890625 23.4375 -21.507812 22.492188 -21.394531 C 21.570312 -21.28125 20.609375 -21.507812 19.617188 -22.074219 C 18.757812 -22.5625 17.890625 -22.910156 17.019531 -23.117188 C 16.113281 -23.332031 15.125 -23.441406 14.054688 -23.441406 C 13.03125 -23.441406 12.179688 -23.304688 11.503906 -23.039062 C 10.949219 -22.820312 10.546875 -22.542969 10.292969 -22.203125 C 10.082031 -21.917969 9.972656 -21.558594 9.972656 -21.125 C 9.972656 -20.742188 10.078125 -20.457031 10.285156 -20.273438 C 10.675781 -19.921875 11.5 -19.617188 12.757812 -19.355469 L 17.351562 -18.386719 C 20.507812 -17.71875 22.910156 -16.621094 24.554688 -15.09375 C 26.363281 -13.414062 27.269531 -11.21875 27.269531 -8.5 C 27.269531 -6.824219 26.921875 -5.289062 26.226562 -3.898438 C 25.535156 -2.515625 24.550781 -1.332031 23.269531 -0.351562 C 22.039062 0.59375 20.582031 1.3125 18.898438 1.808594 C 17.273438 2.285156 15.464844 2.523438 13.464844 2.523438 Z M 13.464844 -1.683594 C 15.058594 -1.683594 16.476562 -1.867188 17.710938 -2.230469 C 18.890625 -2.578125 19.890625 -3.0625 20.707031 -3.691406 C 21.476562 -4.277344 22.058594 -4.976562 22.460938 -5.78125 C 22.863281 -6.578125 23.0625 -7.484375 23.0625 -8.5 C 23.0625 -9.992188 22.605469 -11.160156 21.691406 -12.007812 C 20.617188 -13.007812 18.878906 -13.761719 16.484375 -14.269531 L 11.902344 -15.234375 C 9.90625 -15.648438 8.429688 -16.28125 7.476562 -17.136719 C 6.335938 -18.160156 5.765625 -19.488281 5.765625 -21.125 C 5.765625 -22.488281 6.148438 -23.6875 6.917969 -24.71875 C 7.648438 -25.699219 8.660156 -26.445312 9.960938 -26.953125 C 11.132812 -27.417969 12.5 -27.648438 14.054688 -27.648438 C 15.453125 -27.648438 16.765625 -27.503906 17.992188 -27.214844 C 19.253906 -26.914062 20.492188 -26.421875 21.707031 -25.730469 C 21.84375 -25.652344 21.953125 -25.601562 22.042969 -25.578125 C 22.054688 -25.574219 22.058594 -25.574219 22.058594 -25.574219 C 22.039062 -25.574219 22.015625 -25.574219 21.988281 -25.570312 C 21.996094 -25.570312 22 -25.574219 22.003906 -25.574219 C 21.996094 -25.570312 21.988281 -25.566406 21.976562 -25.5625 C 21.949219 -25.550781 21.929688 -25.535156 21.910156 -25.515625 C 21.914062 -25.523438 21.917969 -25.53125 21.921875 -25.542969 C 21.933594 -25.609375 21.925781 -25.691406 21.890625 -25.785156 L 21.894531 -25.78125 C 21.875 -25.804688 21.84375 -25.832031 21.800781 -25.863281 C 20.78125 -26.546875 19.628906 -27.070312 18.332031 -27.429688 C 17 -27.800781 15.589844 -27.984375 14.097656 -27.984375 C 12.597656 -27.984375 11.238281 -27.796875 10.023438 -27.425781 C 8.859375 -27.066406 7.871094 -26.566406 7.054688 -25.917969 C 6.273438 -25.296875 5.671875 -24.5625 5.25 -23.71875 C 4.835938 -22.894531 4.628906 -21.957031 4.628906 -20.914062 C 4.628906 -19.300781 5.082031 -18.03125 5.984375 -17.105469 C 6.992188 -16.078125 8.621094 -15.324219 10.867188 -14.851562 L 15.496094 -13.882812 C 17.558594 -13.453125 19.074219 -12.855469 20.046875 -12.09375 C 20.667969 -11.605469 21.140625 -11.011719 21.460938 -10.320312 C 21.769531 -9.65625 21.925781 -8.921875 21.925781 -8.121094 C 21.925781 -7.1875 21.71875 -6.324219 21.304688 -5.539062 C 20.902344 -4.773438 20.316406 -4.109375 19.554688 -3.542969 C 18.171875 -2.527344 16.144531 -2.019531 13.464844 -2.019531 C 11.78125 -2.019531 10.171875 -2.207031 8.632812 -2.585938 C 7.054688 -2.972656 5.5625 -3.582031 4.148438 -4.417969 L 4.09375 -4.449219 C 4.015625 -4.5 3.957031 -4.527344 3.925781 -4.539062 C 3.980469 -4.523438 4.050781 -4.523438 4.132812 -4.539062 C 4.175781 -4.546875 4.214844 -4.566406 4.242188 -4.601562 C 4.199219 -4.550781 4.175781 -4.492188 4.164062 -4.417969 C 4.152344 -4.339844 4.171875 -4.242188 4.21875 -4.125 C 4.25 -4.042969 4.335938 -3.960938 4.464844 -3.871094 C 5.191406 -3.402344 6.023438 -3.007812 6.957031 -2.683594 C 7.929688 -2.347656 8.964844 -2.097656 10.070312 -1.933594 C 11.203125 -1.765625 12.335938 -1.683594 13.464844 -1.683594 Z M 13.464844 -1.683594 "/></g></g><g style="fill:#ff96a6;fill-opacity:1;"><g transform="translate(46.499095, 104.429948)"><path style="stroke:none" d="M 12.121094 2.523438 C 9.625 2.523438 7.433594 2.003906 5.546875 0.957031 C 3.613281 -0.113281 2.117188 -1.632812 1.050781 -3.609375 C 0.0117188 -5.535156 -0.503906 -7.769531 -0.503906 -10.308594 C -0.503906 -12.222656 -0.214844 -13.949219 0.367188 -15.492188 C 0.960938 -17.074219 1.828125 -18.441406 2.960938 -19.59375 C 4.101562 -20.75 5.460938 -21.628906 7.035156 -22.230469 C 8.570312 -22.8125 10.261719 -23.101562 12.121094 -23.101562 C 14.613281 -23.101562 16.804688 -22.582031 18.695312 -21.535156 C 20.621094 -20.46875 22.121094 -18.953125 23.183594 -16.996094 C 24.226562 -15.085938 24.746094 -12.855469 24.746094 -10.308594 C 24.746094 -8.402344 24.457031 -6.671875 23.875 -5.113281 C 23.28125 -3.515625 22.414062 -2.140625 21.277344 -0.984375 C 20.136719 0.171875 18.777344 1.050781 17.203125 1.652344 C 15.671875 2.234375 13.976562 2.523438 12.121094 2.523438 Z M 12.121094 -1.683594 C 13.460938 -1.683594 14.65625 -1.882812 15.707031 -2.28125 C 16.710938 -2.664062 17.570312 -3.214844 18.28125 -3.9375 C 18.996094 -4.664062 19.546875 -5.546875 19.933594 -6.582031 C 20.335938 -7.664062 20.535156 -8.90625 20.535156 -10.308594 C 20.535156 -12.140625 20.1875 -13.699219 19.488281 -14.984375 C 18.8125 -16.226562 17.867188 -17.183594 16.65625 -17.855469 C 15.402344 -18.546875 13.890625 -18.894531 12.121094 -18.894531 C 10.777344 -18.894531 9.582031 -18.695312 8.535156 -18.296875 C 7.527344 -17.914062 6.671875 -17.363281 5.960938 -16.640625 C 5.242188 -15.910156 4.691406 -15.035156 4.304688 -14.007812 C 3.902344 -12.941406 3.703125 -11.710938 3.703125 -10.308594 C 3.703125 -8.476562 4.054688 -6.90625 4.757812 -5.605469 C 5.429688 -4.355469 6.375 -3.394531 7.585938 -2.726562 C 8.839844 -2.03125 10.351562 -1.683594 12.121094 -1.683594 Z M 12.121094 -5.679688 C 12.746094 -5.679688 13.277344 -5.824219 13.71875 -6.105469 C 14.144531 -6.378906 14.492188 -6.820312 14.757812 -7.429688 C 15.074219 -8.15625 15.234375 -9.117188 15.234375 -10.308594 C 15.234375 -12.035156 14.925781 -13.253906 14.3125 -13.964844 C 13.777344 -14.585938 13.046875 -14.898438 12.121094 -14.898438 C 11.484375 -14.898438 10.945312 -14.757812 10.5 -14.480469 C 10.082031 -14.21875 9.742188 -13.789062 9.480469 -13.191406 C 9.164062 -12.464844 9.007812 -11.503906 9.007812 -10.308594 C 9.007812 -8.605469 9.320312 -7.378906 9.945312 -6.632812 C 10.476562 -6 11.203125 -5.679688 12.121094 -5.679688 Z M 12.121094 -1.472656 C 9.894531 -1.472656 8.09375 -2.292969 6.71875 -3.929688 C 5.4375 -5.457031 4.796875 -7.582031 4.796875 -10.308594 C 4.796875 -12.089844 5.074219 -13.613281 5.625 -14.875 C 6.234375 -16.269531 7.113281 -17.328125 8.269531 -18.050781 C 9.394531 -18.753906 10.679688 -19.105469 12.121094 -19.105469 C 14.335938 -19.105469 16.128906 -18.308594 17.503906 -16.710938 C 18.796875 -15.210938 19.441406 -13.074219 19.441406 -10.308594 C 19.441406 -8.53125 19.167969 -7.007812 18.613281 -5.742188 C 18.007812 -4.359375 17.136719 -3.300781 15.992188 -2.5625 C 14.859375 -1.835938 13.570312 -1.472656 12.121094 -1.472656 Z M 12.121094 -1.472656 "/></g></g><g style="fill:#ff96a6;fill-opacity:1;"><g transform="translate(70.738367, 104.429948)"><path style="stroke:none" d="M 12.121094 2.523438 C 9.625 2.523438 7.433594 2.003906 5.546875 0.957031 C 3.613281 -0.113281 2.117188 -1.632812 1.050781 -3.609375 C 0.0117188 -5.535156 -0.503906 -7.769531 -0.503906 -10.308594 C -0.503906 -12.222656 -0.214844 -13.949219 0.367188 -15.492188 C 0.960938 -17.074219 1.828125 -18.441406 2.960938 -19.59375 C 4.101562 -20.75 5.460938 -21.628906 7.035156 -22.230469 C 8.570312 -22.8125 10.261719 -23.101562 12.121094 -23.101562 C 14.613281 -23.101562 16.804688 -22.582031 18.695312 -21.535156 C 20.621094 -20.46875 22.121094 -18.953125 23.183594 -16.996094 C 24.226562 -15.085938 24.746094 -12.855469 24.746094 -10.308594 C 24.746094 -8.402344 24.457031 -6.671875 23.875 -5.113281 C 23.28125 -3.515625 22.414062 -2.140625 21.277344 -0.984375 C 20.136719 0.171875 18.777344 1.050781 17.203125 1.652344 C 15.671875 2.234375 13.976562 2.523438 12.121094 2.523438 Z M 12.121094 -1.683594 C 13.460938 -1.683594 14.65625 -1.882812 15.707031 -2.28125 C 16.710938 -2.664062 17.570312 -3.214844 18.28125 -3.9375 C 18.996094 -4.664062 19.546875 -5.546875 19.933594 -6.582031 C 20.335938 -7.664062 20.535156 -8.90625 20.535156 -10.308594 C 20.535156 -12.140625 20.1875 -13.699219 19.488281 -14.984375 C 18.8125 -16.226562 17.867188 -17.183594 16.65625 -17.855469 C 15.402344 -18.546875 13.890625 -18.894531 12.121094 -18.894531 C 10.777344 -18.894531 9.582031 -18.695312 8.535156 -18.296875 C 7.527344 -17.914062 6.671875 -17.363281 5.960938 -16.640625 C 5.242188 -15.910156 4.691406 -15.035156 4.304688 -14.007812 C 3.902344 -12.941406 3.703125 -11.710938 3.703125 -10.308594 C 3.703125 -8.476562 4.054688 -6.90625 4.757812 -5.605469 C 5.429688 -4.355469 6.375 -3.394531 7.585938 -2.726562 C 8.839844 -2.03125 10.351562 -1.683594 12.121094 -1.683594 Z M 12.121094 -5.679688 C 12.746094 -5.679688 13.277344 -5.824219 13.71875 -6.105469 C 14.144531 -6.378906 14.492188 -6.820312 14.757812 -7.429688 C 15.074219 -8.15625 15.234375 -9.117188 15.234375 -10.308594 C 15.234375 -12.035156 14.925781 -13.253906 14.3125 -13.964844 C 13.777344 -14.585938 13.046875 -14.898438 12.121094 -14.898438 C 11.484375 -14.898438 10.945312 -14.757812 10.5 -14.480469 C 10.082031 -14.21875 9.742188 -13.789062 9.480469 -13.191406 C 9.164062 -12.464844 9.007812 -11.503906 9.007812 -10.308594 C 9.007812 -8.605469 9.320312 -7.378906 9.945312 -6.632812 C 10.476562 -6 11.203125 -5.679688 12.121094 -5.679688 Z M 12.121094 -1.472656 C 9.894531 -1.472656 8.09375 -2.292969 6.71875 -3.929688 C 5.4375 -5.457031 4.796875 -7.582031 4.796875 -10.308594 C 4.796875 -12.089844 5.074219 -13.613281 5.625 -14.875 C 6.234375 -16.269531 7.113281 -17.328125 8.269531 -18.050781 C 9.394531 -18.753906 10.679688 -19.105469 12.121094 -19.105469 C 14.335938 -19.105469 16.128906 -18.308594 17.503906 -16.710938 C 18.796875 -15.210938 19.441406 -13.074219 19.441406 -10.308594 C 19.441406 -8.53125 19.167969 -7.007812 18.613281 -5.742188 C 18.007812 -4.359375 17.136719 -3.300781 15.992188 -2.5625 C 14.859375 -1.835938 13.570312 -1.472656 12.121094 -1.472656 Z M 12.121094 -1.472656 "/></g></g><g style="fill:#ff96a6;fill-opacity:1;"><g transform="translate(94.977638, 104.429948)"><path style="stroke:none" d="M 5.34375 2.441406 C 3.910156 2.441406 2.761719 1.996094 1.898438 1.105469 C 1.054688 0.234375 0.632812 -0.917969 0.632812 -2.355469 L 0.632812 -18.265625 C 0.632812 -19.714844 1.0625 -20.871094 1.921875 -21.730469 C 2.78125 -22.589844 3.90625 -23.019531 5.300781 -23.019531 C 6.695312 -23.019531 7.824219 -22.589844 8.683594 -21.730469 C 9.542969 -20.871094 9.972656 -19.714844 9.972656 -18.265625 L 9.972656 -15.402344 L 5.941406 -14.554688 L 5.117188 -16.429688 L 5.464844 -17.261719 C 6.257812 -19.179688 7.511719 -20.644531 9.21875 -21.652344 C 10.851562 -22.621094 12.691406 -23.101562 14.730469 -23.101562 C 16.761719 -23.101562 18.472656 -22.699219 19.863281 -21.894531 C 21.335938 -21.042969 22.429688 -19.777344 23.144531 -18.101562 C 23.789062 -16.589844 24.113281 -14.734375 24.113281 -12.539062 L 24.113281 -2.355469 C 24.113281 -0.917969 23.691406 0.234375 22.847656 1.105469 C 21.984375 1.996094 20.835938 2.441406 19.398438 2.441406 C 17.976562 2.441406 16.828125 2.003906 15.957031 1.128906 C 15.082031 0.257812 14.644531 -0.90625 14.644531 -2.355469 L 14.644531 -12.289062 C 14.644531 -12.910156 14.589844 -13.425781 14.484375 -13.832031 C 14.414062 -14.113281 14.324219 -14.316406 14.222656 -14.441406 C 14.039062 -14.660156 13.648438 -14.769531 13.046875 -14.769531 C 12.109375 -14.769531 11.390625 -14.507812 10.894531 -13.980469 C 10.363281 -13.417969 10.101562 -12.613281 10.101562 -11.574219 L 10.101562 -2.355469 C 10.101562 -0.882812 9.675781 0.28125 8.832031 1.140625 C 7.976562 2.007812 6.816406 2.441406 5.34375 2.441406 Z M 5.34375 -1.769531 C 5.554688 -1.769531 5.71875 -1.785156 5.828125 -1.824219 C 5.847656 -1.832031 5.859375 -1.835938 5.863281 -1.839844 C 5.855469 -1.832031 5.84375 -1.824219 5.832031 -1.8125 C 5.824219 -1.800781 5.816406 -1.792969 5.8125 -1.785156 C 5.816406 -1.792969 5.824219 -1.8125 5.832031 -1.835938 C 5.871094 -1.957031 5.890625 -2.132812 5.890625 -2.355469 L 5.890625 -11.574219 C 5.890625 -13.730469 6.539062 -15.492188 7.832031 -16.867188 C 9.160156 -18.273438 10.898438 -18.980469 13.046875 -18.980469 C 14.96875 -18.980469 16.441406 -18.359375 17.464844 -17.121094 C 18.390625 -16.003906 18.851562 -14.390625 18.851562 -12.289062 L 18.851562 -2.355469 C 18.851562 -2.160156 18.871094 -2.003906 18.910156 -1.894531 C 18.917969 -1.871094 18.925781 -1.855469 18.933594 -1.84375 L 18.929688 -1.84375 C 18.9375 -1.839844 18.957031 -1.828125 18.984375 -1.820312 C 19.082031 -1.785156 19.222656 -1.769531 19.398438 -1.769531 C 19.578125 -1.769531 19.710938 -1.785156 19.804688 -1.816406 C 19.820312 -1.824219 19.828125 -1.828125 19.835938 -1.832031 C 19.832031 -1.828125 19.828125 -1.824219 19.824219 -1.824219 L 19.824219 -1.820312 C 19.832031 -1.832031 19.839844 -1.851562 19.847656 -1.875 C 19.886719 -1.992188 19.90625 -2.152344 19.90625 -2.355469 L 19.90625 -12.539062 C 19.90625 -14.160156 19.695312 -15.464844 19.273438 -16.449219 C 18.925781 -17.269531 18.417969 -17.867188 17.757812 -18.253906 C 17.015625 -18.679688 16.007812 -18.894531 14.730469 -18.894531 C 13.457031 -18.894531 12.335938 -18.605469 11.359375 -18.03125 C 10.457031 -17.496094 9.789062 -16.703125 9.351562 -15.648438 L 7.40625 -16.453125 L 9.332031 -17.300781 L 9.796875 -16.25 L 7.871094 -15.402344 L 5.765625 -15.402344 L 5.765625 -18.265625 C 5.765625 -18.464844 5.746094 -18.621094 5.710938 -18.730469 C 5.703125 -18.753906 5.695312 -18.765625 5.691406 -18.773438 C 5.695312 -18.765625 5.699219 -18.761719 5.707031 -18.753906 C 5.710938 -18.753906 5.710938 -18.75 5.710938 -18.75 C 5.707031 -18.753906 5.695312 -18.757812 5.679688 -18.765625 C 5.59375 -18.796875 5.46875 -18.8125 5.300781 -18.8125 C 5.136719 -18.8125 5.011719 -18.796875 4.921875 -18.765625 C 4.910156 -18.757812 4.898438 -18.753906 4.894531 -18.75 C 4.894531 -18.75 4.894531 -18.753906 4.898438 -18.753906 C 4.902344 -18.761719 4.910156 -18.765625 4.914062 -18.773438 C 4.90625 -18.765625 4.902344 -18.753906 4.894531 -18.730469 C 4.859375 -18.621094 4.839844 -18.464844 4.839844 -18.265625 L 4.839844 -2.355469 C 4.839844 -2.152344 4.859375 -1.992188 4.898438 -1.875 C 4.90625 -1.851562 4.914062 -1.832031 4.921875 -1.820312 L 4.917969 -1.824219 C 4.917969 -1.824219 4.914062 -1.828125 4.910156 -1.832031 C 4.914062 -1.828125 4.925781 -1.824219 4.941406 -1.816406 C 5.03125 -1.785156 5.167969 -1.769531 5.34375 -1.769531 Z M 5.34375 -1.769531 "/></g></g><g style="fill:#ff96a6;fill-opacity:1;"><g transform="translate(119.595652, 104.429948)"><path style="stroke:none" d="M 5.261719 -6.4375 C 4.089844 -6.4375 3.148438 -6.847656 2.433594 -7.660156 C 1.839844 -8.339844 1.496094 -9.21875 1.398438 -10.289062 L 0.132812 -26.390625 C 0 -28 0.390625 -29.34375 1.296875 -30.414062 C 2.25 -31.542969 3.570312 -32.109375 5.261719 -32.109375 C 6.933594 -32.109375 8.238281 -31.539062 9.179688 -30.394531 C 10.058594 -29.324219 10.433594 -27.988281 10.304688 -26.382812 L 9.042969 -10.3125 L 6.945312 -10.480469 L 9.046875 -10.382812 C 8.996094 -9.273438 8.660156 -8.367188 8.042969 -7.660156 C 7.328125 -6.847656 6.402344 -6.4375 5.261719 -6.4375 Z M 5.261719 -10.648438 C 5.230469 -10.648438 5.183594 -10.632812 5.121094 -10.609375 C 5.023438 -10.566406 4.941406 -10.507812 4.875 -10.433594 C 4.839844 -10.390625 4.816406 -10.359375 4.808594 -10.332031 C 4.824219 -10.382812 4.835938 -10.464844 4.839844 -10.574219 L 4.84375 -10.609375 L 6.109375 -26.722656 C 6.148438 -27.195312 6.085938 -27.527344 5.929688 -27.722656 C 5.832031 -27.839844 5.609375 -27.902344 5.261719 -27.902344 C 4.875 -27.902344 4.625 -27.832031 4.511719 -27.699219 C 4.351562 -27.511719 4.289062 -27.183594 4.328125 -26.71875 L 5.589844 -10.667969 C 5.601562 -10.542969 5.617188 -10.449219 5.640625 -10.382812 L 5.640625 -10.378906 C 5.632812 -10.394531 5.621094 -10.414062 5.601562 -10.433594 C 5.53125 -10.515625 5.445312 -10.578125 5.34375 -10.617188 C 5.308594 -10.632812 5.277344 -10.640625 5.25 -10.644531 Z M 5.261719 2.316406 C 3.714844 2.316406 2.449219 1.808594 1.460938 0.796875 C 0.488281 -0.203125 0 -1.449219 0 -2.945312 C 0 -4.425781 0.492188 -5.65625 1.480469 -6.644531 C 2.464844 -7.628906 3.726562 -8.121094 5.261719 -8.121094 C 6.84375 -8.121094 8.117188 -7.617188 9.078125 -6.605469 C 10.011719 -5.625 10.480469 -4.402344 10.480469 -2.945312 C 10.480469 -1.46875 10.019531 -0.234375 9.097656 0.757812 C 8.132812 1.796875 6.855469 2.316406 5.261719 2.316406 Z M 5.261719 -1.894531 C 5.628906 -1.894531 5.882812 -1.964844 6.011719 -2.105469 C 6.183594 -2.289062 6.269531 -2.570312 6.269531 -2.945312 C 6.269531 -3.28125 6.191406 -3.535156 6.027344 -3.703125 C 5.898438 -3.84375 5.640625 -3.914062 5.261719 -3.914062 C 4.886719 -3.914062 4.617188 -3.832031 4.453125 -3.667969 C 4.289062 -3.503906 4.207031 -3.261719 4.207031 -2.945312 C 4.207031 -2.589844 4.296875 -2.324219 4.472656 -2.144531 C 4.636719 -1.976562 4.898438 -1.894531 5.261719 -1.894531 Z M 5.261719 -1.894531 "/></g></g><g style="fill:#ffd3d0;fill-opacity:1;"><g transform="translate(0.468751, 65.429951)"><path style="stroke:none" d="M 17.046875 0.421875 C 13.953125 0.421875 11.304688 -0.203125 9.109375 -1.453125 C 6.910156 -2.703125 5.21875 -4.46875 4.03125 -6.75 C 2.851562 -9.039062 2.265625 -11.742188 2.265625 -14.859375 C 2.265625 -17.179688 2.601562 -19.273438 3.28125 -21.140625 C 3.957031 -23.003906 4.925781 -24.601562 6.1875 -25.9375 C 7.445312 -27.269531 8.992188 -28.289062 10.828125 -29 C 12.671875 -29.71875 14.742188 -30.078125 17.046875 -30.078125 C 18.585938 -30.078125 20.097656 -29.878906 21.578125 -29.484375 C 23.066406 -29.097656 24.375 -28.539062 25.5 -27.8125 C 26.09375 -27.445312 26.484375 -27.003906 26.671875 -26.484375 C 26.867188 -25.960938 26.910156 -25.457031 26.796875 -24.96875 C 26.691406 -24.476562 26.460938 -24.066406 26.109375 -23.734375 C 25.753906 -23.398438 25.316406 -23.207031 24.796875 -23.15625 C 24.285156 -23.113281 23.71875 -23.289062 23.09375 -23.6875 C 22.226562 -24.25 21.289062 -24.65625 20.28125 -24.90625 C 19.269531 -25.15625 18.242188 -25.28125 17.203125 -25.28125 C 15.210938 -25.28125 13.53125 -24.875 12.15625 -24.0625 C 10.78125 -23.25 9.742188 -22.070312 9.046875 -20.53125 C 8.347656 -18.988281 8 -17.097656 8 -14.859375 C 8 -12.640625 8.347656 -10.742188 9.046875 -9.171875 C 9.742188 -7.597656 10.78125 -6.40625 12.15625 -5.59375 C 13.53125 -4.78125 15.210938 -4.375 17.203125 -4.375 C 18.273438 -4.375 19.328125 -4.503906 20.359375 -4.765625 C 21.398438 -5.035156 22.382812 -5.453125 23.3125 -6.015625 C 23.925781 -6.378906 24.476562 -6.539062 24.96875 -6.5 C 25.457031 -6.457031 25.867188 -6.28125 26.203125 -5.96875 C 26.546875 -5.664062 26.773438 -5.28125 26.890625 -4.8125 C 27.003906 -4.351562 26.972656 -3.878906 26.796875 -3.390625 C 26.628906 -2.898438 26.296875 -2.472656 25.796875 -2.109375 C 24.671875 -1.296875 23.328125 -0.671875 21.765625 -0.234375 C 20.210938 0.203125 18.640625 0.421875 17.046875 0.421875 Z M 17.046875 0.421875 "/></g></g><g style="fill:#ffd3d0;fill-opacity:1;"><g transform="translate(27.611675, 65.429951)"><path style="stroke:none" d="M 12.125 0.421875 C 9.988281 0.421875 8.132812 -0.0078125 6.5625 -0.875 C 4.988281 -1.75 3.765625 -2.992188 2.890625 -4.609375 C 2.023438 -6.222656 1.59375 -8.125 1.59375 -10.3125 C 1.59375 -11.96875 1.835938 -13.445312 2.328125 -14.75 C 2.828125 -16.050781 3.535156 -17.171875 4.453125 -18.109375 C 5.378906 -19.054688 6.488281 -19.773438 7.78125 -20.265625 C 9.070312 -20.753906 10.519531 -21 12.125 -21 C 14.25 -21 16.097656 -20.5625 17.671875 -19.6875 C 19.242188 -18.820312 20.460938 -17.585938 21.328125 -15.984375 C 22.203125 -14.390625 22.640625 -12.5 22.640625 -10.3125 C 22.640625 -8.65625 22.394531 -7.164062 21.90625 -5.84375 C 21.414062 -4.53125 20.707031 -3.398438 19.78125 -2.453125 C 18.851562 -1.515625 17.742188 -0.800781 16.453125 -0.3125 C 15.160156 0.175781 13.71875 0.421875 12.125 0.421875 Z M 12.125 -3.578125 C 13.15625 -3.578125 14.0625 -3.828125 14.84375 -4.328125 C 15.632812 -4.835938 16.25 -5.585938 16.6875 -6.578125 C 17.125 -7.578125 17.34375 -8.820312 17.34375 -10.3125 C 17.34375 -12.550781 16.863281 -14.222656 15.90625 -15.328125 C 14.945312 -16.441406 13.6875 -17 12.125 -17 C 11.082031 -17 10.164062 -16.753906 9.375 -16.265625 C 8.59375 -15.773438 7.984375 -15.03125 7.546875 -14.03125 C 7.117188 -13.039062 6.90625 -11.800781 6.90625 -10.3125 C 6.90625 -8.09375 7.378906 -6.414062 8.328125 -5.28125 C 9.285156 -4.144531 10.550781 -3.578125 12.125 -3.578125 Z M 12.125 -3.578125 "/></g></g><g style="fill:#ffd3d0;fill-opacity:1;"><g transform="translate(51.850947, 65.429951)"><path style="stroke:none" d="M 5.421875 0.34375 C 4.585938 0.34375 3.941406 0.113281 3.484375 -0.34375 C 3.035156 -0.8125 2.8125 -1.484375 2.8125 -2.359375 L 2.8125 -18.265625 C 2.8125 -19.128906 3.035156 -19.785156 3.484375 -20.234375 C 3.941406 -20.679688 4.578125 -20.90625 5.390625 -20.90625 C 6.203125 -20.90625 6.832031 -20.679688 7.28125 -20.234375 C 7.726562 -19.785156 7.953125 -19.128906 7.953125 -18.265625 L 7.953125 -15.1875 L 7.484375 -16.453125 C 8.046875 -17.859375 8.914062 -18.96875 10.09375 -19.78125 C 11.269531 -20.59375 12.675781 -21 14.3125 -21 C 15.96875 -21 17.328125 -20.601562 18.390625 -19.8125 C 19.453125 -19.03125 20.195312 -17.828125 20.625 -16.203125 L 20.03125 -16.203125 C 20.59375 -17.691406 21.515625 -18.863281 22.796875 -19.71875 C 24.085938 -20.570312 25.578125 -21 27.265625 -21 C 28.835938 -21 30.132812 -20.6875 31.15625 -20.0625 C 32.175781 -19.445312 32.9375 -18.515625 33.4375 -17.265625 C 33.945312 -16.023438 34.203125 -14.453125 34.203125 -12.546875 L 34.203125 -2.359375 C 34.203125 -1.484375 33.972656 -0.8125 33.515625 -0.34375 C 33.054688 0.113281 32.40625 0.34375 31.5625 0.34375 C 30.71875 0.34375 30.070312 0.113281 29.625 -0.34375 C 29.175781 -0.8125 28.953125 -1.484375 28.953125 -2.359375 L 28.953125 -12.328125 C 28.953125 -13.898438 28.691406 -15.050781 28.171875 -15.78125 C 27.648438 -16.507812 26.773438 -16.875 25.546875 -16.875 C 24.171875 -16.875 23.085938 -16.390625 22.296875 -15.421875 C 21.515625 -14.453125 21.125 -13.113281 21.125 -11.40625 L 21.125 -2.359375 C 21.125 -1.484375 20.898438 -0.8125 20.453125 -0.34375 C 20.003906 0.113281 19.359375 0.34375 18.515625 0.34375 C 17.671875 0.34375 17.015625 0.113281 16.546875 -0.34375 C 16.085938 -0.8125 15.859375 -1.484375 15.859375 -2.359375 L 15.859375 -12.328125 C 15.859375 -13.898438 15.597656 -15.050781 15.078125 -15.78125 C 14.566406 -16.507812 13.707031 -16.875 12.5 -16.875 C 11.125 -16.875 10.039062 -16.390625 9.25 -15.421875 C 8.46875 -14.453125 8.078125 -13.113281 8.078125 -11.40625 L 8.078125 -2.359375 C 8.078125 -0.554688 7.191406 0.34375 5.421875 0.34375 Z M 5.421875 0.34375 "/></g></g><g style="fill:#ffd3d0;fill-opacity:1;"><g transform="translate(88.756916, 65.429951)"><path style="stroke:none" d="M 5.34375 0.296875 C 4.5 0.296875 3.851562 0.046875 3.40625 -0.453125 C 2.957031 -0.960938 2.734375 -1.664062 2.734375 -2.5625 L 2.734375 -18.015625 C 2.734375 -18.929688 2.957031 -19.632812 3.40625 -20.125 C 3.851562 -20.625 4.5 -20.875 5.34375 -20.875 C 6.1875 -20.875 6.835938 -20.625 7.296875 -20.125 C 7.765625 -19.632812 8 -18.929688 8 -18.015625 L 8 -2.5625 C 8 -1.664062 7.769531 -0.960938 7.3125 -0.453125 C 6.863281 0.046875 6.207031 0.296875 5.34375 0.296875 Z M 5.34375 -24.78125 C 4.363281 -24.78125 3.597656 -25.023438 3.046875 -25.515625 C 2.503906 -26.003906 2.234375 -26.6875 2.234375 -27.5625 C 2.234375 -28.457031 2.503906 -29.144531 3.046875 -29.625 C 3.597656 -30.101562 4.363281 -30.34375 5.34375 -30.34375 C 6.351562 -30.34375 7.125 -30.101562 7.65625 -29.625 C 8.1875 -29.144531 8.453125 -28.457031 8.453125 -27.5625 C 8.453125 -26.6875 8.1875 -26.003906 7.65625 -25.515625 C 7.125 -25.023438 6.351562 -24.78125 5.34375 -24.78125 Z M 5.34375 -24.78125 "/></g></g><g style="fill:#ffd3d0;fill-opacity:1;"><g transform="translate(99.487846, 65.429951)"><path style="stroke:none" d="M 5.34375 0.34375 C 4.5 0.34375 3.851562 0.113281 3.40625 -0.34375 C 2.957031 -0.8125 2.734375 -1.484375 2.734375 -2.359375 L 2.734375 -18.265625 C 2.734375 -19.128906 2.957031 -19.785156 3.40625 -20.234375 C 3.851562 -20.679688 4.484375 -20.90625 5.296875 -20.90625 C 6.109375 -20.90625 6.738281 -20.679688 7.1875 -20.234375 C 7.644531 -19.785156 7.875 -19.128906 7.875 -18.265625 L 7.875 -15.40625 L 7.40625 -16.453125 C 8.019531 -17.941406 8.976562 -19.070312 10.28125 -19.84375 C 11.59375 -20.613281 13.078125 -21 14.734375 -21 C 16.378906 -21 17.734375 -20.6875 18.796875 -20.0625 C 19.867188 -19.445312 20.671875 -18.515625 21.203125 -17.265625 C 21.734375 -16.023438 22 -14.453125 22 -12.546875 L 22 -2.359375 C 22 -1.484375 21.773438 -0.8125 21.328125 -0.34375 C 20.878906 0.113281 20.234375 0.34375 19.390625 0.34375 C 18.554688 0.34375 17.90625 0.113281 17.4375 -0.34375 C 16.976562 -0.8125 16.75 -1.484375 16.75 -2.359375 L 16.75 -12.28125 C 16.75 -13.882812 16.445312 -15.050781 15.84375 -15.78125 C 15.238281 -16.507812 14.304688 -16.875 13.046875 -16.875 C 11.503906 -16.875 10.273438 -16.390625 9.359375 -15.421875 C 8.453125 -14.453125 8 -13.171875 8 -11.578125 L 8 -2.359375 C 8 -0.554688 7.113281 0.34375 5.34375 0.34375 Z M 5.34375 0.34375 "/></g></g><g style="fill:#ffd3d0;fill-opacity:1;"><g transform="translate(124.105859, 65.429951)"><path style="stroke:none" d="M 12.328125 8 C 10.816406 8 9.351562 7.859375 7.9375 7.578125 C 6.519531 7.296875 5.234375 6.859375 4.078125 6.265625 C 3.546875 5.984375 3.1875 5.644531 3 5.25 C 2.820312 4.863281 2.769531 4.46875 2.84375 4.0625 C 2.914062 3.65625 3.082031 3.296875 3.34375 2.984375 C 3.613281 2.679688 3.941406 2.472656 4.328125 2.359375 C 4.722656 2.242188 5.128906 2.300781 5.546875 2.53125 C 6.785156 3.144531 7.957031 3.539062 9.0625 3.71875 C 10.175781 3.90625 11.125 4 11.90625 4 C 13.789062 4 15.203125 3.539062 16.140625 2.625 C 17.078125 1.71875 17.546875 0.363281 17.546875 -1.4375 L 17.546875 -5.21875 L 17.921875 -5.21875 C 17.503906 -3.789062 16.628906 -2.644531 15.296875 -1.78125 C 13.960938 -0.925781 12.453125 -0.5 10.765625 -0.5 C 8.921875 -0.5 7.3125 -0.925781 5.9375 -1.78125 C 4.5625 -2.644531 3.492188 -3.847656 2.734375 -5.390625 C 1.972656 -6.929688 1.59375 -8.722656 1.59375 -10.765625 C 1.59375 -12.316406 1.8125 -13.710938 2.25 -14.953125 C 2.6875 -16.203125 3.300781 -17.273438 4.09375 -18.171875 C 4.894531 -19.078125 5.863281 -19.773438 7 -20.265625 C 8.132812 -20.753906 9.390625 -21 10.765625 -21 C 12.503906 -21 14.023438 -20.570312 15.328125 -19.71875 C 16.640625 -18.863281 17.492188 -17.734375 17.890625 -16.328125 L 17.46875 -15.28125 L 17.46875 -18.265625 C 17.46875 -19.128906 17.695312 -19.785156 18.15625 -20.234375 C 18.613281 -20.679688 19.253906 -20.90625 20.078125 -20.90625 C 20.910156 -20.90625 21.550781 -20.679688 22 -20.234375 C 22.457031 -19.785156 22.6875 -19.128906 22.6875 -18.265625 L 22.6875 -2.0625 C 22.6875 1.28125 21.800781 3.789062 20.03125 5.46875 C 18.257812 7.15625 15.691406 8 12.328125 8 Z M 12.203125 -4.5 C 13.296875 -4.5 14.234375 -4.75 15.015625 -5.25 C 15.804688 -5.757812 16.414062 -6.484375 16.84375 -7.421875 C 17.28125 -8.367188 17.5 -9.484375 17.5 -10.765625 C 17.5 -12.703125 17.019531 -14.222656 16.0625 -15.328125 C 15.113281 -16.441406 13.828125 -17 12.203125 -17 C 11.109375 -17 10.164062 -16.742188 9.375 -16.234375 C 8.59375 -15.734375 7.984375 -15.019531 7.546875 -14.09375 C 7.117188 -13.164062 6.90625 -12.054688 6.90625 -10.765625 C 6.90625 -8.835938 7.378906 -7.3125 8.328125 -6.1875 C 9.285156 -5.0625 10.578125 -4.5 12.203125 -4.5 Z M 12.203125 -4.5 "/></g></g><g style="fill:#ffd3d0;fill-opacity:1;"><g transform="translate(19.945313, 104.429948)"><path style="stroke:none" d="M 13.46875 0.421875 C 12.226562 0.421875 10.988281 0.328125 9.75 0.140625 C 8.519531 -0.0351562 7.359375 -0.3125 6.265625 -0.6875 C 5.171875 -1.070312 4.191406 -1.546875 3.328125 -2.109375 C 2.816406 -2.441406 2.460938 -2.847656 2.265625 -3.328125 C 2.078125 -3.804688 2.015625 -4.273438 2.078125 -4.734375 C 2.148438 -5.191406 2.332031 -5.597656 2.625 -5.953125 C 2.925781 -6.304688 3.300781 -6.523438 3.75 -6.609375 C 4.195312 -6.691406 4.6875 -6.566406 5.21875 -6.234375 C 6.445312 -5.503906 7.75 -4.96875 9.125 -4.625 C 10.5 -4.289062 11.945312 -4.125 13.46875 -4.125 C 15.6875 -4.125 17.296875 -4.492188 18.296875 -5.234375 C 19.304688 -5.984375 19.8125 -6.945312 19.8125 -8.125 C 19.8125 -9.101562 19.453125 -9.875 18.734375 -10.4375 C 18.023438 -11 16.800781 -11.460938 15.0625 -11.828125 L 10.4375 -12.796875 C 7.769531 -13.359375 5.785156 -14.300781 4.484375 -15.625 C 3.179688 -16.957031 2.53125 -18.71875 2.53125 -20.90625 C 2.53125 -22.28125 2.804688 -23.53125 3.359375 -24.65625 C 3.921875 -25.78125 4.710938 -26.75 5.734375 -27.5625 C 6.765625 -28.375 7.988281 -28.992188 9.40625 -29.421875 C 10.820312 -29.859375 12.382812 -30.078125 14.09375 -30.078125 C 15.78125 -30.078125 17.378906 -29.867188 18.890625 -29.453125 C 20.410156 -29.035156 21.769531 -28.421875 22.96875 -27.609375 C 23.414062 -27.296875 23.71875 -26.914062 23.875 -26.46875 C 24.03125 -26.019531 24.066406 -25.578125 23.984375 -25.140625 C 23.898438 -24.703125 23.703125 -24.328125 23.390625 -24.015625 C 23.085938 -23.710938 22.703125 -23.53125 22.234375 -23.46875 C 21.773438 -23.414062 21.25 -23.5625 20.65625 -23.90625 C 19.625 -24.488281 18.570312 -24.90625 17.5 -25.15625 C 16.4375 -25.414062 15.285156 -25.546875 14.046875 -25.546875 C 12.765625 -25.546875 11.660156 -25.363281 10.734375 -25 C 9.804688 -24.632812 9.097656 -24.117188 8.609375 -23.453125 C 8.117188 -22.796875 7.875 -22.019531 7.875 -21.125 C 7.875 -20.113281 8.207031 -19.304688 8.875 -18.703125 C 9.550781 -18.097656 10.703125 -17.628906 12.328125 -17.296875 L 16.921875 -16.328125 C 19.691406 -15.734375 21.753906 -14.804688 23.109375 -13.546875 C 24.472656 -12.285156 25.15625 -10.601562 25.15625 -8.5 C 25.15625 -7.15625 24.878906 -5.9375 24.328125 -4.84375 C 23.785156 -3.75 23.003906 -2.804688 21.984375 -2.015625 C 20.960938 -1.234375 19.734375 -0.628906 18.296875 -0.203125 C 16.867188 0.210938 15.257812 0.421875 13.46875 0.421875 Z M 13.46875 0.421875 "/></g></g><g style="fill:#ffd3d0;fill-opacity:1;"><g transform="translate(46.499095, 104.429948)"><path style="stroke:none" d="M 12.125 0.421875 C 9.988281 0.421875 8.132812 -0.0078125 6.5625 -0.875 C 4.988281 -1.75 3.765625 -2.992188 2.890625 -4.609375 C 2.023438 -6.222656 1.59375 -8.125 1.59375 -10.3125 C 1.59375 -11.96875 1.835938 -13.445312 2.328125 -14.75 C 2.828125 -16.050781 3.535156 -17.171875 4.453125 -18.109375 C 5.378906 -19.054688 6.488281 -19.773438 7.78125 -20.265625 C 9.070312 -20.753906 10.519531 -21 12.125 -21 C 14.25 -21 16.097656 -20.5625 17.671875 -19.6875 C 19.242188 -18.820312 20.460938 -17.585938 21.328125 -15.984375 C 22.203125 -14.390625 22.640625 -12.5 22.640625 -10.3125 C 22.640625 -8.65625 22.394531 -7.164062 21.90625 -5.84375 C 21.414062 -4.53125 20.707031 -3.398438 19.78125 -2.453125 C 18.851562 -1.515625 17.742188 -0.800781 16.453125 -0.3125 C 15.160156 0.175781 13.71875 0.421875 12.125 0.421875 Z M 12.125 -3.578125 C 13.15625 -3.578125 14.0625 -3.828125 14.84375 -4.328125 C 15.632812 -4.835938 16.25 -5.585938 16.6875 -6.578125 C 17.125 -7.578125 17.34375 -8.820312 17.34375 -10.3125 C 17.34375 -12.550781 16.863281 -14.222656 15.90625 -15.328125 C 14.945312 -16.441406 13.6875 -17 12.125 -17 C 11.082031 -17 10.164062 -16.753906 9.375 -16.265625 C 8.59375 -15.773438 7.984375 -15.03125 7.546875 -14.03125 C 7.117188 -13.039062 6.90625 -11.800781 6.90625 -10.3125 C 6.90625 -8.09375 7.378906 -6.414062 8.328125 -5.28125 C 9.285156 -4.144531 10.550781 -3.578125 12.125 -3.578125 Z M 12.125 -3.578125 "/></g></g><g style="fill:#ffd3d0;fill-opacity:1;"><g transform="translate(70.738367, 104.429948)"><path style="stroke:none" d="M 12.125 0.421875 C 9.988281 0.421875 8.132812 -0.0078125 6.5625 -0.875 C 4.988281 -1.75 3.765625 -2.992188 2.890625 -4.609375 C 2.023438 -6.222656 1.59375 -8.125 1.59375 -10.3125 C 1.59375 -11.96875 1.835938 -13.445312 2.328125 -14.75 C 2.828125 -16.050781 3.535156 -17.171875 4.453125 -18.109375 C 5.378906 -19.054688 6.488281 -19.773438 7.78125 -20.265625 C 9.070312 -20.753906 10.519531 -21 12.125 -21 C 14.25 -21 16.097656 -20.5625 17.671875 -19.6875 C 19.242188 -18.820312 20.460938 -17.585938 21.328125 -15.984375 C 22.203125 -14.390625 22.640625 -12.5 22.640625 -10.3125 C 22.640625 -8.65625 22.394531 -7.164062 21.90625 -5.84375 C 21.414062 -4.53125 20.707031 -3.398438 19.78125 -2.453125 C 18.851562 -1.515625 17.742188 -0.800781 16.453125 -0.3125 C 15.160156 0.175781 13.71875 0.421875 12.125 0.421875 Z M 12.125 -3.578125 C 13.15625 -3.578125 14.0625 -3.828125 14.84375 -4.328125 C 15.632812 -4.835938 16.25 -5.585938 16.6875 -6.578125 C 17.125 -7.578125 17.34375 -8.820312 17.34375 -10.3125 C 17.34375 -12.550781 16.863281 -14.222656 15.90625 -15.328125 C 14.945312 -16.441406 13.6875 -17 12.125 -17 C 11.082031 -17 10.164062 -16.753906 9.375 -16.265625 C 8.59375 -15.773438 7.984375 -15.03125 7.546875 -14.03125 C 7.117188 -13.039062 6.90625 -11.800781 6.90625 -10.3125 C 6.90625 -8.09375 7.378906 -6.414062 8.328125 -5.28125 C 9.285156 -4.144531 10.550781 -3.578125 12.125 -3.578125 Z M 12.125 -3.578125 "/></g></g><g style="fill:#ffd3d0;fill-opacity:1;"><g transform="translate(94.977638, 104.429948)"><path style="stroke:none" d="M 5.34375 0.34375 C 4.5 0.34375 3.851562 0.113281 3.40625 -0.34375 C 2.957031 -0.8125 2.734375 -1.484375 2.734375 -2.359375 L 2.734375 -18.265625 C 2.734375 -19.128906 2.957031 -19.785156 3.40625 -20.234375 C 3.851562 -20.679688 4.484375 -20.90625 5.296875 -20.90625 C 6.109375 -20.90625 6.738281 -20.679688 7.1875 -20.234375 C 7.644531 -19.785156 7.875 -19.128906 7.875 -18.265625 L 7.875 -15.40625 L 7.40625 -16.453125 C 8.019531 -17.941406 8.976562 -19.070312 10.28125 -19.84375 C 11.59375 -20.613281 13.078125 -21 14.734375 -21 C 16.378906 -21 17.734375 -20.6875 18.796875 -20.0625 C 19.867188 -19.445312 20.671875 -18.515625 21.203125 -17.265625 C 21.734375 -16.023438 22 -14.453125 22 -12.546875 L 22 -2.359375 C 22 -1.484375 21.773438 -0.8125 21.328125 -0.34375 C 20.878906 0.113281 20.234375 0.34375 19.390625 0.34375 C 18.554688 0.34375 17.90625 0.113281 17.4375 -0.34375 C 16.976562 -0.8125 16.75 -1.484375 16.75 -2.359375 L 16.75 -12.28125 C 16.75 -13.882812 16.445312 -15.050781 15.84375 -15.78125 C 15.238281 -16.507812 14.304688 -16.875 13.046875 -16.875 C 11.503906 -16.875 10.273438 -16.390625 9.359375 -15.421875 C 8.453125 -14.453125 8 -13.171875 8 -11.578125 L 8 -2.359375 C 8 -0.554688 7.113281 0.34375 5.34375 0.34375 Z M 5.34375 0.34375 "/></g></g><g style="fill:#ffd3d0;fill-opacity:1;"><g transform="translate(119.595652, 104.429948)"><path style="stroke:none" d="M 5.265625 -8.546875 C 4.722656 -8.546875 4.304688 -8.710938 4.015625 -9.046875 C 3.722656 -9.378906 3.550781 -9.859375 3.5 -10.484375 L 2.234375 -26.546875 C 2.148438 -27.585938 2.375 -28.421875 2.90625 -29.046875 C 3.4375 -29.679688 4.222656 -30 5.265625 -30 C 6.273438 -30 7.035156 -29.679688 7.546875 -29.046875 C 8.066406 -28.421875 8.285156 -27.585938 8.203125 -26.546875 L 6.9375 -10.484375 C 6.914062 -9.859375 6.753906 -9.378906 6.453125 -9.046875 C 6.160156 -8.710938 5.765625 -8.546875 5.265625 -8.546875 Z M 5.265625 0.203125 C 4.304688 0.203125 3.539062 -0.0859375 2.96875 -0.671875 C 2.394531 -1.265625 2.109375 -2.023438 2.109375 -2.953125 C 2.109375 -3.847656 2.394531 -4.582031 2.96875 -5.15625 C 3.539062 -5.726562 4.304688 -6.015625 5.265625 -6.015625 C 6.242188 -6.015625 7.003906 -5.726562 7.546875 -5.15625 C 8.097656 -4.582031 8.375 -3.847656 8.375 -2.953125 C 8.375 -2.023438 8.097656 -1.265625 7.546875 -0.671875 C 7.003906 -0.0859375 6.242188 0.203125 5.265625 0.203125 Z M 5.265625 0.203125 "/></g></g></g></svg>