<svg xmlns="http://www.w3.org/2000/svg" xmlns:xlink="http://www.w3.org/1999/xlink" width="100" zoomAndPan="magnify" viewBox="0 0 75 63.749997" height="85" preserveAspectRatio="xMidYMid meet" version="1.0"><defs><clipPath id="014e6d53f1"><path d="M 4.089844 17.691406 L 14.910156 17.691406 L 14.910156 29.621094 L 4.089844 29.621094 Z M 4.089844 17.691406 " clip-rule="nonzero"/></clipPath><clipPath id="0945377f60"><path d="M 12.058594 27.453125 C 4.238281 23.769531 4.015625 23.242188 4.164062 22.867188 C 4.238281 22.492188 4.691406 22.039062 5.140625 21.964844 C 5.667969 21.890625 6.417969 22.339844 7.171875 22.792969 C 8.597656 23.621094 12.433594 26.25 12.507812 27.152344 C 12.507812 27.527344 11.832031 28.054688 11.679688 27.980469 C 11.15625 27.753906 11.230469 20.839844 12.058594 19.710938 C 12.507812 19.257812 13.710938 19.183594 13.785156 19.335938 C 13.9375 19.636719 8.523438 23.769531 7.097656 23.996094 C 6.417969 24.070312 5.894531 23.84375 5.59375 23.542969 C 5.367188 23.242188 5.21875 22.71875 5.367188 22.339844 C 5.515625 21.890625 6.042969 21.515625 6.644531 21.140625 C 7.773438 20.539062 10.328125 19.484375 11.53125 19.636719 C 12.359375 19.710938 13.183594 20.238281 13.410156 20.6875 C 13.636719 21.0625 13.484375 21.664062 13.261719 21.964844 C 13.035156 22.339844 11.832031 22.492188 11.832031 22.71875 C 11.757812 22.941406 12.660156 23.167969 12.808594 23.46875 C 12.960938 23.84375 12.960938 24.445312 12.808594 24.746094 C 12.582031 25.121094 11.90625 25.5 11.378906 25.421875 C 10.703125 25.273438 9.125 23.84375 9.050781 23.09375 C 8.976562 22.492188 9.726562 21.441406 10.402344 21.214844 C 11.230469 20.988281 13.785156 21.890625 13.9375 22.566406 C 14.085938 23.019531 13.335938 23.996094 12.960938 24.222656 C 12.582031 24.296875 11.980469 24.070312 11.679688 23.84375 C 11.457031 23.542969 11.230469 23.019531 11.304688 22.640625 C 11.378906 22.265625 11.757812 21.816406 12.132812 21.664062 C 12.433594 21.515625 13.109375 21.515625 13.410156 21.738281 C 13.710938 21.964844 14.085938 22.867188 13.9375 23.242188 C 13.863281 23.695312 13.109375 24.144531 12.660156 24.222656 C 12.132812 24.296875 11.15625 23.84375 10.929688 23.394531 C 10.78125 23.019531 11.15625 21.890625 11.378906 21.816406 C 11.757812 21.738281 12.882812 23.167969 12.960938 23.769531 C 12.960938 24.296875 12.507812 25.199219 12.058594 25.347656 C 11.53125 25.5 10.328125 24.972656 9.878906 24.523438 C 9.578125 24.222656 9.425781 23.769531 9.5 23.320312 C 9.578125 22.71875 10.554688 21.140625 11.003906 21.140625 C 11.304688 21.0625 11.980469 21.890625 11.90625 22.265625 C 11.757812 22.941406 8.148438 23.921875 7.097656 23.996094 C 6.496094 24.070312 6.117188 23.996094 5.816406 23.769531 C 5.515625 23.542969 5.21875 22.867188 5.367188 22.339844 C 5.742188 21.214844 9.351562 18.957031 11.003906 18.28125 C 12.058594 17.832031 13.335938 17.53125 13.9375 17.832031 C 14.460938 18.132812 14.613281 18.734375 14.761719 19.484375 C 15.0625 21.289062 14.914062 27.152344 13.9375 28.582031 C 13.410156 29.257812 12.582031 29.484375 11.980469 29.558594 C 11.457031 29.558594 11.230469 29.40625 10.628906 29.105469 C 9.277344 28.429688 5.140625 25.121094 4.390625 23.996094 C 4.164062 23.542969 4.015625 23.167969 4.164062 22.867188 C 4.238281 22.492188 4.839844 22.039062 5.441406 21.964844 C 6.644531 21.816406 9.351562 23.242188 10.855469 23.996094 C 12.058594 24.671875 13.5625 25.5 13.785156 26.175781 C 13.863281 26.625 13.636719 27.226562 13.335938 27.378906 C 13.035156 27.601562 12.058594 27.453125 12.058594 27.453125 " clip-rule="nonzero"/></clipPath><clipPath id="47f026edb4"><path d="M 31.660156 1.535156 L 39.828125 1.535156 L 39.828125 6.980469 L 31.660156 6.980469 Z M 31.660156 1.535156 " clip-rule="nonzero"/></clipPath><clipPath id="c8ef171efa"><path d="M 38.140625 5.953125 C 32.128906 6.332031 31.675781 5.429688 31.675781 4.75 C 31.75 4.074219 32.652344 2.796875 33.332031 2.496094 C 33.707031 2.269531 34.308594 2.269531 34.757812 2.496094 C 35.285156 2.722656 36.035156 3.550781 36.261719 4.074219 C 36.414062 4.527344 36.335938 5.128906 36.113281 5.578125 C 35.886719 6.105469 35.132812 6.855469 34.457031 6.933594 C 33.78125 7.007812 32.277344 6.40625 31.976562 5.730469 C 31.601562 5.050781 31.828125 3.625 32.429688 2.949219 C 33.253906 2.121094 35.8125 1.59375 37.089844 1.59375 C 37.914062 1.519531 38.667969 1.59375 39.117188 2.046875 C 39.644531 2.570312 39.945312 3.925781 39.71875 4.601562 C 39.570312 5.203125 38.140625 5.953125 38.140625 5.953125 " clip-rule="nonzero"/></clipPath><clipPath id="f938918bdb"><path d="M 36.410156 2.546875 L 43.050781 2.546875 L 43.050781 7.441406 L 36.410156 7.441406 Z M 36.410156 2.546875 " clip-rule="nonzero"/></clipPath><clipPath id="3809c176e5"><path d="M 38.667969 2.570312 C 42.199219 3.324219 42.800781 3.925781 42.953125 4.527344 C 43.101562 5.128906 42.953125 6.179688 42.5 6.632812 C 41.976562 7.15625 40.472656 7.457031 39.796875 7.15625 C 39.195312 6.933594 38.59375 6.105469 38.515625 5.503906 C 38.441406 4.828125 38.742188 3.851562 39.195312 3.472656 C 39.71875 3.023438 40.695312 2.796875 41.296875 2.871094 C 41.898438 3.023438 42.652344 3.699219 42.875 4.300781 C 43.101562 4.902344 43.027344 5.878906 42.652344 6.40625 C 42.277344 6.933594 41.449219 7.308594 40.773438 7.382812 C 39.871094 7.53125 38.367188 7.234375 37.613281 6.855469 C 37.089844 6.554688 36.714844 6.105469 36.5625 5.652344 C 36.335938 5.050781 36.414062 4.074219 36.789062 3.550781 C 37.164062 3.023438 38.667969 2.570312 38.667969 2.570312 " clip-rule="nonzero"/></clipPath><clipPath id="de9f0f4288"><path d="M 60.332031 16.058594 L 71.945312 16.058594 L 71.945312 30.28125 L 60.332031 30.28125 Z M 60.332031 16.058594 " clip-rule="nonzero"/></clipPath><clipPath id="367ceb7e4d"><path d="M 60.390625 27.980469 C 60.765625 18.882812 61.367188 16.628906 62.496094 16.175781 C 63.625 15.726562 65.652344 17.078125 67.082031 17.90625 C 68.660156 18.808594 70.992188 20.539062 71.589844 21.515625 C 71.890625 21.964844 71.96875 22.265625 71.890625 22.71875 C 71.816406 23.320312 71.367188 24.371094 70.765625 24.820312 C 70.164062 25.199219 69.035156 25.273438 68.433594 25.046875 C 67.832031 24.898438 67.007812 23.921875 67.082031 23.84375 C 67.082031 23.769531 69.789062 24.746094 69.789062 25.199219 C 69.710938 25.949219 64 28.203125 62.496094 27.679688 C 61.59375 27.378906 60.992188 26.023438 60.84375 25.273438 C 60.84375 24.671875 61.144531 23.921875 61.519531 23.542969 C 61.894531 23.09375 63.097656 22.566406 63.171875 22.71875 C 63.324219 22.792969 61.367188 24.972656 61.21875 24.898438 C 60.992188 24.820312 62.347656 20.839844 63.324219 20.160156 C 64 19.710938 65.128906 19.710938 65.804688 20.011719 C 66.480469 20.460938 67.308594 21.964844 67.230469 22.867188 C 67.230469 23.542969 66.40625 24.445312 65.804688 24.820312 C 65.128906 25.121094 63.925781 25.046875 63.324219 24.671875 C 62.722656 24.296875 62.121094 23.320312 62.046875 22.566406 C 62.046875 21.816406 62.496094 20.761719 63.097656 20.3125 C 63.625 19.9375 64.828125 19.636719 65.503906 19.9375 C 66.253906 20.238281 67.15625 21.589844 67.308594 22.566406 C 67.382812 23.542969 66.628906 24.746094 66.027344 25.648438 C 65.429688 26.476562 64.527344 27.679688 63.773438 27.828125 C 63.171875 28.054688 62.421875 27.753906 61.96875 27.378906 C 61.519531 27.078125 61.066406 26.402344 60.917969 25.875 C 60.84375 25.347656 60.84375 24.597656 61.21875 24.070312 C 61.667969 23.242188 63.023438 22.492188 64.148438 21.890625 C 65.503906 21.214844 67.382812 20.160156 68.734375 20.238281 C 69.789062 20.238281 71.140625 20.914062 71.589844 21.515625 C 71.890625 21.816406 71.96875 22.265625 71.890625 22.71875 C 71.816406 23.320312 71.292969 24.371094 70.765625 24.820312 C 70.3125 25.199219 69.710938 25.347656 69.035156 25.199219 C 67.457031 24.972656 62.347656 21.363281 62.496094 20.761719 C 62.570312 20.460938 64.527344 20.085938 65.128906 20.613281 C 66.027344 21.515625 65.429688 27.003906 64.976562 28.503906 C 64.75 29.183594 64.449219 29.558594 64 29.859375 C 63.625 30.160156 62.945312 30.308594 62.421875 30.234375 C 61.96875 30.234375 61.367188 29.859375 60.992188 29.484375 C 60.691406 29.105469 60.390625 27.980469 60.390625 27.980469 " clip-rule="nonzero"/></clipPath><clipPath id="6dfba2fb4f"><path d="M 40.613281 3.914062 L 44.921875 3.914062 L 44.921875 7.570312 L 40.613281 7.570312 Z M 40.613281 3.914062 " clip-rule="nonzero"/></clipPath><clipPath id="ed982cb86b"><path d="M 44.90625 5.203125 C 42.953125 8.210938 41.148438 7.683594 40.773438 7.082031 C 40.394531 6.40625 40.773438 4.601562 41.375 4.074219 C 41.898438 3.625 44.304688 4.300781 44.304688 4.300781 " clip-rule="nonzero"/></clipPath><clipPath id="07057542ee"><path d="M 25.8125 41.804688 L 49.191406 41.804688 L 49.191406 49.203125 L 25.8125 49.203125 Z M 25.8125 41.804688 " clip-rule="nonzero"/></clipPath><clipPath id="f02c97fb7a"><path d="M 26.414062 44.441406 C 30.851562 41.734375 35.132812 44.742188 37.613281 44.441406 C 39.496094 44.292969 40.996094 42.410156 42.5 42.109375 C 43.628906 41.808594 45.132812 41.660156 45.808594 42.035156 C 46.257812 42.335938 46.109375 43.164062 46.484375 43.691406 C 47.011719 44.367188 48.738281 44.816406 49.039062 45.644531 C 49.265625 46.320312 49.039062 47.523438 48.515625 48.050781 C 47.914062 48.652344 46.183594 49.027344 45.359375 48.726562 C 44.679688 48.425781 44.003906 47.449219 43.855469 46.695312 C 43.777344 46.019531 44.15625 44.890625 44.679688 44.367188 C 45.207031 43.914062 46.335938 43.539062 47.085938 43.765625 C 47.839844 43.992188 48.964844 45.417969 49.117188 46.171875 C 49.265625 46.773438 49.039062 47.375 48.664062 47.824219 C 48.214844 48.351562 47.238281 49.027344 46.484375 48.953125 C 45.433594 48.875 42.953125 46.996094 43.027344 46.546875 C 43.175781 46.171875 45.65625 45.945312 45.882812 46.246094 C 45.957031 46.472656 45.207031 47.523438 44.378906 47.972656 C 43.027344 48.800781 39.570312 49.253906 37.238281 49.175781 C 34.910156 49.027344 31.527344 48.273438 30.25 47.222656 C 29.570312 46.621094 29.195312 44.890625 29.195312 44.890625 C 29.195312 44.890625 30.398438 46.472656 30.25 47.074219 C 30.023438 47.671875 28.371094 48.351562 27.617188 48.273438 C 26.941406 48.199219 26.113281 47.523438 25.886719 46.921875 C 25.664062 46.320312 26.414062 44.441406 26.414062 44.441406 " clip-rule="nonzero"/></clipPath><clipPath id="dcf122a1d8"><path d="M 3 26 L 31 26 L 31 60 L 3 60 Z M 3 26 " clip-rule="nonzero"/></clipPath><clipPath id="14fa40d308"><path d="M 7.863281 26.875 L 30.75 40.730469 L 15.21875 66.390625 L -7.667969 52.535156 Z M 7.863281 26.875 " clip-rule="nonzero"/></clipPath><clipPath id="ce26c1af79"><path d="M 3.816406 59.390625 L 30.75 40.730469 L 7.863281 26.875 Z M 3.816406 59.390625 " clip-rule="nonzero"/></clipPath><clipPath id="9122bc366a"><path d="M 45 27 L 73 27 L 73 60 L 45 60 Z M 45 27 " clip-rule="nonzero"/></clipPath><clipPath id="9b4c036207"><path d="M 45.460938 41.628906 L 67.890625 27.042969 L 84.242188 52.1875 L 61.8125 66.773438 Z M 45.460938 41.628906 " clip-rule="nonzero"/></clipPath><clipPath id="26556b545c"><path d="M 72.980469 59.410156 L 67.890625 27.042969 L 45.460938 41.628906 Z M 72.980469 59.410156 " clip-rule="nonzero"/></clipPath><clipPath id="4fb305526d"><path d="M 50 24 L 74 24 L 74 54 L 50 54 Z M 50 24 " clip-rule="nonzero"/></clipPath><clipPath id="48c6df113f"><path d="M 50.855469 35.710938 L 72.050781 24.832031 L 84.25 48.597656 L 63.050781 59.476562 Z M 50.855469 35.710938 " clip-rule="nonzero"/></clipPath><clipPath id="8b39b66ad5"><path d="M 73.617188 53.96875 L 72.050781 24.832031 L 50.855469 35.710938 Z M 73.617188 53.96875 " clip-rule="nonzero"/></clipPath><clipPath id="ac07e6bd3e"><path d="M 0.148438 24 L 22 24 L 22 52 L 0.148438 52 Z M 0.148438 24 " clip-rule="nonzero"/></clipPath><clipPath id="5ea8acfe93"><path d="M 1.957031 24.414062 L 21.355469 34.40625 L 10.15625 56.15625 L -9.246094 46.164062 Z M 1.957031 24.414062 " clip-rule="nonzero"/></clipPath><clipPath id="00e0a6bb1e"><path d="M 0.484375 51.101562 L 21.355469 34.40625 L 1.957031 24.414062 Z M 0.484375 51.101562 " clip-rule="nonzero"/></clipPath><clipPath id="e466ae023d"><path d="M 30.148438 4.273438 L 32.746094 4.273438 L 32.746094 6.429688 L 30.148438 6.429688 Z M 30.148438 4.273438 " clip-rule="nonzero"/></clipPath><clipPath id="5e3803e187"><path d="M 32.351562 5.503906 C 30.699219 5.503906 32.203125 5.203125 32.203125 5.050781 C 32.203125 4.902344 31.449219 4.675781 31.375 4.675781 C 31.375 4.75 32.203125 5.203125 32.203125 5.203125 C 32.203125 5.277344 31.527344 5.050781 31.527344 5.050781 C 31.527344 5.050781 32.203125 5.203125 32.203125 5.203125 C 32.203125 5.203125 31.601562 5.128906 31.527344 4.976562 C 31.449219 4.828125 31.902344 4.300781 32.050781 4.300781 C 32.277344 4.300781 32.730469 4.75 32.730469 5.050781 C 32.730469 5.429688 32.277344 6.253906 31.902344 6.40625 C 31.527344 6.480469 30.171875 5.804688 30.171875 5.503906 C 30.171875 5.277344 30.851562 4.902344 31.226562 4.75 C 31.601562 4.601562 32.351562 4.601562 32.503906 4.828125 C 32.652344 4.902344 32.351562 5.503906 32.351562 5.503906 " clip-rule="nonzero"/></clipPath><clipPath id="aab07b1cd8"><path d="M 2.210938 43.765625 L 43.554688 43.765625 L 43.554688 61.203125 L 2.210938 61.203125 Z M 2.210938 43.765625 " clip-rule="nonzero"/></clipPath><clipPath id="1e76c7529f"><path d="M 30.179688 43.765625 L 71.523438 43.765625 L 71.523438 61.203125 L 30.179688 61.203125 Z M 30.179688 43.765625 " clip-rule="nonzero"/></clipPath><clipPath id="2491a63e9f"><path d="M 14.914062 7.382812 L 60.316406 7.382812 L 60.316406 31.816406 L 14.914062 31.816406 Z M 14.914062 7.382812 " clip-rule="nonzero"/></clipPath><clipPath id="f3edf573b7"><path d="M 14.6875 30.878906 L 60.542969 30.878906 L 60.542969 45.605469 L 14.6875 45.605469 Z M 14.6875 30.878906 " clip-rule="nonzero"/></clipPath><clipPath id="1ef9ac479a"><path d="M 37.613281 45.605469 L 60.542969 30.878906 L 14.6875 30.878906 Z M 37.613281 45.605469 " clip-rule="nonzero"/></clipPath><clipPath id="be0d4ac6a4"><path d="M 0.332031 0.0195312 L 74.75 0.0195312 L 74.75 63.5 L 0.332031 63.5 Z M 0.332031 0.0195312 " clip-rule="nonzero"/></clipPath></defs><g clip-path="url(#014e6d53f1)"><g clip-path="url(#0945377f60)"><path fill="#f20574" d="M 1.15625 14.824219 L 17.84375 14.824219 L 17.84375 32.554688 L 1.15625 32.554688 Z M 1.15625 14.824219 " fill-opacity="1" fill-rule="nonzero"/></g></g><g clip-path="url(#47f026edb4)"><g clip-path="url(#c8ef171efa)"><path fill="#f20574" d="M 28.667969 -1.410156 L 42.816406 -1.410156 L 42.816406 10.015625 L 28.667969 10.015625 Z M 28.667969 -1.410156 " fill-opacity="1" fill-rule="nonzero"/></g></g><g clip-path="url(#f938918bdb)"><g clip-path="url(#3809c176e5)"><path fill="#f20574" d="M 33.554688 -0.433594 L 46.03125 -0.433594 L 46.03125 10.464844 L 33.554688 10.464844 Z M 33.554688 -0.433594 " fill-opacity="1" fill-rule="nonzero"/></g></g><g clip-path="url(#de9f0f4288)"><g clip-path="url(#367ceb7e4d)"><path fill="#f20574" d="M 57.308594 13.171875 L 74.898438 13.171875 L 74.898438 33.304688 L 57.308594 33.304688 Z M 57.308594 13.171875 " fill-opacity="1" fill-rule="nonzero"/></g></g><g clip-path="url(#6dfba2fb4f)"><g clip-path="url(#ed982cb86b)"><path fill="#f20574" d="M 37.765625 1.070312 L 47.921875 1.070312 L 47.921875 10.914062 L 37.765625 10.914062 Z M 37.765625 1.070312 " fill-opacity="1" fill-rule="nonzero"/></g></g><g clip-path="url(#07057542ee)"><g clip-path="url(#f02c97fb7a)"><path fill="#f20574" d="M 22.882812 39.027344 L 52.121094 39.027344 L 52.121094 52.183594 L 22.882812 52.183594 Z M 22.882812 39.027344 " fill-opacity="1" fill-rule="nonzero"/></g></g><g clip-path="url(#dcf122a1d8)"><g clip-path="url(#14fa40d308)"><g clip-path="url(#ce26c1af79)"><path fill="#f20574" d="M 7.863281 26.875 L 30.75 40.730469 L 15.269531 66.300781 L -7.617188 52.445312 Z M 7.863281 26.875 " fill-opacity="1" fill-rule="nonzero"/></g></g></g><g clip-path="url(#9122bc366a)"><g clip-path="url(#9b4c036207)"><g clip-path="url(#26556b545c)"><path fill="#f20574" d="M 45.460938 41.628906 L 67.890625 27.042969 L 84.183594 52.101562 L 61.753906 66.6875 Z M 45.460938 41.628906 " fill-opacity="1" fill-rule="nonzero"/></g></g></g><g clip-path="url(#4fb305526d)"><g clip-path="url(#48c6df113f)"><g clip-path="url(#8b39b66ad5)"><path fill="#f20574" d="M 50.855469 35.710938 L 72.050781 24.832031 L 84.207031 48.515625 L 63.007812 59.394531 Z M 50.855469 35.710938 " fill-opacity="1" fill-rule="nonzero"/></g></g></g><g clip-path="url(#ac07e6bd3e)"><g clip-path="url(#5ea8acfe93)"><g clip-path="url(#00e0a6bb1e)"><path fill="#f20574" d="M 1.957031 24.414062 L 21.355469 34.40625 L 10.195312 56.082031 L -9.207031 46.089844 Z M 1.957031 24.414062 " fill-opacity="1" fill-rule="nonzero"/></g></g></g><g clip-path="url(#e466ae023d)"><g clip-path="url(#5e3803e187)"><path fill="#f20574" d="M 27.167969 1.292969 L 35.730469 1.292969 L 35.730469 9.414062 L 27.167969 9.414062 Z M 27.167969 1.292969 " fill-opacity="1" fill-rule="nonzero"/></g></g><g clip-path="url(#aab07b1cd8)"><path fill="#f20574" d="M 2.210938 43.765625 L 43.558594 43.765625 L 43.558594 61.203125 L 2.210938 61.203125 Z M 2.210938 43.765625 " fill-opacity="1" fill-rule="nonzero"/></g><g clip-path="url(#1e76c7529f)"><path fill="#f20574" d="M 30.179688 43.765625 L 71.53125 43.765625 L 71.53125 61.203125 L 30.179688 61.203125 Z M 30.179688 43.765625 " fill-opacity="1" fill-rule="nonzero"/></g><g clip-path="url(#2491a63e9f)"><path fill="#f9f9f9" d="M 14.914062 7.382812 L 60.34375 7.382812 L 60.34375 31.816406 L 14.914062 31.816406 Z M 14.914062 7.382812 " fill-opacity="1" fill-rule="nonzero"/></g><g clip-path="url(#f3edf573b7)"><g clip-path="url(#1ef9ac479a)"><path fill="#f9f9f9" d="M 14.6875 30.878906 L 60.542969 30.878906 L 60.542969 45.605469 L 14.6875 45.605469 Z M 14.6875 30.878906 " fill-opacity="1" fill-rule="nonzero"/></g></g><g clip-path="url(#be0d4ac6a4)"><path fill="#170b26" d="M 3.21875 20.574219 L 12.65625 14.601562 L 12.65625 6.980469 C 12.65625 6.242188 13.257812 5.644531 13.996094 5.644531 L 26.824219 5.644531 L 34.160156 1.003906 C 35.191406 0.351562 36.328125 0.0234375 37.464844 0.0234375 C 38.601562 0.0234375 39.738281 0.351562 40.769531 1.003906 L 48.109375 5.644531 L 60.933594 5.644531 C 61.671875 5.644531 62.273438 6.242188 62.273438 6.980469 L 62.273438 14.601562 L 71.714844 20.574219 L 71.734375 20.585938 L 71.78125 20.617188 L 71.800781 20.628906 L 71.824219 20.644531 L 71.839844 20.65625 L 71.84375 20.660156 L 71.882812 20.683594 L 71.886719 20.6875 L 71.910156 20.703125 L 71.925781 20.710938 L 71.929688 20.714844 L 71.953125 20.730469 L 71.96875 20.742188 L 71.972656 20.746094 L 72.007812 20.769531 L 72.015625 20.777344 L 72.035156 20.789062 L 72.050781 20.800781 L 72.058594 20.804688 L 72.078125 20.820312 L 72.089844 20.828125 L 72.097656 20.835938 L 72.117188 20.851562 L 72.140625 20.867188 L 72.160156 20.882812 L 72.171875 20.890625 L 72.179688 20.898438 L 72.242188 20.941406 L 72.261719 20.960938 L 72.320312 21.007812 L 72.328125 21.011719 C 72.390625 21.0625 72.453125 21.113281 72.515625 21.167969 L 72.515625 21.171875 C 72.578125 21.222656 72.640625 21.277344 72.699219 21.335938 C 72.742188 21.375 72.785156 21.417969 72.824219 21.457031 L 72.90625 21.539062 L 72.910156 21.546875 L 72.929688 21.5625 L 72.941406 21.574219 L 72.945312 21.582031 L 72.964844 21.597656 L 72.972656 21.609375 L 72.980469 21.617188 L 72.996094 21.636719 C 73.328125 21.996094 73.613281 22.386719 73.84375 22.808594 C 74.339844 23.707031 74.597656 24.71875 74.597656 25.800781 L 74.597656 57.414062 C 74.597656 59.121094 73.902344 60.667969 72.78125 61.789062 C 71.8125 62.761719 70.519531 63.410156 69.082031 63.566406 L 69.070312 63.570312 L 69.027344 63.574219 L 68.976562 63.578125 L 68.964844 63.582031 L 68.925781 63.582031 L 68.886719 63.585938 L 68.875 63.585938 L 68.824219 63.589844 L 68.804688 63.59375 L 68.773438 63.59375 L 68.726562 63.597656 L 68.667969 63.597656 L 68.648438 63.601562 L 68.566406 63.601562 L 68.492188 63.605469 L 6.4375 63.605469 L 6.367188 63.601562 L 6.28125 63.601562 L 6.261719 63.597656 L 6.203125 63.597656 L 6.160156 63.59375 L 6.125 63.59375 L 6.109375 63.589844 L 6.054688 63.585938 L 6.046875 63.585938 L 6.003906 63.582031 L 5.96875 63.582031 L 5.953125 63.578125 L 5.902344 63.574219 L 5.890625 63.574219 L 5.851562 63.570312 L 5.847656 63.566406 C 4.410156 63.410156 3.117188 62.761719 2.148438 61.789062 C 1.027344 60.667969 0.332031 59.121094 0.332031 57.414062 L 0.332031 25.800781 C 0.332031 24.71875 0.59375 23.707031 1.085938 22.808594 C 1.316406 22.386719 1.601562 21.996094 1.933594 21.636719 L 1.949219 21.617188 L 2.019531 21.546875 L 2.023438 21.539062 L 2.035156 21.527344 L 2.054688 21.511719 L 2.058594 21.503906 L 2.070312 21.492188 L 2.089844 21.476562 L 2.09375 21.472656 L 2.105469 21.457031 L 2.121094 21.441406 L 2.128906 21.4375 L 2.140625 21.421875 L 2.195312 21.371094 L 2.195312 21.367188 L 2.210938 21.355469 L 2.230469 21.335938 C 2.269531 21.300781 2.304688 21.269531 2.339844 21.234375 C 2.425781 21.160156 2.511719 21.082031 2.605469 21.011719 L 2.609375 21.007812 L 2.640625 20.980469 L 2.648438 20.976562 L 2.75 20.898438 L 2.761719 20.890625 L 2.769531 20.882812 L 2.789062 20.867188 L 2.8125 20.851562 L 2.832031 20.835938 L 2.839844 20.828125 L 2.875 20.804688 L 2.882812 20.800781 L 2.894531 20.789062 L 2.914062 20.777344 L 2.921875 20.769531 L 2.9375 20.761719 L 2.957031 20.746094 L 2.964844 20.742188 L 2.980469 20.730469 L 3 20.714844 L 3.003906 20.710938 L 3.042969 20.6875 L 3.046875 20.683594 L 3.085938 20.660156 L 3.089844 20.65625 L 3.109375 20.644531 L 3.128906 20.628906 L 3.132812 20.628906 L 3.152344 20.617188 L 3.171875 20.601562 L 3.175781 20.601562 L 3.195312 20.585938 Z M 12.65625 17.761719 L 4.640625 22.832031 L 4.625 22.839844 L 4.617188 22.847656 L 4.613281 22.847656 L 4.609375 22.851562 L 4.601562 22.855469 L 4.59375 22.863281 L 4.589844 22.863281 L 4.578125 22.871094 L 4.570312 22.878906 L 4.566406 22.878906 L 4.5625 22.882812 L 4.546875 22.890625 L 4.542969 22.894531 L 4.53125 22.902344 L 4.523438 22.90625 L 4.515625 22.914062 L 4.492188 22.925781 L 4.492188 22.929688 L 4.484375 22.933594 L 4.472656 22.945312 L 4.46875 22.945312 L 4.460938 22.949219 L 4.453125 22.957031 L 4.445312 22.960938 L 4.433594 22.972656 L 4.425781 22.976562 L 4.417969 22.984375 L 4.402344 22.992188 L 4.402344 22.996094 L 4.386719 23.003906 L 4.34375 23.039062 L 4.335938 23.042969 L 4.324219 23.054688 L 4.316406 23.058594 L 4.300781 23.070312 L 4.28125 23.089844 L 4.273438 23.09375 L 4.238281 23.121094 L 4.230469 23.128906 L 4.222656 23.132812 L 4.222656 23.136719 L 4.21875 23.140625 L 4.167969 23.179688 L 12.65625 28.550781 Z M 62.273438 28.550781 L 70.761719 23.179688 L 70.753906 23.175781 L 70.75 23.171875 L 70.75 23.167969 L 70.742188 23.164062 L 70.730469 23.152344 L 70.726562 23.152344 L 70.714844 23.140625 L 70.707031 23.136719 L 70.707031 23.132812 L 70.699219 23.128906 L 70.679688 23.109375 L 70.664062 23.101562 L 70.664062 23.097656 L 70.65625 23.09375 L 70.644531 23.082031 L 70.636719 23.078125 L 70.628906 23.070312 L 70.621094 23.066406 L 70.621094 23.0625 L 70.617188 23.058594 L 70.609375 23.054688 L 70.601562 23.046875 L 70.597656 23.046875 L 70.59375 23.042969 L 70.585938 23.039062 L 70.574219 23.027344 L 70.570312 23.027344 L 70.566406 23.019531 L 70.558594 23.015625 L 70.550781 23.007812 L 70.535156 23 L 70.527344 22.992188 L 70.519531 22.988281 L 70.507812 22.976562 L 70.5 22.972656 L 70.492188 22.964844 L 70.476562 22.957031 L 70.46875 22.949219 L 70.453125 22.941406 L 70.445312 22.933594 L 70.4375 22.929688 L 70.4375 22.925781 L 70.414062 22.914062 L 70.414062 22.910156 L 70.410156 22.90625 L 70.394531 22.898438 L 70.386719 22.890625 L 70.363281 22.878906 L 70.355469 22.871094 L 70.339844 22.863281 L 70.332031 22.855469 L 70.316406 22.847656 L 70.308594 22.839844 L 70.292969 22.832031 L 62.273438 17.761719 Z M 31.816406 5.644531 L 43.117188 5.644531 L 39.347656 3.261719 C 38.757812 2.886719 38.109375 2.699219 37.464844 2.699219 C 36.820312 2.699219 36.175781 2.886719 35.582031 3.261719 Z M 61.734375 32.046875 C 61.679688 32.089844 61.621094 32.125 61.558594 32.15625 L 46.410156 41.738281 L 71.894531 57.855469 C 71.914062 57.710938 71.921875 57.566406 71.921875 57.414062 L 71.921875 25.800781 C 71.921875 25.738281 71.921875 25.671875 71.917969 25.609375 Z M 47.726562 8.320312 L 15.335938 8.320312 L 15.335938 30.242188 L 35.304688 42.871094 C 35.980469 43.300781 36.726562 43.515625 37.464844 43.515625 C 38.207031 43.515625 38.949219 43.300781 39.625 42.871094 L 59.597656 30.242188 L 59.597656 8.320312 Z M 3.035156 57.855469 L 28.519531 41.738281 L 13.285156 32.105469 L 13.265625 32.09375 L 3.011719 25.609375 C 3.011719 25.671875 3.007812 25.738281 3.007812 25.800781 L 3.007812 57.414062 C 3.007812 57.566406 3.019531 57.710938 3.035156 57.855469 Z M 31.015625 43.316406 L 4.355469 60.179688 C 4.867188 60.578125 5.488281 60.839844 6.164062 60.910156 L 6.171875 60.910156 L 6.207031 60.914062 L 6.226562 60.917969 L 6.257812 60.917969 L 6.285156 60.921875 L 6.316406 60.921875 L 6.339844 60.925781 L 6.460938 60.925781 L 6.476562 60.929688 L 68.453125 60.929688 L 68.46875 60.925781 L 68.589844 60.925781 L 68.617188 60.921875 L 68.644531 60.921875 L 68.675781 60.917969 L 68.703125 60.917969 L 68.722656 60.914062 L 68.761719 60.910156 L 68.769531 60.910156 C 69.445312 60.839844 70.066406 60.578125 70.574219 60.179688 L 43.914062 43.316406 L 41.046875 45.128906 C 39.929688 45.835938 38.699219 46.191406 37.464844 46.191406 C 36.234375 46.191406 35 45.835938 33.882812 45.128906 Z M 31.015625 43.316406 " fill-opacity="1" fill-rule="nonzero"/></g><path fill="#170b26" d="M 45.3125 29.175781 L 47.542969 29.175781 C 46.847656 30.597656 45.777344 31.710938 44.332031 32.515625 C 42.6875 33.4375 40.671875 33.902344 38.296875 33.902344 C 35.996094 33.902344 34.011719 33.515625 32.339844 32.738281 C 30.667969 31.957031 29.425781 30.808594 28.609375 29.292969 C 27.796875 27.773438 27.386719 26.121094 27.386719 24.332031 C 27.386719 22.371094 27.851562 20.546875 28.777344 18.851562 C 29.703125 17.160156 30.972656 15.890625 32.582031 15.042969 C 34.1875 14.195312 36.027344 13.769531 38.097656 13.769531 C 39.851562 13.769531 41.414062 14.113281 42.773438 14.792969 C 44.140625 15.476562 45.183594 16.449219 45.90625 17.707031 C 46.625 18.964844 46.988281 20.339844 46.988281 21.828125 C 46.988281 23.609375 46.441406 25.210938 45.347656 26.648438 C 43.976562 28.460938 42.21875 29.367188 40.074219 29.367188 C 39.496094 29.367188 39.0625 29.265625 38.769531 29.066406 C 38.476562 28.863281 38.285156 28.570312 38.1875 28.183594 C 37.367188 28.972656 36.417969 29.367188 35.347656 29.367188 C 34.191406 29.367188 33.234375 28.96875 32.46875 28.171875 C 31.707031 27.375 31.324219 26.316406 31.324219 24.992188 C 31.324219 23.355469 31.785156 21.863281 32.703125 20.511719 C 33.816406 18.867188 35.246094 18.050781 36.984375 18.050781 C 38.222656 18.050781 39.136719 18.523438 39.726562 19.472656 L 39.988281 18.304688 L 42.742188 18.304688 L 41.164062 25.785156 C 41.066406 26.261719 41.015625 26.566406 41.015625 26.707031 C 41.015625 26.878906 41.054688 27.011719 41.136719 27.09375 C 41.21875 27.183594 41.3125 27.226562 41.421875 27.226562 C 41.757812 27.226562 42.191406 27.023438 42.722656 26.621094 C 43.429688 26.09375 44.003906 25.378906 44.445312 24.492188 C 44.882812 23.601562 45.105469 22.675781 45.105469 21.722656 C 45.105469 20.011719 44.484375 18.578125 43.246094 17.425781 C 42.003906 16.273438 40.273438 15.695312 38.054688 15.695312 C 36.167969 15.695312 34.566406 16.082031 33.253906 16.851562 C 31.941406 17.625 30.953125 18.707031 30.289062 20.109375 C 29.625 21.507812 29.292969 22.964844 29.292969 24.480469 C 29.292969 25.953125 29.664062 27.292969 30.40625 28.5 C 31.148438 29.710938 32.1875 30.589844 33.527344 31.148438 C 34.867188 31.699219 36.398438 31.976562 38.128906 31.976562 C 39.789062 31.976562 41.222656 31.742188 42.417969 31.273438 C 43.617188 30.808594 44.582031 30.109375 45.3125 29.175781 Z M 34.042969 24.882812 C 34.042969 25.765625 34.21875 26.417969 34.578125 26.835938 C 34.9375 27.253906 35.378906 27.460938 35.90625 27.460938 C 36.304688 27.460938 36.675781 27.367188 37.019531 27.171875 C 37.285156 27.03125 37.542969 26.808594 37.800781 26.511719 C 38.171875 26.085938 38.488281 25.46875 38.757812 24.652344 C 39.023438 23.839844 39.15625 23.082031 39.15625 22.375 C 39.15625 21.589844 38.972656 20.984375 38.609375 20.5625 C 38.242188 20.140625 37.78125 19.929688 37.230469 19.929688 C 36.632812 19.929688 36.078125 20.164062 35.570312 20.628906 C 35.066406 21.089844 34.683594 21.75 34.425781 22.605469 C 34.171875 23.460938 34.042969 24.222656 34.042969 24.882812 Z M 34.042969 24.882812 " fill-opacity="1" fill-rule="nonzero"/></svg>