<svg xmlns="http://www.w3.org/2000/svg" xmlns:xlink="http://www.w3.org/1999/xlink" width="500" zoomAndPan="magnify" viewBox="0 0 375 374.999991" height="500" preserveAspectRatio="xMidYMid meet" version="1.0"><defs><clipPath id="99c2d01824"><path d="M 0 15.097656 L 374 15.097656 L 374 359 L 0 359 Z M 0 15.097656 " clip-rule="nonzero"/></clipPath></defs><g clip-path="url(#99c2d01824)"><path fill="#000000" d="M 49.355469 357.585938 C 32.160156 357.585938 16.457031 357.585938 0 357.585938 C 0 243.914062 0 130.496094 0 16.171875 C 2.84375 15.980469 5.796875 15.609375 8.746094 15.609375 C 73.140625 15.589844 137.546875 15.28125 201.941406 15.703125 C 326.371094 16.519531 409.101562 143.554688 357.71875 256.632812 C 329.496094 318.71875 279.132812 353.246094 210.878906 357.15625 C 166.152344 359.710938 121.15625 357.632812 75.46875 357.632812 C 75.46875 269.117188 75.46875 180.742188 75.46875 91.890625 C 91.714844 91.890625 108.261719 91.710938 124.785156 92.09375 C 127.140625 92.148438 129.507812 94.8125 131.742188 96.453125 C 149.167969 109.269531 166.5625 122.125 184.4375 135.316406 C 197.4375 124.953125 210.6875 115.296875 222.785156 104.363281 C 229.484375 98.320312 234.578125 99.078125 241.535156 103.03125 C 278.835938 124.261719 298.09375 167.398438 288.1875 208.363281 C 277.746094 251.566406 241.207031 281.226562 196.328125 282.613281 C 183.335938 283.015625 170.308594 282.988281 157.328125 282.453125 C 154.789062 282.347656 150.316406 279.078125 150.238281 277.125 C 149.636719 262.652344 149.914062 248.148438 149.914062 232.121094 C 165.757812 232.121094 180.796875 232.40625 195.828125 232.054688 C 217.078125 231.546875 233.917969 218.191406 239.035156 197.757812 C 242.15625 185.265625 240.613281 173.328125 232.203125 161.585938 C 218.582031 172.449219 205.148438 182.71875 192.265625 193.636719 C 187.253906 197.890625 183.996094 197.765625 178.863281 193.808594 C 161.746094 180.628906 144.183594 168.039062 125.65625 154.390625 C 125.65625 205.804688 125.65625 255.964844 125.65625 306.191406 C 126.070312 306.507812 126.546875 307.195312 127.027344 307.195312 C 158.257812 306.898438 189.832031 309.390625 220.628906 305.585938 C 280.707031 298.164062 326.304688 241.5 322.761719 183.128906 C 318.757812 117.296875 268.949219 67.148438 205.167969 66.082031 C 155.957031 65.261719 106.71875 66.074219 57.488281 65.644531 C 48.558594 65.566406 49.289062 70.367188 49.296875 76.191406 C 49.363281 165.972656 49.355469 255.761719 49.363281 345.542969 C 49.355469 349.242188 49.355469 352.910156 49.355469 357.585938 Z M 49.355469 357.585938 " fill-opacity="1" fill-rule="nonzero"/><path fill="#000000" d="M 49.355469 357.585938 C 32.160156 357.585938 16.457031 357.585938 0 357.585938 C 0 243.914062 0 130.496094 0 16.171875 C 2.84375 15.980469 5.796875 15.609375 8.746094 15.609375 C 73.140625 15.589844 137.546875 15.28125 201.941406 15.703125 C 326.371094 16.519531 409.101562 143.554688 357.71875 256.632812 C 329.496094 318.71875 279.132812 353.246094 210.878906 357.15625 C 166.152344 359.710938 121.15625 357.632812 75.46875 357.632812 C 75.46875 269.117188 75.46875 180.742188 75.46875 91.890625 C 91.714844 91.890625 108.261719 91.710938 124.785156 92.09375 C 127.140625 92.148438 129.507812 94.8125 131.742188 96.453125 C 149.167969 109.269531 166.5625 122.125 184.4375 135.316406 C 197.4375 124.953125 210.6875 115.296875 222.785156 104.363281 C 229.484375 98.320312 234.578125 99.078125 241.535156 103.03125 C 278.835938 124.261719 298.09375 167.398438 288.1875 208.363281 C 277.746094 251.566406 241.207031 281.226562 196.328125 282.613281 C 183.335938 283.015625 170.308594 282.988281 157.328125 282.453125 C 154.789062 282.347656 150.316406 279.078125 150.238281 277.125 C 149.636719 262.652344 149.914062 248.148438 149.914062 232.121094 C 165.757812 232.121094 180.796875 232.40625 195.828125 232.054688 C 217.078125 231.546875 233.917969 218.191406 239.035156 197.757812 C 242.15625 185.265625 240.613281 173.328125 232.203125 161.585938 C 218.582031 172.449219 205.148438 182.71875 192.265625 193.636719 C 187.253906 197.890625 183.996094 197.765625 178.863281 193.808594 C 161.746094 180.628906 144.183594 168.039062 125.65625 154.390625 C 125.65625 205.804688 125.65625 255.964844 125.65625 306.191406 C 126.070312 306.507812 126.546875 307.195312 127.027344 307.195312 C 158.257812 306.898438 189.832031 309.390625 220.628906 305.585938 C 280.707031 298.164062 326.304688 241.5 322.761719 183.128906 C 318.757812 117.296875 268.949219 67.148438 205.167969 66.082031 C 155.957031 65.261719 106.71875 66.074219 57.488281 65.644531 C 48.558594 65.566406 49.289062 70.367188 49.296875 76.191406 C 49.363281 165.972656 49.355469 255.761719 49.363281 345.542969 C 49.355469 349.242188 49.355469 352.910156 49.355469 357.585938 Z M 49.355469 357.585938 " fill-opacity="1" fill-rule="nonzero"/></g></svg>