<?xml version="1.0" encoding="UTF-8" standalone="no"?>
<!DOCTYPE svg PUBLIC "-//W3C//DTD SVG 1.1//EN" "http://www.w3.org/Graphics/SVG/1.1/DTD/svg11.dtd">
<svg width="100%" height="100%" viewBox="0 0 500 500" version="1.1" xmlns="http://www.w3.org/2000/svg" xmlns:xlink="http://www.w3.org/1999/xlink" xml:space="preserve" xmlns:serif="http://www.serif.com/" style="fill-rule:evenodd;clip-rule:evenodd;stroke-linejoin:round;stroke-miterlimit:2;">
    <g id="stripe_color6">
    </g>
    <g id="stripe_color6_pre">
    </g>
    <g id="stripe_color5">
    </g>
    <g id="stripe_color5_pre">
    </g>
    <g id="stripe_color4">
    </g>
    <g id="stripe_color4_pre">
    </g>
    <g id="stripe_color3">
    </g>
    <g id="stripe_color3_pre">
    </g>
    <g id="stripe_color2">
    </g>
    <g id="stripe_color2_pre">
    </g>
    <g id="stripe_color1">
    </g>
    <g id="stripe_color1_pre">
    </g>
    <g id="stripe">
    </g>
    <g id="stripe_pre">
    </g>
    <g id="solid_color6">
    </g>
    <g id="solid_color6_pre">
    </g>
    <g id="solid_color5">
    </g>
    <g id="solid_color5_pre">
    </g>
    <g id="solid_color4">
    </g>
    <g id="solid_color4_pre">
    </g>
    <g id="solid_color3">
    </g>
    <g id="solid_color3_pre">
    </g>
    <g id="solid_color2">
    </g>
    <g id="solid_color2_pre">
    </g>
    <g id="solid_color1">
    </g>
    <g id="solid_color1_pre">
    </g>
    <g id="solid">
    </g>
    <g id="solid_pre">
    </g>
    <g id="point_color6">
    </g>
    <g id="point_color6_pre">
    </g>
    <g id="point_color5">
    </g>
    <g id="point_color5_pre">
    </g>
    <g id="point_color4">
    </g>
    <g id="point_color4_pre">
    </g>
    <g id="point_color3">
    </g>
    <g id="point_color3_pre">
    </g>
    <g id="point_color2">
    </g>
    <g id="point_color2_pre">
    </g>
    <g id="point_color1">
    </g>
    <g id="point_color1_pre">
    </g>
    <g id="point">
    </g>
    <g id="point_pre">
    </g>
    <g id="spot_color6">
    </g>
    <g id="spot_color6_pre">
    </g>
    <g id="spot_color5">
    </g>
    <g id="spot_color5_pre">
    </g>
    <g id="spot_color4">
    </g>
    <g id="spot_color4_pre">
    </g>
    <g id="spot_color3">
    </g>
    <g id="spot_color3_pre">
    </g>
    <g id="color2">
    </g>
    <g id="color2_pre">
    </g>
    <g id="color1">
    </g>
    <g id="color1_pre">
    </g>
    <g id="spot">
    </g>
    <g id="spot_pre">
    </g>
    <g id="closed">
    </g>
    <g id="open">
    </g>
    <g id="extras6_pre">
    </g>
    <g id="extras5_pre">
    </g>
    <g id="extras4_pre">
    </g>
    <g id="extras3_pre">
    </g>
    <g id="extras2_pre">
    </g>
    <path id="extras1" d="M381.61,349.966C371.439,350.754 362.788,346.614 361.482,339.878C360.017,332.32 368.353,324.337 380.085,322.062C384.79,321.15 389.332,321.294 393.179,322.281C391.469,325.891 389.364,329.285 388.965,329.933C388.27,331.058 388.62,332.535 389.746,333.229C389.914,333.333 390.091,333.414 390.272,333.472C393.078,336.283 394.627,338.933 395.218,340.039C394.12,341.355 393.608,341.567 391.517,343.09C386.113,347.027 385.934,346.69 383.274,347.538C382.207,347.878 381.544,348.897 381.61,349.966ZM244.046,329.776C257.797,329.776 268.961,336.914 268.961,345.706C268.961,354.498 257.797,361.636 244.046,361.636C230.295,361.636 219.131,354.498 219.131,345.706C219.131,336.914 230.295,329.776 244.046,329.776Z" style="fill:rgb(255,211,208);"/>
</svg>
