<svg xmlns="http://www.w3.org/2000/svg" xmlns:xlink="http://www.w3.org/1999/xlink" width="300" zoomAndPan="magnify" viewBox="0 0 224.87999 225" height="300" preserveAspectRatio="xMidYMid meet" version="1.0"><defs><clipPath id="3acd3294b8"><path d="M 67.464844 83 L 77.207031 83 L 77.207031 85 L 67.464844 85 Z M 67.464844 83 " clip-rule="nonzero"/></clipPath><clipPath id="5188b2c8bc"><path d="M 67.464844 86 L 77.207031 86 L 77.207031 87.371094 L 67.464844 87.371094 Z M 67.464844 86 " clip-rule="nonzero"/></clipPath><clipPath id="8f6278c03e"><path d="M 67.464844 80.625 L 77.207031 80.625 L 77.207031 82 L 67.464844 82 Z M 67.464844 80.625 " clip-rule="nonzero"/></clipPath><clipPath id="4512749ab5"><path d="M 0 0.0585938 L 224.761719 0.0585938 L 224.761719 224.921875 L 0 224.921875 Z M 0 0.0585938 " clip-rule="nonzero"/></clipPath></defs><g clip-path="url(#3acd3294b8)"><path fill="#000000" d="M 76.601562 83.402344 L 68.074219 83.402344 C 67.738281 83.402344 67.464844 83.667969 67.464844 83.996094 C 67.464844 84.324219 67.738281 84.589844 68.074219 84.589844 L 76.601562 84.589844 C 76.9375 84.589844 77.207031 84.324219 77.207031 83.996094 C 77.207031 83.667969 76.9375 83.402344 76.601562 83.402344 Z M 76.601562 83.402344 " fill-opacity="1" fill-rule="nonzero"/></g><g clip-path="url(#5188b2c8bc)"><path fill="#000000" d="M 76.601562 86.175781 L 68.074219 86.175781 C 67.738281 86.175781 67.464844 86.441406 67.464844 86.769531 C 67.464844 87.097656 67.738281 87.363281 68.074219 87.363281 L 76.601562 87.363281 C 76.9375 87.363281 77.207031 87.097656 77.207031 86.769531 C 77.207031 86.441406 76.9375 86.175781 76.601562 86.175781 Z M 76.601562 86.175781 " fill-opacity="1" fill-rule="nonzero"/></g><g clip-path="url(#8f6278c03e)"><path fill="#000000" d="M 68.074219 81.816406 L 76.601562 81.816406 C 76.9375 81.816406 77.207031 81.550781 77.207031 81.222656 C 77.207031 80.894531 76.9375 80.628906 76.601562 80.628906 L 68.074219 80.628906 C 67.738281 80.628906 67.464844 80.894531 67.464844 81.222656 C 67.464844 81.550781 67.738281 81.816406 68.074219 81.816406 Z M 68.074219 81.816406 " fill-opacity="1" fill-rule="nonzero"/></g><g clip-path="url(#4512749ab5)"><path fill="#00b2b2" d="M 189.265625 56.675781 C 189.265625 63.246094 183.9375 68.570312 177.367188 68.570312 L 47.492188 68.570312 C 40.925781 68.570312 35.597656 63.246094 35.597656 56.675781 C 35.597656 50.105469 40.925781 44.78125 47.492188 44.78125 L 177.367188 44.78125 C 183.9375 44.78125 189.265625 50.105469 189.265625 56.675781 Z M 189.265625 112.875 C 189.265625 119.449219 183.9375 124.773438 177.367188 124.773438 L 47.492188 124.773438 C 40.925781 124.773438 35.597656 119.449219 35.597656 112.875 L 35.597656 112.109375 C 35.597656 105.542969 40.925781 100.210938 47.492188 100.210938 L 177.367188 100.210938 C 183.9375 100.210938 189.265625 105.542969 189.265625 112.109375 Z M 189.265625 168.308594 C 189.265625 174.882812 183.9375 180.210938 177.367188 180.210938 L 47.492188 180.210938 C 40.925781 180.210938 35.597656 174.882812 35.597656 168.308594 L 35.597656 168.285156 C 35.597656 161.714844 40.925781 156.390625 47.492188 156.390625 L 177.367188 156.390625 C 183.9375 156.390625 189.265625 161.714844 189.265625 168.285156 Z M 199.230469 0.0625 L 25.632812 0.0625 C 11.476562 0.0625 0 11.539062 0 25.695312 L 0 199.292969 C 0 213.445312 11.476562 224.921875 25.632812 224.921875 L 199.230469 224.921875 C 213.382812 224.921875 224.863281 213.445312 224.863281 199.292969 L 224.863281 25.695312 C 224.863281 11.539062 213.382812 0.0625 199.230469 0.0625 " fill-opacity="1" fill-rule="nonzero"/></g></svg>