<svg xmlns="http://www.w3.org/2000/svg" xmlns:xlink="http://www.w3.org/1999/xlink" width="500" zoomAndPan="magnify" viewBox="0 0 375 374.999991" height="500" preserveAspectRatio="xMidYMid meet" version="1.0"><defs><g/><clipPath id="8c01eb35d8"><path d="M 0 2.222656 L 374 2.222656 L 374 375 L 0 375 Z M 0 2.222656 " clip-rule="nonzero"/></clipPath><clipPath id="74692c872c"><path d="M 186.789062 2.222656 C 83.628906 2.222656 0 85.671875 0 188.613281 C 0 291.550781 83.628906 375 186.789062 375 C 289.949219 375 373.578125 291.550781 373.578125 188.613281 C 373.578125 85.671875 289.949219 2.222656 186.789062 2.222656 Z M 186.789062 2.222656 " clip-rule="nonzero"/></clipPath><clipPath id="ecc21dcf3e"><path d="M 8.96875 10.792969 L 364.609375 10.792969 L 364.609375 366.429688 L 8.96875 366.429688 Z M 8.96875 10.792969 " clip-rule="nonzero"/></clipPath><clipPath id="3c49e195c2"><path d="M 186.789062 10.792969 C 88.582031 10.792969 8.96875 90.40625 8.96875 188.613281 C 8.96875 286.820312 88.582031 366.429688 186.789062 366.429688 C 284.996094 366.429688 364.609375 286.820312 364.609375 188.613281 C 364.609375 90.40625 284.996094 10.792969 186.789062 10.792969 Z M 186.789062 10.792969 " clip-rule="nonzero"/></clipPath><clipPath id="637dae289e"><path d="M 70.644531 70.300781 L 302.933594 70.300781 L 302.933594 302.589844 L 70.644531 302.589844 Z M 70.644531 70.300781 " clip-rule="nonzero"/></clipPath><clipPath id="a679ba3138"><path d="M 186.789062 70.300781 C 122.644531 70.300781 70.644531 122.300781 70.644531 186.445312 C 70.644531 250.589844 122.644531 302.589844 186.789062 302.589844 C 250.933594 302.589844 302.933594 250.589844 302.933594 186.445312 C 302.933594 122.300781 250.933594 70.300781 186.789062 70.300781 Z M 186.789062 70.300781 " clip-rule="nonzero"/></clipPath><clipPath id="42479e7cd6"><path d="M 50 70.300781 L 312 70.300781 L 312 255 L 50 255 Z M 50 70.300781 " clip-rule="nonzero"/></clipPath><clipPath id="02749a6949"><path d="M 131 240 L 193 240 L 193 315.550781 L 131 315.550781 Z M 131 240 " clip-rule="nonzero"/></clipPath><clipPath id="ae8e4dda9a"><path d="M 91 70.300781 L 306 70.300781 L 306 230 L 91 230 Z M 91 70.300781 " clip-rule="nonzero"/></clipPath><clipPath id="fb461be679"><path d="M 48.902344 77.027344 L 86.4375 77.027344 L 86.4375 116.15625 L 48.902344 116.15625 Z M 48.902344 77.027344 " clip-rule="nonzero"/></clipPath><clipPath id="079326890e"><path d="M 72 76 L 100 76 L 100 112 L 72 112 Z M 72 76 " clip-rule="nonzero"/></clipPath><clipPath id="2eac48c675"><path d="M 89.511719 76.046875 L 99.445312 109.835938 L 77.710938 116.222656 L 67.78125 82.4375 Z M 89.511719 76.046875 " clip-rule="nonzero"/></clipPath><clipPath id="37163c6d6a"><path d="M 72.054688 93.398438 C 71.976562 95.296875 72.171875 97.375 72.738281 99.304688 C 73.304688 101.234375 74.179688 102.992188 75.265625 104.53125 C 75.296875 104.5625 75.308594 104.597656 75.335938 104.628906 C 79.5625 110.367188 87.128906 113.28125 93.9375 111.378906 L 99.425781 109.765625 L 89.511719 76.046875 L 84.03125 77.660156 C 77.234375 79.757812 72.425781 86.230469 72.054688 93.398438 Z M 72.054688 93.398438 " clip-rule="nonzero"/></clipPath></defs><g clip-path="url(#8c01eb35d8)"><g clip-path="url(#74692c872c)"><path fill="#037f8c" d="M 0 2.222656 L 374.230469 2.222656 L 374.230469 375 L 0 375 Z M 0 2.222656 " fill-opacity="1" fill-rule="nonzero"/></g></g><g clip-path="url(#ecc21dcf3e)"><g clip-path="url(#3c49e195c2)"><path fill="#ffffff" d="M 8.96875 10.792969 L 364.609375 10.792969 L 364.609375 366.429688 L 8.96875 366.429688 Z M 8.96875 10.792969 " fill-opacity="1" fill-rule="nonzero"/></g></g><g clip-path="url(#637dae289e)"><g clip-path="url(#a679ba3138)"><path fill="#bff0f0" d="M 70.644531 70.300781 L 302.933594 70.300781 L 302.933594 302.589844 L 70.644531 302.589844 Z M 70.644531 70.300781 " fill-opacity="1" fill-rule="nonzero"/></g></g><path fill="#037f8c" d="M 135.960938 233.570312 C 135.917969 233.519531 135.863281 233.484375 135.808594 233.445312 C 135.808594 233.429688 135.8125 233.425781 135.816406 233.40625 C 135.996094 232.617188 135.578125 231.71875 134.746094 231.519531 C 133.984375 231.339844 133.234375 231.117188 132.5 230.863281 C 132.132812 230.734375 131.761719 230.589844 131.398438 230.449219 C 131.34375 230.429688 131.316406 230.410156 131.289062 230.402344 C 131.222656 230.367188 131.160156 230.339844 131.09375 230.316406 C 130.917969 230.238281 130.738281 230.152344 130.566406 230.074219 C 129.398438 229.511719 128.292969 228.84375 127.242188 228.09375 C 126.898438 227.332031 126.046875 226.828125 125.164062 227.433594 C 117.519531 232.558594 110.566406 238.789062 105.316406 246.386719 C 99.972656 254.109375 96.644531 263.316406 96.496094 272.746094 C 95.910156 278.09375 96.222656 283.546875 97.507812 288.769531 C 98.457031 292.640625 99.941406 298.457031 104.585938 299.238281 C 109.949219 300.132812 111.707031 293.851562 112.179688 289.777344 C 112.359375 288.210938 112.417969 286.636719 112.503906 285.0625 C 112.667969 284.601562 112.820312 284.136719 112.945312 283.667969 C 113.589844 281.375 114.113281 279.050781 114.78125 276.761719 C 115.265625 275.097656 115.796875 273.453125 116.355469 271.8125 C 117.25 270.183594 118.242188 268.601562 119.246094 267.042969 C 123.324219 260.730469 128.238281 254.382812 129.539062 246.785156 C 129.683594 245.941406 129.78125 245.085938 129.84375 244.230469 C 131.128906 242.277344 132.464844 240.359375 133.863281 238.488281 C 134.550781 237.558594 135.257812 236.648438 135.96875 235.738281 C 136.484375 235.089844 136.609375 234.203125 135.96875 233.570312 Z M 135.960938 233.570312 " fill-opacity="1" fill-rule="nonzero"/><path fill="#037f8c" d="M 256.855469 233.875 C 256.679688 233.835938 256.484375 233.820312 256.292969 233.835938 C 255.832031 233.570312 255.253906 233.589844 254.726562 233.820312 C 251.558594 235.164062 248.023438 235.46875 244.65625 234.835938 C 244.792969 234.636719 244.929688 234.425781 245.066406 234.222656 C 245.546875 233.550781 245.183594 232.519531 244.515625 232.125 C 243.75 231.667969 242.898438 231.996094 242.414062 232.667969 C 235.308594 242.679688 232.777344 255.566406 235.007812 267.582031 C 235.570312 270.5625 236.429688 273.476562 237.601562 276.277344 C 238.191406 277.683594 238.769531 279.222656 239.835938 280.355469 C 240.953125 281.535156 242.667969 281.953125 244.144531 281.21875 C 245.484375 280.550781 246.296875 279.183594 246.851562 277.855469 C 247.535156 276.226562 248.097656 274.535156 248.679688 272.878906 C 249.902344 269.378906 251.035156 265.851562 252.082031 262.296875 C 254.410156 254.339844 256.261719 246.246094 257.652344 238.078125 C 257.710938 237.738281 257.671875 237.402344 257.566406 237.097656 C 257.683594 236.652344 257.804688 236.207031 257.921875 235.765625 C 258.027344 235.375 257.972656 234.929688 257.765625 234.582031 C 257.578125 234.261719 257.21875 233.957031 256.84375 233.875 Z M 256.855469 233.875 " fill-opacity="1" fill-rule="nonzero"/><g clip-path="url(#42479e7cd6)"><path fill="#00b2b2" d="M 311.582031 220.707031 C 311.570312 222.953125 309.894531 224.679688 308.144531 225.859375 C 305.960938 227.328125 303.359375 227.960938 300.882812 228.734375 C 297.78125 229.695312 294.683594 230.660156 291.589844 231.625 L 281.773438 234.679688 L 273.21875 237.34375 C 266.808594 239.339844 260.40625 241.382812 253.976562 243.324219 C 248.464844 244.984375 242.917969 246.585938 237.332031 248.019531 C 225.492188 251.070312 213.457031 253.226562 201.242188 253.929688 C 189.253906 254.617188 177.207031 254.023438 165.308594 252.425781 C 161.152344 251.867188 157.023438 251.191406 152.910156 250.398438 C 145.773438 249.035156 138.707031 247.335938 131.722656 245.335938 C 131.144531 245.175781 130.566406 245 130 244.839844 C 120.34375 242.011719 110.429688 238.914062 101.851562 233.519531 C 93.65625 228.359375 87.070312 220.785156 85.558594 210.953125 C 83.773438 199.296875 88.207031 187.898438 91.46875 176.914062 C 97.921875 155.179688 100.742188 132.445312 99.878906 109.800781 C 99.234375 109.878906 98.589844 109.964844 97.945312 110.035156 C 97.351562 110.109375 96.75 110.1875 96.152344 110.257812 C 85.8125 111.515625 75.46875 112.777344 65.132812 114.039062 C 61.457031 114.488281 57.328125 114.933594 53.964844 113.03125 C 53.386719 112.703125 52.886719 112.320312 52.449219 111.898438 C 51.589844 111.0625 50.996094 110.0625 50.648438 108.972656 C 49.90625 106.757812 50.167969 104.171875 51.230469 101.941406 C 52.1875 99.9375 53.757812 98.253906 55.394531 96.785156 C 57.167969 95.183594 59.054688 93.699219 60.972656 92.277344 C 64.769531 89.460938 68.773438 86.949219 72.878906 84.613281 C 76.957031 82.289062 81.132812 80.148438 85.328125 78.050781 C 87.339844 77.039062 89.371094 75.96875 91.4375 74.996094 C 93.292969 74.125 95.183594 73.335938 97.128906 72.730469 C 98.679688 72.148438 100.273438 71.664062 101.902344 71.328125 C 106.855469 70.324219 112.242188 70.617188 116.742188 73.085938 C 121.207031 75.527344 123.933594 79.917969 125.726562 84.535156 C 126.660156 86.941406 127.382812 89.449219 127.964844 91.964844 C 128.605469 94.730469 129.042969 97.609375 128.859375 100.460938 C 128.675781 103.328125 127.785156 105.871094 126.609375 108.460938 C 126.082031 109.617188 125.542969 110.785156 125.152344 111.988281 C 126.191406 130.976562 121.699219 150.015625 118.234375 168.640625 C 117.65625 171.730469 117.109375 174.820312 116.613281 177.925781 C 116.191406 180.632812 115.699219 183.367188 115.632812 186.113281 C 115.582031 188.335938 115.792969 190.773438 117.15625 192.628906 C 118.410156 194.339844 120.429688 195.097656 122.5 195.136719 C 127.660156 195.242188 132.722656 192.390625 137.351562 190.453125 C 142.769531 188.191406 148.222656 185.980469 153.78125 184.058594 C 164.613281 180.3125 175.96875 177.710938 187.496094 178.183594 C 196.863281 178.570312 206.042969 180.800781 214.835938 183.957031 C 232.902344 190.449219 249.375 200.53125 267.136719 207.722656 C 275.742188 211.207031 284.722656 214.070312 293.976562 215.121094 C 296.324219 215.394531 298.679688 215.542969 301.035156 215.582031 C 302.625 215.605469 304.269531 215.484375 305.867188 215.660156 C 306.253906 215.699219 306.632812 215.761719 307.015625 215.839844 C 307.25 215.886719 307.484375 215.945312 307.71875 216.015625 C 309.8125 216.660156 311.585938 218.378906 311.570312 220.695312 Z M 311.582031 220.707031 " fill-opacity="1" fill-rule="nonzero"/></g><g clip-path="url(#02749a6949)"><path fill="#00b2b2" d="M 187.707031 292.707031 C 186.464844 289.984375 185.171875 287.265625 183.816406 284.597656 C 181.121094 279.3125 178.125 274.148438 174.53125 269.417969 C 170.894531 264.648438 166.691406 260.347656 161.757812 256.917969 C 159.539062 255.378906 157.195312 254.035156 154.992188 252.472656 C 153.015625 251.066406 151.058594 249.425781 149.859375 247.273438 C 149.347656 246.359375 148.996094 245.339844 148.894531 244.277344 C 148.886719 244.15625 148.851562 244.035156 148.820312 243.914062 C 148.800781 243.257812 148.328125 242.738281 147.703125 242.484375 C 143.183594 240.628906 138.21875 239.894531 133.355469 240.332031 C 132.535156 240.40625 131.820312 240.984375 131.820312 241.867188 C 131.820312 242.117188 131.898438 242.371094 132.035156 242.605469 C 131.347656 245.539062 131.03125 248.507812 131.03125 251.460938 C 131.03125 261.113281 134.429688 270.683594 139.632812 278.8125 C 146.734375 289.917969 157.148438 298.382812 167.777344 305.945312 C 170.46875 307.859375 173.183594 309.714844 175.910156 311.574219 C 178.609375 313.410156 181.539062 315.394531 184.917969 315.527344 C 188.082031 315.65625 190.730469 313.703125 191.933594 310.847656 C 193.226562 307.785156 192.703125 304.445312 191.558594 301.410156 C 190.441406 298.453125 189.046875 295.578125 187.730469 292.707031 Z M 187.707031 292.707031 " fill-opacity="1" fill-rule="nonzero"/></g><path fill="#00b2b2" d="M 315.664062 261.152344 C 315.304688 258.773438 313.851562 256.679688 312.320312 254.902344 C 310.746094 253.089844 308.878906 251.542969 307.074219 249.976562 C 305.222656 248.375 303.34375 246.8125 301.410156 245.320312 C 297.53125 242.304688 293.4375 239.515625 288.960938 237.46875 C 284.597656 235.484375 279.925781 234.191406 275.113281 234.125 C 272.941406 234.089844 270.785156 234.351562 268.617188 234.429688 C 266.730469 234.496094 264.691406 234.503906 262.929688 233.742188 C 262.097656 233.386719 261.417969 232.847656 260.828125 232.15625 C 260.457031 231.730469 259.839844 231.632812 259.308594 231.789062 C 259.273438 231.695312 259.234375 231.613281 259.179688 231.527344 C 258.734375 230.839844 257.8125 230.527344 257.078125 230.980469 C 255 232.261719 252.914062 233.546875 250.835938 234.824219 C 250.265625 235.175781 249.957031 235.898438 250.125 236.535156 C 249.957031 236.960938 249.996094 237.460938 250.195312 237.902344 C 254.058594 246.386719 261.183594 252.984375 269.128906 257.644531 C 278.402344 263.09375 288.882812 266.027344 299.167969 268.882812 C 303.910156 270.195312 309.613281 271.425781 313.582031 267.601562 C 315.332031 265.910156 316.03125 263.539062 315.671875 261.160156 Z M 315.664062 261.152344 " fill-opacity="1" fill-rule="nonzero"/><path fill="#037f8c" d="M 92.910156 104.457031 C 92.730469 105.238281 91.789062 105.765625 91.027344 105.523438 C 89.796875 105.132812 88.703125 104.390625 87.859375 103.421875 C 85.382812 104.417969 82.878906 105.339844 80.34375 106.167969 C 71.304688 109.140625 61.929688 111.042969 52.449219 111.898438 C 51.589844 111.0625 50.996094 110.0625 50.648438 108.972656 C 52.996094 108.800781 55.355469 108.5625 57.695312 108.246094 C 67.503906 106.917969 77.136719 104.359375 86.347656 100.726562 C 86.125 99.988281 86.035156 99.207031 86.097656 98.425781 C 86.15625 97.5625 86.746094 96.925781 87.628906 96.890625 C 88.414062 96.851562 89.226562 97.617188 89.164062 98.425781 C 89.140625 98.703125 89.140625 98.984375 89.164062 99.257812 C 89.164062 99.269531 89.164062 99.28125 89.167969 99.296875 C 89.167969 99.347656 89.179688 99.382812 89.1875 99.414062 C 89.1875 99.414062 89.191406 99.453125 89.199219 99.457031 C 89.21875 99.585938 89.253906 99.714844 89.292969 99.84375 C 89.332031 99.96875 89.363281 100.097656 89.414062 100.230469 C 89.414062 100.238281 89.425781 100.265625 89.429688 100.292969 C 89.4375 100.304688 89.441406 100.316406 89.453125 100.34375 C 89.574219 100.597656 89.707031 100.847656 89.871094 101.082031 C 89.910156 101.136719 89.941406 101.1875 89.980469 101.242188 C 90.058594 101.34375 90.140625 101.4375 90.226562 101.53125 C 90.320312 101.625 90.414062 101.722656 90.515625 101.816406 C 90.570312 101.867188 90.632812 101.921875 90.691406 101.976562 C 90.703125 101.980469 90.726562 102 90.742188 102.015625 L 90.757812 102.03125 L 90.960938 102.160156 C 91.070312 102.230469 91.1875 102.300781 91.304688 102.371094 C 91.371094 102.410156 91.441406 102.445312 91.519531 102.476562 C 91.527344 102.480469 91.539062 102.488281 91.542969 102.488281 C 91.566406 102.5 91.582031 102.503906 91.59375 102.503906 C 91.671875 102.539062 91.75 102.558594 91.828125 102.582031 C 92.644531 102.839844 93.082031 103.632812 92.894531 104.472656 Z M 92.910156 104.457031 " fill-opacity="1" fill-rule="nonzero"/><path fill="#037f8c" d="M 89.199219 99.402344 C 89.199219 99.402344 89.199219 99.402344 89.199219 99.410156 C 89.21875 99.488281 89.242188 99.496094 89.175781 99.253906 C 89.175781 99.265625 89.175781 99.273438 89.175781 99.285156 C 89.179688 99.324219 89.1875 99.363281 89.199219 99.402344 Z M 89.199219 99.402344 " fill-opacity="1" fill-rule="nonzero"/><path fill="#77c7c7" d="M 133.015625 235.871094 L 133.015625 235.835938 C 132.976562 235.019531 132.339844 234.292969 131.484375 234.300781 C 130.871094 234.3125 130.230469 234.308594 129.621094 234.207031 C 129.519531 234.191406 129.386719 234.167969 129.347656 234.164062 C 129.226562 234.140625 129.105469 234.113281 128.976562 234.089844 C 128.671875 234.023438 128.355469 233.953125 128.046875 233.863281 C 127.742188 233.773438 127.441406 233.679688 127.140625 233.570312 C 127.027344 233.523438 126.902344 233.472656 126.785156 233.433594 C 126.753906 233.425781 126.738281 233.417969 126.71875 233.402344 C 126.667969 233.386719 126.613281 233.359375 126.5625 233.339844 C 126.3125 233.222656 126.058594 233.097656 125.8125 232.957031 C 125.613281 232.730469 125.351562 232.546875 125.046875 232.433594 C 118.175781 229.8125 111.050781 227.042969 105.238281 222.417969 C 102.375 220.144531 99.890625 217.433594 98.105469 214.226562 C 96.105469 210.628906 95.070312 206.535156 94.761719 202.445312 C 94.066406 193.328125 96.683594 184.480469 99.175781 175.816406 C 101.792969 166.746094 103.914062 157.574219 105.292969 148.230469 C 106.777344 138.175781 107.5 128.015625 107.4375 117.851562 C 107.6875 116.417969 107.882812 114.980469 107.667969 113.519531 C 107.484375 112.238281 106.886719 110.980469 105.933594 110.082031 C 104.820312 109.035156 103.421875 108.613281 101.929688 108.855469 C 101.335938 108.957031 100.78125 109.175781 100.222656 109.386719 C 99.96875 109.484375 99.703125 109.574219 99.429688 109.652344 C 99.359375 109.675781 99.246094 109.714844 99.144531 109.730469 C 99.140625 109.730469 99.097656 109.734375 99.03125 109.742188 C 98.953125 109.746094 98.875 109.746094 98.796875 109.746094 C 98.492188 109.746094 98.191406 109.851562 97.933594 110.019531 C 98.578125 109.945312 99.222656 109.863281 99.867188 109.785156 C 100.730469 132.429688 97.914062 155.167969 91.460938 176.898438 C 88.195312 187.882812 83.761719 199.285156 85.546875 210.9375 C 87.058594 220.769531 93.644531 228.34375 101.84375 233.503906 C 110.417969 238.898438 120.332031 241.996094 129.988281 244.824219 C 130.558594 244.992188 131.136719 245.164062 131.710938 245.320312 C 131.734375 244.980469 131.765625 244.652344 131.792969 244.3125 C 131.8125 244.152344 131.832031 243.996094 131.851562 243.835938 C 131.851562 243.816406 131.882812 243.617188 131.890625 243.550781 C 131.988281 242.84375 132.109375 242.148438 132.253906 241.457031 C 132.550781 240.054688 132.9375 238.683594 133.40625 237.335938 C 133.582031 236.824219 133.382812 236.238281 133.007812 235.851562 Z M 104.472656 113.277344 C 104.472656 113.277344 104.460938 113.242188 104.449219 113.226562 L 104.441406 113.226562 C 104.441406 113.226562 104.433594 113.175781 104.421875 113.152344 C 104.441406 113.175781 104.464844 113.226562 104.476562 113.277344 Z M 104.472656 113.277344 " fill-opacity="1" fill-rule="nonzero"/><path fill="#77c7c7" d="M 253.976562 243.324219 C 248.464844 244.984375 242.917969 246.585938 237.332031 248.019531 C 225.492188 251.070312 213.457031 253.226562 201.242188 253.929688 C 189.253906 254.617188 177.207031 254.023438 165.308594 252.425781 C 161.152344 251.867188 157.023438 251.191406 152.910156 250.398438 C 151.34375 248.148438 150.300781 245.511719 149.898438 242.804688 C 149.839844 242.4375 149.875 242.09375 149.996094 241.800781 C 149.984375 241.632812 149.992188 241.464844 150.035156 241.3125 C 150.269531 240.472656 151.109375 240.082031 151.925781 240.242188 C 159.085938 241.648438 166.320312 242.628906 173.597656 243.140625 C 186.507812 244.066406 199.542969 243.632812 212.359375 241.804688 C 225.253906 239.953125 237.9375 236.742188 250.140625 232.191406 C 250.152344 232.183594 250.164062 232.183594 250.179688 232.179688 C 250.1875 232.179688 250.195312 232.171875 250.203125 232.171875 C 250.203125 232.171875 250.207031 232.171875 250.214844 232.167969 C 250.378906 232.105469 250.554688 232.066406 250.726562 232.066406 C 251.601562 232.066406 252.1875 232.773438 252.257812 233.601562 C 252.546875 236.886719 253.132812 240.132812 253.976562 243.324219 Z M 253.976562 243.324219 " fill-opacity="1" fill-rule="nonzero"/><path fill="#77c7c7" d="M 311.582031 220.707031 C 311.570312 222.953125 309.894531 224.679688 308.144531 225.859375 C 305.960938 227.328125 303.359375 227.960938 300.882812 228.734375 C 297.78125 229.695312 294.683594 230.660156 291.589844 231.625 L 281.773438 234.679688 C 279.269531 233.613281 276.976562 232.195312 274.875 230.433594 C 273.78125 229.511719 274.753906 227.878906 275.964844 227.8125 C 278.980469 227.632812 281.96875 227.171875 284.929688 226.527344 C 290.175781 225.386719 295.289062 223.703125 300.378906 222.011719 C 302.394531 221.347656 304.722656 220.664062 306.132812 218.96875 C 306.8125 218.160156 307.261719 216.910156 307.027344 215.851562 C 307.261719 215.898438 307.496094 215.957031 307.726562 216.027344 C 309.824219 216.671875 311.597656 218.390625 311.582031 220.707031 Z M 311.582031 220.707031 " fill-opacity="1" fill-rule="nonzero"/><g clip-path="url(#ae8e4dda9a)"><path fill="#037f8c" d="M 305.882812 215.671875 C 305.515625 216.003906 305.128906 216.3125 304.726562 216.601562 C 299.890625 220.074219 293.214844 220.429688 287.480469 220.363281 C 280.417969 220.285156 273.324219 218.941406 266.726562 216.378906 C 265.097656 215.742188 263.507812 215.027344 261.929688 214.28125 C 260.523438 213.621094 258.824219 212.824219 257.3125 213.621094 C 255.121094 214.769531 254.136719 217.582031 252.257812 219.132812 C 247.195312 223.335938 240.304688 219.957031 236.601562 215.65625 C 234.457031 213.164062 232.800781 210.296875 230.609375 207.847656 C 228.648438 205.660156 225.863281 203.609375 222.796875 203.660156 C 217.171875 203.746094 215.714844 210.820312 214.953125 215.148438 C 214.113281 219.972656 212.78125 226.015625 208.054688 228.582031 C 202.480469 231.601562 196.683594 227.339844 194.632812 222.085938 C 192.121094 215.65625 194.574219 208.484375 193.417969 201.832031 C 192.484375 196.417969 189.226562 190.898438 183.144531 190.621094 C 180.554688 190.503906 178.269531 191.554688 176.929688 193.828125 C 175.378906 196.457031 175.089844 199.621094 173.867188 202.386719 C 172.742188 204.949219 170.59375 207.523438 167.78125 208.25 C 165.226562 208.914062 162.679688 207.816406 161.191406 205.710938 C 159.867188 203.855469 159.429688 201.488281 158.851562 199.332031 C 158.304688 197.273438 157.660156 194.882812 155.738281 193.679688 C 153.671875 192.378906 151.023438 192.75 148.839844 193.5625 C 146.167969 194.550781 144.171875 196.503906 142.375 198.652344 C 138.726562 203.011719 135.578125 208.496094 129.75 210.136719 C 125.140625 211.429688 119.371094 210.257812 117.671875 205.257812 C 116.894531 202.972656 117.695312 199.136719 115.359375 197.679688 C 114.101562 196.898438 112.578125 196.636719 111.328125 195.8125 C 110.289062 195.125 109.410156 194.21875 108.796875 193.140625 C 106.195312 188.621094 107.753906 182.90625 108.957031 178.117188 C 108.734375 177.839844 108.488281 177.59375 108.3125 177.421875 C 107.449219 176.59375 106.527344 175.84375 105.882812 174.820312 C 104.675781 172.917969 104.832031 170.484375 105.660156 168.472656 C 106.554688 166.292969 108.21875 164.625 109.640625 162.796875 C 111.269531 160.695312 112.417969 158.285156 113.082031 155.738281 C 113.128906 155.421875 113.179688 155.101562 113.230469 154.789062 L 113.609375 152.371094 C 112.957031 150.199219 112.628906 147.9375 112.722656 145.644531 C 112.839844 142.738281 113.601562 140.054688 114.769531 137.410156 C 115.308594 136.1875 115.882812 134.96875 116.199219 133.667969 C 116.527344 132.300781 116.320312 130.972656 116.125 129.605469 C 115.898438 128.042969 115.832031 126.566406 116.171875 125.015625 C 116.464844 123.625 117.03125 122.320312 117.570312 121.011719 C 117.914062 120.191406 118.300781 119.277344 118.589844 118.332031 C 118.597656 117.246094 118.542969 116.15625 118.355469 115.089844 C 118.054688 113.421875 117.425781 111.859375 116.738281 110.320312 C 115.4375 107.390625 113.914062 104.148438 114.871094 100.882812 C 115.304688 99.398438 116.203125 98.167969 117.171875 97.003906 C 118.015625 95.980469 119.09375 94.960938 119.5 93.660156 C 119.726562 92.917969 119.933594 91.644531 119.261719 91.039062 C 118.355469 90.230469 116.316406 91.039062 115.191406 90.921875 C 112.234375 90.605469 110.917969 87.777344 111.140625 85.0625 C 111.273438 83.480469 111.867188 82.0625 112.292969 80.542969 C 112.625 79.320312 112.878906 77.765625 111.757812 76.847656 C 109.652344 75.148438 106.539062 76.375 104.421875 77.328125 C 101.597656 78.59375 98.53125 80 95.421875 78.859375 C 93.53125 78.164062 92.027344 76.828125 91.488281 75.058594 C 91.476562 75.046875 91.464844 75.035156 91.449219 75.019531 C 93.304688 74.148438 95.195312 73.359375 97.140625 72.753906 C 98.691406 72.167969 100.285156 71.683594 101.914062 71.351562 C 106.867188 70.34375 112.253906 70.640625 116.753906 73.109375 C 121.21875 75.546875 123.945312 79.9375 125.734375 84.558594 C 126.667969 86.964844 127.390625 89.472656 127.976562 91.988281 C 128.613281 94.75 129.054688 97.628906 128.871094 100.480469 C 128.6875 103.347656 127.796875 105.894531 126.621094 108.484375 C 126.089844 109.640625 125.550781 110.808594 125.164062 112.007812 C 126.203125 131 121.710938 150.035156 118.242188 168.660156 C 117.664062 171.753906 117.121094 174.84375 116.625 177.949219 C 116.203125 180.65625 115.710938 183.390625 115.640625 186.136719 C 115.59375 188.359375 115.804688 190.792969 117.164062 192.652344 C 118.421875 194.363281 120.4375 195.117188 122.511719 195.15625 C 127.671875 195.261719 132.734375 192.410156 137.363281 190.476562 C 142.78125 188.214844 148.234375 186.003906 153.792969 184.078125 C 164.625 180.332031 175.980469 177.734375 187.507812 178.203125 C 196.875 178.59375 206.054688 180.824219 214.847656 183.980469 C 232.910156 190.472656 249.386719 200.554688 267.148438 207.746094 C 275.753906 211.230469 284.734375 214.09375 293.988281 215.144531 C 296.335938 215.417969 298.691406 215.566406 301.046875 215.605469 C 302.636719 215.628906 304.28125 215.503906 305.878906 215.683594 Z M 305.882812 215.671875 " fill-opacity="1" fill-rule="nonzero"/></g><path fill="#037f8c" d="M 154.003906 202.160156 C 153.753906 201.199219 153.210938 200.230469 152.335938 199.703125 C 151.308594 199.082031 150.046875 199.230469 149.113281 199.949219 C 148.300781 200.566406 147.785156 201.464844 147.296875 202.34375 C 146.851562 203.136719 146.46875 203.960938 146.105469 204.792969 C 145.5625 205.613281 145.015625 206.433594 144.476562 207.257812 C 143.820312 208.257812 143.261719 209.476562 143.617188 210.699219 C 143.898438 211.679688 144.621094 212.371094 145.5625 212.738281 C 145.601562 212.753906 145.640625 212.757812 145.679688 212.769531 C 146.160156 213.058594 146.75 213.175781 147.363281 213.03125 C 147.445312 213.007812 147.527344 212.976562 147.605469 212.941406 C 148.605469 212.808594 149.578125 212.386719 150.371094 211.816406 C 151.902344 210.691406 153.003906 209.207031 153.6875 207.441406 C 154.320312 205.796875 154.453125 203.878906 154.003906 202.171875 Z M 154.003906 202.160156 " fill-opacity="1" fill-rule="nonzero"/><path fill="#037f8c" d="M 183.5 205.09375 C 183.5 205.09375 183.496094 205.101562 183.488281 205.105469 C 183.484375 205.117188 183.472656 205.128906 183.46875 205.144531 C 183.46875 205.144531 183.472656 205.144531 183.476562 205.140625 C 183.488281 205.128906 183.496094 205.113281 183.5 205.101562 Z M 183.5 205.09375 " fill-opacity="1" fill-rule="nonzero"/><path fill="#037f8c" d="M 187.023438 201.59375 C 186.675781 200.648438 186.007812 199.875 185.027344 199.554688 C 184.550781 199.398438 184.066406 199.398438 183.613281 199.515625 C 182.957031 199.515625 182.304688 199.738281 181.792969 200.21875 C 181.445312 200.554688 181.199219 200.988281 181.078125 201.449219 C 180.34375 202.519531 179.710938 203.746094 179.816406 205.074219 C 179.953125 206.835938 181.160156 208.394531 182.972656 208.609375 C 184.496094 208.785156 185.773438 207.617188 186.359375 206.316406 C 186.640625 205.679688 186.859375 205.023438 187.019531 204.339844 C 187.222656 203.460938 187.351562 202.464844 187.03125 201.59375 Z M 187.023438 201.59375 " fill-opacity="1" fill-rule="nonzero"/><path fill="#037f8c" d="M 169.488281 218.734375 C 169.460938 218.480469 169.433594 218.207031 169.351562 217.960938 C 169.265625 217.722656 169.167969 217.460938 169.023438 217.25 C 168.882812 217.042969 168.734375 216.828125 168.542969 216.660156 C 168.355469 216.496094 168.144531 216.316406 167.90625 216.210938 C 167.726562 216.101562 167.539062 216.039062 167.332031 216.027344 C 167.175781 215.996094 167.019531 216 166.867188 216.027344 C 166.53125 216.003906 166.191406 216.03125 165.871094 216.105469 C 165.347656 216.222656 164.910156 216.5 164.496094 216.832031 C 164.09375 217.160156 163.824219 217.628906 163.652344 218.113281 C 163.628906 218.171875 163.613281 218.238281 163.597656 218.304688 C 163.558594 218.5 163.523438 218.707031 163.523438 218.90625 C 163.523438 219.105469 163.558594 219.308594 163.589844 219.496094 C 163.601562 219.574219 163.621094 219.644531 163.640625 219.71875 C 163.808594 220.21875 164.085938 220.707031 164.492188 221.050781 C 164.902344 221.402344 165.363281 221.691406 165.898438 221.820312 C 166.160156 221.878906 166.441406 221.925781 166.714844 221.917969 C 166.976562 221.90625 167.261719 221.878906 167.511719 221.792969 C 167.847656 221.667969 168.097656 221.542969 168.378906 221.328125 C 168.648438 221.117188 168.820312 220.917969 169.023438 220.628906 C 169.167969 220.425781 169.261719 220.167969 169.34375 219.933594 C 169.433594 219.683594 169.460938 219.40625 169.488281 219.152344 C 169.503906 219.011719 169.5 218.867188 169.488281 218.730469 Z M 169.488281 218.734375 " fill-opacity="1" fill-rule="nonzero"/><path fill="#037f8c" d="M 231.777344 218.046875 C 231.714844 217.195312 231.515625 216.378906 231.265625 215.566406 C 230.964844 214.582031 230.578125 213.621094 229.867188 212.859375 C 229.195312 212.132812 228.152344 211.613281 227.148438 211.648438 C 225.996094 211.6875 225.003906 212.332031 224.40625 213.304688 C 224.378906 213.347656 224.359375 213.394531 224.335938 213.4375 C 223.972656 213.710938 223.753906 214.144531 223.707031 214.65625 C 223.539062 216.457031 223.472656 218.410156 224.453125 220.019531 C 225.386719 221.546875 227.21875 222.4375 228.992188 222.128906 C 230.910156 221.796875 231.917969 219.851562 231.777344 218.039062 Z M 231.777344 218.046875 " fill-opacity="1" fill-rule="nonzero"/><path fill="#037f8c" d="M 222.308594 227.699219 C 222.257812 227.347656 222.101562 227 221.890625 226.714844 C 221.601562 226.328125 221.277344 225.976562 220.839844 225.753906 C 220.40625 225.539062 219.90625 225.371094 219.410156 225.410156 C 219.179688 225.425781 218.925781 225.449219 218.699219 225.53125 C 218.464844 225.613281 218.226562 225.710938 218.027344 225.859375 C 217.832031 226.003906 217.644531 226.136719 217.492188 226.328125 C 217.488281 226.335938 217.476562 226.34375 217.472656 226.355469 C 217.34375 226.464844 217.226562 226.585938 217.125 226.742188 C 216.859375 227.148438 216.761719 227.609375 216.726562 228.089844 C 216.710938 228.316406 216.753906 228.554688 216.789062 228.773438 C 216.804688 228.882812 216.832031 228.996094 216.871094 229.101562 C 217.039062 229.542969 217.238281 229.921875 217.570312 230.265625 C 217.894531 230.59375 218.3125 230.839844 218.753906 230.96875 C 218.8125 230.984375 218.871094 230.996094 218.925781 231 C 219.105469 231.027344 219.285156 231.0625 219.460938 231.0625 C 219.707031 231.0625 219.949219 231.027344 220.1875 230.96875 C 220.410156 230.910156 220.628906 230.8125 220.828125 230.710938 C 221.039062 230.613281 221.234375 230.445312 221.410156 230.300781 C 221.679688 230.082031 221.914062 229.789062 222.058594 229.476562 C 222.152344 229.273438 222.257812 229.050781 222.296875 228.820312 C 222.375 228.367188 222.367188 228.15625 222.296875 227.703125 Z M 222.308594 227.699219 " fill-opacity="1" fill-rule="nonzero"/><path fill="#037f8c" d="M 113.648438 205.910156 C 113.636719 205.828125 113.613281 205.746094 113.589844 205.667969 C 113.371094 204.988281 112.964844 204.457031 112.363281 204.066406 C 111.894531 203.761719 111.28125 203.609375 110.730469 203.617188 C 110.171875 203.621094 109.550781 203.773438 109.085938 204.089844 C 108.921875 204.199219 108.765625 204.316406 108.621094 204.449219 C 108.472656 204.589844 108.355469 204.765625 108.226562 204.929688 C 108.144531 205.0625 108.101562 205.199219 108.074219 205.34375 C 107.976562 205.527344 107.894531 205.722656 107.839844 205.917969 C 107.785156 206.113281 107.765625 206.316406 107.746094 206.519531 C 107.734375 206.605469 107.734375 206.691406 107.746094 206.777344 C 107.785156 207.242188 107.867188 207.546875 108.066406 207.960938 C 108.101562 208.035156 108.144531 208.101562 108.1875 208.167969 C 108.304688 208.335938 108.429688 208.507812 108.574219 208.652344 C 108.710938 208.789062 108.871094 208.902344 109.027344 209.019531 C 109.09375 209.070312 109.167969 209.117188 109.246094 209.164062 C 109.417969 209.257812 109.605469 209.332031 109.789062 209.402344 C 109.875 209.4375 109.949219 209.464844 110.039062 209.480469 C 110.238281 209.53125 110.453125 209.550781 110.65625 209.570312 C 110.734375 209.574219 110.816406 209.582031 110.894531 209.570312 C 111.28125 209.546875 111.578125 209.480469 111.925781 209.335938 C 112.253906 209.195312 112.503906 209.035156 112.78125 208.785156 C 112.835938 208.730469 112.890625 208.675781 112.941406 208.613281 C 113.0625 208.464844 113.195312 208.300781 113.296875 208.136719 C 113.398438 207.960938 113.46875 207.769531 113.542969 207.585938 C 113.574219 207.507812 113.601562 207.421875 113.621094 207.347656 C 113.667969 207.152344 113.6875 206.945312 113.707031 206.75 C 113.71875 206.667969 113.726562 206.585938 113.71875 206.496094 C 113.71875 206.296875 113.679688 206.09375 113.648438 205.902344 Z M 113.648438 205.910156 " fill-opacity="1" fill-rule="nonzero"/><path fill="#037f8c" d="M 263.097656 219.089844 C 263.097656 219.089844 263.097656 219.074219 263.09375 219.0625 C 263.042969 218.941406 262.984375 218.816406 262.9375 218.695312 C 262.898438 218.625 262.742188 218.433594 262.6875 218.375 C 262.664062 218.34375 262.636719 218.324219 262.613281 218.300781 C 262.601562 218.296875 262.597656 218.289062 262.585938 218.277344 C 262.53125 218.105469 262.457031 217.941406 262.359375 217.777344 C 262.15625 217.445312 261.820312 217.179688 261.441406 217.074219 C 261.234375 217.003906 261.035156 217 260.828125 217.042969 C 260.625 217.054688 260.433594 217.117188 260.257812 217.226562 C 260.152344 217.292969 260.050781 217.378906 259.960938 217.46875 C 259.902344 217.472656 259.839844 217.484375 259.777344 217.496094 C 259.519531 217.566406 259.296875 217.699219 259.101562 217.890625 C 259.0625 217.921875 259.023438 217.957031 258.988281 217.996094 C 258.878906 218.128906 258.761719 218.261719 258.671875 218.410156 C 258.585938 218.5625 258.523438 218.734375 258.460938 218.894531 C 258.445312 218.945312 258.429688 218.988281 258.417969 219.039062 C 258.378906 219.21875 258.355469 219.402344 258.34375 219.578125 C 258.34375 219.628906 258.34375 219.683594 258.34375 219.734375 C 258.363281 219.914062 258.382812 220.097656 258.417969 220.273438 C 258.429688 220.324219 258.441406 220.375 258.460938 220.425781 C 258.535156 220.628906 258.617188 220.859375 258.75 221.039062 C 258.851562 221.179688 258.949219 221.328125 259.078125 221.445312 C 259.132812 221.496094 259.195312 221.542969 259.257812 221.585938 C 259.269531 221.597656 259.273438 221.609375 259.285156 221.617188 C 259.472656 221.808594 259.703125 221.941406 259.960938 222.011719 C 260.011719 222.023438 260.0625 222.023438 260.113281 222.035156 C 260.125 222.035156 260.136719 222.046875 260.144531 222.046875 C 260.550781 222.125 260.859375 222.125 261.261719 222.042969 C 261.320312 222.03125 261.367188 222.011719 261.417969 221.992188 C 261.589844 221.925781 261.773438 221.859375 261.9375 221.761719 C 262.085938 221.667969 262.226562 221.550781 262.363281 221.441406 C 262.414062 221.398438 262.457031 221.351562 262.503906 221.308594 C 262.621094 221.175781 262.730469 221.035156 262.824219 220.886719 C 262.925781 220.730469 262.992188 220.546875 263.058594 220.375 C 263.082031 220.324219 263.097656 220.273438 263.109375 220.21875 C 263.140625 220.0625 263.160156 219.902344 263.175781 219.746094 C 263.175781 219.710938 263.179688 219.679688 263.179688 219.644531 C 263.179688 219.460938 263.148438 219.273438 263.109375 219.101562 Z M 263.097656 219.089844 " fill-opacity="1" fill-rule="nonzero"/><path fill="#4a4a4a" d="M 116.074219 87.625 C 116.074219 88.132812 116.027344 88.632812 115.929688 89.128906 C 115.828125 89.628906 115.683594 90.109375 115.488281 90.578125 C 115.296875 91.046875 115.058594 91.492188 114.777344 91.910156 C 114.496094 92.332031 114.175781 92.722656 113.816406 93.082031 C 113.457031 93.4375 113.070312 93.757812 112.648438 94.039062 C 112.226562 94.320312 111.78125 94.558594 111.3125 94.753906 C 110.847656 94.945312 110.363281 95.09375 109.867188 95.191406 C 109.371094 95.289062 108.867188 95.339844 108.363281 95.339844 C 107.855469 95.339844 107.351562 95.289062 106.855469 95.191406 C 106.359375 95.09375 105.878906 94.945312 105.410156 94.753906 C 104.941406 94.558594 104.496094 94.320312 104.074219 94.039062 C 103.65625 93.757812 103.265625 93.4375 102.90625 93.082031 C 102.546875 92.722656 102.226562 92.332031 101.945312 91.910156 C 101.664062 91.492188 101.429688 91.046875 101.234375 90.578125 C 101.039062 90.109375 100.894531 89.628906 100.796875 89.128906 C 100.695312 88.632812 100.648438 88.132812 100.648438 87.625 C 100.648438 87.117188 100.695312 86.617188 100.796875 86.121094 C 100.894531 85.625 101.039062 85.140625 101.234375 84.671875 C 101.429688 84.207031 101.664062 83.761719 101.945312 83.339844 C 102.226562 82.917969 102.546875 82.527344 102.90625 82.171875 C 103.265625 81.8125 103.65625 81.492188 104.074219 81.210938 C 104.496094 80.929688 104.941406 80.691406 105.410156 80.5 C 105.878906 80.304688 106.359375 80.15625 106.855469 80.058594 C 107.351562 79.960938 107.855469 79.910156 108.363281 79.910156 C 108.867188 79.910156 109.371094 79.960938 109.867188 80.058594 C 110.363281 80.15625 110.847656 80.304688 111.3125 80.5 C 111.78125 80.691406 112.226562 80.929688 112.648438 81.210938 C 113.070312 81.492188 113.457031 81.8125 113.816406 82.171875 C 114.175781 82.527344 114.496094 82.917969 114.777344 83.339844 C 115.058594 83.761719 115.296875 84.207031 115.488281 84.671875 C 115.683594 85.140625 115.828125 85.625 115.929688 86.121094 C 116.027344 86.617188 116.074219 87.117188 116.074219 87.625 Z M 116.074219 87.625 " fill-opacity="1" fill-rule="nonzero"/><path fill="#dddddd" d="M 107.566406 86.410156 C 107.566406 86.761719 107.5 87.101562 107.363281 87.425781 C 107.230469 87.753906 107.035156 88.042969 106.785156 88.289062 C 106.539062 88.539062 106.25 88.734375 105.921875 88.867188 C 105.597656 89.003906 105.257812 89.070312 104.90625 89.070312 C 104.550781 89.070312 104.210938 89.003906 103.886719 88.867188 C 103.558594 88.734375 103.273438 88.539062 103.023438 88.289062 C 102.773438 88.042969 102.578125 87.753906 102.445312 87.425781 C 102.308594 87.101562 102.242188 86.761719 102.242188 86.410156 C 102.242188 86.054688 102.308594 85.714844 102.445312 85.390625 C 102.578125 85.0625 102.773438 84.777344 103.023438 84.527344 C 103.273438 84.277344 103.558594 84.082031 103.886719 83.949219 C 104.210938 83.8125 104.550781 83.746094 104.90625 83.746094 C 105.257812 83.746094 105.597656 83.8125 105.921875 83.949219 C 106.25 84.082031 106.539062 84.277344 106.785156 84.527344 C 107.035156 84.777344 107.230469 85.0625 107.363281 85.390625 C 107.5 85.714844 107.566406 86.054688 107.566406 86.410156 Z M 107.566406 86.410156 " fill-opacity="1" fill-rule="nonzero"/><path fill="#dddddd" d="M 114.652344 89.605469 C 114.652344 89.78125 114.621094 89.953125 114.550781 90.113281 C 114.484375 90.277344 114.386719 90.421875 114.261719 90.546875 C 114.136719 90.671875 113.992188 90.769531 113.828125 90.835938 C 113.667969 90.90625 113.496094 90.9375 113.320312 90.9375 C 113.140625 90.9375 112.972656 90.90625 112.808594 90.835938 C 112.644531 90.769531 112.5 90.671875 112.375 90.546875 C 112.25 90.421875 112.15625 90.277344 112.085938 90.113281 C 112.019531 89.953125 111.984375 89.78125 111.984375 89.605469 C 111.984375 89.425781 112.019531 89.257812 112.085938 89.09375 C 112.15625 88.929688 112.25 88.785156 112.375 88.660156 C 112.5 88.535156 112.644531 88.441406 112.808594 88.371094 C 112.972656 88.304688 113.140625 88.269531 113.320312 88.269531 C 113.496094 88.269531 113.667969 88.304688 113.828125 88.371094 C 113.992188 88.441406 114.136719 88.535156 114.261719 88.660156 C 114.386719 88.785156 114.484375 88.929688 114.550781 89.09375 C 114.621094 89.257812 114.652344 89.425781 114.652344 89.605469 Z M 114.652344 89.605469 " fill-opacity="1" fill-rule="nonzero"/><g clip-path="url(#fb461be679)"><path fill="#ffffff" d="M 48.902344 77.027344 L 86.4375 77.027344 L 86.4375 116.179688 L 48.902344 116.179688 Z M 48.902344 77.027344 " fill-opacity="1" fill-rule="nonzero"/></g><g clip-path="url(#079326890e)"><g clip-path="url(#2eac48c675)"><g clip-path="url(#37163c6d6a)"><path fill="#00b2b2" d="M 89.511719 76.046875 L 99.417969 109.75 L 77.6875 116.140625 L 67.78125 82.4375 Z M 89.511719 76.046875 " fill-opacity="1" fill-rule="nonzero"/></g></g></g><g fill="#037f8c" fill-opacity="1"><g transform="translate(67.212285, 298.996726)"><g><path d="M 0.71875 0.640625 C 0.59375 0.523438 0.523438 0.378906 0.515625 0.203125 C 0.503906 0.0351562 0.550781 -0.101562 0.65625 -0.21875 C 0.71875 -0.289062 0.785156 -0.351562 0.859375 -0.40625 L 18.46875 -9.734375 C 18.664062 -9.859375 18.878906 -9.921875 19.109375 -9.921875 C 19.347656 -9.921875 19.582031 -9.816406 19.8125 -9.609375 L 22.59375 -7.140625 C 22.820312 -6.929688 22.945312 -6.710938 22.96875 -6.484375 C 23 -6.253906 22.96875 -6.023438 22.875 -5.796875 L 15.578125 12.71875 C 15.554688 12.8125 15.515625 12.894531 15.453125 12.96875 C 15.347656 13.082031 15.203125 13.140625 15.015625 13.140625 C 14.835938 13.148438 14.6875 13.101562 14.5625 13 L 12.28125 10.953125 C 12.070312 10.773438 11.960938 10.585938 11.953125 10.390625 C 11.941406 10.203125 11.960938 10.050781 12.015625 9.9375 L 13.25 6.671875 L 7.140625 1.21875 L 4.0625 2.84375 C 3.9375 2.894531 3.78125 2.925781 3.59375 2.9375 C 3.414062 2.957031 3.21875 2.867188 3 2.671875 Z M 10.453125 -0.859375 L 14.9375 3.140625 L 18.25 -5.078125 Z M 10.453125 -0.859375 "/></g></g></g><g fill="#037f8c" fill-opacity="1"><g transform="translate(93.36673, 320.522337)"><g><path d="M 12.15625 9.28125 C 11.914062 9.132812 11.765625 8.945312 11.703125 8.71875 C 11.640625 8.488281 11.597656 8.300781 11.578125 8.15625 L 11.375 6.421875 C 10.488281 6.273438 9.582031 5.929688 8.65625 5.390625 C 7.132812 4.503906 5.96875 3.488281 5.15625 2.34375 C 4.351562 1.195312 3.9375 -0.0625 3.90625 -1.4375 C 3.882812 -2.8125 4.289062 -4.285156 5.125 -5.859375 C 5.519531 -6.585938 5.925781 -7.304688 6.34375 -8.015625 C 6.757812 -8.734375 7.195312 -9.457031 7.65625 -10.1875 C 8.59375 -11.65625 9.675781 -12.71875 10.90625 -13.375 C 12.132812 -14.039062 13.457031 -14.304688 14.875 -14.171875 C 16.289062 -14.046875 17.734375 -13.550781 19.203125 -12.6875 C 20.679688 -11.832031 21.820312 -10.820312 22.625 -9.65625 C 23.4375 -8.488281 23.867188 -7.203125 23.921875 -5.796875 C 23.972656 -4.390625 23.578125 -2.925781 22.734375 -1.40625 C 22.328125 -0.644531 21.914062 0.0859375 21.5 0.796875 C 21.082031 1.515625 20.648438 2.222656 20.203125 2.921875 C 18.867188 5.015625 17.316406 6.296875 15.546875 6.765625 L 15.828125 10.359375 C 15.835938 10.390625 15.835938 10.4375 15.828125 10.5 C 15.816406 10.5625 15.796875 10.617188 15.765625 10.671875 C 15.703125 10.816406 15.585938 10.914062 15.421875 10.96875 C 15.253906 11.019531 15.097656 11 14.953125 10.90625 Z M 10.5625 2.125 C 11.550781 2.695312 12.523438 2.867188 13.484375 2.640625 C 14.453125 2.421875 15.34375 1.671875 16.15625 0.390625 C 16.613281 -0.328125 17.03125 -1.007812 17.40625 -1.65625 C 17.78125 -2.300781 18.164062 -2.992188 18.5625 -3.734375 C 19.039062 -4.609375 19.289062 -5.410156 19.3125 -6.140625 C 19.34375 -6.878906 19.175781 -7.515625 18.8125 -8.046875 C 18.457031 -8.585938 17.953125 -9.046875 17.296875 -9.421875 C 16.660156 -9.796875 16.019531 -10.003906 15.375 -10.046875 C 14.738281 -10.097656 14.113281 -9.929688 13.5 -9.546875 C 12.882812 -9.160156 12.300781 -8.546875 11.75 -7.703125 C 11.3125 -6.992188 10.90625 -6.316406 10.53125 -5.671875 C 10.15625 -5.023438 9.757812 -4.328125 9.34375 -3.578125 C 8.644531 -2.242188 8.429688 -1.101562 8.703125 -0.15625 C 8.972656 0.789062 9.59375 1.550781 10.5625 2.125 Z M 10.5625 2.125 "/></g></g></g><g fill="#037f8c" fill-opacity="1"><g transform="translate(123.271571, 336.403748)"><g><path d="M 9.828125 3.625 C 8.203125 3.082031 6.875 2.332031 5.84375 1.375 C 4.820312 0.425781 4.171875 -0.71875 3.890625 -2.0625 C 3.609375 -3.414062 3.765625 -4.96875 4.359375 -6.71875 L 8.140625 -17.953125 C 8.210938 -18.160156 8.332031 -18.304688 8.5 -18.390625 C 8.675781 -18.484375 8.851562 -18.5 9.03125 -18.4375 L 12.0625 -17.421875 C 12.257812 -17.347656 12.398438 -17.222656 12.484375 -17.046875 C 12.578125 -16.878906 12.585938 -16.691406 12.515625 -16.484375 L 8.734375 -5.28125 C 8.285156 -3.9375 8.269531 -2.820312 8.6875 -1.9375 C 9.113281 -1.0625 9.90625 -0.429688 11.0625 -0.046875 C 12.195312 0.335938 13.195312 0.3125 14.0625 -0.125 C 14.9375 -0.570312 15.597656 -1.46875 16.046875 -2.8125 L 19.828125 -14.015625 C 19.898438 -14.222656 20.023438 -14.367188 20.203125 -14.453125 C 20.390625 -14.535156 20.570312 -14.550781 20.75 -14.5 L 23.78125 -13.46875 C 23.957031 -13.40625 24.085938 -13.285156 24.171875 -13.109375 C 24.265625 -12.941406 24.273438 -12.753906 24.203125 -12.546875 L 20.421875 -1.3125 C 19.828125 0.4375 19.007812 1.765625 17.96875 2.671875 C 16.9375 3.585938 15.726562 4.113281 14.34375 4.25 C 12.96875 4.382812 11.460938 4.175781 9.828125 3.625 Z M 9.828125 3.625 "/></g></g></g><g fill="#037f8c" fill-opacity="1"><g transform="translate(156.210218, 346.052874)"><g><path d="M 0.953125 0.109375 C 0.785156 0.0976562 0.648438 0.0234375 0.546875 -0.109375 C 0.441406 -0.253906 0.398438 -0.40625 0.421875 -0.5625 C 0.429688 -0.65625 0.453125 -0.742188 0.484375 -0.828125 L 9.625 -18.53125 C 9.71875 -18.726562 9.859375 -18.894531 10.046875 -19.03125 C 10.242188 -19.164062 10.5 -19.210938 10.8125 -19.171875 L 14.5 -18.71875 C 14.8125 -18.6875 15.039062 -18.582031 15.1875 -18.40625 C 15.34375 -18.226562 15.445312 -18.03125 15.5 -17.8125 L 20.046875 1.578125 C 20.078125 1.671875 20.085938 1.765625 20.078125 1.859375 C 20.054688 2.015625 19.972656 2.144531 19.828125 2.25 C 19.679688 2.363281 19.53125 2.410156 19.375 2.390625 L 16.328125 2.015625 C 16.054688 1.984375 15.859375 1.890625 15.734375 1.734375 C 15.617188 1.585938 15.550781 1.453125 15.53125 1.328125 L 14.6875 -2.0625 L 6.5625 -3.0625 L 4.96875 0.03125 C 4.882812 0.132812 4.769531 0.242188 4.625 0.359375 C 4.488281 0.484375 4.273438 0.523438 3.984375 0.484375 Z M 8.125 -6.640625 L 14.078125 -5.90625 L 12.109375 -14.5625 Z M 8.125 -6.640625 "/></g></g></g><g fill="#037f8c" fill-opacity="1"><g transform="translate(189.950297, 348.840526)"><g><path d="M 2.828125 -0.21875 C 2.648438 -0.207031 2.488281 -0.265625 2.34375 -0.390625 C 2.195312 -0.515625 2.113281 -0.6875 2.09375 -0.90625 L 0.65625 -19.734375 C 0.644531 -19.953125 0.703125 -20.132812 0.828125 -20.28125 C 0.953125 -20.425781 1.101562 -20.503906 1.28125 -20.515625 L 9 -21.109375 C 11.414062 -21.285156 13.363281 -20.875 14.84375 -19.875 C 16.320312 -18.875 17.140625 -17.328125 17.296875 -15.234375 C 17.410156 -13.828125 17.164062 -12.617188 16.5625 -11.609375 C 15.957031 -10.609375 15.097656 -9.835938 13.984375 -9.296875 L 18.640625 -2.375 C 18.710938 -2.25 18.753906 -2.140625 18.765625 -2.046875 C 18.773438 -1.890625 18.722656 -1.742188 18.609375 -1.609375 C 18.503906 -1.472656 18.375 -1.398438 18.21875 -1.390625 L 14.953125 -1.140625 C 14.609375 -1.117188 14.335938 -1.191406 14.140625 -1.359375 C 13.953125 -1.523438 13.816406 -1.6875 13.734375 -1.84375 L 9.703125 -8.203125 L 6.203125 -7.9375 L 6.703125 -1.25 C 6.722656 -1.03125 6.671875 -0.847656 6.546875 -0.703125 C 6.421875 -0.554688 6.25 -0.476562 6.03125 -0.46875 Z M 5.921875 -11.625 L 9.65625 -11.90625 C 10.695312 -11.988281 11.453125 -12.289062 11.921875 -12.8125 C 12.398438 -13.34375 12.601562 -14.039062 12.53125 -14.90625 C 12.46875 -15.769531 12.164062 -16.429688 11.625 -16.890625 C 11.082031 -17.359375 10.28125 -17.550781 9.21875 -17.46875 L 5.484375 -17.1875 Z M 5.921875 -11.625 "/></g></g></g><g fill="#037f8c" fill-opacity="1"><g transform="translate(222.576741, 344.835521)"><g><path d="M 2.765625 -0.671875 C 2.578125 -0.628906 2.398438 -0.65625 2.234375 -0.75 C 2.078125 -0.851562 1.972656 -1.015625 1.921875 -1.234375 L -2.5625 -19.578125 C -2.613281 -19.796875 -2.585938 -19.984375 -2.484375 -20.140625 C -2.390625 -20.304688 -2.25 -20.410156 -2.0625 -20.453125 L 1.1875 -21.25 C 1.375 -21.289062 1.546875 -21.265625 1.703125 -21.171875 C 1.867188 -21.078125 1.976562 -20.921875 2.03125 -20.703125 L 6.515625 -2.359375 C 6.566406 -2.140625 6.539062 -1.945312 6.4375 -1.78125 C 6.34375 -1.613281 6.203125 -1.507812 6.015625 -1.46875 Z M 2.765625 -0.671875 "/></g></g></g><g fill="#037f8c" fill-opacity="1"><g transform="translate(243.956847, 338.996162)"><g><path d="M 9.734375 -3.875 C 8.171875 -3.195312 6.6875 -2.867188 5.28125 -2.890625 C 3.882812 -2.910156 2.628906 -3.328125 1.515625 -4.140625 C 0.410156 -4.960938 -0.503906 -6.222656 -1.234375 -7.921875 L -5.921875 -18.8125 C -6.015625 -19.007812 -6.023438 -19.195312 -5.953125 -19.375 C -5.878906 -19.550781 -5.757812 -19.679688 -5.59375 -19.765625 L -2.65625 -21.03125 C -2.457031 -21.101562 -2.269531 -21.101562 -2.09375 -21.03125 C -1.914062 -20.96875 -1.78125 -20.835938 -1.6875 -20.640625 L 2.984375 -9.765625 C 3.546875 -8.460938 4.273438 -7.625 5.171875 -7.25 C 6.078125 -6.882812 7.085938 -6.941406 8.203125 -7.421875 C 9.304688 -7.890625 10.03125 -8.578125 10.375 -9.484375 C 10.726562 -10.398438 10.625 -11.507812 10.0625 -12.8125 L 5.390625 -23.6875 C 5.296875 -23.882812 5.289062 -24.070312 5.375 -24.25 C 5.457031 -24.4375 5.585938 -24.566406 5.765625 -24.640625 L 8.703125 -25.90625 C 8.878906 -25.976562 9.054688 -25.976562 9.234375 -25.90625 C 9.410156 -25.84375 9.546875 -25.710938 9.640625 -25.515625 L 14.328125 -14.625 C 15.054688 -12.925781 15.335938 -11.390625 15.171875 -10.015625 C 15.003906 -8.648438 14.453125 -7.453125 13.515625 -6.421875 C 12.585938 -5.398438 11.328125 -4.550781 9.734375 -3.875 Z M 9.734375 -3.875 "/></g></g></g><g fill="#037f8c" fill-opacity="1"><g transform="translate(275.057132, 324.218662)"><g><path d="M 2.34375 -1.671875 C 2.175781 -1.546875 1.992188 -1.5 1.796875 -1.53125 C 1.609375 -1.5625 1.453125 -1.664062 1.328125 -1.84375 L -9.640625 -17.234375 C -9.765625 -17.410156 -9.804688 -17.59375 -9.765625 -17.78125 C -9.734375 -17.96875 -9.632812 -18.125 -9.46875 -18.25 L -7.25 -19.828125 C -7.007812 -20.003906 -6.785156 -20.070312 -6.578125 -20.03125 C -6.367188 -19.988281 -6.222656 -19.941406 -6.140625 -19.890625 L 3.9375 -15.015625 L 2.609375 -26.125 C 2.597656 -26.226562 2.609375 -26.382812 2.640625 -26.59375 C 2.671875 -26.800781 2.800781 -26.988281 3.03125 -27.15625 L 5.234375 -28.734375 C 5.398438 -28.847656 5.578125 -28.890625 5.765625 -28.859375 C 5.960938 -28.828125 6.125 -28.722656 6.25 -28.546875 L 17.21875 -13.15625 C 17.34375 -12.976562 17.382812 -12.796875 17.34375 -12.609375 C 17.3125 -12.421875 17.210938 -12.269531 17.046875 -12.15625 L 14.625 -10.421875 C 14.46875 -10.304688 14.296875 -10.265625 14.109375 -10.296875 C 13.921875 -10.328125 13.765625 -10.429688 13.640625 -10.609375 L 6.828125 -20.15625 L 7.84375 -12.390625 C 7.875 -12.210938 7.863281 -12.023438 7.8125 -11.828125 C 7.769531 -11.628906 7.632812 -11.453125 7.40625 -11.296875 L 6.296875 -10.5 C 6.085938 -10.351562 5.878906 -10.285156 5.671875 -10.296875 C 5.472656 -10.316406 5.285156 -10.367188 5.109375 -10.453125 L -1.875 -13.953125 L 4.9375 -4.40625 C 5.0625 -4.226562 5.109375 -4.046875 5.078125 -3.859375 C 5.046875 -3.671875 4.941406 -3.515625 4.765625 -3.390625 Z M 2.34375 -1.671875 "/></g></g></g><g fill="#00b2b2" fill-opacity="0.3804"><g transform="translate(125.190862, 69.356374)"><g><path d="M 4.46875 -17.9375 C 4.664062 -17.46875 4.910156 -16.898438 5.203125 -16.234375 C 5.503906 -15.578125 5.847656 -14.914062 6.234375 -14.25 C 6.617188 -13.582031 7.054688 -13.019531 7.546875 -12.5625 C 8.046875 -12.101562 8.597656 -11.835938 9.203125 -11.765625 C 9.628906 -11.734375 10.046875 -11.769531 10.453125 -11.875 C 10.867188 -11.988281 11.273438 -12.125 11.671875 -12.28125 C 12.523438 -12.644531 13.359375 -13.007812 14.171875 -13.375 C 14.984375 -13.738281 15.8125 -14.097656 16.65625 -14.453125 C 17.800781 -14.929688 18.613281 -14.59375 19.09375 -13.4375 C 19.289062 -12.96875 19.441406 -12.46875 19.546875 -11.9375 C 19.660156 -11.40625 19.617188 -10.890625 19.421875 -10.390625 C 19.109375 -9.535156 18.566406 -8.828125 17.796875 -8.265625 C 17.023438 -7.710938 16.242188 -7.273438 15.453125 -6.953125 C 14.617188 -6.597656 13.640625 -6.175781 12.515625 -5.6875 C 11.390625 -5.207031 10.226562 -4.789062 9.03125 -4.4375 C 7.832031 -4.09375 6.664062 -3.90625 5.53125 -3.875 C 4.40625 -3.851562 3.414062 -4.128906 2.5625 -4.703125 C 1.925781 -5.085938 1.390625 -5.5625 0.953125 -6.125 C 0.515625 -6.695312 0.132812 -7.3125 -0.1875 -7.96875 C -0.675781 -8.925781 -1.132812 -9.890625 -1.5625 -10.859375 C -2 -11.828125 -2.421875 -12.800781 -2.828125 -13.78125 C -3.035156 -14.269531 -3.300781 -14.929688 -3.625 -15.765625 C -3.957031 -16.597656 -4.304688 -17.5 -4.671875 -18.46875 C -5.035156 -19.4375 -5.375 -20.410156 -5.6875 -21.390625 C -6 -22.378906 -6.238281 -23.28125 -6.40625 -24.09375 C -6.582031 -24.914062 -6.644531 -25.570312 -6.59375 -26.0625 C -6.476562 -27.039062 -6.113281 -27.769531 -5.5 -28.25 C -4.894531 -28.726562 -4.171875 -29.140625 -3.328125 -29.484375 C -2.648438 -29.765625 -2.015625 -29.734375 -1.421875 -29.390625 C -0.835938 -29.046875 -0.300781 -28.53125 0.1875 -27.84375 C 0.675781 -27.15625 1.097656 -26.445312 1.453125 -25.71875 C 1.816406 -25 2.101562 -24.394531 2.3125 -23.90625 C 2.582031 -23.238281 2.84375 -22.566406 3.09375 -21.890625 C 3.34375 -21.222656 3.578125 -20.546875 3.796875 -19.859375 C 3.921875 -19.546875 4.03125 -19.226562 4.125 -18.90625 C 4.226562 -18.582031 4.34375 -18.257812 4.46875 -17.9375 Z M 4.46875 -17.9375 "/></g></g></g><g fill="#00b2b2" fill-opacity="0.3804"><g transform="translate(147.801596, 59.767052)"><g><path d="M 6.578125 -2.125 C 5.742188 -1.957031 4.984375 -1.832031 4.296875 -1.75 C 3.617188 -1.675781 3.039062 -1.804688 2.5625 -2.140625 C 2.09375 -2.484375 1.753906 -3.175781 1.546875 -4.21875 C 1.410156 -4.875 1.351562 -5.882812 1.375 -7.25 C 1.394531 -8.613281 1.476562 -10.179688 1.625 -11.953125 C 1.78125 -13.722656 1.988281 -15.554688 2.25 -17.453125 C 2.519531 -19.359375 2.820312 -21.160156 3.15625 -22.859375 C 3.488281 -24.554688 3.851562 -26.023438 4.25 -27.265625 C 4.644531 -28.503906 5.054688 -29.34375 5.484375 -29.78125 C 5.859375 -30.1875 6.257812 -30.457031 6.6875 -30.59375 C 7.113281 -30.738281 7.585938 -30.863281 8.109375 -30.96875 C 8.941406 -31.144531 9.640625 -31.195312 10.203125 -31.125 C 10.773438 -31.0625 11.40625 -30.75 12.09375 -30.1875 C 12.582031 -29.78125 13.21875 -29.0625 14 -28.03125 C 14.78125 -27 15.625 -25.773438 16.53125 -24.359375 C 17.4375 -22.941406 18.34375 -21.457031 19.25 -19.90625 C 20.15625 -18.351562 21 -16.832031 21.78125 -15.34375 C 22.5625 -13.863281 23.210938 -12.53125 23.734375 -11.34375 C 24.265625 -10.164062 24.597656 -9.253906 24.734375 -8.609375 C 24.867188 -7.929688 24.796875 -7.367188 24.515625 -6.921875 C 24.242188 -6.484375 23.84375 -6.128906 23.3125 -5.859375 C 22.78125 -5.597656 22.21875 -5.382812 21.625 -5.21875 C 21.039062 -5.050781 20.515625 -4.921875 20.046875 -4.828125 C 19.265625 -4.671875 18.710938 -4.6875 18.390625 -4.875 C 18.066406 -5.070312 17.84375 -5.351562 17.71875 -5.71875 C 17.601562 -6.09375 17.492188 -6.5 17.390625 -6.9375 C 17.285156 -7.382812 17.078125 -7.769531 16.765625 -8.09375 C 16.453125 -8.425781 15.9375 -8.644531 15.21875 -8.75 C 14.507812 -8.863281 13.472656 -8.78125 12.109375 -8.5 C 10.992188 -8.269531 10.207031 -7.976562 9.75 -7.625 C 9.289062 -7.28125 9.015625 -6.898438 8.921875 -6.484375 C 8.828125 -6.078125 8.816406 -5.65625 8.890625 -5.21875 C 8.972656 -4.789062 9.007812 -4.375 9 -3.96875 C 8.988281 -3.570312 8.804688 -3.210938 8.453125 -2.890625 C 8.109375 -2.566406 7.484375 -2.3125 6.578125 -2.125 Z M 11.203125 -14.1875 L 12.03125 -14.359375 C 12.414062 -14.429688 12.71875 -14.609375 12.9375 -14.890625 C 13.15625 -15.171875 13.222656 -15.519531 13.140625 -15.9375 C 13.097656 -16.125 12.984375 -16.460938 12.796875 -16.953125 C 12.609375 -17.441406 12.382812 -17.992188 12.125 -18.609375 C 11.875 -19.222656 11.609375 -19.816406 11.328125 -20.390625 C 11.046875 -20.972656 10.765625 -21.445312 10.484375 -21.8125 C 10.203125 -22.175781 9.972656 -22.335938 9.796875 -22.296875 C 9.628906 -22.265625 9.5 -22.03125 9.40625 -21.59375 C 9.3125 -21.15625 9.238281 -20.609375 9.1875 -19.953125 C 9.132812 -19.304688 9.101562 -18.644531 9.09375 -17.96875 C 9.09375 -17.289062 9.101562 -16.6875 9.125 -16.15625 C 9.15625 -15.632812 9.1875 -15.28125 9.21875 -15.09375 C 9.320312 -14.570312 9.566406 -14.265625 9.953125 -14.171875 C 10.347656 -14.085938 10.765625 -14.09375 11.203125 -14.1875 Z M 11.203125 -14.1875 "/></g></g></g><g fill="#00b2b2" fill-opacity="0.3804"><g transform="translate(175.123308, 54.250981)"><g><path d="M 2.609375 -12.5625 L 2.59375 -16.875 C 2.59375 -17.375 2.601562 -18.035156 2.625 -18.859375 C 2.644531 -19.691406 2.691406 -20.585938 2.765625 -21.546875 C 2.847656 -22.503906 2.976562 -23.4375 3.15625 -24.34375 C 3.332031 -25.25 3.582031 -26.039062 3.90625 -26.71875 C 4.238281 -27.394531 4.660156 -27.867188 5.171875 -28.140625 C 5.734375 -28.410156 6.5 -28.613281 7.46875 -28.75 C 8.4375 -28.894531 9.425781 -28.988281 10.4375 -29.03125 C 11.445312 -29.070312 12.273438 -29.09375 12.921875 -29.09375 C 14.441406 -29.101562 15.9375 -28.894531 17.40625 -28.46875 C 18.882812 -28.050781 20.222656 -27.421875 21.421875 -26.578125 C 22.628906 -25.734375 23.59375 -24.671875 24.3125 -23.390625 C 25.039062 -22.117188 25.410156 -20.632812 25.421875 -18.9375 C 25.429688 -17.070312 25.101562 -15.550781 24.4375 -14.375 C 23.78125 -13.195312 22.929688 -12.265625 21.890625 -11.578125 C 20.847656 -10.898438 19.726562 -10.410156 18.53125 -10.109375 C 17.332031 -9.804688 16.175781 -9.609375 15.0625 -9.515625 C 13.957031 -9.421875 13.03125 -9.351562 12.28125 -9.3125 C 11.539062 -9.28125 11.101562 -9.203125 10.96875 -9.078125 C 10.863281 -8.941406 10.78125 -8.691406 10.71875 -8.328125 C 10.65625 -7.972656 10.617188 -7.601562 10.609375 -7.21875 C 10.597656 -6.832031 10.59375 -6.546875 10.59375 -6.359375 C 10.59375 -5.847656 10.613281 -5.347656 10.65625 -4.859375 C 10.707031 -4.367188 10.734375 -3.867188 10.734375 -3.359375 C 10.734375 -2.503906 10.582031 -1.847656 10.28125 -1.390625 C 9.976562 -0.941406 9.359375 -0.71875 8.421875 -0.71875 C 7.921875 -0.707031 7.394531 -0.726562 6.84375 -0.78125 C 6.300781 -0.84375 5.789062 -0.96875 5.3125 -1.15625 C 4.800781 -1.351562 4.382812 -1.789062 4.0625 -2.46875 C 3.738281 -3.144531 3.472656 -3.957031 3.265625 -4.90625 C 3.066406 -5.851562 2.921875 -6.828125 2.828125 -7.828125 C 2.742188 -8.828125 2.6875 -9.75 2.65625 -10.59375 C 2.625 -11.445312 2.609375 -12.101562 2.609375 -12.5625 Z M 10.515625 -21.578125 L 10.546875 -16.9375 C 10.546875 -15.90625 10.738281 -15.269531 11.125 -15.03125 C 11.507812 -14.789062 12.179688 -14.671875 13.140625 -14.671875 C 14.554688 -14.679688 15.707031 -15.140625 16.59375 -16.046875 C 17.488281 -16.960938 17.929688 -18.113281 17.921875 -19.5 C 17.921875 -20.382812 17.65625 -21.101562 17.125 -21.65625 C 16.601562 -22.207031 15.960938 -22.617188 15.203125 -22.890625 C 14.441406 -23.171875 13.675781 -23.3125 12.90625 -23.3125 L 11.90625 -23.3125 C 11.351562 -23.300781 10.988281 -23.117188 10.8125 -22.765625 C 10.632812 -22.421875 10.535156 -22.023438 10.515625 -21.578125 Z M 10.515625 -21.578125 "/></g></g></g><g fill="#00b2b2" fill-opacity="0.3804"><g transform="translate(201.046207, 54.039853)"><g><path d="M 11.265625 -1.90625 C 11.148438 -1.300781 11.003906 -0.757812 10.828125 -0.28125 C 10.660156 0.195312 10.382812 0.550781 10 0.78125 C 9.613281 1.007812 9.050781 1.050781 8.3125 0.90625 C 7.820312 0.8125 7.316406 0.6875 6.796875 0.53125 C 6.285156 0.375 5.816406 0.15625 5.390625 -0.125 C 4.890625 -0.457031 4.546875 -1.078125 4.359375 -1.984375 C 4.179688 -2.898438 4.125 -3.96875 4.1875 -5.1875 C 4.25 -6.40625 4.363281 -7.644531 4.53125 -8.90625 C 4.695312 -10.164062 4.878906 -11.3125 5.078125 -12.34375 C 5.273438 -13.375 5.425781 -14.148438 5.53125 -14.671875 C 5.789062 -16.035156 6.09375 -17.390625 6.4375 -18.734375 C 6.78125 -20.078125 7.175781 -21.394531 7.625 -22.6875 C 7.84375 -23.21875 8.140625 -23.851562 8.515625 -24.59375 C 8.898438 -25.332031 9.34375 -25.847656 9.84375 -26.140625 C 10.363281 -26.421875 11.039062 -26.585938 11.875 -26.640625 C 12.71875 -26.691406 13.609375 -26.675781 14.546875 -26.59375 C 15.492188 -26.507812 16.398438 -26.394531 17.265625 -26.25 C 18.140625 -26.113281 18.863281 -25.992188 19.4375 -25.890625 C 20.757812 -25.628906 22.03125 -25.175781 23.25 -24.53125 C 24.46875 -23.894531 25.539062 -23.085938 26.46875 -22.109375 C 27.394531 -21.128906 28.070312 -20.015625 28.5 -18.765625 C 28.925781 -17.523438 29 -16.171875 28.71875 -14.703125 C 28.625 -14.210938 28.476562 -13.726562 28.28125 -13.25 C 28.082031 -12.78125 27.796875 -12.347656 27.421875 -11.953125 C 26.878906 -11.359375 26.269531 -10.832031 25.59375 -10.375 C 24.914062 -9.914062 24.195312 -9.53125 23.4375 -9.21875 C 23.363281 -9.207031 23.207031 -9.140625 22.96875 -9.015625 C 22.726562 -8.898438 22.597656 -8.789062 22.578125 -8.6875 C 22.554688 -8.613281 22.613281 -8.445312 22.75 -8.1875 C 22.894531 -7.925781 23.054688 -7.671875 23.234375 -7.421875 C 23.421875 -7.171875 23.546875 -7 23.609375 -6.90625 C 23.828125 -6.539062 24.035156 -5.925781 24.234375 -5.0625 C 24.441406 -4.207031 24.617188 -3.28125 24.765625 -2.28125 C 24.921875 -1.28125 25.019531 -0.347656 25.0625 0.515625 C 25.113281 1.390625 25.097656 2.054688 25.015625 2.515625 C 24.953125 2.847656 24.691406 3.078125 24.234375 3.203125 C 23.773438 3.335938 23.238281 3.398438 22.625 3.390625 C 22.019531 3.378906 21.4375 3.34375 20.875 3.28125 C 20.320312 3.21875 19.925781 3.164062 19.6875 3.125 C 18.863281 2.96875 18.269531 2.613281 17.90625 2.0625 C 17.539062 1.519531 17.316406 0.867188 17.234375 0.109375 C 17.148438 -0.648438 17.097656 -1.457031 17.078125 -2.3125 C 17.054688 -3.175781 16.957031 -4 16.78125 -4.78125 C 16.601562 -5.5625 16.253906 -6.234375 15.734375 -6.796875 C 15.222656 -7.367188 14.414062 -7.765625 13.3125 -7.984375 C 13 -8.035156 12.726562 -7.847656 12.5 -7.421875 C 12.269531 -7.003906 12.085938 -6.53125 11.953125 -6 C 11.828125 -5.46875 11.742188 -5.082031 11.703125 -4.84375 C 11.609375 -4.375 11.535156 -3.890625 11.484375 -3.390625 C 11.429688 -2.898438 11.359375 -2.40625 11.265625 -1.90625 Z M 14.4375 -18.875 L 13.78125 -15.5 C 13.71875 -15.125 13.691406 -14.703125 13.703125 -14.234375 C 13.722656 -13.773438 13.984375 -13.5 14.484375 -13.40625 C 15.441406 -13.21875 16.351562 -13.125 17.21875 -13.125 C 18.09375 -13.125 18.847656 -13.335938 19.484375 -13.765625 C 20.128906 -14.203125 20.5625 -15.007812 20.78125 -16.1875 C 20.914062 -16.894531 20.835938 -17.53125 20.546875 -18.09375 C 20.253906 -18.664062 19.828125 -19.148438 19.265625 -19.546875 C 18.703125 -19.941406 18.109375 -20.195312 17.484375 -20.3125 L 16.34375 -20.53125 C 15.738281 -20.644531 15.289062 -20.523438 15 -20.171875 C 14.71875 -19.828125 14.53125 -19.394531 14.4375 -18.875 Z M 14.4375 -18.875 "/></g></g></g><g fill="#00b2b2" fill-opacity="0.3804"><g transform="translate(227.618683, 59.049531)"><g><path d="M 6.65625 1.90625 C 5.863281 1.582031 5.160156 1.257812 4.546875 0.9375 C 3.941406 0.625 3.535156 0.195312 3.328125 -0.34375 C 3.128906 -0.894531 3.234375 -1.664062 3.640625 -2.65625 C 3.890625 -3.269531 4.398438 -4.132812 5.171875 -5.25 C 5.953125 -6.375 6.898438 -7.625 8.015625 -9 C 9.128906 -10.382812 10.328125 -11.796875 11.609375 -13.234375 C 12.890625 -14.671875 14.140625 -16 15.359375 -17.21875 C 16.585938 -18.4375 17.707031 -19.453125 18.71875 -20.265625 C 19.738281 -21.078125 20.554688 -21.539062 21.171875 -21.65625 C 21.703125 -21.789062 22.179688 -21.796875 22.609375 -21.671875 C 23.046875 -21.546875 23.507812 -21.382812 24 -21.1875 C 24.789062 -20.863281 25.398438 -20.519531 25.828125 -20.15625 C 26.265625 -19.789062 26.613281 -19.179688 26.875 -18.328125 C 27.039062 -17.703125 27.164062 -16.742188 27.25 -15.453125 C 27.332031 -14.171875 27.347656 -12.691406 27.296875 -11.015625 C 27.253906 -9.347656 27.175781 -7.609375 27.0625 -5.796875 C 26.957031 -3.992188 26.816406 -2.257812 26.640625 -0.59375 C 26.460938 1.070312 26.257812 2.539062 26.03125 3.8125 C 25.8125 5.082031 25.570312 6.03125 25.3125 6.65625 C 25.050781 7.289062 24.6875 7.710938 24.21875 7.921875 C 23.75 8.128906 23.21875 8.195312 22.625 8.125 C 22.039062 8.050781 21.457031 7.914062 20.875 7.71875 C 20.289062 7.53125 19.773438 7.34375 19.328125 7.15625 C 18.585938 6.851562 18.140625 6.53125 17.984375 6.1875 C 17.828125 5.851562 17.800781 5.5 17.90625 5.125 C 18.007812 4.757812 18.140625 4.363281 18.296875 3.9375 C 18.460938 3.507812 18.503906 3.070312 18.421875 2.625 C 18.347656 2.175781 18.046875 1.707031 17.515625 1.21875 C 16.992188 0.726562 16.09375 0.21875 14.8125 -0.3125 C 13.75 -0.75 12.925781 -0.945312 12.34375 -0.90625 C 11.769531 -0.875 11.328125 -0.710938 11.015625 -0.421875 C 10.710938 -0.128906 10.472656 0.21875 10.296875 0.625 C 10.117188 1.03125 9.914062 1.390625 9.6875 1.703125 C 9.457031 2.023438 9.109375 2.226562 8.640625 2.3125 C 8.171875 2.394531 7.507812 2.257812 6.65625 1.90625 Z M 17.21875 -5.53125 L 18 -5.203125 C 18.363281 -5.054688 18.710938 -5.035156 19.046875 -5.140625 C 19.378906 -5.253906 19.628906 -5.507812 19.796875 -5.90625 C 19.867188 -6.070312 19.960938 -6.410156 20.078125 -6.921875 C 20.191406 -7.429688 20.3125 -8.015625 20.4375 -8.671875 C 20.570312 -9.328125 20.679688 -9.972656 20.765625 -10.609375 C 20.859375 -11.253906 20.890625 -11.800781 20.859375 -12.25 C 20.835938 -12.707031 20.738281 -12.972656 20.5625 -13.046875 C 20.414062 -13.109375 20.175781 -12.984375 19.84375 -12.671875 C 19.519531 -12.359375 19.15625 -11.945312 18.75 -11.4375 C 18.351562 -10.925781 17.960938 -10.390625 17.578125 -9.828125 C 17.191406 -9.273438 16.863281 -8.773438 16.59375 -8.328125 C 16.320312 -7.878906 16.148438 -7.566406 16.078125 -7.390625 C 15.867188 -6.898438 15.898438 -6.507812 16.171875 -6.21875 C 16.453125 -5.925781 16.800781 -5.695312 17.21875 -5.53125 Z M 17.21875 -5.53125 "/></g></g></g><g fill="#00b2b2" fill-opacity="0.3804"><g transform="translate(253.396603, 69.800712)"><g><path d="M 23.46875 -12.15625 C 22.863281 -12.550781 22.222656 -12.785156 21.546875 -12.859375 C 20.867188 -12.941406 20.296875 -12.628906 19.828125 -11.921875 C 19.460938 -11.359375 19.410156 -10.722656 19.671875 -10.015625 C 19.941406 -9.316406 20.390625 -8.554688 21.015625 -7.734375 C 21.648438 -6.921875 22.316406 -6.039062 23.015625 -5.09375 C 23.722656 -4.15625 24.3125 -3.160156 24.78125 -2.109375 C 25.25 -1.066406 25.476562 0.0195312 25.46875 1.15625 C 25.457031 2.300781 25.050781 3.484375 24.25 4.703125 C 23.207031 6.285156 21.878906 7.390625 20.265625 8.015625 C 18.648438 8.640625 16.972656 8.832031 15.234375 8.59375 C 13.503906 8.351562 11.882812 7.738281 10.375 6.75 C 9.269531 6.019531 8.265625 5.273438 7.359375 4.515625 C 6.460938 3.753906 5.769531 2.925781 5.28125 2.03125 C 4.800781 1.132812 4.609375 0.15625 4.703125 -0.90625 C 4.796875 -1.96875 5.28125 -3.171875 6.15625 -4.515625 C 6.257812 -4.660156 6.375 -4.78125 6.5 -4.875 C 6.625 -4.976562 6.78125 -4.96875 6.96875 -4.84375 C 7.476562 -4.507812 7.929688 -4.085938 8.328125 -3.578125 C 8.722656 -3.078125 9.117188 -2.585938 9.515625 -2.109375 C 9.992188 -1.535156 10.492188 -0.96875 11.015625 -0.40625 C 11.546875 0.15625 12.117188 0.640625 12.734375 1.046875 C 13.160156 1.328125 13.617188 1.546875 14.109375 1.703125 C 14.609375 1.867188 15.09375 1.90625 15.5625 1.8125 C 16.039062 1.71875 16.441406 1.429688 16.765625 0.953125 C 17.234375 0.234375 17.332031 -0.46875 17.0625 -1.15625 C 16.84375 -1.75 16.53125 -2.269531 16.125 -2.71875 C 15.71875 -3.164062 15.3125 -3.613281 14.90625 -4.0625 C 14.238281 -4.851562 13.632812 -5.734375 13.09375 -6.703125 C 12.5625 -7.671875 12.148438 -8.691406 11.859375 -9.765625 C 11.578125 -10.835938 11.484375 -11.90625 11.578125 -12.96875 C 11.671875 -14.03125 12.023438 -15.03125 12.640625 -15.96875 C 13.441406 -17.195312 14.398438 -18.09375 15.515625 -18.65625 C 16.640625 -19.226562 17.84375 -19.53125 19.125 -19.5625 C 20.40625 -19.59375 21.675781 -19.410156 22.9375 -19.015625 C 24.207031 -18.617188 25.390625 -18.054688 26.484375 -17.328125 C 27.503906 -16.660156 28.453125 -15.988281 29.328125 -15.3125 C 30.210938 -14.644531 30.914062 -13.914062 31.4375 -13.125 C 31.957031 -12.332031 32.191406 -11.4375 32.140625 -10.4375 C 32.085938 -9.4375 31.640625 -8.296875 30.796875 -7.015625 C 30.429688 -6.453125 29.957031 -6.363281 29.375 -6.75 C 28.882812 -7.0625 28.425781 -7.441406 28 -7.890625 C 27.582031 -8.347656 27.175781 -8.785156 26.78125 -9.203125 C 26.269531 -9.734375 25.742188 -10.253906 25.203125 -10.765625 C 24.671875 -11.285156 24.09375 -11.75 23.46875 -12.15625 Z M 23.46875 -12.15625 "/></g></g></g><g fill="#00b2b2" fill-opacity="0.3804"><g transform="translate(273.909408, 83.511813)"><g/></g></g><g fill="#00b2b2" fill-opacity="1"><g transform="translate(122.066357, 67.791258)"><g><path d="M 4.46875 -17.9375 C 4.664062 -17.46875 4.910156 -16.898438 5.203125 -16.234375 C 5.503906 -15.578125 5.847656 -14.914062 6.234375 -14.25 C 6.617188 -13.582031 7.054688 -13.019531 7.546875 -12.5625 C 8.046875 -12.101562 8.597656 -11.835938 9.203125 -11.765625 C 9.628906 -11.734375 10.046875 -11.769531 10.453125 -11.875 C 10.867188 -11.988281 11.273438 -12.125 11.671875 -12.28125 C 12.523438 -12.644531 13.359375 -13.007812 14.171875 -13.375 C 14.984375 -13.738281 15.8125 -14.097656 16.65625 -14.453125 C 17.800781 -14.929688 18.613281 -14.59375 19.09375 -13.4375 C 19.289062 -12.96875 19.441406 -12.46875 19.546875 -11.9375 C 19.660156 -11.40625 19.617188 -10.890625 19.421875 -10.390625 C 19.109375 -9.535156 18.566406 -8.828125 17.796875 -8.265625 C 17.023438 -7.710938 16.242188 -7.273438 15.453125 -6.953125 C 14.617188 -6.597656 13.640625 -6.175781 12.515625 -5.6875 C 11.390625 -5.207031 10.226562 -4.789062 9.03125 -4.4375 C 7.832031 -4.09375 6.664062 -3.90625 5.53125 -3.875 C 4.40625 -3.851562 3.414062 -4.128906 2.5625 -4.703125 C 1.925781 -5.085938 1.390625 -5.5625 0.953125 -6.125 C 0.515625 -6.695312 0.132812 -7.3125 -0.1875 -7.96875 C -0.675781 -8.925781 -1.132812 -9.890625 -1.5625 -10.859375 C -2 -11.828125 -2.421875 -12.800781 -2.828125 -13.78125 C -3.035156 -14.269531 -3.300781 -14.929688 -3.625 -15.765625 C -3.957031 -16.597656 -4.304688 -17.5 -4.671875 -18.46875 C -5.035156 -19.4375 -5.375 -20.410156 -5.6875 -21.390625 C -6 -22.378906 -6.238281 -23.28125 -6.40625 -24.09375 C -6.582031 -24.914062 -6.644531 -25.570312 -6.59375 -26.0625 C -6.476562 -27.039062 -6.113281 -27.769531 -5.5 -28.25 C -4.894531 -28.726562 -4.171875 -29.140625 -3.328125 -29.484375 C -2.648438 -29.765625 -2.015625 -29.734375 -1.421875 -29.390625 C -0.835938 -29.046875 -0.300781 -28.53125 0.1875 -27.84375 C 0.675781 -27.15625 1.097656 -26.445312 1.453125 -25.71875 C 1.816406 -25 2.101562 -24.394531 2.3125 -23.90625 C 2.582031 -23.238281 2.84375 -22.566406 3.09375 -21.890625 C 3.34375 -21.222656 3.578125 -20.546875 3.796875 -19.859375 C 3.921875 -19.546875 4.03125 -19.226562 4.125 -18.90625 C 4.226562 -18.582031 4.34375 -18.257812 4.46875 -17.9375 Z M 4.46875 -17.9375 "/></g></g></g><g fill="#00b2b2" fill-opacity="1"><g transform="translate(144.677101, 58.201934)"><g><path d="M 6.578125 -2.125 C 5.742188 -1.957031 4.984375 -1.832031 4.296875 -1.75 C 3.617188 -1.675781 3.039062 -1.804688 2.5625 -2.140625 C 2.09375 -2.484375 1.753906 -3.175781 1.546875 -4.21875 C 1.410156 -4.875 1.351562 -5.882812 1.375 -7.25 C 1.394531 -8.613281 1.476562 -10.179688 1.625 -11.953125 C 1.78125 -13.722656 1.988281 -15.554688 2.25 -17.453125 C 2.519531 -19.359375 2.820312 -21.160156 3.15625 -22.859375 C 3.488281 -24.554688 3.851562 -26.023438 4.25 -27.265625 C 4.644531 -28.503906 5.054688 -29.34375 5.484375 -29.78125 C 5.859375 -30.1875 6.257812 -30.457031 6.6875 -30.59375 C 7.113281 -30.738281 7.585938 -30.863281 8.109375 -30.96875 C 8.941406 -31.144531 9.640625 -31.195312 10.203125 -31.125 C 10.773438 -31.0625 11.40625 -30.75 12.09375 -30.1875 C 12.582031 -29.78125 13.21875 -29.0625 14 -28.03125 C 14.78125 -27 15.625 -25.773438 16.53125 -24.359375 C 17.4375 -22.941406 18.34375 -21.457031 19.25 -19.90625 C 20.15625 -18.351562 21 -16.832031 21.78125 -15.34375 C 22.5625 -13.863281 23.210938 -12.53125 23.734375 -11.34375 C 24.265625 -10.164062 24.597656 -9.253906 24.734375 -8.609375 C 24.867188 -7.929688 24.796875 -7.367188 24.515625 -6.921875 C 24.242188 -6.484375 23.84375 -6.128906 23.3125 -5.859375 C 22.78125 -5.597656 22.21875 -5.382812 21.625 -5.21875 C 21.039062 -5.050781 20.515625 -4.921875 20.046875 -4.828125 C 19.265625 -4.671875 18.710938 -4.6875 18.390625 -4.875 C 18.066406 -5.070312 17.84375 -5.351562 17.71875 -5.71875 C 17.601562 -6.09375 17.492188 -6.5 17.390625 -6.9375 C 17.285156 -7.382812 17.078125 -7.769531 16.765625 -8.09375 C 16.453125 -8.425781 15.9375 -8.644531 15.21875 -8.75 C 14.507812 -8.863281 13.472656 -8.78125 12.109375 -8.5 C 10.992188 -8.269531 10.207031 -7.976562 9.75 -7.625 C 9.289062 -7.28125 9.015625 -6.898438 8.921875 -6.484375 C 8.828125 -6.078125 8.816406 -5.65625 8.890625 -5.21875 C 8.972656 -4.789062 9.007812 -4.375 9 -3.96875 C 8.988281 -3.570312 8.804688 -3.210938 8.453125 -2.890625 C 8.109375 -2.566406 7.484375 -2.3125 6.578125 -2.125 Z M 11.203125 -14.1875 L 12.03125 -14.359375 C 12.414062 -14.429688 12.71875 -14.609375 12.9375 -14.890625 C 13.15625 -15.171875 13.222656 -15.519531 13.140625 -15.9375 C 13.097656 -16.125 12.984375 -16.460938 12.796875 -16.953125 C 12.609375 -17.441406 12.382812 -17.992188 12.125 -18.609375 C 11.875 -19.222656 11.609375 -19.816406 11.328125 -20.390625 C 11.046875 -20.972656 10.765625 -21.445312 10.484375 -21.8125 C 10.203125 -22.175781 9.972656 -22.335938 9.796875 -22.296875 C 9.628906 -22.265625 9.5 -22.03125 9.40625 -21.59375 C 9.3125 -21.15625 9.238281 -20.609375 9.1875 -19.953125 C 9.132812 -19.304688 9.101562 -18.644531 9.09375 -17.96875 C 9.09375 -17.289062 9.101562 -16.6875 9.125 -16.15625 C 9.15625 -15.632812 9.1875 -15.28125 9.21875 -15.09375 C 9.320312 -14.570312 9.566406 -14.265625 9.953125 -14.171875 C 10.347656 -14.085938 10.765625 -14.09375 11.203125 -14.1875 Z M 11.203125 -14.1875 "/></g></g></g><g fill="#00b2b2" fill-opacity="1"><g transform="translate(171.998813, 52.685864)"><g><path d="M 2.609375 -12.5625 L 2.59375 -16.875 C 2.59375 -17.375 2.601562 -18.035156 2.625 -18.859375 C 2.644531 -19.691406 2.691406 -20.585938 2.765625 -21.546875 C 2.847656 -22.503906 2.976562 -23.4375 3.15625 -24.34375 C 3.332031 -25.25 3.582031 -26.039062 3.90625 -26.71875 C 4.238281 -27.394531 4.660156 -27.867188 5.171875 -28.140625 C 5.734375 -28.410156 6.5 -28.613281 7.46875 -28.75 C 8.4375 -28.894531 9.425781 -28.988281 10.4375 -29.03125 C 11.445312 -29.070312 12.273438 -29.09375 12.921875 -29.09375 C 14.441406 -29.101562 15.9375 -28.894531 17.40625 -28.46875 C 18.882812 -28.050781 20.222656 -27.421875 21.421875 -26.578125 C 22.628906 -25.734375 23.59375 -24.671875 24.3125 -23.390625 C 25.039062 -22.117188 25.410156 -20.632812 25.421875 -18.9375 C 25.429688 -17.070312 25.101562 -15.550781 24.4375 -14.375 C 23.78125 -13.195312 22.929688 -12.265625 21.890625 -11.578125 C 20.847656 -10.898438 19.726562 -10.410156 18.53125 -10.109375 C 17.332031 -9.804688 16.175781 -9.609375 15.0625 -9.515625 C 13.957031 -9.421875 13.03125 -9.351562 12.28125 -9.3125 C 11.539062 -9.28125 11.101562 -9.203125 10.96875 -9.078125 C 10.863281 -8.941406 10.78125 -8.691406 10.71875 -8.328125 C 10.65625 -7.972656 10.617188 -7.601562 10.609375 -7.21875 C 10.597656 -6.832031 10.59375 -6.546875 10.59375 -6.359375 C 10.59375 -5.847656 10.613281 -5.347656 10.65625 -4.859375 C 10.707031 -4.367188 10.734375 -3.867188 10.734375 -3.359375 C 10.734375 -2.503906 10.582031 -1.847656 10.28125 -1.390625 C 9.976562 -0.941406 9.359375 -0.71875 8.421875 -0.71875 C 7.921875 -0.707031 7.394531 -0.726562 6.84375 -0.78125 C 6.300781 -0.84375 5.789062 -0.96875 5.3125 -1.15625 C 4.800781 -1.351562 4.382812 -1.789062 4.0625 -2.46875 C 3.738281 -3.144531 3.472656 -3.957031 3.265625 -4.90625 C 3.066406 -5.851562 2.921875 -6.828125 2.828125 -7.828125 C 2.742188 -8.828125 2.6875 -9.75 2.65625 -10.59375 C 2.625 -11.445312 2.609375 -12.101562 2.609375 -12.5625 Z M 10.515625 -21.578125 L 10.546875 -16.9375 C 10.546875 -15.90625 10.738281 -15.269531 11.125 -15.03125 C 11.507812 -14.789062 12.179688 -14.671875 13.140625 -14.671875 C 14.554688 -14.679688 15.707031 -15.140625 16.59375 -16.046875 C 17.488281 -16.960938 17.929688 -18.113281 17.921875 -19.5 C 17.921875 -20.382812 17.65625 -21.101562 17.125 -21.65625 C 16.601562 -22.207031 15.960938 -22.617188 15.203125 -22.890625 C 14.441406 -23.171875 13.675781 -23.3125 12.90625 -23.3125 L 11.90625 -23.3125 C 11.351562 -23.300781 10.988281 -23.117188 10.8125 -22.765625 C 10.632812 -22.421875 10.535156 -22.023438 10.515625 -21.578125 Z M 10.515625 -21.578125 "/></g></g></g><g fill="#00b2b2" fill-opacity="1"><g transform="translate(197.921724, 52.474733)"><g><path d="M 11.265625 -1.90625 C 11.148438 -1.300781 11.003906 -0.757812 10.828125 -0.28125 C 10.660156 0.195312 10.382812 0.550781 10 0.78125 C 9.613281 1.007812 9.050781 1.050781 8.3125 0.90625 C 7.820312 0.8125 7.316406 0.6875 6.796875 0.53125 C 6.285156 0.375 5.816406 0.15625 5.390625 -0.125 C 4.890625 -0.457031 4.546875 -1.078125 4.359375 -1.984375 C 4.179688 -2.898438 4.125 -3.96875 4.1875 -5.1875 C 4.25 -6.40625 4.363281 -7.644531 4.53125 -8.90625 C 4.695312 -10.164062 4.878906 -11.3125 5.078125 -12.34375 C 5.273438 -13.375 5.425781 -14.148438 5.53125 -14.671875 C 5.789062 -16.035156 6.09375 -17.390625 6.4375 -18.734375 C 6.78125 -20.078125 7.175781 -21.394531 7.625 -22.6875 C 7.84375 -23.21875 8.140625 -23.851562 8.515625 -24.59375 C 8.898438 -25.332031 9.34375 -25.847656 9.84375 -26.140625 C 10.363281 -26.421875 11.039062 -26.585938 11.875 -26.640625 C 12.71875 -26.691406 13.609375 -26.675781 14.546875 -26.59375 C 15.492188 -26.507812 16.398438 -26.394531 17.265625 -26.25 C 18.140625 -26.113281 18.863281 -25.992188 19.4375 -25.890625 C 20.757812 -25.628906 22.03125 -25.175781 23.25 -24.53125 C 24.46875 -23.894531 25.539062 -23.085938 26.46875 -22.109375 C 27.394531 -21.128906 28.070312 -20.015625 28.5 -18.765625 C 28.925781 -17.523438 29 -16.171875 28.71875 -14.703125 C 28.625 -14.210938 28.476562 -13.726562 28.28125 -13.25 C 28.082031 -12.78125 27.796875 -12.347656 27.421875 -11.953125 C 26.878906 -11.359375 26.269531 -10.832031 25.59375 -10.375 C 24.914062 -9.914062 24.195312 -9.53125 23.4375 -9.21875 C 23.363281 -9.207031 23.207031 -9.140625 22.96875 -9.015625 C 22.726562 -8.898438 22.597656 -8.789062 22.578125 -8.6875 C 22.554688 -8.613281 22.613281 -8.445312 22.75 -8.1875 C 22.894531 -7.925781 23.054688 -7.671875 23.234375 -7.421875 C 23.421875 -7.171875 23.546875 -7 23.609375 -6.90625 C 23.828125 -6.539062 24.035156 -5.925781 24.234375 -5.0625 C 24.441406 -4.207031 24.617188 -3.28125 24.765625 -2.28125 C 24.921875 -1.28125 25.019531 -0.347656 25.0625 0.515625 C 25.113281 1.390625 25.097656 2.054688 25.015625 2.515625 C 24.953125 2.847656 24.691406 3.078125 24.234375 3.203125 C 23.773438 3.335938 23.238281 3.398438 22.625 3.390625 C 22.019531 3.378906 21.4375 3.34375 20.875 3.28125 C 20.320312 3.21875 19.925781 3.164062 19.6875 3.125 C 18.863281 2.96875 18.269531 2.613281 17.90625 2.0625 C 17.539062 1.519531 17.316406 0.867188 17.234375 0.109375 C 17.148438 -0.648438 17.097656 -1.457031 17.078125 -2.3125 C 17.054688 -3.175781 16.957031 -4 16.78125 -4.78125 C 16.601562 -5.5625 16.253906 -6.234375 15.734375 -6.796875 C 15.222656 -7.367188 14.414062 -7.765625 13.3125 -7.984375 C 13 -8.035156 12.726562 -7.847656 12.5 -7.421875 C 12.269531 -7.003906 12.085938 -6.53125 11.953125 -6 C 11.828125 -5.46875 11.742188 -5.082031 11.703125 -4.84375 C 11.609375 -4.375 11.535156 -3.890625 11.484375 -3.390625 C 11.429688 -2.898438 11.359375 -2.40625 11.265625 -1.90625 Z M 14.4375 -18.875 L 13.78125 -15.5 C 13.71875 -15.125 13.691406 -14.703125 13.703125 -14.234375 C 13.722656 -13.773438 13.984375 -13.5 14.484375 -13.40625 C 15.441406 -13.21875 16.351562 -13.125 17.21875 -13.125 C 18.09375 -13.125 18.847656 -13.335938 19.484375 -13.765625 C 20.128906 -14.203125 20.5625 -15.007812 20.78125 -16.1875 C 20.914062 -16.894531 20.835938 -17.53125 20.546875 -18.09375 C 20.253906 -18.664062 19.828125 -19.148438 19.265625 -19.546875 C 18.703125 -19.941406 18.109375 -20.195312 17.484375 -20.3125 L 16.34375 -20.53125 C 15.738281 -20.644531 15.289062 -20.523438 15 -20.171875 C 14.71875 -19.828125 14.53125 -19.394531 14.4375 -18.875 Z M 14.4375 -18.875 "/></g></g></g><g fill="#00b2b2" fill-opacity="1"><g transform="translate(224.494171, 57.484411)"><g><path d="M 6.65625 1.90625 C 5.863281 1.582031 5.160156 1.257812 4.546875 0.9375 C 3.941406 0.625 3.535156 0.195312 3.328125 -0.34375 C 3.128906 -0.894531 3.234375 -1.664062 3.640625 -2.65625 C 3.890625 -3.269531 4.398438 -4.132812 5.171875 -5.25 C 5.953125 -6.375 6.898438 -7.625 8.015625 -9 C 9.128906 -10.382812 10.328125 -11.796875 11.609375 -13.234375 C 12.890625 -14.671875 14.140625 -16 15.359375 -17.21875 C 16.585938 -18.4375 17.707031 -19.453125 18.71875 -20.265625 C 19.738281 -21.078125 20.554688 -21.539062 21.171875 -21.65625 C 21.703125 -21.789062 22.179688 -21.796875 22.609375 -21.671875 C 23.046875 -21.546875 23.507812 -21.382812 24 -21.1875 C 24.789062 -20.863281 25.398438 -20.519531 25.828125 -20.15625 C 26.265625 -19.789062 26.613281 -19.179688 26.875 -18.328125 C 27.039062 -17.703125 27.164062 -16.742188 27.25 -15.453125 C 27.332031 -14.171875 27.347656 -12.691406 27.296875 -11.015625 C 27.253906 -9.347656 27.175781 -7.609375 27.0625 -5.796875 C 26.957031 -3.992188 26.816406 -2.257812 26.640625 -0.59375 C 26.460938 1.070312 26.257812 2.539062 26.03125 3.8125 C 25.8125 5.082031 25.570312 6.03125 25.3125 6.65625 C 25.050781 7.289062 24.6875 7.710938 24.21875 7.921875 C 23.75 8.128906 23.21875 8.195312 22.625 8.125 C 22.039062 8.050781 21.457031 7.914062 20.875 7.71875 C 20.289062 7.53125 19.773438 7.34375 19.328125 7.15625 C 18.585938 6.851562 18.140625 6.53125 17.984375 6.1875 C 17.828125 5.851562 17.800781 5.5 17.90625 5.125 C 18.007812 4.757812 18.140625 4.363281 18.296875 3.9375 C 18.460938 3.507812 18.503906 3.070312 18.421875 2.625 C 18.347656 2.175781 18.046875 1.707031 17.515625 1.21875 C 16.992188 0.726562 16.09375 0.21875 14.8125 -0.3125 C 13.75 -0.75 12.925781 -0.945312 12.34375 -0.90625 C 11.769531 -0.875 11.328125 -0.710938 11.015625 -0.421875 C 10.710938 -0.128906 10.472656 0.21875 10.296875 0.625 C 10.117188 1.03125 9.914062 1.390625 9.6875 1.703125 C 9.457031 2.023438 9.109375 2.226562 8.640625 2.3125 C 8.171875 2.394531 7.507812 2.257812 6.65625 1.90625 Z M 17.21875 -5.53125 L 18 -5.203125 C 18.363281 -5.054688 18.710938 -5.035156 19.046875 -5.140625 C 19.378906 -5.253906 19.628906 -5.507812 19.796875 -5.90625 C 19.867188 -6.070312 19.960938 -6.410156 20.078125 -6.921875 C 20.191406 -7.429688 20.3125 -8.015625 20.4375 -8.671875 C 20.570312 -9.328125 20.679688 -9.972656 20.765625 -10.609375 C 20.859375 -11.253906 20.890625 -11.800781 20.859375 -12.25 C 20.835938 -12.707031 20.738281 -12.972656 20.5625 -13.046875 C 20.414062 -13.109375 20.175781 -12.984375 19.84375 -12.671875 C 19.519531 -12.359375 19.15625 -11.945312 18.75 -11.4375 C 18.351562 -10.925781 17.960938 -10.390625 17.578125 -9.828125 C 17.191406 -9.273438 16.863281 -8.773438 16.59375 -8.328125 C 16.320312 -7.878906 16.148438 -7.566406 16.078125 -7.390625 C 15.867188 -6.898438 15.898438 -6.507812 16.171875 -6.21875 C 16.453125 -5.925781 16.800781 -5.695312 17.21875 -5.53125 Z M 17.21875 -5.53125 "/></g></g></g><g fill="#00b2b2" fill-opacity="1"><g transform="translate(250.272091, 68.235596)"><g><path d="M 23.46875 -12.15625 C 22.863281 -12.550781 22.222656 -12.785156 21.546875 -12.859375 C 20.867188 -12.941406 20.296875 -12.628906 19.828125 -11.921875 C 19.460938 -11.359375 19.410156 -10.722656 19.671875 -10.015625 C 19.941406 -9.316406 20.390625 -8.554688 21.015625 -7.734375 C 21.648438 -6.921875 22.316406 -6.039062 23.015625 -5.09375 C 23.722656 -4.15625 24.3125 -3.160156 24.78125 -2.109375 C 25.25 -1.066406 25.476562 0.0195312 25.46875 1.15625 C 25.457031 2.300781 25.050781 3.484375 24.25 4.703125 C 23.207031 6.285156 21.878906 7.390625 20.265625 8.015625 C 18.648438 8.640625 16.972656 8.832031 15.234375 8.59375 C 13.503906 8.351562 11.882812 7.738281 10.375 6.75 C 9.269531 6.019531 8.265625 5.273438 7.359375 4.515625 C 6.460938 3.753906 5.769531 2.925781 5.28125 2.03125 C 4.800781 1.132812 4.609375 0.15625 4.703125 -0.90625 C 4.796875 -1.96875 5.28125 -3.171875 6.15625 -4.515625 C 6.257812 -4.660156 6.375 -4.78125 6.5 -4.875 C 6.625 -4.976562 6.78125 -4.96875 6.96875 -4.84375 C 7.476562 -4.507812 7.929688 -4.085938 8.328125 -3.578125 C 8.722656 -3.078125 9.117188 -2.585938 9.515625 -2.109375 C 9.992188 -1.535156 10.492188 -0.96875 11.015625 -0.40625 C 11.546875 0.15625 12.117188 0.640625 12.734375 1.046875 C 13.160156 1.328125 13.617188 1.546875 14.109375 1.703125 C 14.609375 1.867188 15.09375 1.90625 15.5625 1.8125 C 16.039062 1.71875 16.441406 1.429688 16.765625 0.953125 C 17.234375 0.234375 17.332031 -0.46875 17.0625 -1.15625 C 16.84375 -1.75 16.53125 -2.269531 16.125 -2.71875 C 15.71875 -3.164062 15.3125 -3.613281 14.90625 -4.0625 C 14.238281 -4.851562 13.632812 -5.734375 13.09375 -6.703125 C 12.5625 -7.671875 12.148438 -8.691406 11.859375 -9.765625 C 11.578125 -10.835938 11.484375 -11.90625 11.578125 -12.96875 C 11.671875 -14.03125 12.023438 -15.03125 12.640625 -15.96875 C 13.441406 -17.195312 14.398438 -18.09375 15.515625 -18.65625 C 16.640625 -19.226562 17.84375 -19.53125 19.125 -19.5625 C 20.40625 -19.59375 21.675781 -19.410156 22.9375 -19.015625 C 24.207031 -18.617188 25.390625 -18.054688 26.484375 -17.328125 C 27.503906 -16.660156 28.453125 -15.988281 29.328125 -15.3125 C 30.210938 -14.644531 30.914062 -13.914062 31.4375 -13.125 C 31.957031 -12.332031 32.191406 -11.4375 32.140625 -10.4375 C 32.085938 -9.4375 31.640625 -8.296875 30.796875 -7.015625 C 30.429688 -6.453125 29.957031 -6.363281 29.375 -6.75 C 28.882812 -7.0625 28.425781 -7.441406 28 -7.890625 C 27.582031 -8.347656 27.175781 -8.785156 26.78125 -9.203125 C 26.269531 -9.734375 25.742188 -10.253906 25.203125 -10.765625 C 24.671875 -11.285156 24.09375 -11.75 23.46875 -12.15625 Z M 23.46875 -12.15625 "/></g></g></g><g fill="#00b2b2" fill-opacity="1"><g transform="translate(270.784896, 81.946694)"><g/></g></g></svg>