<svg xmlns="http://www.w3.org/2000/svg" xmlns:xlink="http://www.w3.org/1999/xlink" width="1200" zoomAndPan="magnify" viewBox="0 0 900 209.999996" height="280" preserveAspectRatio="xMidYMid meet" version="1.0"><defs><clipPath id="7c279f6213"><path d="M 273.082031 55.484375 L 336.082031 55.484375 L 336.082031 118.484375 L 273.082031 118.484375 Z M 273.082031 55.484375 " clip-rule="nonzero"/></clipPath><clipPath id="6fea06774b"><path d="M 304.582031 55.484375 C 287.1875 55.484375 273.082031 69.585938 273.082031 86.984375 C 273.082031 104.378906 287.1875 118.484375 304.582031 118.484375 C 321.980469 118.484375 336.082031 104.378906 336.082031 86.984375 C 336.082031 69.585938 321.980469 55.484375 304.582031 55.484375 Z M 304.582031 55.484375 " clip-rule="nonzero"/></clipPath></defs><g clip-path="url(#7c279f6213)"><g clip-path="url(#6fea06774b)"><path fill="#037f8c" d="M 273.082031 55.484375 L 336.082031 55.484375 L 336.082031 118.484375 L 273.082031 118.484375 Z M 273.082031 55.484375 " fill-opacity="1" fill-rule="nonzero"/></g></g><path fill="#94ffff" d="M 99.441406 170.851562 C 135.34375 173.550781 161.789062 152.144531 189.089844 131.34375 C 222.613281 105.792969 260.714844 89.925781 302.933594 103.496094 C 340.539062 115.578125 369.152344 146.058594 404.195312 164.289062 C 439.386719 182.597656 481.148438 187.925781 519.808594 179.03125 C 541.515625 174.039062 561.96875 164.820312 582.78125 156.890625 C 683.414062 118.554688 795.324219 98.84375 900.449219 122.171875 L 900.449219 -22.519531 L -2.957031 -22.519531 L -2.957031 142.710938 C 44.0625 149.300781 63.921875 168.183594 99.441406 170.851562 " fill-opacity="1" fill-rule="nonzero"/><path fill="#48ecec" d="M -2.957031 77.507812 C 43.523438 76.914062 96.066406 80.5625 141.1875 88.410156 C 162.46875 92.113281 183.785156 96.8125 203.386719 105.878906 C 228.695312 117.585938 250.785156 136.402344 277.613281 144.007812 C 300.046875 150.371094 324.804688 148.144531 345.742188 137.882812 C 365.652344 128.125 381.632812 111.742188 401.1875 101.300781 C 430.925781 85.429688 466.105469 84.59375 499.804688 84.117188 C 546.117188 83.46875 595.246094 83.550781 634.761719 107.710938 C 673.542969 131.425781 700.75 176.988281 745.644531 184.164062 C 774.246094 188.738281 802.464844 176.023438 828.644531 163.636719 C 852.582031 152.304688 876.515625 140.976562 900.449219 129.648438 L 900.449219 -22.519531 L 903.039062 -22.519531 L -2.957031 -22.519531 L -2.957031 77.507812 " fill-opacity="1" fill-rule="nonzero"/><path fill="#1bd5d5" d="M 0.421875 92.644531 C 21.398438 103.449219 43.484375 114.625 67.21875 117.601562 C 92.34375 120.75 114.339844 109.460938 135.84375 97.773438 C 181.132812 73.152344 271.4375 25.453125 321.210938 61.007812 C 333.289062 69.636719 340.710938 83.269531 351.347656 93.621094 C 428.34375 168.511719 523.046875 102.851562 600.601562 69.980469 C 630.933594 57.128906 665.128906 47.898438 698.179688 52.992188 C 758.472656 62.289062 812.730469 112.222656 900.449219 109.871094 L 900.449219 -22.519531 L -2.957031 -22.519531 L -2.957031 90.726562 C -1.835938 91.429688 -0.691406 92.070312 0.421875 92.644531 " fill-opacity="1" fill-rule="nonzero"/><path fill="#00b2b2" d="M -2.886719 2.804688 C 44.339844 -2.890625 88.226562 28.957031 135.65625 32.558594 C 167.234375 34.957031 198.59375 24.675781 230.257812 25.554688 C 294.1875 27.332031 353.238281 74.109375 416.472656 64.511719 C 446.394531 59.964844 473.054688 43.101562 502.421875 35.785156 C 574.757812 17.761719 648.484375 59.503906 723.03125 59.757812 C 779.074219 59.949219 845.75 38.382812 900.449219 51.660156 L 900.449219 -22.519531 L -2.957031 -22.519531 L -2.886719 2.804688 " fill-opacity="1" fill-rule="nonzero"/></svg>