<svg xmlns="http://www.w3.org/2000/svg" xmlns:xlink="http://www.w3.org/1999/xlink" width="1200" zoomAndPan="magnify" viewBox="0 0 900 299.999988" height="400" preserveAspectRatio="xMidYMid meet" version="1.0"><path fill="#94ffff" d="M 801.984375 105.5625 C 765.933594 102.855469 739.382812 124.347656 711.972656 145.234375 C 678.308594 170.886719 640.054688 186.820312 597.660156 173.195312 C 559.898438 161.0625 531.167969 130.460938 495.984375 112.152344 C 460.648438 93.769531 418.71875 88.421875 379.902344 97.347656 C 358.105469 102.363281 337.566406 111.621094 316.667969 119.582031 C 215.625 158.074219 103.257812 177.867188 -2.296875 154.445312 L -2.296875 299.726562 L 904.800781 299.726562 L 904.800781 133.820312 C 857.589844 127.203125 837.648438 108.242188 801.984375 105.5625 " fill-opacity="1" fill-rule="nonzero"/><path fill="#48ecec" d="M 904.800781 199.289062 C 858.128906 199.886719 805.371094 196.222656 760.066406 188.34375 C 738.699219 184.625 717.292969 179.90625 697.613281 170.800781 C 672.203125 159.046875 650.019531 140.152344 623.085938 132.515625 C 600.558594 126.128906 575.699219 128.363281 554.675781 138.667969 C 534.683594 148.464844 518.636719 164.914062 499.003906 175.398438 C 469.144531 191.335938 433.820312 192.175781 399.984375 192.652344 C 353.484375 193.304688 304.152344 193.222656 264.476562 168.960938 C 225.535156 145.152344 198.214844 99.402344 153.136719 92.195312 C 124.421875 87.605469 96.085938 100.371094 69.800781 112.808594 C 45.765625 124.183594 21.734375 135.558594 -2.296875 146.933594 L -2.296875 299.726562 L -4.898438 299.726562 L 904.800781 299.726562 L 904.800781 199.289062 " fill-opacity="1" fill-rule="nonzero"/><path fill="#1bd5d5" d="M 901.410156 184.09375 C 880.347656 173.242188 858.167969 162.019531 834.339844 159.035156 C 809.109375 155.871094 787.023438 167.207031 765.433594 178.941406 C 719.957031 203.660156 629.285156 251.558594 579.308594 215.855469 C 567.183594 207.195312 559.730469 193.503906 549.046875 183.109375 C 471.738281 107.910156 376.648438 173.84375 298.773438 206.847656 C 268.320312 219.753906 233.984375 229.023438 200.796875 223.902344 C 140.257812 214.570312 85.777344 164.433594 -2.296875 166.792969 L -2.296875 299.726562 L 904.800781 299.726562 L 904.800781 186.015625 C 903.675781 185.308594 902.527344 184.667969 901.410156 184.09375 " fill-opacity="1" fill-rule="nonzero"/><path fill="#00b2b2" d="M 904.730469 274.296875 C 857.308594 280.015625 813.246094 248.039062 765.621094 244.421875 C 733.914062 242.015625 702.425781 252.339844 670.636719 251.457031 C 606.441406 249.671875 547.148438 202.699219 483.660156 212.339844 C 453.613281 216.90625 426.84375 233.835938 397.355469 241.183594 C 324.726562 259.28125 250.695312 217.367188 175.847656 217.109375 C 119.574219 216.917969 52.625 238.574219 -2.296875 225.246094 L -2.296875 299.726562 L 904.800781 299.726562 L 904.730469 274.296875 " fill-opacity="1" fill-rule="nonzero"/></svg>