<svg xmlns="http://www.w3.org/2000/svg" xmlns:xlink="http://www.w3.org/1999/xlink" width="1200" zoomAndPan="magnify" viewBox="0 0 900 209.999996" height="280" preserveAspectRatio="xMidYMid meet" version="1.0"><defs><clipPath id="deed111c01"><path d="M 281.347656 95.394531 L 344.347656 95.394531 L 344.347656 158.394531 L 281.347656 158.394531 Z M 281.347656 95.394531 " clip-rule="nonzero"/></clipPath><clipPath id="dd3e97145f"><path d="M 312.847656 95.394531 C 295.453125 95.394531 281.347656 109.496094 281.347656 126.894531 C 281.347656 144.289062 295.453125 158.394531 312.847656 158.394531 C 330.246094 158.394531 344.347656 144.289062 344.347656 126.894531 C 344.347656 109.496094 330.246094 95.394531 312.847656 95.394531 Z M 312.847656 95.394531 " clip-rule="nonzero"/></clipPath></defs><rect x="-90" width="1080" fill="#ffffff" y="-21" height="251.999995" fill-opacity="1"/><rect x="-90" width="1080" fill="#ffffff" y="-21" height="251.999995" fill-opacity="1"/><g clip-path="url(#deed111c01)"><g clip-path="url(#dd3e97145f)"><path fill="#037f8c" d="M 281.347656 95.394531 L 344.347656 95.394531 L 344.347656 158.394531 L 281.347656 158.394531 Z M 281.347656 95.394531 " fill-opacity="1" fill-rule="nonzero"/></g></g><path fill="#94ffff" d="M 99.441406 39.144531 C 135.34375 36.445312 161.789062 57.851562 189.089844 78.648438 C 222.613281 104.199219 260.714844 120.070312 302.933594 106.5 C 340.539062 94.414062 369.152344 63.9375 404.195312 45.707031 C 439.386719 27.398438 481.148438 22.070312 519.808594 30.960938 C 541.515625 35.957031 561.96875 45.175781 582.78125 53.101562 C 683.414062 91.441406 795.324219 111.152344 900.449219 87.824219 L 900.449219 232.515625 L -2.957031 232.515625 L -2.957031 67.28125 C 44.0625 60.695312 63.921875 41.808594 99.441406 39.144531 " fill-opacity="1" fill-rule="nonzero"/><path fill="#48ecec" d="M -2.957031 132.484375 C 43.523438 133.082031 96.066406 129.433594 141.1875 121.585938 C 162.46875 117.882812 183.785156 113.183594 203.386719 104.117188 C 228.695312 92.410156 250.785156 73.589844 277.613281 65.984375 C 300.046875 59.625 324.804688 61.851562 345.742188 72.113281 C 365.652344 81.867188 381.632812 98.253906 401.1875 108.695312 C 430.925781 124.566406 466.105469 125.402344 499.804688 125.875 C 546.117188 126.527344 595.246094 126.445312 634.761719 102.28125 C 673.542969 78.570312 700.75 33.007812 745.644531 25.828125 C 774.246094 21.257812 802.464844 33.972656 828.644531 46.359375 C 852.582031 57.6875 876.515625 69.015625 900.449219 80.347656 L 900.449219 232.515625 L 903.039062 232.515625 L -2.957031 232.515625 L -2.957031 132.484375 " fill-opacity="1" fill-rule="nonzero"/><path fill="#1bd5d5" d="M 0.421875 117.351562 C 21.398438 106.546875 43.484375 95.371094 67.21875 92.394531 C 92.34375 89.246094 114.339844 100.535156 135.84375 112.222656 C 181.132812 136.839844 271.4375 184.542969 321.210938 148.984375 C 333.289062 140.359375 340.710938 126.722656 351.347656 116.375 C 428.34375 41.480469 523.046875 107.144531 600.601562 140.011719 C 630.933594 152.867188 665.128906 162.097656 698.179688 157 C 758.472656 147.707031 812.730469 97.773438 900.449219 100.125 L 900.449219 232.515625 L -2.957031 232.515625 L -2.957031 119.265625 C -1.835938 118.5625 -0.691406 117.925781 0.421875 117.351562 " fill-opacity="1" fill-rule="nonzero"/><path fill="#00b2b2" d="M -2.886719 207.191406 C 44.339844 212.886719 88.226562 181.039062 135.65625 177.4375 C 167.234375 175.039062 198.59375 185.320312 230.257812 184.441406 C 294.1875 182.664062 353.238281 135.882812 416.472656 145.484375 C 446.394531 150.03125 473.054688 166.890625 502.421875 174.210938 C 574.757812 192.234375 648.484375 150.492188 723.03125 150.234375 C 779.074219 150.046875 845.75 171.609375 900.449219 158.335938 L 900.449219 232.515625 L -2.957031 232.515625 L -2.886719 207.191406 " fill-opacity="1" fill-rule="nonzero"/></svg>