<svg xmlns="http://www.w3.org/2000/svg" xmlns:xlink="http://www.w3.org/1999/xlink" width="1200" zoomAndPan="magnify" viewBox="0 0 900 209.999996" height="280" preserveAspectRatio="xMidYMid meet" version="1.0"><defs><clipPath id="1153e0fe8f"><path d="M 273.082031 55.484375 L 336.082031 55.484375 L 336.082031 118.484375 L 273.082031 118.484375 Z M 273.082031 55.484375 " clip-rule="nonzero"/></clipPath><clipPath id="8f0ec794d6"><path d="M 304.582031 55.484375 C 287.1875 55.484375 273.082031 69.585938 273.082031 86.984375 C 273.082031 104.378906 287.1875 118.484375 304.582031 118.484375 C 321.980469 118.484375 336.082031 104.378906 336.082031 86.984375 C 336.082031 69.585938 321.980469 55.484375 304.582031 55.484375 Z M 304.582031 55.484375 " clip-rule="nonzero"/></clipPath><clipPath id="a86592a43a"><path d="M 0.0351562 0.28125 L 900 0.28125 L 900 207 L 0.0351562 207 Z M 0.0351562 0.28125 " clip-rule="nonzero"/></clipPath><clipPath id="7c17719dbd"><path d="M 0.0351562 0.28125 L 900 0.28125 L 900 208 L 0.0351562 208 Z M 0.0351562 0.28125 " clip-rule="nonzero"/></clipPath><clipPath id="80872637ca"><path d="M 0.0351562 0.28125 L 900 0.28125 L 900 151 L 0.0351562 151 Z M 0.0351562 0.28125 " clip-rule="nonzero"/></clipPath><clipPath id="0c27271e7a"><path d="M 0.0351562 0.28125 L 900 0.28125 L 900 89 L 0.0351562 89 Z M 0.0351562 0.28125 " clip-rule="nonzero"/></clipPath></defs><g clip-path="url(#1153e0fe8f)"><g clip-path="url(#8f0ec794d6)"><path fill="#037f8c" d="M 273.082031 55.484375 L 336.082031 55.484375 L 336.082031 118.484375 L 273.082031 118.484375 Z M 273.082031 55.484375 " fill-opacity="1" fill-rule="nonzero"/></g></g><g clip-path="url(#a86592a43a)"><path fill="#94ffff" d="M 102.460938 193.636719 C 138.363281 196.335938 164.808594 174.929688 192.105469 154.132812 C 225.632812 128.582031 263.730469 112.710938 305.953125 126.28125 C 343.558594 138.367188 372.171875 168.84375 407.214844 187.074219 C 442.40625 205.382812 484.167969 210.710938 522.824219 201.820312 C 544.53125 196.824219 564.984375 187.605469 585.800781 179.679688 C 686.433594 141.339844 798.34375 121.628906 903.46875 144.957031 L 903.46875 0.265625 L 0.0625 0.265625 L 0.0625 165.5 C 47.082031 172.085938 66.941406 190.972656 102.460938 193.636719 " fill-opacity="1" fill-rule="nonzero"/></g><g clip-path="url(#7c17719dbd)"><path fill="#48ecec" d="M 0.0625 100.296875 C 46.542969 99.699219 99.085938 103.347656 144.207031 111.195312 C 165.488281 114.898438 186.804688 119.597656 206.40625 128.664062 C 231.714844 140.371094 253.804688 159.191406 280.632812 166.796875 C 303.066406 173.15625 327.824219 170.929688 348.761719 160.667969 C 368.671875 150.914062 384.652344 134.527344 404.207031 124.085938 C 433.945312 108.214844 469.125 107.378906 502.824219 106.90625 C 549.136719 106.253906 598.265625 106.335938 637.78125 130.5 C 676.5625 154.210938 703.769531 199.773438 748.664062 206.953125 C 777.265625 211.523438 805.484375 198.808594 831.664062 186.421875 C 855.601562 175.09375 879.53125 163.765625 903.46875 152.433594 L 903.46875 0.265625 L 906.058594 0.265625 L 0.0625 0.265625 L 0.0625 100.296875 " fill-opacity="1" fill-rule="nonzero"/></g><g clip-path="url(#80872637ca)"><path fill="#1bd5d5" d="M 3.441406 115.429688 C 24.417969 126.234375 46.503906 137.410156 70.238281 140.386719 C 95.363281 143.535156 117.359375 132.246094 138.863281 120.558594 C 184.152344 95.941406 274.457031 48.238281 324.230469 83.796875 C 336.308594 92.421875 343.730469 106.058594 354.367188 116.40625 C 431.363281 191.300781 526.066406 125.636719 603.621094 92.769531 C 633.949219 79.914062 668.148438 70.683594 701.199219 75.78125 C 761.492188 85.074219 815.75 135.007812 903.46875 132.65625 L 903.46875 0.265625 L 0.0625 0.265625 L 0.0625 113.515625 C 1.183594 114.21875 2.328125 114.855469 3.441406 115.429688 " fill-opacity="1" fill-rule="nonzero"/></g><g clip-path="url(#0c27271e7a)"><path fill="#00b2b2" d="M 0.132812 25.589844 C 47.359375 19.894531 91.246094 51.742188 138.675781 55.34375 C 170.253906 57.742188 201.613281 47.460938 233.273438 48.339844 C 297.207031 50.117188 356.257812 96.898438 419.488281 87.296875 C 449.414062 82.75 476.074219 65.890625 505.441406 58.570312 C 577.777344 40.546875 651.503906 82.289062 726.050781 82.546875 C 782.09375 82.734375 848.769531 61.171875 903.46875 74.445312 L 903.46875 0.265625 L 0.0625 0.265625 L 0.132812 25.589844 " fill-opacity="1" fill-rule="nonzero"/></g></svg>