<svg xmlns="http://www.w3.org/2000/svg" xmlns:xlink="http://www.w3.org/1999/xlink" width="300" zoomAndPan="magnify" viewBox="0 0 224.87999 225" height="300" preserveAspectRatio="xMidYMid meet" version="1.0"><defs><clipPath id="252244d48b"><path d="M 0 0.0585938 L 224.761719 0.0585938 L 224.761719 224.9375 L 0 224.9375 Z M 0 0.0585938 " clip-rule="nonzero"/></clipPath></defs><g clip-path="url(#252244d48b)"><path fill="#00b2b2" d="M 112.011719 224.9375 L 112.109375 224.941406 L 112.078125 224.941406 Z M 112.804688 224.941406 L 112.769531 224.941406 L 112.871094 224.9375 Z M 111.667969 224.9375 L 111.777344 224.9375 Z M 113.167969 224.9375 L 113.105469 224.9375 L 113.214844 224.9375 Z M 111.335938 224.933594 L 111.410156 224.933594 Z M 113.53125 224.933594 L 113.472656 224.933594 L 113.542969 224.933594 Z M 113.890625 224.929688 L 113.867188 224.929688 L 113.964844 224.929688 Z M 110.914062 224.929688 L 111.011719 224.929688 Z M 114.253906 224.925781 L 114.195312 224.925781 L 114.316406 224.925781 Z M 110.5625 224.925781 L 110.683594 224.925781 Z M 114.617188 224.917969 L 114.535156 224.921875 L 114.648438 224.917969 Z M 110.230469 224.917969 L 110.34375 224.921875 L 110.261719 224.917969 Z M 109.820312 224.910156 L 109.917969 224.914062 L 109.902344 224.910156 Z M 114.980469 224.910156 L 114.960938 224.914062 L 115.058594 224.910156 Z M 109.460938 224.902344 L 109.59375 224.90625 L 109.539062 224.902344 Z M 115.339844 224.902344 L 115.285156 224.90625 L 115.421875 224.902344 Z M 115.703125 224.894531 L 115.613281 224.894531 L 115.753906 224.890625 Z M 109.128906 224.890625 L 109.265625 224.894531 L 109.179688 224.894531 Z M 108.8125 224.882812 L 108.910156 224.886719 L 108.816406 224.882812 L 108.730469 224.878906 Z M 116.0625 224.882812 L 115.96875 224.886719 L 116.066406 224.882812 L 116.148438 224.878906 Z M 116.421875 224.871094 L 116.375 224.871094 L 116.527344 224.867188 Z M 108.355469 224.867188 L 108.507812 224.871094 L 108.457031 224.871094 Z M 108.023438 224.855469 L 108.183594 224.859375 L 108.097656 224.855469 Z M 116.785156 224.855469 L 116.695312 224.859375 L 116.855469 224.855469 Z M 107.703125 224.839844 L 107.859375 224.847656 L 107.738281 224.84375 Z M 117.144531 224.84375 L 117.023438 224.847656 L 117.175781 224.839844 Z M 107.25 224.820312 L 107.417969 224.828125 L 107.375 224.828125 Z M 117.503906 224.828125 L 117.464844 224.828125 L 117.628906 224.820312 Z M 106.925781 224.808594 L 107.097656 224.816406 L 107.015625 224.8125 Z M 117.863281 224.8125 L 117.78125 224.816406 L 117.953125 224.808594 Z M 106.605469 224.789062 L 106.78125 224.800781 L 106.65625 224.792969 Z M 118.222656 224.792969 L 118.101562 224.800781 L 118.273438 224.789062 Z M 118.582031 224.773438 L 118.421875 224.78125 L 118.5625 224.777344 L 118.730469 224.765625 Z M 106.316406 224.777344 L 106.457031 224.78125 L 106.296875 224.773438 L 106.148438 224.765625 Z M 118.941406 224.753906 L 118.871094 224.757812 L 119.046875 224.75 Z M 105.832031 224.75 L 106.011719 224.757812 L 105.941406 224.753906 Z M 105.515625 224.730469 L 105.691406 224.738281 L 105.582031 224.734375 Z M 119.296875 224.734375 L 119.1875 224.738281 L 119.363281 224.730469 Z M 105.210938 224.710938 L 105.371094 224.722656 L 105.222656 224.710938 L 105.074219 224.703125 Z M 119.65625 224.710938 L 119.507812 224.722656 L 119.667969 224.710938 L 119.808594 224.703125 Z M 120.015625 224.6875 L 119.960938 224.691406 L 120.128906 224.679688 Z M 104.75 224.679688 L 104.917969 224.691406 L 104.867188 224.6875 Z M 104.433594 224.660156 L 104.597656 224.671875 L 104.507812 224.664062 Z M 120.371094 224.664062 L 120.28125 224.671875 L 120.449219 224.660156 Z M 104.117188 224.636719 L 104.269531 224.648438 L 104.152344 224.636719 Z M 120.730469 224.640625 L 120.609375 224.648438 L 120.761719 224.636719 Z M 103.691406 224.605469 L 103.828125 224.613281 L 103.792969 224.613281 Z M 121.085938 224.613281 L 121.054688 224.613281 L 121.1875 224.605469 Z M 121.441406 224.585938 L 121.378906 224.589844 L 121.515625 224.578125 Z M 103.367188 224.578125 L 103.5 224.589844 L 103.4375 224.585938 Z M 103.046875 224.550781 L 103.164062 224.5625 L 103.082031 224.554688 Z M 121.800781 224.554688 L 121.71875 224.5625 L 121.832031 224.550781 Z M 102.695312 224.523438 L 102.730469 224.527344 L 102.726562 224.523438 Z M 122.15625 224.523438 L 122.148438 224.527344 L 122.183594 224.523438 Z M 122.511719 224.496094 L 122.480469 224.496094 L 122.558594 224.488281 Z M 102.320312 224.488281 L 102.402344 224.496094 L 102.371094 224.496094 Z M 101.992188 224.460938 L 102.050781 224.464844 L 102.015625 224.460938 Z M 122.867188 224.460938 L 122.828125 224.464844 L 122.886719 224.460938 Z M 94.871094 223.574219 C 41.144531 215.128906 0 168.582031 0 112.5 C 0 50.441406 50.382812 0.0585938 112.441406 0.0585938 C 174.496094 0.0585938 224.878906 50.441406 224.878906 112.5 C 224.878906 168.582031 183.734375 215.128906 130.007812 223.574219 L 130.007812 145.003906 L 156.207031 145.003906 L 161.191406 112.5 L 130.007812 112.5 L 130.007812 91.410156 C 130.007812 82.515625 134.363281 73.847656 148.332031 73.847656 L 162.511719 73.847656 L 162.511719 46.179688 C 162.511719 46.179688 149.644531 43.980469 137.339844 43.980469 C 111.65625 43.980469 94.871094 59.546875 94.871094 87.726562 L 94.871094 112.5 L 66.320312 112.5 L 66.320312 145.003906 L 94.871094 145.003906 Z M 94.871094 223.574219 " fill-opacity="1" fill-rule="evenodd"/></g></svg>