<svg xmlns="http://www.w3.org/2000/svg" xmlns:xlink="http://www.w3.org/1999/xlink" width="300" zoomAndPan="magnify" viewBox="0 0 224.87999 225" height="300" preserveAspectRatio="xMidYMid meet" version="1.0"><defs><clipPath id="b711fec3af"><path d="M 0 0.0585938 L 224.761719 0.0585938 L 224.761719 224.9375 L 0 224.9375 Z M 0 0.0585938 " clip-rule="nonzero"/></clipPath></defs><g clip-path="url(#b711fec3af)"><path fill="#00b2b2" d="M 112.441406 0.0585938 C 174.496094 0.0585938 224.878906 50.441406 224.878906 112.5 C 224.878906 174.558594 174.496094 224.941406 112.441406 224.941406 C 50.382812 224.941406 0 174.558594 0 112.5 C 0 50.441406 50.382812 0.0585938 112.441406 0.0585938 Z M 112.441406 42.226562 C 93.355469 42.226562 90.960938 42.304688 83.464844 42.648438 C 75.984375 42.988281 70.878906 44.175781 66.40625 45.914062 C 61.785156 47.710938 57.867188 50.113281 53.960938 54.019531 C 50.054688 57.925781 47.648438 61.847656 45.855469 66.46875 C 44.117188 70.9375 42.929688 76.046875 42.585938 83.527344 C 42.246094 91.019531 42.164062 93.414062 42.164062 112.5 C 42.164062 131.585938 42.246094 133.980469 42.585938 141.472656 C 42.929688 148.953125 44.117188 154.0625 45.855469 158.53125 C 47.648438 163.152344 50.054688 167.074219 53.960938 170.980469 C 57.867188 174.886719 61.785156 177.289062 66.40625 179.085938 C 70.878906 180.824219 75.984375 182.011719 83.464844 182.351562 C 90.960938 182.695312 93.355469 182.773438 112.441406 182.773438 C 131.523438 182.773438 133.917969 182.695312 141.414062 182.351562 C 148.894531 182.011719 154.003906 180.824219 158.472656 179.085938 C 163.09375 177.289062 167.011719 174.886719 170.921875 170.980469 C 174.828125 167.074219 177.230469 163.152344 179.027344 158.53125 C 180.761719 154.0625 181.949219 148.953125 182.292969 141.472656 C 182.632812 133.980469 182.714844 131.585938 182.714844 112.5 C 182.714844 93.414062 182.632812 91.019531 182.292969 83.527344 C 181.949219 76.046875 180.761719 70.9375 179.027344 66.46875 C 177.230469 61.847656 174.828125 57.925781 170.921875 54.019531 C 167.011719 50.113281 163.09375 47.710938 158.472656 45.914062 C 154.003906 44.175781 148.894531 42.988281 141.414062 42.648438 C 133.917969 42.304688 131.523438 42.226562 112.441406 42.226562 Z M 112.441406 54.886719 C 131.203125 54.886719 133.425781 54.957031 140.835938 55.296875 C 147.6875 55.609375 151.410156 56.753906 153.886719 57.714844 C 157.167969 58.992188 159.507812 60.515625 161.964844 62.972656 C 164.425781 65.433594 165.949219 67.773438 167.222656 71.054688 C 168.1875 73.53125 169.332031 77.25 169.644531 84.101562 C 169.980469 91.511719 170.054688 93.734375 170.054688 112.5 C 170.054688 131.265625 169.980469 133.488281 169.644531 140.898438 C 169.332031 147.75 168.1875 151.46875 167.222656 153.945312 C 165.949219 157.226562 164.425781 159.566406 161.964844 162.027344 C 159.507812 164.484375 157.167969 166.007812 153.886719 167.285156 C 151.410156 168.246094 147.6875 169.390625 140.835938 169.703125 C 133.429688 170.042969 131.207031 170.113281 112.441406 170.113281 C 93.675781 170.113281 91.453125 170.042969 84.042969 169.703125 C 77.191406 169.390625 73.46875 168.246094 70.992188 167.285156 C 67.714844 166.007812 65.371094 164.484375 62.914062 162.027344 C 60.453125 159.566406 58.929688 157.226562 57.65625 153.945312 C 56.695312 151.46875 55.550781 147.75 55.238281 140.898438 C 54.898438 133.488281 54.828125 131.265625 54.828125 112.5 C 54.828125 93.734375 54.898438 91.511719 55.238281 84.101562 C 55.550781 77.25 56.695312 73.53125 57.65625 71.054688 C 58.929688 67.773438 60.453125 65.433594 62.914062 62.972656 C 65.371094 60.515625 67.714844 58.992188 70.992188 57.714844 C 73.46875 56.753906 77.191406 55.609375 84.042969 55.296875 C 91.453125 54.957031 93.675781 54.886719 112.441406 54.886719 Z M 112.441406 76.414062 C 92.507812 76.414062 76.351562 92.570312 76.351562 112.5 C 76.351562 132.429688 92.507812 148.585938 112.441406 148.585938 C 132.371094 148.585938 148.527344 132.429688 148.527344 112.5 C 148.527344 92.570312 132.371094 76.414062 112.441406 76.414062 Z M 112.441406 135.925781 C 99.503906 135.925781 89.015625 125.4375 89.015625 112.5 C 89.015625 99.5625 99.503906 89.074219 112.441406 89.074219 C 125.378906 89.074219 135.863281 99.5625 135.863281 112.5 C 135.863281 125.4375 125.378906 135.925781 112.441406 135.925781 Z M 158.386719 74.988281 C 158.386719 79.644531 154.609375 83.417969 149.953125 83.417969 C 145.296875 83.417969 141.519531 79.644531 141.519531 74.988281 C 141.519531 70.328125 145.296875 66.554688 149.953125 66.554688 C 154.609375 66.554688 158.386719 70.328125 158.386719 74.988281 Z M 158.386719 74.988281 " fill-opacity="1" fill-rule="evenodd"/></g></svg>