<svg xmlns="http://www.w3.org/2000/svg" xmlns:xlink="http://www.w3.org/1999/xlink" width="1400" zoomAndPan="magnify" viewBox="0 0 1050 374.999991" height="500" preserveAspectRatio="xMidYMid meet" version="1.0"><defs><g/><clipPath id="613556941c"><path d="M 1.371094 0 L 356.429688 0 L 356.429688 355.058594 L 1.371094 355.058594 Z M 1.371094 0 " clip-rule="nonzero"/></clipPath><clipPath id="31d4be9819"><path d="M 178.902344 0 C 80.855469 0 1.371094 79.484375 1.371094 177.53125 C 1.371094 275.578125 80.855469 355.058594 178.902344 355.058594 C 276.949219 355.058594 356.429688 275.578125 356.429688 177.53125 C 356.429688 79.484375 276.949219 0 178.902344 0 Z M 178.902344 0 " clip-rule="nonzero"/></clipPath><clipPath id="a39e6acad8"><path d="M 93 259 L 188 259 L 188 374.871094 L 93 374.871094 Z M 93 259 " clip-rule="nonzero"/></clipPath><clipPath id="2430973186"><path d="M 275 245 L 376.464844 245 L 376.464844 306 L 275 306 Z M 275 245 " clip-rule="nonzero"/></clipPath><clipPath id="8a8640628b"><path d="M 0 10.28125 L 25.515625 10.28125 L 25.515625 70.089844 L 0 70.089844 Z M 0 10.28125 " clip-rule="nonzero"/></clipPath><clipPath id="56671ea79e"><path d="M 3 8 L 46 8 L 46 64 L 3 64 Z M 3 8 " clip-rule="nonzero"/></clipPath><clipPath id="3170e39c29"><path d="M 30.210938 8.785156 L 45.394531 60.429688 L 12.171875 70.195312 L -3.007812 18.550781 Z M 30.210938 8.785156 " clip-rule="nonzero"/></clipPath><clipPath id="e352cabc75"><path d="M 3.523438 35.304688 C 3.410156 38.207031 3.703125 41.382812 4.570312 44.332031 C 5.4375 47.28125 6.773438 49.96875 8.4375 52.324219 C 8.480469 52.371094 8.496094 52.425781 8.542969 52.472656 C 15.003906 61.242188 26.566406 65.699219 36.976562 62.789062 L 45.363281 60.324219 L 30.210938 8.785156 L 21.832031 11.246094 C 11.441406 14.453125 4.097656 24.347656 3.523438 35.304688 Z M 3.523438 35.304688 " clip-rule="nonzero"/></clipPath></defs><g clip-path="url(#613556941c)"><g clip-path="url(#31d4be9819)"><path fill="#bff0f0" d="M 1.371094 0 L 356.429688 0 L 356.429688 355.058594 L 1.371094 355.058594 Z M 1.371094 0 " fill-opacity="1" fill-rule="nonzero"/></g></g><path fill="#037f8c" d="M 101.210938 249.558594 C 101.144531 249.480469 101.058594 249.429688 100.972656 249.371094 C 100.972656 249.347656 100.980469 249.335938 100.992188 249.3125 C 101.261719 248.105469 100.625 246.730469 99.351562 246.421875 C 98.1875 246.152344 97.039062 245.8125 95.917969 245.421875 C 95.359375 245.226562 94.789062 245.003906 94.238281 244.792969 C 94.152344 244.757812 94.109375 244.734375 94.066406 244.714844 C 93.964844 244.664062 93.871094 244.621094 93.769531 244.589844 C 93.496094 244.46875 93.226562 244.332031 92.960938 244.214844 C 91.179688 243.355469 89.488281 242.335938 87.882812 241.191406 C 87.355469 240.027344 86.054688 239.253906 84.703125 240.179688 C 73.023438 248.011719 62.394531 257.535156 54.367188 269.148438 C 46.203125 280.957031 41.113281 295.027344 40.882812 309.445312 C 39.992188 317.617188 40.46875 325.949219 42.429688 333.9375 C 43.882812 339.847656 46.152344 348.746094 53.253906 349.933594 C 61.453125 351.300781 64.136719 341.703125 64.859375 335.472656 C 65.132812 333.078125 65.222656 330.675781 65.351562 328.269531 C 65.605469 327.566406 65.835938 326.851562 66.03125 326.136719 C 67.015625 322.628906 67.816406 319.078125 68.835938 315.578125 C 69.574219 313.039062 70.390625 310.523438 71.238281 308.015625 C 72.605469 305.527344 74.128906 303.105469 75.65625 300.726562 C 81.894531 291.078125 89.402344 281.375 91.390625 269.761719 C 91.613281 268.46875 91.765625 267.160156 91.859375 265.851562 C 93.820312 262.871094 95.867188 259.941406 98 257.078125 C 99.054688 255.65625 100.132812 254.265625 101.21875 252.871094 C 102.011719 251.886719 102.199219 250.527344 101.21875 249.558594 Z M 101.210938 249.558594 " fill-opacity="1" fill-rule="nonzero"/><path fill="#037f8c" d="M 286 250.027344 C 285.726562 249.964844 285.429688 249.941406 285.140625 249.964844 C 284.4375 249.558594 283.554688 249.59375 282.746094 249.941406 C 277.902344 251.996094 272.5 252.464844 267.351562 251.496094 C 267.5625 251.1875 267.769531 250.867188 267.980469 250.5625 C 268.710938 249.53125 268.160156 247.953125 267.140625 247.347656 C 265.96875 246.652344 264.667969 247.152344 263.929688 248.183594 C 253.0625 263.484375 249.195312 283.183594 252.601562 301.550781 C 253.460938 306.105469 254.777344 310.554688 256.570312 314.839844 C 257.472656 316.988281 258.355469 319.339844 259.984375 321.074219 C 261.695312 322.875 264.308594 323.511719 266.570312 322.390625 C 268.617188 321.371094 269.859375 319.28125 270.707031 317.25 C 271.753906 314.761719 272.609375 312.179688 273.503906 309.648438 C 275.371094 304.296875 277.105469 298.902344 278.703125 293.472656 C 282.261719 281.304688 285.089844 268.9375 287.214844 256.449219 C 287.308594 255.929688 287.25 255.421875 287.085938 254.953125 C 287.265625 254.273438 287.453125 253.59375 287.628906 252.914062 C 287.792969 252.320312 287.707031 251.640625 287.394531 251.105469 C 287.105469 250.621094 286.550781 250.152344 285.984375 250.027344 Z M 286 250.027344 " fill-opacity="1" fill-rule="nonzero"/><path fill="#00b2b2" d="M 369.648438 229.898438 C 369.628906 233.332031 367.074219 235.972656 364.398438 237.773438 C 361.058594 240.019531 357.082031 240.984375 353.292969 242.167969 C 348.550781 243.636719 343.820312 245.113281 339.089844 246.585938 L 324.085938 251.257812 L 311.011719 255.328125 C 301.214844 258.375 291.429688 261.503906 281.597656 264.46875 C 273.171875 267.007812 264.691406 269.453125 256.15625 271.648438 C 238.058594 276.3125 219.664062 279.605469 200.992188 280.675781 C 182.667969 281.730469 164.257812 280.820312 146.070312 278.382812 C 139.714844 277.527344 133.402344 276.496094 127.113281 275.28125 C 116.207031 273.203125 105.410156 270.601562 94.730469 267.542969 C 93.847656 267.296875 92.960938 267.035156 92.097656 266.789062 C 77.339844 262.464844 62.183594 257.730469 49.074219 249.480469 C 36.542969 241.597656 26.476562 230.019531 24.164062 214.988281 C 21.4375 197.175781 28.21875 179.75 33.203125 162.960938 C 43.066406 129.734375 47.375 94.988281 46.058594 60.378906 C 45.074219 60.496094 44.085938 60.625 43.101562 60.734375 C 42.191406 60.84375 41.273438 60.964844 40.359375 61.074219 C 24.554688 62.996094 8.746094 64.921875 -7.054688 66.851562 C -12.671875 67.539062 -18.984375 68.21875 -24.125 65.3125 C -25.007812 64.8125 -25.773438 64.226562 -26.441406 63.582031 C -27.75 62.308594 -28.660156 60.777344 -29.195312 59.113281 C -30.324219 55.722656 -29.925781 51.773438 -28.304688 48.367188 C -26.84375 45.296875 -24.4375 42.722656 -21.941406 40.480469 C -19.230469 38.035156 -16.34375 35.765625 -13.410156 33.589844 C -7.609375 29.285156 -1.492188 25.445312 4.785156 21.875 C 11.023438 18.324219 17.402344 15.054688 23.816406 11.84375 C 26.890625 10.296875 29.992188 8.664062 33.152344 7.179688 C 35.992188 5.84375 38.878906 4.636719 41.851562 3.710938 C 44.222656 2.820312 46.660156 2.082031 49.152344 1.570312 C 56.71875 0.0351562 64.953125 0.484375 71.832031 4.257812 C 78.65625 7.984375 82.828125 14.699219 85.5625 21.757812 C 86.988281 25.4375 88.09375 29.265625 88.988281 33.117188 C 89.964844 37.339844 90.632812 41.738281 90.355469 46.097656 C 90.074219 50.480469 88.714844 54.371094 86.914062 58.332031 C 86.105469 60.097656 85.28125 61.882812 84.6875 63.71875 C 86.277344 92.746094 79.410156 121.84375 74.109375 150.3125 C 73.226562 155.035156 72.394531 159.757812 71.636719 164.507812 C 70.992188 168.644531 70.238281 172.824219 70.136719 177.023438 C 70.058594 180.421875 70.382812 184.140625 72.460938 186.980469 C 74.382812 189.597656 77.464844 190.75 80.636719 190.8125 C 88.519531 190.972656 96.257812 186.613281 103.335938 183.65625 C 111.617188 180.199219 119.953125 176.820312 128.449219 173.878906 C 145.007812 168.152344 162.363281 164.175781 179.984375 164.898438 C 194.296875 165.496094 208.332031 168.902344 221.773438 173.726562 C 249.382812 183.648438 274.566406 199.058594 301.714844 210.054688 C 314.867188 215.378906 328.597656 219.753906 342.742188 221.363281 C 346.328125 221.777344 349.929688 222.007812 353.53125 222.066406 C 355.960938 222.101562 358.476562 221.914062 360.914062 222.183594 C 361.507812 222.246094 362.085938 222.339844 362.671875 222.457031 C 363.027344 222.535156 363.386719 222.617188 363.742188 222.730469 C 366.945312 223.714844 369.65625 226.339844 369.628906 229.882812 Z M 369.648438 229.898438 " fill-opacity="1" fill-rule="nonzero"/><g clip-path="url(#a39e6acad8)"><path fill="#00b2b2" d="M 180.304688 339.953125 C 178.402344 335.789062 176.433594 331.632812 174.359375 327.554688 C 170.238281 319.476562 165.660156 311.585938 160.164062 304.355469 C 154.605469 297.066406 148.183594 290.488281 140.640625 285.25 C 137.25 282.894531 133.664062 280.839844 130.300781 278.453125 C 127.277344 276.300781 124.285156 273.796875 122.449219 270.507812 C 121.667969 269.105469 121.132812 267.550781 120.980469 265.929688 C 120.964844 265.742188 120.914062 265.554688 120.863281 265.367188 C 120.835938 264.367188 120.113281 263.574219 119.15625 263.183594 C 112.246094 260.347656 104.660156 259.226562 97.226562 259.898438 C 95.96875 260.007812 94.882812 260.890625 94.882812 262.242188 C 94.882812 262.625 95 263.015625 95.207031 263.371094 C 94.160156 267.859375 93.675781 272.394531 93.675781 276.90625 C 93.675781 291.664062 98.867188 306.292969 106.820312 318.710938 C 117.675781 335.6875 133.597656 348.625 149.839844 360.1875 C 153.953125 363.109375 158.105469 365.949219 162.269531 368.792969 C 166.398438 371.597656 170.875 374.628906 176.042969 374.835938 C 180.875 375.03125 184.925781 372.046875 186.761719 367.679688 C 188.742188 363 187.945312 357.894531 186.191406 353.253906 C 184.484375 348.734375 182.351562 344.34375 180.339844 339.953125 Z M 180.304688 339.953125 " fill-opacity="1" fill-rule="nonzero"/></g><g clip-path="url(#2430973186)"><path fill="#00b2b2" d="M 375.890625 291.722656 C 375.339844 288.085938 373.121094 284.882812 370.777344 282.164062 C 368.371094 279.394531 365.519531 277.03125 362.757812 274.636719 C 359.929688 272.191406 357.058594 269.804688 354.101562 267.519531 C 348.171875 262.914062 341.917969 258.648438 335.070312 255.523438 C 328.402344 252.488281 321.265625 250.507812 313.90625 250.40625 C 310.585938 250.355469 307.289062 250.757812 303.976562 250.875 C 301.097656 250.976562 297.976562 250.984375 295.285156 249.820312 C 294.011719 249.277344 292.972656 248.453125 292.074219 247.398438 C 291.503906 246.746094 290.5625 246.601562 289.746094 246.839844 C 289.695312 246.695312 289.636719 246.566406 289.550781 246.441406 C 288.871094 245.386719 287.460938 244.910156 286.339844 245.597656 C 283.160156 247.5625 279.976562 249.523438 276.796875 251.476562 C 275.921875 252.011719 275.457031 253.117188 275.710938 254.09375 C 275.457031 254.742188 275.515625 255.503906 275.820312 256.183594 C 281.726562 269.148438 292.617188 279.234375 304.757812 286.359375 C 318.9375 294.6875 334.953125 299.171875 350.675781 303.539062 C 357.921875 305.542969 366.640625 307.421875 372.707031 301.578125 C 375.382812 298.992188 376.453125 295.367188 375.898438 291.730469 Z M 375.890625 291.722656 " fill-opacity="1" fill-rule="nonzero"/></g><path fill="#037f8c" d="M 35.40625 52.207031 C 35.132812 53.402344 33.6875 54.210938 32.523438 53.835938 C 30.648438 53.242188 28.972656 52.101562 27.683594 50.625 C 23.902344 52.144531 20.070312 53.554688 16.195312 54.820312 C 2.382812 59.367188 -11.949219 62.273438 -26.441406 63.582031 C -27.75 62.308594 -28.660156 60.777344 -29.195312 59.113281 C -25.601562 58.847656 -22 58.484375 -18.421875 58 C -3.429688 55.96875 11.292969 52.0625 25.371094 46.503906 C 25.03125 45.375 24.894531 44.1875 24.988281 42.988281 C 25.082031 41.671875 25.984375 40.695312 27.335938 40.644531 C 28.53125 40.582031 29.773438 41.757812 29.679688 42.988281 C 29.644531 43.414062 29.644531 43.847656 29.679688 44.261719 C 29.679688 44.277344 29.679688 44.296875 29.6875 44.320312 C 29.6875 44.398438 29.703125 44.449219 29.710938 44.5 C 29.710938 44.5 29.722656 44.558594 29.730469 44.566406 C 29.765625 44.761719 29.816406 44.957031 29.875 45.152344 C 29.933594 45.347656 29.984375 45.542969 30.0625 45.75 C 30.0625 45.757812 30.078125 45.800781 30.085938 45.84375 C 30.09375 45.859375 30.105469 45.875 30.121094 45.917969 C 30.308594 46.308594 30.511719 46.691406 30.757812 47.046875 C 30.816406 47.132812 30.867188 47.210938 30.925781 47.296875 C 31.046875 47.449219 31.175781 47.59375 31.300781 47.738281 C 31.445312 47.882812 31.589844 48.027344 31.742188 48.171875 C 31.828125 48.246094 31.921875 48.332031 32.015625 48.417969 C 32.03125 48.425781 32.066406 48.449219 32.089844 48.476562 L 32.117188 48.5 L 32.421875 48.695312 C 32.59375 48.808594 32.769531 48.910156 32.949219 49.019531 C 33.050781 49.078125 33.160156 49.128906 33.28125 49.179688 C 33.289062 49.191406 33.304688 49.199219 33.316406 49.199219 C 33.347656 49.214844 33.375 49.222656 33.390625 49.222656 C 33.511719 49.273438 33.628906 49.308594 33.75 49.34375 C 34.996094 49.734375 35.667969 50.949219 35.378906 52.230469 Z M 35.40625 52.207031 " fill-opacity="1" fill-rule="nonzero"/><path fill="#037f8c" d="M 29.730469 44.484375 C 29.730469 44.484375 29.730469 44.484375 29.730469 44.492188 C 29.765625 44.609375 29.796875 44.628906 29.695312 44.253906 C 29.695312 44.269531 29.695312 44.289062 29.695312 44.304688 C 29.703125 44.363281 29.710938 44.421875 29.730469 44.484375 Z M 29.730469 44.484375 " fill-opacity="1" fill-rule="nonzero"/><path fill="#77c7c7" d="M 96.710938 253.074219 L 96.710938 253.023438 C 96.648438 251.777344 95.671875 250.664062 94.363281 250.679688 C 93.429688 250.695312 92.453125 250.6875 91.519531 250.535156 C 91.367188 250.507812 91.160156 250.476562 91.101562 250.46875 C 90.914062 250.433594 90.726562 250.390625 90.53125 250.355469 C 90.066406 250.253906 89.582031 250.144531 89.113281 250.007812 C 88.648438 249.871094 88.1875 249.726562 87.730469 249.558594 C 87.550781 249.488281 87.363281 249.414062 87.1875 249.355469 C 87.132812 249.335938 87.109375 249.328125 87.082031 249.304688 C 87.007812 249.277344 86.921875 249.234375 86.847656 249.210938 C 86.464844 249.03125 86.074219 248.835938 85.699219 248.625 C 85.394531 248.273438 84.992188 247.996094 84.527344 247.824219 C 74.027344 243.816406 63.132812 239.585938 54.25 232.515625 C 49.871094 229.042969 46.074219 224.894531 43.347656 219.992188 C 40.289062 214.496094 38.710938 208.234375 38.234375 201.984375 C 37.171875 188.050781 41.171875 174.523438 44.980469 161.28125 C 48.980469 147.414062 52.226562 133.398438 54.332031 119.117188 C 56.601562 103.75 57.707031 88.21875 57.613281 72.679688 C 57.996094 70.488281 58.292969 68.296875 57.960938 66.0625 C 57.679688 64.097656 56.769531 62.179688 55.308594 60.804688 C 53.609375 59.207031 51.46875 58.558594 49.191406 58.933594 C 48.285156 59.085938 47.433594 59.417969 46.585938 59.742188 C 46.195312 59.894531 45.785156 60.03125 45.371094 60.148438 C 45.261719 60.183594 45.089844 60.242188 44.9375 60.269531 C 44.929688 60.269531 44.859375 60.277344 44.757812 60.285156 C 44.640625 60.292969 44.519531 60.292969 44.402344 60.292969 C 43.933594 60.292969 43.476562 60.453125 43.085938 60.710938 C 44.070312 60.597656 45.054688 60.472656 46.042969 60.351562 C 47.359375 94.964844 43.050781 129.71875 33.1875 162.9375 C 28.199219 179.722656 21.421875 197.15625 24.148438 214.964844 C 26.460938 229.992188 36.527344 241.574219 49.058594 249.457031 C 62.167969 257.707031 77.320312 262.4375 92.078125 266.761719 C 92.953125 267.015625 93.835938 267.28125 94.710938 267.519531 C 94.746094 267 94.796875 266.5 94.839844 265.980469 C 94.867188 265.734375 94.898438 265.496094 94.925781 265.25 C 94.925781 265.222656 94.976562 264.917969 94.984375 264.816406 C 95.136719 263.738281 95.324219 262.675781 95.546875 261.613281 C 95.996094 259.472656 96.589844 257.375 97.304688 255.316406 C 97.574219 254.535156 97.269531 253.636719 96.691406 253.050781 Z M 53.074219 65.6875 C 53.074219 65.6875 53.058594 65.636719 53.042969 65.613281 L 53.035156 65.613281 C 53.035156 65.613281 53.015625 65.535156 53 65.5 C 53.035156 65.535156 53.066406 65.613281 53.085938 65.6875 Z M 53.074219 65.6875 " fill-opacity="1" fill-rule="nonzero"/><path fill="#77c7c7" d="M 281.597656 264.46875 C 273.171875 267.007812 264.691406 269.453125 256.15625 271.648438 C 238.058594 276.3125 219.664062 279.605469 200.992188 280.675781 C 182.667969 281.730469 164.257812 280.820312 146.070312 278.382812 C 139.714844 277.527344 133.402344 276.496094 127.113281 275.28125 C 124.71875 271.84375 123.128906 267.816406 122.511719 263.679688 C 122.425781 263.117188 122.476562 262.589844 122.664062 262.140625 C 122.644531 261.886719 122.65625 261.628906 122.722656 261.390625 C 123.078125 260.109375 124.363281 259.515625 125.609375 259.761719 C 136.554688 261.910156 147.613281 263.40625 158.734375 264.1875 C 178.472656 265.605469 198.394531 264.945312 217.984375 262.148438 C 237.695312 259.320312 257.082031 254.410156 275.738281 247.453125 C 275.753906 247.441406 275.769531 247.441406 275.796875 247.433594 C 275.804688 247.433594 275.820312 247.425781 275.832031 247.425781 C 275.832031 247.425781 275.835938 247.421875 275.847656 247.417969 C 276.101562 247.324219 276.367188 247.265625 276.628906 247.265625 C 277.972656 247.265625 278.863281 248.34375 278.972656 249.609375 C 279.414062 254.628906 280.308594 259.589844 281.597656 264.46875 Z M 281.597656 264.46875 " fill-opacity="1" fill-rule="nonzero"/><path fill="#77c7c7" d="M 369.648438 229.898438 C 369.628906 233.332031 367.074219 235.972656 364.398438 237.773438 C 361.058594 240.019531 357.082031 240.984375 353.292969 242.167969 C 348.550781 243.636719 343.820312 245.113281 339.089844 246.585938 L 324.085938 251.257812 C 320.261719 249.625 316.753906 247.460938 313.542969 244.765625 C 311.867188 243.355469 313.355469 240.859375 315.207031 240.757812 C 319.820312 240.484375 324.382812 239.78125 328.910156 238.792969 C 336.929688 237.050781 344.746094 234.480469 352.527344 231.894531 C 355.605469 230.875 359.164062 229.832031 361.320312 227.242188 C 362.359375 226.007812 363.046875 224.097656 362.6875 222.472656 C 363.046875 222.550781 363.402344 222.636719 363.757812 222.746094 C 366.960938 223.730469 369.671875 226.355469 369.648438 229.898438 Z M 369.648438 229.898438 " fill-opacity="1" fill-rule="nonzero"/><path fill="#037f8c" d="M 360.9375 222.203125 C 360.378906 222.710938 359.785156 223.179688 359.171875 223.621094 C 351.78125 228.929688 341.578125 229.476562 332.808594 229.371094 C 322.011719 229.253906 311.171875 227.199219 301.085938 223.28125 C 298.597656 222.3125 296.167969 221.21875 293.757812 220.078125 C 291.605469 219.066406 289.007812 217.851562 286.695312 219.066406 C 283.347656 220.824219 281.84375 225.125 278.972656 227.496094 C 271.234375 233.917969 260.699219 228.753906 255.042969 222.175781 C 251.761719 218.371094 249.230469 213.988281 245.882812 210.242188 C 242.882812 206.902344 238.628906 203.765625 233.9375 203.84375 C 225.339844 203.972656 223.113281 214.785156 221.953125 221.402344 C 220.667969 228.777344 218.628906 238.011719 211.410156 241.9375 C 202.886719 246.550781 194.027344 240.035156 190.890625 232.007812 C 187.050781 222.175781 190.796875 211.21875 189.03125 201.046875 C 187.605469 192.773438 182.625 184.335938 173.332031 183.914062 C 169.371094 183.734375 165.878906 185.339844 163.832031 188.816406 C 161.460938 192.832031 161.019531 197.667969 159.152344 201.898438 C 157.425781 205.8125 154.148438 209.746094 149.847656 210.859375 C 145.941406 211.871094 142.050781 210.199219 139.773438 206.976562 C 137.75 204.140625 137.082031 200.523438 136.195312 197.226562 C 135.363281 194.082031 134.378906 190.429688 131.4375 188.585938 C 128.277344 186.597656 124.234375 187.167969 120.894531 188.40625 C 116.808594 189.917969 113.761719 192.902344 111.015625 196.1875 C 105.433594 202.847656 100.625 211.234375 91.714844 213.742188 C 84.671875 215.71875 75.851562 213.925781 73.253906 206.28125 C 72.0625 202.789062 73.285156 196.929688 69.71875 194.703125 C 67.796875 193.503906 65.472656 193.105469 63.558594 191.847656 C 61.96875 190.792969 60.628906 189.410156 59.683594 187.761719 C 55.710938 180.855469 58.097656 172.121094 59.933594 164.796875 C 59.59375 164.371094 59.21875 164 58.945312 163.734375 C 57.628906 162.46875 56.21875 161.324219 55.234375 159.757812 C 53.390625 156.855469 53.628906 153.132812 54.894531 150.058594 C 56.261719 146.726562 58.800781 144.179688 60.976562 141.382812 C 63.464844 138.171875 65.222656 134.484375 66.234375 130.59375 C 66.3125 130.109375 66.386719 129.617188 66.464844 129.140625 L 67.042969 125.445312 C 66.046875 122.125 65.546875 118.667969 65.691406 115.167969 C 65.871094 110.722656 67.035156 106.621094 68.816406 102.574219 C 69.640625 100.707031 70.515625 98.847656 71 96.859375 C 71.503906 94.769531 71.1875 92.738281 70.890625 90.648438 C 70.542969 88.261719 70.441406 86 70.957031 83.628906 C 71.410156 81.507812 72.277344 79.511719 73.101562 77.515625 C 73.625 76.257812 74.210938 74.863281 74.65625 73.417969 C 74.671875 71.753906 74.585938 70.089844 74.296875 68.457031 C 73.839844 65.910156 72.878906 63.523438 71.824219 61.167969 C 69.835938 56.691406 67.507812 51.738281 68.972656 46.742188 C 69.632812 44.472656 71.011719 42.597656 72.488281 40.8125 C 73.78125 39.25 75.425781 37.695312 76.046875 35.707031 C 76.394531 34.570312 76.710938 32.625 75.683594 31.695312 C 74.296875 30.464844 71.179688 31.695312 69.464844 31.519531 C 64.945312 31.035156 62.929688 26.710938 63.269531 22.5625 C 63.472656 20.144531 64.382812 17.976562 65.027344 15.65625 C 65.539062 13.789062 65.929688 11.410156 64.214844 10.007812 C 60.992188 7.40625 56.234375 9.285156 53 10.738281 C 48.683594 12.675781 43.992188 14.824219 39.246094 13.082031 C 36.355469 12.019531 34.054688 9.972656 33.230469 7.273438 C 33.214844 7.253906 33.195312 7.238281 33.171875 7.210938 C 36.007812 5.878906 38.898438 4.671875 41.871094 3.746094 C 44.242188 2.855469 46.679688 2.117188 49.167969 1.605469 C 56.738281 0.0664062 64.96875 0.519531 71.851562 4.289062 C 78.671875 8.019531 82.84375 14.730469 85.578125 21.792969 C 87.007812 25.46875 88.113281 29.300781 89.003906 33.148438 C 89.980469 37.371094 90.652344 41.773438 90.371094 46.132812 C 90.089844 50.515625 88.730469 54.40625 86.929688 58.363281 C 86.125 60.132812 85.300781 61.914062 84.703125 63.75 C 86.292969 92.78125 79.429688 121.878906 74.128906 150.347656 C 73.246094 155.070312 72.410156 159.792969 71.65625 164.542969 C 71.011719 168.679688 70.253906 172.859375 70.152344 177.058594 C 70.074219 180.453125 70.398438 184.175781 72.480469 187.011719 C 74.398438 189.628906 77.484375 190.785156 80.652344 190.84375 C 88.535156 191.007812 96.277344 186.648438 103.351562 183.691406 C 111.636719 180.234375 119.96875 176.851562 128.464844 173.914062 C 145.023438 168.1875 162.378906 164.210938 180 164.933594 C 194.316406 165.527344 208.351562 168.933594 221.789062 173.761719 C 249.402344 183.683594 274.582031 199.09375 301.734375 210.085938 C 314.882812 215.414062 328.613281 219.789062 342.757812 221.394531 C 346.34375 221.8125 349.945312 222.039062 353.546875 222.101562 C 355.976562 222.132812 358.492188 221.949219 360.929688 222.21875 Z M 360.9375 222.203125 " fill-opacity="1" fill-rule="nonzero"/><path fill="#037f8c" d="M 128.789062 201.550781 C 128.40625 200.078125 127.574219 198.601562 126.238281 197.792969 C 124.667969 196.84375 122.738281 197.074219 121.3125 198.167969 C 120.070312 199.109375 119.28125 200.488281 118.535156 201.828125 C 117.855469 203.042969 117.269531 204.300781 116.714844 205.578125 C 115.882812 206.824219 115.050781 208.082031 114.226562 209.339844 C 113.222656 210.871094 112.367188 212.730469 112.910156 214.597656 C 113.34375 216.101562 114.449219 217.15625 115.882812 217.714844 C 115.941406 217.742188 116.003906 217.75 116.0625 217.769531 C 116.800781 218.210938 117.703125 218.386719 118.636719 218.167969 C 118.765625 218.132812 118.890625 218.082031 119.011719 218.03125 C 120.539062 217.828125 122.027344 217.179688 123.230469 216.304688 C 125.578125 214.589844 127.257812 212.320312 128.304688 209.621094 C 129.273438 207.105469 129.476562 204.175781 128.789062 201.566406 Z M 128.789062 201.550781 " fill-opacity="1" fill-rule="nonzero"/><path fill="#037f8c" d="M 173.875 206.035156 C 173.875 206.035156 173.867188 206.042969 173.859375 206.050781 C 173.847656 206.070312 173.832031 206.085938 173.824219 206.113281 C 173.824219 206.113281 173.832031 206.113281 173.839844 206.101562 C 173.859375 206.085938 173.867188 206.0625 173.875 206.042969 Z M 173.875 206.035156 " fill-opacity="1" fill-rule="nonzero"/><path fill="#037f8c" d="M 179.261719 200.683594 C 178.726562 199.238281 177.707031 198.058594 176.210938 197.566406 C 175.480469 197.328125 174.742188 197.328125 174.042969 197.503906 C 173.042969 197.503906 172.046875 197.84375 171.265625 198.585938 C 170.730469 199.09375 170.359375 199.757812 170.171875 200.460938 C 169.050781 202.101562 168.082031 203.972656 168.242188 206 C 168.453125 208.695312 170.296875 211.082031 173.066406 211.40625 C 175.394531 211.675781 177.347656 209.890625 178.242188 207.902344 C 178.675781 206.925781 179.007812 205.925781 179.253906 204.878906 C 179.566406 203.539062 179.761719 202.015625 179.269531 200.683594 Z M 179.261719 200.683594 " fill-opacity="1" fill-rule="nonzero"/><path fill="#037f8c" d="M 152.457031 226.882812 C 152.414062 226.492188 152.371094 226.078125 152.246094 225.703125 C 152.117188 225.335938 151.964844 224.9375 151.742188 224.613281 C 151.53125 224.300781 151.300781 223.96875 151.011719 223.714844 C 150.722656 223.460938 150.402344 223.1875 150.035156 223.027344 C 149.765625 222.855469 149.476562 222.761719 149.160156 222.746094 C 148.921875 222.695312 148.683594 222.703125 148.449219 222.746094 C 147.9375 222.710938 147.417969 222.753906 146.925781 222.863281 C 146.128906 223.042969 145.457031 223.46875 144.828125 223.976562 C 144.207031 224.480469 143.800781 225.191406 143.535156 225.933594 C 143.503906 226.023438 143.476562 226.128906 143.453125 226.230469 C 143.390625 226.527344 143.339844 226.839844 143.339844 227.148438 C 143.339844 227.453125 143.390625 227.757812 143.445312 228.046875 C 143.460938 228.167969 143.484375 228.277344 143.519531 228.386719 C 143.773438 229.152344 144.199219 229.898438 144.820312 230.425781 C 145.449219 230.960938 146.152344 231.402344 146.96875 231.597656 C 147.367188 231.691406 147.800781 231.761719 148.21875 231.75 C 148.617188 231.734375 149.050781 231.691406 149.433594 231.554688 C 149.949219 231.367188 150.332031 231.171875 150.757812 230.851562 C 151.175781 230.527344 151.4375 230.222656 151.742188 229.78125 C 151.964844 229.464844 152.109375 229.074219 152.238281 228.71875 C 152.371094 228.335938 152.414062 227.910156 152.457031 227.519531 C 152.484375 227.308594 152.472656 227.085938 152.457031 226.875 Z M 152.457031 226.882812 " fill-opacity="1" fill-rule="nonzero"/><path fill="#037f8c" d="M 247.667969 225.828125 C 247.574219 224.53125 247.269531 223.28125 246.886719 222.039062 C 246.425781 220.539062 245.832031 219.066406 244.746094 217.902344 C 243.71875 216.789062 242.128906 216 240.589844 216.050781 C 238.832031 216.109375 237.3125 217.097656 236.402344 218.582031 C 236.359375 218.652344 236.324219 218.71875 236.292969 218.789062 C 235.738281 219.203125 235.398438 219.867188 235.332031 220.648438 C 235.078125 223.398438 234.976562 226.390625 236.46875 228.847656 C 237.898438 231.183594 240.699219 232.542969 243.410156 232.074219 C 246.34375 231.566406 247.878906 228.589844 247.667969 225.820312 Z M 247.667969 225.828125 " fill-opacity="1" fill-rule="nonzero"/><path fill="#037f8c" d="M 233.191406 240.585938 C 233.113281 240.050781 232.875 239.515625 232.554688 239.082031 C 232.113281 238.488281 231.621094 237.953125 230.949219 237.613281 C 230.285156 237.28125 229.519531 237.027344 228.765625 237.085938 C 228.40625 237.113281 228.027344 237.144531 227.675781 237.273438 C 227.320312 237.402344 226.957031 237.546875 226.648438 237.773438 C 226.351562 237.996094 226.0625 238.199219 225.832031 238.488281 C 225.824219 238.503906 225.808594 238.515625 225.800781 238.53125 C 225.605469 238.699219 225.425781 238.886719 225.273438 239.125 C 224.863281 239.746094 224.710938 240.449219 224.660156 241.179688 C 224.636719 241.53125 224.703125 241.894531 224.753906 242.226562 C 224.78125 242.394531 224.824219 242.566406 224.882812 242.726562 C 225.136719 243.40625 225.441406 243.984375 225.953125 244.511719 C 226.445312 245.011719 227.082031 245.386719 227.761719 245.582031 C 227.847656 245.609375 227.941406 245.625 228.027344 245.632812 C 228.296875 245.675781 228.570312 245.726562 228.839844 245.726562 C 229.214844 245.726562 229.589844 245.675781 229.953125 245.582031 C 230.292969 245.496094 230.625 245.34375 230.929688 245.191406 C 231.253906 245.039062 231.550781 244.785156 231.824219 244.5625 C 232.230469 244.230469 232.585938 243.78125 232.808594 243.304688 C 232.953125 242.992188 233.113281 242.652344 233.175781 242.304688 C 233.292969 241.605469 233.285156 241.285156 233.175781 240.59375 Z M 233.191406 240.585938 " fill-opacity="1" fill-rule="nonzero"/><path fill="#037f8c" d="M 67.101562 207.285156 C 67.085938 207.15625 67.050781 207.027344 67.015625 206.910156 C 66.675781 205.875 66.058594 205.058594 65.140625 204.464844 C 64.425781 203.996094 63.484375 203.765625 62.640625 203.777344 C 61.792969 203.785156 60.839844 204.011719 60.128906 204.496094 C 59.878906 204.667969 59.644531 204.847656 59.421875 205.050781 C 59.191406 205.261719 59.015625 205.535156 58.820312 205.78125 C 58.691406 205.984375 58.625 206.195312 58.582031 206.417969 C 58.4375 206.699219 58.308594 206.996094 58.222656 207.292969 C 58.140625 207.589844 58.113281 207.902344 58.078125 208.210938 C 58.0625 208.347656 58.0625 208.472656 58.078125 208.609375 C 58.140625 209.316406 58.265625 209.78125 58.574219 210.417969 C 58.625 210.53125 58.691406 210.632812 58.757812 210.734375 C 58.9375 210.988281 59.125 211.25 59.34375 211.472656 C 59.558594 211.683594 59.804688 211.855469 60.042969 212.03125 C 60.144531 212.109375 60.253906 212.1875 60.375 212.253906 C 60.636719 212.398438 60.925781 212.507812 61.207031 212.621094 C 61.332031 212.671875 61.453125 212.710938 61.589844 212.738281 C 61.894531 212.816406 62.21875 212.847656 62.53125 212.875 C 62.648438 212.882812 62.777344 212.890625 62.898438 212.875 C 63.484375 212.839844 63.941406 212.738281 64.46875 212.515625 C 64.96875 212.304688 65.351562 212.058594 65.777344 211.675781 C 65.863281 211.589844 65.945312 211.507812 66.023438 211.414062 C 66.210938 211.183594 66.414062 210.9375 66.566406 210.683594 C 66.71875 210.417969 66.832031 210.121094 66.941406 209.839844 C 66.992188 209.722656 67.035156 209.59375 67.058594 209.476562 C 67.136719 209.179688 67.160156 208.863281 67.195312 208.566406 C 67.210938 208.441406 67.222656 208.3125 67.210938 208.175781 C 67.210938 207.871094 67.152344 207.566406 67.101562 207.265625 Z M 67.101562 207.285156 " fill-opacity="1" fill-rule="nonzero"/><path fill="#037f8c" d="M 295.539062 227.425781 C 295.539062 227.425781 295.539062 227.402344 295.53125 227.382812 C 295.457031 227.199219 295.371094 227.011719 295.292969 226.824219 C 295.234375 226.714844 294.996094 226.425781 294.910156 226.332031 C 294.878906 226.289062 294.835938 226.253906 294.800781 226.222656 C 294.785156 226.210938 294.777344 226.203125 294.757812 226.1875 C 294.671875 225.921875 294.5625 225.667969 294.410156 225.421875 C 294.105469 224.914062 293.585938 224.503906 293.007812 224.34375 C 292.695312 224.242188 292.386719 224.234375 292.074219 224.300781 C 291.757812 224.316406 291.46875 224.410156 291.199219 224.582031 C 291.039062 224.683594 290.882812 224.808594 290.75 224.945312 C 290.65625 224.953125 290.5625 224.972656 290.46875 224.988281 C 290.070312 225.097656 289.730469 225.304688 289.433594 225.59375 C 289.371094 225.644531 289.3125 225.695312 289.261719 225.753906 C 289.09375 225.957031 288.914062 226.160156 288.777344 226.390625 C 288.640625 226.621094 288.546875 226.882812 288.453125 227.128906 C 288.429688 227.207031 288.402344 227.273438 288.386719 227.351562 C 288.328125 227.621094 288.292969 227.902344 288.277344 228.175781 C 288.277344 228.25 288.277344 228.335938 288.277344 228.414062 C 288.300781 228.683594 288.335938 228.964844 288.386719 229.238281 C 288.402344 229.3125 288.421875 229.390625 288.453125 229.464844 C 288.566406 229.78125 288.691406 230.128906 288.898438 230.410156 C 289.050781 230.621094 289.203125 230.851562 289.398438 231.027344 C 289.484375 231.105469 289.574219 231.171875 289.667969 231.242188 C 289.6875 231.257812 289.695312 231.277344 289.710938 231.292969 C 290 231.582031 290.347656 231.785156 290.75 231.894531 C 290.824219 231.914062 290.902344 231.914062 290.976562 231.929688 C 290.996094 231.929688 291.011719 231.945312 291.027344 231.945312 C 291.648438 232.066406 292.117188 232.066406 292.738281 231.9375 C 292.820312 231.921875 292.898438 231.894531 292.972656 231.863281 C 293.238281 231.761719 293.519531 231.65625 293.765625 231.511719 C 293.992188 231.367188 294.207031 231.191406 294.417969 231.019531 C 294.496094 230.953125 294.5625 230.886719 294.632812 230.816406 C 294.808594 230.613281 294.980469 230.402344 295.125 230.171875 C 295.277344 229.933594 295.378906 229.652344 295.480469 229.390625 C 295.515625 229.3125 295.539062 229.238281 295.558594 229.152344 C 295.609375 228.914062 295.632812 228.667969 295.660156 228.429688 C 295.660156 228.378906 295.667969 228.328125 295.667969 228.277344 C 295.667969 227.996094 295.617188 227.707031 295.558594 227.445312 Z M 295.539062 227.425781 " fill-opacity="1" fill-rule="nonzero"/><path fill="#4a4a4a" d="M 70.816406 26.480469 C 70.816406 27.253906 70.738281 28.023438 70.589844 28.78125 C 70.4375 29.539062 70.214844 30.277344 69.917969 30.992188 C 69.621094 31.707031 69.257812 32.386719 68.828125 33.03125 C 68.398438 33.675781 67.910156 34.269531 67.359375 34.820312 C 66.8125 35.367188 66.21875 35.855469 65.574219 36.285156 C 64.929688 36.714844 64.25 37.078125 63.535156 37.375 C 62.820312 37.671875 62.082031 37.894531 61.324219 38.046875 C 60.5625 38.195312 59.796875 38.273438 59.023438 38.273438 C 58.25 38.273438 57.480469 38.195312 56.722656 38.046875 C 55.960938 37.894531 55.226562 37.671875 54.511719 37.375 C 53.792969 37.078125 53.113281 36.714844 52.472656 36.285156 C 51.828125 35.855469 51.230469 35.367188 50.683594 34.820312 C 50.136719 34.269531 49.648438 33.675781 49.21875 33.03125 C 48.789062 32.386719 48.425781 31.707031 48.128906 30.992188 C 47.832031 30.277344 47.609375 29.539062 47.457031 28.78125 C 47.304688 28.023438 47.230469 27.253906 47.230469 26.480469 C 47.230469 25.707031 47.304688 24.941406 47.457031 24.179688 C 47.609375 23.421875 47.832031 22.683594 48.128906 21.96875 C 48.425781 21.253906 48.789062 20.574219 49.21875 19.929688 C 49.648438 19.285156 50.136719 18.691406 50.683594 18.144531 C 51.230469 17.59375 51.828125 17.105469 52.472656 16.675781 C 53.113281 16.246094 53.792969 15.882812 54.511719 15.585938 C 55.226562 15.289062 55.960938 15.066406 56.722656 14.914062 C 57.480469 14.765625 58.25 14.6875 59.023438 14.6875 C 59.796875 14.6875 60.5625 14.765625 61.324219 14.914062 C 62.082031 15.066406 62.820312 15.289062 63.535156 15.585938 C 64.25 15.882812 64.929688 16.246094 65.574219 16.675781 C 66.21875 17.105469 66.8125 17.59375 67.359375 18.144531 C 67.910156 18.691406 68.398438 19.285156 68.828125 19.929688 C 69.257812 20.574219 69.621094 21.253906 69.917969 21.96875 C 70.214844 22.683594 70.4375 23.421875 70.589844 24.179688 C 70.738281 24.941406 70.816406 25.707031 70.816406 26.480469 Z M 70.816406 26.480469 " fill-opacity="1" fill-rule="nonzero"/><path fill="#dddddd" d="M 57.808594 24.621094 C 57.808594 24.886719 57.78125 25.152344 57.730469 25.414062 C 57.675781 25.675781 57.601562 25.929688 57.496094 26.175781 C 57.394531 26.425781 57.269531 26.660156 57.121094 26.882812 C 56.972656 27.101562 56.804688 27.308594 56.617188 27.496094 C 56.425781 27.6875 56.222656 27.855469 56 28.003906 C 55.777344 28.152344 55.542969 28.277344 55.296875 28.378906 C 55.046875 28.480469 54.792969 28.558594 54.53125 28.613281 C 54.269531 28.664062 54.003906 28.691406 53.738281 28.691406 C 53.472656 28.691406 53.207031 28.664062 52.945312 28.613281 C 52.683594 28.558594 52.429688 28.480469 52.179688 28.378906 C 51.933594 28.277344 51.699219 28.152344 51.476562 28.003906 C 51.253906 27.855469 51.050781 27.6875 50.859375 27.496094 C 50.671875 27.308594 50.503906 27.101562 50.355469 26.882812 C 50.207031 26.660156 50.082031 26.425781 49.980469 26.175781 C 49.875 25.929688 49.800781 25.675781 49.746094 25.414062 C 49.695312 25.152344 49.667969 24.886719 49.667969 24.621094 C 49.667969 24.351562 49.695312 24.089844 49.746094 23.828125 C 49.800781 23.5625 49.875 23.308594 49.980469 23.0625 C 50.082031 22.816406 50.207031 22.582031 50.355469 22.359375 C 50.503906 22.136719 50.671875 21.933594 50.859375 21.742188 C 51.050781 21.554688 51.253906 21.386719 51.476562 21.238281 C 51.699219 21.089844 51.933594 20.960938 52.179688 20.859375 C 52.429688 20.757812 52.683594 20.679688 52.945312 20.628906 C 53.207031 20.578125 53.472656 20.550781 53.738281 20.550781 C 54.003906 20.550781 54.269531 20.578125 54.53125 20.628906 C 54.792969 20.679688 55.046875 20.757812 55.296875 20.859375 C 55.542969 20.960938 55.777344 21.089844 56 21.238281 C 56.222656 21.386719 56.425781 21.554688 56.617188 21.742188 C 56.804688 21.933594 56.972656 22.136719 57.121094 22.359375 C 57.269531 22.582031 57.394531 22.816406 57.496094 23.0625 C 57.601562 23.308594 57.675781 23.5625 57.730469 23.828125 C 57.78125 24.089844 57.808594 24.351562 57.808594 24.621094 Z M 57.808594 24.621094 " fill-opacity="1" fill-rule="nonzero"/><path fill="#dddddd" d="M 68.640625 29.503906 C 68.640625 29.777344 68.589844 30.035156 68.484375 30.285156 C 68.382812 30.535156 68.234375 30.753906 68.042969 30.945312 C 67.851562 31.136719 67.628906 31.285156 67.382812 31.390625 C 67.132812 31.492188 66.871094 31.542969 66.601562 31.542969 C 66.332031 31.542969 66.070312 31.492188 65.820312 31.390625 C 65.570312 31.285156 65.351562 31.136719 65.160156 30.945312 C 64.96875 30.753906 64.820312 30.535156 64.71875 30.285156 C 64.613281 30.035156 64.5625 29.777344 64.5625 29.503906 C 64.5625 29.234375 64.613281 28.976562 64.71875 28.726562 C 64.820312 28.476562 64.96875 28.253906 65.160156 28.0625 C 65.351562 27.871094 65.570312 27.726562 65.820312 27.621094 C 66.070312 27.519531 66.332031 27.464844 66.601562 27.464844 C 66.871094 27.464844 67.132812 27.519531 67.382812 27.621094 C 67.628906 27.726562 67.851562 27.871094 68.042969 28.0625 C 68.234375 28.253906 68.382812 28.476562 68.484375 28.726562 C 68.589844 28.976562 68.640625 29.234375 68.640625 29.503906 Z M 68.640625 29.503906 " fill-opacity="1" fill-rule="nonzero"/><g clip-path="url(#8a8640628b)"><path fill="#ffffff" d="M -31.863281 10.28125 L 25.515625 10.28125 L 25.515625 70.125 L -31.863281 70.125 Z M -31.863281 10.28125 " fill-opacity="1" fill-rule="nonzero"/></g><g clip-path="url(#56671ea79e)"><g clip-path="url(#3170e39c29)"><g clip-path="url(#e352cabc75)"><path fill="#00b2b2" d="M 30.210938 8.785156 L 45.355469 60.300781 L 12.136719 70.066406 L -3.007812 18.550781 Z M 30.210938 8.785156 " fill-opacity="1" fill-rule="nonzero"/></g></g></g><g fill="#06606a" fill-opacity="1"><g transform="translate(364.990909, 270.366445)"><g><path d="M 4.296875 0 C 3.722656 0 3.21875 -0.210938 2.78125 -0.640625 C 2.351562 -1.066406 2.140625 -1.566406 2.140625 -2.140625 C 2.140625 -2.503906 2.175781 -2.898438 2.25 -3.328125 L 28.859375 -72.734375 C 29.140625 -73.453125 29.53125 -74.023438 30.03125 -74.453125 C 30.539062 -74.878906 31.296875 -75.09375 32.296875 -75.09375 L 39.59375 -75.09375 C 40.59375 -75.09375 41.34375 -74.878906 41.84375 -74.453125 C 42.34375 -74.023438 42.734375 -73.453125 43.015625 -72.734375 L 69.515625 -3.328125 C 69.660156 -2.898438 69.734375 -2.503906 69.734375 -2.140625 C 69.734375 -1.566406 69.519531 -1.066406 69.09375 -0.640625 C 68.664062 -0.210938 68.164062 0 67.59375 0 L 62.109375 0 C 61.253906 0 60.628906 -0.210938 60.234375 -0.640625 C 59.835938 -1.066406 59.570312 -1.460938 59.4375 -1.828125 L 53.53125 -17.0625 L 18.34375 -17.0625 L 12.4375 -1.828125 C 12.375 -1.460938 12.125 -1.066406 11.6875 -0.640625 C 11.257812 -0.210938 10.617188 0 9.765625 0 Z M 21.453125 -26.28125 L 50.421875 -26.28125 L 35.9375 -64.375 Z M 21.453125 -26.28125 "/></g></g></g><g fill="#06606a" fill-opacity="1"><g transform="translate(456.500176, 270.366445)"><g><path d="M 57.71875 6.96875 C 56.789062 6.96875 56.039062 6.664062 55.46875 6.0625 C 54.894531 5.457031 54.425781 4.9375 54.0625 4.5 L 49.671875 -1.5 C 45.804688 0.21875 41.335938 1.078125 36.265625 1.078125 C 30.179688 1.078125 24.957031 0.0234375 20.59375 -2.078125 C 16.226562 -4.191406 12.847656 -7.445312 10.453125 -11.84375 C 8.054688 -16.25 6.753906 -21.773438 6.546875 -28.421875 C 6.472656 -31.578125 6.4375 -34.601562 6.4375 -37.5 C 6.4375 -40.394531 6.472656 -43.414062 6.546875 -46.5625 C 6.753906 -53.144531 8.109375 -58.632812 10.609375 -63.03125 C 13.117188 -67.425781 16.570312 -70.710938 20.96875 -72.890625 C 25.375 -75.078125 30.472656 -76.171875 36.265625 -76.171875 C 42.128906 -76.171875 47.257812 -75.078125 51.65625 -72.890625 C 56.050781 -70.710938 59.5 -67.425781 62 -63.03125 C 64.507812 -58.632812 65.835938 -53.144531 65.984375 -46.5625 C 66.117188 -43.414062 66.1875 -40.394531 66.1875 -37.5 C 66.1875 -34.601562 66.117188 -31.578125 65.984375 -28.421875 C 65.617188 -18.628906 63.039062 -11.300781 58.25 -6.4375 L 65.328125 3.640625 C 65.398438 3.710938 65.472656 3.835938 65.546875 4.015625 C 65.617188 4.203125 65.65625 4.472656 65.65625 4.828125 C 65.726562 5.398438 65.546875 5.898438 65.109375 6.328125 C 64.679688 6.753906 64.148438 6.96875 63.515625 6.96875 Z M 36.265625 -8.046875 C 41.703125 -8.046875 46.171875 -9.691406 49.671875 -12.984375 C 53.171875 -16.273438 55.066406 -21.601562 55.359375 -28.96875 C 55.503906 -32.1875 55.578125 -35.0625 55.578125 -37.59375 C 55.578125 -40.132812 55.503906 -42.976562 55.359375 -46.125 C 55.210938 -51.0625 54.296875 -55.066406 52.609375 -58.140625 C 50.929688 -61.222656 48.695312 -63.476562 45.90625 -64.90625 C 43.125 -66.332031 39.910156 -67.046875 36.265625 -67.046875 C 32.753906 -67.046875 29.585938 -66.332031 26.765625 -64.90625 C 23.941406 -63.476562 21.707031 -61.222656 20.0625 -58.140625 C 18.414062 -55.066406 17.484375 -51.0625 17.265625 -46.125 C 17.203125 -42.976562 17.171875 -40.132812 17.171875 -37.59375 C 17.171875 -35.0625 17.203125 -32.1875 17.265625 -28.96875 C 17.554688 -21.601562 19.453125 -16.273438 22.953125 -12.984375 C 26.460938 -9.691406 30.898438 -8.046875 36.265625 -8.046875 Z M 36.265625 -8.046875 "/></g></g></g><g fill="#06606a" fill-opacity="1"><g transform="translate(548.76038, 270.366445)"><g><path d="M 37.65625 1.078125 C 31.644531 1.078125 26.472656 0.00390625 22.140625 -2.140625 C 17.816406 -4.285156 14.492188 -7.554688 12.171875 -11.953125 C 9.847656 -16.359375 8.6875 -22.03125 8.6875 -28.96875 L 8.6875 -72.515625 C 8.6875 -73.304688 8.898438 -73.929688 9.328125 -74.390625 C 9.765625 -74.859375 10.375 -75.09375 11.15625 -75.09375 L 16.625 -75.09375 C 17.414062 -75.09375 18.039062 -74.859375 18.5 -74.390625 C 18.96875 -73.929688 19.203125 -73.304688 19.203125 -72.515625 L 19.203125 -28.75 C 19.203125 -21.738281 20.847656 -16.550781 24.140625 -13.1875 C 27.429688 -9.832031 31.9375 -8.15625 37.65625 -8.15625 C 43.300781 -8.15625 47.785156 -9.832031 51.109375 -13.1875 C 54.441406 -16.550781 56.109375 -21.738281 56.109375 -28.75 L 56.109375 -72.515625 C 56.109375 -73.304688 56.335938 -73.929688 56.796875 -74.390625 C 57.265625 -74.859375 57.859375 -75.09375 58.578125 -75.09375 L 64.15625 -75.09375 C 64.875 -75.09375 65.460938 -74.859375 65.921875 -74.390625 C 66.390625 -73.929688 66.625 -73.304688 66.625 -72.515625 L 66.625 -28.96875 C 66.625 -22.03125 65.457031 -16.359375 63.125 -11.953125 C 60.800781 -7.554688 57.492188 -4.285156 53.203125 -2.140625 C 48.921875 0.00390625 43.738281 1.078125 37.65625 1.078125 Z M 37.65625 1.078125 "/></g></g></g><g fill="#06606a" fill-opacity="1"><g transform="translate(643.595238, 270.366445)"><g><path d="M 4.296875 0 C 3.722656 0 3.21875 -0.210938 2.78125 -0.640625 C 2.351562 -1.066406 2.140625 -1.566406 2.140625 -2.140625 C 2.140625 -2.503906 2.175781 -2.898438 2.25 -3.328125 L 28.859375 -72.734375 C 29.140625 -73.453125 29.53125 -74.023438 30.03125 -74.453125 C 30.539062 -74.878906 31.296875 -75.09375 32.296875 -75.09375 L 39.59375 -75.09375 C 40.59375 -75.09375 41.34375 -74.878906 41.84375 -74.453125 C 42.34375 -74.023438 42.734375 -73.453125 43.015625 -72.734375 L 69.515625 -3.328125 C 69.660156 -2.898438 69.734375 -2.503906 69.734375 -2.140625 C 69.734375 -1.566406 69.519531 -1.066406 69.09375 -0.640625 C 68.664062 -0.210938 68.164062 0 67.59375 0 L 62.109375 0 C 61.253906 0 60.628906 -0.210938 60.234375 -0.640625 C 59.835938 -1.066406 59.570312 -1.460938 59.4375 -1.828125 L 53.53125 -17.0625 L 18.34375 -17.0625 L 12.4375 -1.828125 C 12.375 -1.460938 12.125 -1.066406 11.6875 -0.640625 C 11.257812 -0.210938 10.617188 0 9.765625 0 Z M 21.453125 -26.28125 L 50.421875 -26.28125 L 35.9375 -64.375 Z M 21.453125 -26.28125 "/></g></g></g><g fill="#06606a" fill-opacity="1"><g transform="translate(735.104492, 270.366445)"><g><path d="M 11.796875 0 C 11.015625 0 10.40625 -0.226562 9.96875 -0.6875 C 9.539062 -1.15625 9.328125 -1.75 9.328125 -2.46875 L 9.328125 -72.515625 C 9.328125 -73.304688 9.539062 -73.929688 9.96875 -74.390625 C 10.40625 -74.859375 11.015625 -75.09375 11.796875 -75.09375 L 37.984375 -75.09375 C 46.054688 -75.09375 52.453125 -73.195312 57.171875 -69.40625 C 61.898438 -65.613281 64.265625 -60 64.265625 -52.5625 C 64.265625 -47.0625 62.882812 -42.578125 60.125 -39.109375 C 57.375 -35.640625 53.640625 -33.222656 48.921875 -31.859375 L 65.4375 -3.328125 C 65.65625 -2.898438 65.765625 -2.503906 65.765625 -2.140625 C 65.765625 -1.566406 65.53125 -1.066406 65.0625 -0.640625 C 64.601562 -0.210938 64.085938 0 63.515625 0 L 58.359375 0 C 57.140625 0 56.242188 -0.320312 55.671875 -0.96875 C 55.109375 -1.613281 54.609375 -2.253906 54.171875 -2.890625 L 38.625 -30.140625 L 19.84375 -30.140625 L 19.84375 -2.46875 C 19.84375 -1.75 19.609375 -1.15625 19.140625 -0.6875 C 18.679688 -0.226562 18.054688 0 17.265625 0 Z M 19.84375 -39.265625 L 37.546875 -39.265625 C 42.910156 -39.265625 46.914062 -40.390625 49.5625 -42.640625 C 52.207031 -44.898438 53.53125 -48.242188 53.53125 -52.671875 C 53.53125 -57.035156 52.222656 -60.359375 49.609375 -62.640625 C 47.003906 -64.929688 42.984375 -66.078125 37.546875 -66.078125 L 19.84375 -66.078125 Z M 19.84375 -39.265625 "/></g></g></g><g fill="#06606a" fill-opacity="1"><g transform="translate(825.004595, 270.366445)"><g><path d="M 11.796875 0 C 11.015625 0 10.40625 -0.226562 9.96875 -0.6875 C 9.539062 -1.15625 9.328125 -1.75 9.328125 -2.46875 L 9.328125 -72.625 C 9.328125 -73.34375 9.539062 -73.929688 9.96875 -74.390625 C 10.40625 -74.859375 11.015625 -75.09375 11.796875 -75.09375 L 17.484375 -75.09375 C 18.273438 -75.09375 18.882812 -74.859375 19.3125 -74.390625 C 19.738281 -73.929688 19.953125 -73.34375 19.953125 -72.625 L 19.953125 -2.46875 C 19.953125 -1.75 19.738281 -1.15625 19.3125 -0.6875 C 18.882812 -0.226562 18.273438 0 17.484375 0 Z M 11.796875 0 "/></g></g></g><g fill="#06606a" fill-opacity="1"><g transform="translate(873.924681, 270.366445)"><g><path d="M 37.65625 1.078125 C 31.644531 1.078125 26.472656 0.00390625 22.140625 -2.140625 C 17.816406 -4.285156 14.492188 -7.554688 12.171875 -11.953125 C 9.847656 -16.359375 8.6875 -22.03125 8.6875 -28.96875 L 8.6875 -72.515625 C 8.6875 -73.304688 8.898438 -73.929688 9.328125 -74.390625 C 9.765625 -74.859375 10.375 -75.09375 11.15625 -75.09375 L 16.625 -75.09375 C 17.414062 -75.09375 18.039062 -74.859375 18.5 -74.390625 C 18.96875 -73.929688 19.203125 -73.304688 19.203125 -72.515625 L 19.203125 -28.75 C 19.203125 -21.738281 20.847656 -16.550781 24.140625 -13.1875 C 27.429688 -9.832031 31.9375 -8.15625 37.65625 -8.15625 C 43.300781 -8.15625 47.785156 -9.832031 51.109375 -13.1875 C 54.441406 -16.550781 56.109375 -21.738281 56.109375 -28.75 L 56.109375 -72.515625 C 56.109375 -73.304688 56.335938 -73.929688 56.796875 -74.390625 C 57.265625 -74.859375 57.859375 -75.09375 58.578125 -75.09375 L 64.15625 -75.09375 C 64.875 -75.09375 65.460938 -74.859375 65.921875 -74.390625 C 66.390625 -73.929688 66.625 -73.304688 66.625 -72.515625 L 66.625 -28.96875 C 66.625 -22.03125 65.457031 -16.359375 63.125 -11.953125 C 60.800781 -7.554688 57.492188 -4.285156 53.203125 -2.140625 C 48.921875 0.00390625 43.738281 1.078125 37.65625 1.078125 Z M 37.65625 1.078125 "/></g></g></g><g fill="#06606a" fill-opacity="1"><g transform="translate(968.759564, 270.366445)"><g><path d="M 11.796875 0 C 11.085938 0 10.5 -0.226562 10.03125 -0.6875 C 9.5625 -1.15625 9.328125 -1.75 9.328125 -2.46875 L 9.328125 -72.515625 C 9.328125 -73.304688 9.5625 -73.929688 10.03125 -74.390625 C 10.5 -74.859375 11.085938 -75.09375 11.796875 -75.09375 L 17.171875 -75.09375 C 18.023438 -75.09375 18.664062 -74.878906 19.09375 -74.453125 C 19.519531 -74.023438 19.804688 -73.664062 19.953125 -73.375 L 42.59375 -30.03125 L 65.4375 -73.375 C 65.582031 -73.664062 65.851562 -74.023438 66.25 -74.453125 C 66.644531 -74.878906 67.269531 -75.09375 68.125 -75.09375 L 73.375 -75.09375 C 74.164062 -75.09375 74.789062 -74.859375 75.25 -74.390625 C 75.71875 -73.929688 75.953125 -73.304688 75.953125 -72.515625 L 75.953125 -2.46875 C 75.953125 -1.75 75.71875 -1.15625 75.25 -0.6875 C 74.789062 -0.226562 74.164062 0 73.375 0 L 68.125 0 C 67.40625 0 66.8125 -0.226562 66.34375 -0.6875 C 65.882812 -1.15625 65.65625 -1.75 65.65625 -2.46875 L 65.65625 -55.25 L 47.734375 -20.28125 C 47.453125 -19.5625 47.023438 -19.003906 46.453125 -18.609375 C 45.878906 -18.210938 45.164062 -18.015625 44.3125 -18.015625 L 40.984375 -18.015625 C 40.054688 -18.015625 39.335938 -18.210938 38.828125 -18.609375 C 38.328125 -19.003906 37.898438 -19.5625 37.546875 -20.28125 L 19.53125 -55.25 L 19.53125 -2.46875 C 19.53125 -1.75 19.296875 -1.15625 18.828125 -0.6875 C 18.359375 -0.226562 17.769531 0 17.0625 0 Z M 11.796875 0 "/></g></g></g><g fill="#037f8c" fill-opacity="0.3804"><g transform="translate(279.702973, 181.484869)"><g><path d="M 29.015625 -39.109375 C 29.015625 -37.773438 29.03125 -36.144531 29.0625 -34.21875 C 29.101562 -32.289062 29.265625 -30.328125 29.546875 -28.328125 C 29.828125 -26.335938 30.332031 -24.535156 31.0625 -22.921875 C 31.800781 -21.304688 32.875 -20.113281 34.28125 -19.34375 C 35.257812 -18.851562 36.304688 -18.519531 37.421875 -18.34375 C 38.546875 -18.164062 39.671875 -18.078125 40.796875 -18.078125 C 43.242188 -18.078125 45.640625 -18.113281 47.984375 -18.1875 C 50.335938 -18.257812 52.707031 -18.296875 55.09375 -18.296875 C 58.382812 -18.296875 60.03125 -16.648438 60.03125 -13.359375 C 60.03125 -12.023438 59.890625 -10.65625 59.609375 -9.25 C 59.328125 -7.851562 58.695312 -6.660156 57.71875 -5.671875 C 56.101562 -3.921875 54.066406 -2.75 51.609375 -2.15625 C 49.160156 -1.5625 46.816406 -1.265625 44.578125 -1.265625 C 42.191406 -1.265625 39.382812 -1.242188 36.15625 -1.203125 C 32.9375 -1.171875 29.695312 -1.328125 26.4375 -1.671875 C 23.175781 -2.023438 20.160156 -2.742188 17.390625 -3.828125 C 14.628906 -4.921875 12.476562 -6.585938 10.9375 -8.828125 C 9.8125 -10.441406 9.003906 -12.160156 8.515625 -13.984375 C 8.023438 -15.804688 7.707031 -17.664062 7.5625 -19.5625 C 7.351562 -22.363281 7.210938 -25.164062 7.140625 -27.96875 C 7.078125 -30.769531 7.046875 -33.570312 7.046875 -36.375 C 7.046875 -37.78125 7.0625 -39.65625 7.09375 -42 C 7.132812 -44.351562 7.207031 -46.894531 7.3125 -49.625 C 7.414062 -52.363281 7.570312 -55.082031 7.78125 -57.78125 C 7.988281 -60.476562 8.300781 -62.910156 8.71875 -65.078125 C 9.144531 -67.253906 9.671875 -68.90625 10.296875 -70.03125 C 11.566406 -72.269531 13.179688 -73.671875 15.140625 -74.234375 C 17.097656 -74.796875 19.269531 -75.078125 21.65625 -75.078125 C 23.625 -75.078125 25.148438 -74.359375 26.234375 -72.921875 C 27.316406 -71.484375 28.101562 -69.675781 28.59375 -67.5 C 29.082031 -65.320312 29.394531 -63.179688 29.53125 -61.078125 C 29.675781 -58.984375 29.75 -57.234375 29.75 -55.828125 C 29.75 -53.929688 29.710938 -52.035156 29.640625 -50.140625 C 29.578125 -48.253906 29.472656 -46.363281 29.328125 -44.46875 C 29.265625 -43.5625 29.195312 -42.671875 29.125 -41.796875 C 29.050781 -40.921875 29.015625 -40.023438 29.015625 -39.109375 Z M 29.015625 -39.109375 "/></g></g></g><g fill="#037f8c" fill-opacity="0.3804"><g transform="translate(353.510849, 181.484869)"><g><path d="M 18.078125 -2 C 15.835938 -2 13.820312 -2.082031 12.03125 -2.25 C 10.25 -2.425781 8.832031 -3.078125 7.78125 -4.203125 C 6.726562 -5.328125 6.203125 -7.289062 6.203125 -10.09375 C 6.203125 -11.84375 6.585938 -14.46875 7.359375 -17.96875 C 8.128906 -21.476562 9.179688 -25.472656 10.515625 -29.953125 C 11.847656 -34.441406 13.351562 -39.070312 15.03125 -43.84375 C 16.71875 -48.613281 18.4375 -53.097656 20.1875 -57.296875 C 21.9375 -61.503906 23.648438 -65.097656 25.328125 -68.078125 C 27.015625 -71.054688 28.523438 -73 29.859375 -73.90625 C 31.046875 -74.75 32.21875 -75.238281 33.375 -75.375 C 34.53125 -75.519531 35.8125 -75.59375 37.21875 -75.59375 C 39.457031 -75.59375 41.296875 -75.363281 42.734375 -74.90625 C 44.171875 -74.457031 45.628906 -73.320312 47.109375 -71.5 C 48.160156 -70.164062 49.421875 -67.972656 50.890625 -64.921875 C 52.359375 -61.867188 53.878906 -58.273438 55.453125 -54.140625 C 57.035156 -50.003906 58.597656 -45.691406 60.140625 -41.203125 C 61.679688 -36.722656 63.066406 -32.363281 64.296875 -28.125 C 65.523438 -23.882812 66.503906 -20.097656 67.234375 -16.765625 C 67.972656 -13.441406 68.34375 -10.898438 68.34375 -9.140625 C 68.34375 -7.316406 67.867188 -5.914062 66.921875 -4.9375 C 65.972656 -3.957031 64.742188 -3.253906 63.234375 -2.828125 C 61.734375 -2.410156 60.175781 -2.148438 58.5625 -2.046875 C 56.945312 -1.941406 55.507812 -1.890625 54.25 -1.890625 C 52.144531 -1.890625 50.722656 -2.222656 49.984375 -2.890625 C 49.253906 -3.554688 48.835938 -4.394531 48.734375 -5.40625 C 48.628906 -6.425781 48.554688 -7.53125 48.515625 -8.71875 C 48.484375 -9.914062 48.148438 -11.019531 47.515625 -12.03125 C 46.890625 -13.050781 45.679688 -13.894531 43.890625 -14.5625 C 42.109375 -15.226562 39.394531 -15.5625 35.75 -15.5625 C 32.738281 -15.5625 30.546875 -15.226562 29.171875 -14.5625 C 27.804688 -13.894531 26.894531 -13.050781 26.4375 -12.03125 C 25.988281 -11.019531 25.742188 -9.9375 25.703125 -8.78125 C 25.671875 -7.625 25.53125 -6.535156 25.28125 -5.515625 C 25.039062 -4.503906 24.394531 -3.664062 23.34375 -3 C 22.289062 -2.332031 20.535156 -2 18.078125 -2 Z M 36.375 -30.703125 L 38.59375 -30.703125 C 39.632812 -30.703125 40.503906 -31 41.203125 -31.59375 C 41.910156 -32.1875 42.265625 -33.046875 42.265625 -34.171875 C 42.265625 -34.660156 42.160156 -35.585938 41.953125 -36.953125 C 41.742188 -38.316406 41.460938 -39.859375 41.109375 -41.578125 C 40.753906 -43.296875 40.367188 -44.976562 39.953125 -46.625 C 39.535156 -48.269531 39.0625 -49.632812 38.53125 -50.71875 C 38.007812 -51.8125 37.503906 -52.359375 37.015625 -52.359375 C 36.585938 -52.359375 36.128906 -51.8125 35.640625 -50.71875 C 35.148438 -49.632812 34.675781 -48.269531 34.21875 -46.625 C 33.769531 -44.976562 33.351562 -43.28125 32.96875 -41.53125 C 32.582031 -39.78125 32.28125 -38.21875 32.0625 -36.84375 C 31.851562 -35.476562 31.75 -34.550781 31.75 -34.0625 C 31.75 -32.664062 32.222656 -31.753906 33.171875 -31.328125 C 34.117188 -30.910156 35.1875 -30.703125 36.375 -30.703125 Z M 36.375 -30.703125 "/></g></g></g><g fill="#037f8c" fill-opacity="0.3804"><g transform="translate(436.255468, 181.484869)"><g><path d="M 7.046875 -33.015625 L 7.046875 -44.375 C 7.046875 -45.695312 7.078125 -47.445312 7.140625 -49.625 C 7.210938 -51.800781 7.351562 -54.148438 7.5625 -56.671875 C 7.78125 -59.191406 8.132812 -61.644531 8.625 -64.03125 C 9.113281 -66.414062 9.796875 -68.5 10.671875 -70.28125 C 11.546875 -72.070312 12.648438 -73.316406 13.984375 -74.015625 C 15.453125 -74.722656 17.460938 -75.25 20.015625 -75.59375 C 22.578125 -75.945312 25.191406 -76.175781 27.859375 -76.28125 C 30.523438 -76.382812 32.695312 -76.4375 34.375 -76.4375 C 38.375 -76.4375 42.316406 -75.875 46.203125 -74.75 C 50.097656 -73.632812 53.617188 -71.953125 56.765625 -69.703125 C 59.921875 -67.460938 62.445312 -64.660156 64.34375 -61.296875 C 66.238281 -57.929688 67.1875 -54.003906 67.1875 -49.515625 C 67.1875 -44.609375 66.304688 -40.613281 64.546875 -37.53125 C 62.796875 -34.445312 60.535156 -32.007812 57.765625 -30.21875 C 55.003906 -28.4375 52.046875 -27.160156 48.890625 -26.390625 C 45.734375 -25.617188 42.703125 -25.109375 39.796875 -24.859375 C 36.890625 -24.617188 34.453125 -24.460938 32.484375 -24.390625 C 30.523438 -24.316406 29.367188 -24.109375 29.015625 -23.765625 C 28.734375 -23.410156 28.503906 -22.757812 28.328125 -21.8125 C 28.160156 -20.863281 28.054688 -19.878906 28.015625 -18.859375 C 27.984375 -17.847656 27.96875 -17.097656 27.96875 -16.609375 C 27.96875 -15.273438 28.019531 -13.957031 28.125 -12.65625 C 28.226562 -11.363281 28.28125 -10.054688 28.28125 -8.734375 C 28.28125 -6.484375 27.875 -4.757812 27.0625 -3.5625 C 26.257812 -2.375 24.632812 -1.78125 22.1875 -1.78125 C 20.851562 -1.78125 19.46875 -1.847656 18.03125 -1.984375 C 16.59375 -2.128906 15.242188 -2.445312 13.984375 -2.9375 C 12.648438 -3.5 11.5625 -4.671875 10.71875 -6.453125 C 9.882812 -8.242188 9.203125 -10.382812 8.671875 -12.875 C 8.148438 -15.363281 7.78125 -17.921875 7.5625 -20.546875 C 7.351562 -23.179688 7.210938 -25.617188 7.140625 -27.859375 C 7.078125 -30.109375 7.046875 -31.828125 7.046875 -33.015625 Z M 27.96875 -56.671875 L 27.96875 -44.46875 C 27.96875 -41.738281 28.472656 -40.054688 29.484375 -39.421875 C 30.503906 -38.796875 32.273438 -38.484375 34.796875 -38.484375 C 38.515625 -38.484375 41.546875 -39.671875 43.890625 -42.046875 C 46.242188 -44.429688 47.421875 -47.445312 47.421875 -51.09375 C 47.421875 -53.40625 46.734375 -55.296875 45.359375 -56.765625 C 43.992188 -58.242188 42.3125 -59.347656 40.3125 -60.078125 C 38.320312 -60.816406 36.3125 -61.1875 34.28125 -61.1875 L 31.640625 -61.1875 C 30.171875 -61.1875 29.207031 -60.726562 28.75 -59.8125 C 28.300781 -58.90625 28.039062 -57.859375 27.96875 -56.671875 Z M 27.96875 -56.671875 "/></g></g></g><g fill="#037f8c" fill-opacity="0.3804"><g transform="translate(513.743175, 181.484869)"><g><path d="M 28.171875 -10.515625 C 28.171875 -8.898438 28.066406 -7.425781 27.859375 -6.09375 C 27.648438 -4.757812 27.109375 -3.707031 26.234375 -2.9375 C 25.359375 -2.164062 23.9375 -1.78125 21.96875 -1.78125 C 20.644531 -1.78125 19.28125 -1.847656 17.875 -1.984375 C 16.46875 -2.128906 15.132812 -2.445312 13.875 -2.9375 C 12.40625 -3.570312 11.210938 -5.023438 10.296875 -7.296875 C 9.390625 -9.578125 8.707031 -12.3125 8.25 -15.5 C 7.789062 -18.695312 7.472656 -21.957031 7.296875 -25.28125 C 7.128906 -28.613281 7.046875 -31.664062 7.046875 -34.4375 C 7.046875 -37.207031 7.046875 -39.289062 7.046875 -40.6875 C 7.046875 -44.332031 7.148438 -47.976562 7.359375 -51.625 C 7.566406 -55.269531 7.953125 -58.878906 8.515625 -62.453125 C 8.796875 -63.921875 9.25 -65.707031 9.875 -67.8125 C 10.507812 -69.914062 11.390625 -71.457031 12.515625 -72.4375 C 13.703125 -73.414062 15.363281 -74.1875 17.5 -74.75 C 19.644531 -75.3125 21.957031 -75.710938 24.4375 -75.953125 C 26.925781 -76.203125 29.328125 -76.363281 31.640625 -76.4375 C 33.953125 -76.507812 35.882812 -76.546875 37.4375 -76.546875 C 41.007812 -76.546875 44.53125 -76.019531 48 -74.96875 C 51.46875 -73.914062 54.640625 -72.351562 57.515625 -70.28125 C 60.390625 -68.21875 62.679688 -65.675781 64.390625 -62.65625 C 66.109375 -59.644531 66.96875 -56.175781 66.96875 -52.25 C 66.96875 -50.914062 66.828125 -49.582031 66.546875 -48.25 C 66.273438 -46.925781 65.753906 -45.664062 64.984375 -44.46875 C 63.859375 -42.644531 62.539062 -40.976562 61.03125 -39.46875 C 59.53125 -37.96875 57.867188 -36.625 56.046875 -35.4375 C 55.828125 -35.363281 55.4375 -35.113281 54.875 -34.6875 C 54.320312 -34.269531 54.046875 -33.921875 54.046875 -33.640625 C 54.046875 -33.429688 54.289062 -33.03125 54.78125 -32.4375 C 55.269531 -31.84375 55.8125 -31.265625 56.40625 -30.703125 C 57 -30.140625 57.398438 -29.753906 57.609375 -29.546875 C 58.390625 -28.703125 59.25 -27.226562 60.1875 -25.125 C 61.132812 -23.019531 62.046875 -20.707031 62.921875 -18.1875 C 63.796875 -15.664062 64.515625 -13.28125 65.078125 -11.03125 C 65.640625 -8.789062 65.921875 -7.078125 65.921875 -5.890625 C 65.921875 -4.972656 65.359375 -4.234375 64.234375 -3.671875 C 63.117188 -3.117188 61.769531 -2.703125 60.1875 -2.421875 C 58.613281 -2.140625 57.085938 -1.945312 55.609375 -1.84375 C 54.140625 -1.738281 53.09375 -1.6875 52.46875 -1.6875 C 50.21875 -1.6875 48.5 -2.296875 47.3125 -3.515625 C 46.125 -4.742188 45.226562 -6.320312 44.625 -8.25 C 44.03125 -10.175781 43.488281 -12.242188 43 -14.453125 C 42.507812 -16.660156 41.84375 -18.726562 41 -20.65625 C 40.164062 -22.582031 38.941406 -24.160156 37.328125 -25.390625 C 35.710938 -26.617188 33.429688 -27.234375 30.484375 -27.234375 C 29.648438 -27.234375 29.039062 -26.617188 28.65625 -25.390625 C 28.269531 -24.160156 28.039062 -22.828125 27.96875 -21.390625 C 27.894531 -19.953125 27.859375 -18.921875 27.859375 -18.296875 C 27.859375 -17.035156 27.910156 -15.753906 28.015625 -14.453125 C 28.117188 -13.160156 28.171875 -11.847656 28.171875 -10.515625 Z M 27.96875 -55.9375 L 27.96875 -46.890625 C 27.96875 -45.910156 28.109375 -44.820312 28.390625 -43.625 C 28.671875 -42.4375 29.476562 -41.84375 30.8125 -41.84375 C 33.40625 -41.84375 35.820312 -42.050781 38.0625 -42.46875 C 40.300781 -42.894531 42.140625 -43.828125 43.578125 -45.265625 C 45.015625 -46.703125 45.734375 -49 45.734375 -52.15625 C 45.734375 -54.039062 45.207031 -55.648438 44.15625 -56.984375 C 43.101562 -58.316406 41.753906 -59.347656 40.109375 -60.078125 C 38.460938 -60.816406 36.796875 -61.1875 35.109375 -61.1875 L 32.0625 -61.1875 C 30.457031 -61.1875 29.375 -60.660156 28.8125 -59.609375 C 28.25 -58.554688 27.96875 -57.332031 27.96875 -55.9375 Z M 27.96875 -55.9375 "/></g></g></g><g fill="#037f8c" fill-opacity="0.3804"><g transform="translate(594.385033, 181.484869)"><g><path d="M 18.078125 -2 C 15.835938 -2 13.820312 -2.082031 12.03125 -2.25 C 10.25 -2.425781 8.832031 -3.078125 7.78125 -4.203125 C 6.726562 -5.328125 6.203125 -7.289062 6.203125 -10.09375 C 6.203125 -11.84375 6.585938 -14.46875 7.359375 -17.96875 C 8.128906 -21.476562 9.179688 -25.472656 10.515625 -29.953125 C 11.847656 -34.441406 13.351562 -39.070312 15.03125 -43.84375 C 16.71875 -48.613281 18.4375 -53.097656 20.1875 -57.296875 C 21.9375 -61.503906 23.648438 -65.097656 25.328125 -68.078125 C 27.015625 -71.054688 28.523438 -73 29.859375 -73.90625 C 31.046875 -74.75 32.21875 -75.238281 33.375 -75.375 C 34.53125 -75.519531 35.8125 -75.59375 37.21875 -75.59375 C 39.457031 -75.59375 41.296875 -75.363281 42.734375 -74.90625 C 44.171875 -74.457031 45.628906 -73.320312 47.109375 -71.5 C 48.160156 -70.164062 49.421875 -67.972656 50.890625 -64.921875 C 52.359375 -61.867188 53.878906 -58.273438 55.453125 -54.140625 C 57.035156 -50.003906 58.597656 -45.691406 60.140625 -41.203125 C 61.679688 -36.722656 63.066406 -32.363281 64.296875 -28.125 C 65.523438 -23.882812 66.503906 -20.097656 67.234375 -16.765625 C 67.972656 -13.441406 68.34375 -10.898438 68.34375 -9.140625 C 68.34375 -7.316406 67.867188 -5.914062 66.921875 -4.9375 C 65.972656 -3.957031 64.742188 -3.253906 63.234375 -2.828125 C 61.734375 -2.410156 60.175781 -2.148438 58.5625 -2.046875 C 56.945312 -1.941406 55.507812 -1.890625 54.25 -1.890625 C 52.144531 -1.890625 50.722656 -2.222656 49.984375 -2.890625 C 49.253906 -3.554688 48.835938 -4.394531 48.734375 -5.40625 C 48.628906 -6.425781 48.554688 -7.53125 48.515625 -8.71875 C 48.484375 -9.914062 48.148438 -11.019531 47.515625 -12.03125 C 46.890625 -13.050781 45.679688 -13.894531 43.890625 -14.5625 C 42.109375 -15.226562 39.394531 -15.5625 35.75 -15.5625 C 32.738281 -15.5625 30.546875 -15.226562 29.171875 -14.5625 C 27.804688 -13.894531 26.894531 -13.050781 26.4375 -12.03125 C 25.988281 -11.019531 25.742188 -9.9375 25.703125 -8.78125 C 25.671875 -7.625 25.53125 -6.535156 25.28125 -5.515625 C 25.039062 -4.503906 24.394531 -3.664062 23.34375 -3 C 22.289062 -2.332031 20.535156 -2 18.078125 -2 Z M 36.375 -30.703125 L 38.59375 -30.703125 C 39.632812 -30.703125 40.503906 -31 41.203125 -31.59375 C 41.910156 -32.1875 42.265625 -33.046875 42.265625 -34.171875 C 42.265625 -34.660156 42.160156 -35.585938 41.953125 -36.953125 C 41.742188 -38.316406 41.460938 -39.859375 41.109375 -41.578125 C 40.753906 -43.296875 40.367188 -44.976562 39.953125 -46.625 C 39.535156 -48.269531 39.0625 -49.632812 38.53125 -50.71875 C 38.007812 -51.8125 37.503906 -52.359375 37.015625 -52.359375 C 36.585938 -52.359375 36.128906 -51.8125 35.640625 -50.71875 C 35.148438 -49.632812 34.675781 -48.269531 34.21875 -46.625 C 33.769531 -44.976562 33.351562 -43.28125 32.96875 -41.53125 C 32.582031 -39.78125 32.28125 -38.21875 32.0625 -36.84375 C 31.851562 -35.476562 31.75 -34.550781 31.75 -34.0625 C 31.75 -32.664062 32.222656 -31.753906 33.171875 -31.328125 C 34.117188 -30.910156 35.1875 -30.703125 36.375 -30.703125 Z M 36.375 -30.703125 "/></g></g></g><g fill="#037f8c" fill-opacity="0.3804"><g transform="translate(677.129658, 181.484869)"><g><path d="M 34.0625 -60.671875 C 32.175781 -60.671875 30.425781 -60.265625 28.8125 -59.453125 C 27.195312 -58.648438 26.390625 -57.128906 26.390625 -54.890625 C 26.390625 -53.128906 27.195312 -51.671875 28.8125 -50.515625 C 30.425781 -49.359375 32.507812 -48.320312 35.0625 -47.40625 C 37.625 -46.5 40.359375 -45.519531 43.265625 -44.46875 C 46.171875 -43.414062 48.898438 -42.082031 51.453125 -40.46875 C 54.015625 -38.863281 56.101562 -36.796875 57.71875 -34.265625 C 59.332031 -31.742188 60.140625 -28.554688 60.140625 -24.703125 C 60.140625 -19.734375 58.820312 -15.390625 56.1875 -11.671875 C 53.5625 -7.953125 50.164062 -5.09375 46 -3.09375 C 41.832031 -1.101562 37.363281 -0.109375 32.59375 -0.109375 C 29.09375 -0.109375 25.796875 -0.300781 22.703125 -0.6875 C 19.617188 -1.070312 16.90625 -1.894531 14.5625 -3.15625 C 12.21875 -4.414062 10.378906 -6.289062 9.046875 -8.78125 C 7.710938 -11.269531 7.046875 -14.613281 7.046875 -18.8125 C 7.046875 -19.3125 7.113281 -19.753906 7.25 -20.140625 C 7.394531 -20.523438 7.75 -20.71875 8.3125 -20.71875 C 9.914062 -20.71875 11.523438 -20.453125 13.140625 -19.921875 C 14.753906 -19.398438 16.332031 -18.894531 17.875 -18.40625 C 19.769531 -17.84375 21.695312 -17.316406 23.65625 -16.828125 C 25.613281 -16.335938 27.578125 -16.09375 29.546875 -16.09375 C 30.878906 -16.09375 32.207031 -16.265625 33.53125 -16.609375 C 34.863281 -16.960938 35.984375 -17.59375 36.890625 -18.5 C 37.804688 -19.414062 38.265625 -20.644531 38.265625 -22.1875 C 38.265625 -24.425781 37.460938 -26.109375 35.859375 -27.234375 C 34.523438 -28.210938 33.085938 -28.894531 31.546875 -29.28125 C 30.003906 -29.664062 28.460938 -30.066406 26.921875 -30.484375 C 24.328125 -31.253906 21.734375 -32.320312 19.140625 -33.6875 C 16.546875 -35.0625 14.160156 -36.710938 11.984375 -38.640625 C 9.816406 -40.566406 8.066406 -42.773438 6.734375 -45.265625 C 5.398438 -47.753906 4.734375 -50.46875 4.734375 -53.40625 C 4.734375 -57.257812 5.554688 -60.625 7.203125 -63.5 C 8.847656 -66.375 11.054688 -68.773438 13.828125 -70.703125 C 16.597656 -72.628906 19.664062 -74.066406 23.03125 -75.015625 C 26.394531 -75.960938 29.789062 -76.4375 33.21875 -76.4375 C 36.445312 -76.4375 39.515625 -76.332031 42.421875 -76.125 C 45.328125 -75.914062 47.921875 -75.316406 50.203125 -74.328125 C 52.484375 -73.347656 54.285156 -71.71875 55.609375 -69.4375 C 56.941406 -67.164062 57.609375 -64 57.609375 -59.9375 C 57.609375 -58.175781 56.703125 -57.296875 54.890625 -57.296875 C 53.347656 -57.296875 51.785156 -57.488281 50.203125 -57.875 C 48.628906 -58.257812 47.101562 -58.628906 45.625 -58.984375 C 43.738281 -59.398438 41.832031 -59.785156 39.90625 -60.140625 C 37.976562 -60.492188 36.03125 -60.671875 34.0625 -60.671875 Z M 34.0625 -60.671875 "/></g></g></g><g fill="#037f8c" fill-opacity="1"><g transform="translate(270.904389, 178.794867)"><g><path d="M 29.015625 -39.109375 C 29.015625 -37.773438 29.03125 -36.144531 29.0625 -34.21875 C 29.101562 -32.289062 29.265625 -30.328125 29.546875 -28.328125 C 29.828125 -26.335938 30.332031 -24.535156 31.0625 -22.921875 C 31.800781 -21.304688 32.875 -20.113281 34.28125 -19.34375 C 35.257812 -18.851562 36.304688 -18.519531 37.421875 -18.34375 C 38.546875 -18.164062 39.671875 -18.078125 40.796875 -18.078125 C 43.242188 -18.078125 45.640625 -18.113281 47.984375 -18.1875 C 50.335938 -18.257812 52.707031 -18.296875 55.09375 -18.296875 C 58.382812 -18.296875 60.03125 -16.648438 60.03125 -13.359375 C 60.03125 -12.023438 59.890625 -10.65625 59.609375 -9.25 C 59.328125 -7.851562 58.695312 -6.660156 57.71875 -5.671875 C 56.101562 -3.921875 54.066406 -2.75 51.609375 -2.15625 C 49.160156 -1.5625 46.816406 -1.265625 44.578125 -1.265625 C 42.191406 -1.265625 39.382812 -1.242188 36.15625 -1.203125 C 32.9375 -1.171875 29.695312 -1.328125 26.4375 -1.671875 C 23.175781 -2.023438 20.160156 -2.742188 17.390625 -3.828125 C 14.628906 -4.921875 12.476562 -6.585938 10.9375 -8.828125 C 9.8125 -10.441406 9.003906 -12.160156 8.515625 -13.984375 C 8.023438 -15.804688 7.707031 -17.664062 7.5625 -19.5625 C 7.351562 -22.363281 7.210938 -25.164062 7.140625 -27.96875 C 7.078125 -30.769531 7.046875 -33.570312 7.046875 -36.375 C 7.046875 -37.78125 7.0625 -39.65625 7.09375 -42 C 7.132812 -44.351562 7.207031 -46.894531 7.3125 -49.625 C 7.414062 -52.363281 7.570312 -55.082031 7.78125 -57.78125 C 7.988281 -60.476562 8.300781 -62.910156 8.71875 -65.078125 C 9.144531 -67.253906 9.671875 -68.90625 10.296875 -70.03125 C 11.566406 -72.269531 13.179688 -73.671875 15.140625 -74.234375 C 17.097656 -74.796875 19.269531 -75.078125 21.65625 -75.078125 C 23.625 -75.078125 25.148438 -74.359375 26.234375 -72.921875 C 27.316406 -71.484375 28.101562 -69.675781 28.59375 -67.5 C 29.082031 -65.320312 29.394531 -63.179688 29.53125 -61.078125 C 29.675781 -58.984375 29.75 -57.234375 29.75 -55.828125 C 29.75 -53.929688 29.710938 -52.035156 29.640625 -50.140625 C 29.578125 -48.253906 29.472656 -46.363281 29.328125 -44.46875 C 29.265625 -43.5625 29.195312 -42.671875 29.125 -41.796875 C 29.050781 -40.921875 29.015625 -40.023438 29.015625 -39.109375 Z M 29.015625 -39.109375 "/></g></g></g><g fill="#037f8c" fill-opacity="1"><g transform="translate(344.712265, 178.794867)"><g><path d="M 18.078125 -2 C 15.835938 -2 13.820312 -2.082031 12.03125 -2.25 C 10.25 -2.425781 8.832031 -3.078125 7.78125 -4.203125 C 6.726562 -5.328125 6.203125 -7.289062 6.203125 -10.09375 C 6.203125 -11.84375 6.585938 -14.46875 7.359375 -17.96875 C 8.128906 -21.476562 9.179688 -25.472656 10.515625 -29.953125 C 11.847656 -34.441406 13.351562 -39.070312 15.03125 -43.84375 C 16.71875 -48.613281 18.4375 -53.097656 20.1875 -57.296875 C 21.9375 -61.503906 23.648438 -65.097656 25.328125 -68.078125 C 27.015625 -71.054688 28.523438 -73 29.859375 -73.90625 C 31.046875 -74.75 32.21875 -75.238281 33.375 -75.375 C 34.53125 -75.519531 35.8125 -75.59375 37.21875 -75.59375 C 39.457031 -75.59375 41.296875 -75.363281 42.734375 -74.90625 C 44.171875 -74.457031 45.628906 -73.320312 47.109375 -71.5 C 48.160156 -70.164062 49.421875 -67.972656 50.890625 -64.921875 C 52.359375 -61.867188 53.878906 -58.273438 55.453125 -54.140625 C 57.035156 -50.003906 58.597656 -45.691406 60.140625 -41.203125 C 61.679688 -36.722656 63.066406 -32.363281 64.296875 -28.125 C 65.523438 -23.882812 66.503906 -20.097656 67.234375 -16.765625 C 67.972656 -13.441406 68.34375 -10.898438 68.34375 -9.140625 C 68.34375 -7.316406 67.867188 -5.914062 66.921875 -4.9375 C 65.972656 -3.957031 64.742188 -3.253906 63.234375 -2.828125 C 61.734375 -2.410156 60.175781 -2.148438 58.5625 -2.046875 C 56.945312 -1.941406 55.507812 -1.890625 54.25 -1.890625 C 52.144531 -1.890625 50.722656 -2.222656 49.984375 -2.890625 C 49.253906 -3.554688 48.835938 -4.394531 48.734375 -5.40625 C 48.628906 -6.425781 48.554688 -7.53125 48.515625 -8.71875 C 48.484375 -9.914062 48.148438 -11.019531 47.515625 -12.03125 C 46.890625 -13.050781 45.679688 -13.894531 43.890625 -14.5625 C 42.109375 -15.226562 39.394531 -15.5625 35.75 -15.5625 C 32.738281 -15.5625 30.546875 -15.226562 29.171875 -14.5625 C 27.804688 -13.894531 26.894531 -13.050781 26.4375 -12.03125 C 25.988281 -11.019531 25.742188 -9.9375 25.703125 -8.78125 C 25.671875 -7.625 25.53125 -6.535156 25.28125 -5.515625 C 25.039062 -4.503906 24.394531 -3.664062 23.34375 -3 C 22.289062 -2.332031 20.535156 -2 18.078125 -2 Z M 36.375 -30.703125 L 38.59375 -30.703125 C 39.632812 -30.703125 40.503906 -31 41.203125 -31.59375 C 41.910156 -32.1875 42.265625 -33.046875 42.265625 -34.171875 C 42.265625 -34.660156 42.160156 -35.585938 41.953125 -36.953125 C 41.742188 -38.316406 41.460938 -39.859375 41.109375 -41.578125 C 40.753906 -43.296875 40.367188 -44.976562 39.953125 -46.625 C 39.535156 -48.269531 39.0625 -49.632812 38.53125 -50.71875 C 38.007812 -51.8125 37.503906 -52.359375 37.015625 -52.359375 C 36.585938 -52.359375 36.128906 -51.8125 35.640625 -50.71875 C 35.148438 -49.632812 34.675781 -48.269531 34.21875 -46.625 C 33.769531 -44.976562 33.351562 -43.28125 32.96875 -41.53125 C 32.582031 -39.78125 32.28125 -38.21875 32.0625 -36.84375 C 31.851562 -35.476562 31.75 -34.550781 31.75 -34.0625 C 31.75 -32.664062 32.222656 -31.753906 33.171875 -31.328125 C 34.117188 -30.910156 35.1875 -30.703125 36.375 -30.703125 Z M 36.375 -30.703125 "/></g></g></g><g fill="#037f8c" fill-opacity="1"><g transform="translate(427.456884, 178.794867)"><g><path d="M 7.046875 -33.015625 L 7.046875 -44.375 C 7.046875 -45.695312 7.078125 -47.445312 7.140625 -49.625 C 7.210938 -51.800781 7.351562 -54.148438 7.5625 -56.671875 C 7.78125 -59.191406 8.132812 -61.644531 8.625 -64.03125 C 9.113281 -66.414062 9.796875 -68.5 10.671875 -70.28125 C 11.546875 -72.070312 12.648438 -73.316406 13.984375 -74.015625 C 15.453125 -74.722656 17.460938 -75.25 20.015625 -75.59375 C 22.578125 -75.945312 25.191406 -76.175781 27.859375 -76.28125 C 30.523438 -76.382812 32.695312 -76.4375 34.375 -76.4375 C 38.375 -76.4375 42.316406 -75.875 46.203125 -74.75 C 50.097656 -73.632812 53.617188 -71.953125 56.765625 -69.703125 C 59.921875 -67.460938 62.445312 -64.660156 64.34375 -61.296875 C 66.238281 -57.929688 67.1875 -54.003906 67.1875 -49.515625 C 67.1875 -44.609375 66.304688 -40.613281 64.546875 -37.53125 C 62.796875 -34.445312 60.535156 -32.007812 57.765625 -30.21875 C 55.003906 -28.4375 52.046875 -27.160156 48.890625 -26.390625 C 45.734375 -25.617188 42.703125 -25.109375 39.796875 -24.859375 C 36.890625 -24.617188 34.453125 -24.460938 32.484375 -24.390625 C 30.523438 -24.316406 29.367188 -24.109375 29.015625 -23.765625 C 28.734375 -23.410156 28.503906 -22.757812 28.328125 -21.8125 C 28.160156 -20.863281 28.054688 -19.878906 28.015625 -18.859375 C 27.984375 -17.847656 27.96875 -17.097656 27.96875 -16.609375 C 27.96875 -15.273438 28.019531 -13.957031 28.125 -12.65625 C 28.226562 -11.363281 28.28125 -10.054688 28.28125 -8.734375 C 28.28125 -6.484375 27.875 -4.757812 27.0625 -3.5625 C 26.257812 -2.375 24.632812 -1.78125 22.1875 -1.78125 C 20.851562 -1.78125 19.46875 -1.847656 18.03125 -1.984375 C 16.59375 -2.128906 15.242188 -2.445312 13.984375 -2.9375 C 12.648438 -3.5 11.5625 -4.671875 10.71875 -6.453125 C 9.882812 -8.242188 9.203125 -10.382812 8.671875 -12.875 C 8.148438 -15.363281 7.78125 -17.921875 7.5625 -20.546875 C 7.351562 -23.179688 7.210938 -25.617188 7.140625 -27.859375 C 7.078125 -30.109375 7.046875 -31.828125 7.046875 -33.015625 Z M 27.96875 -56.671875 L 27.96875 -44.46875 C 27.96875 -41.738281 28.472656 -40.054688 29.484375 -39.421875 C 30.503906 -38.796875 32.273438 -38.484375 34.796875 -38.484375 C 38.515625 -38.484375 41.546875 -39.671875 43.890625 -42.046875 C 46.242188 -44.429688 47.421875 -47.445312 47.421875 -51.09375 C 47.421875 -53.40625 46.734375 -55.296875 45.359375 -56.765625 C 43.992188 -58.242188 42.3125 -59.347656 40.3125 -60.078125 C 38.320312 -60.816406 36.3125 -61.1875 34.28125 -61.1875 L 31.640625 -61.1875 C 30.171875 -61.1875 29.207031 -60.726562 28.75 -59.8125 C 28.300781 -58.90625 28.039062 -57.859375 27.96875 -56.671875 Z M 27.96875 -56.671875 "/></g></g></g><g fill="#037f8c" fill-opacity="1"><g transform="translate(504.944591, 178.794867)"><g><path d="M 28.171875 -10.515625 C 28.171875 -8.898438 28.066406 -7.425781 27.859375 -6.09375 C 27.648438 -4.757812 27.109375 -3.707031 26.234375 -2.9375 C 25.359375 -2.164062 23.9375 -1.78125 21.96875 -1.78125 C 20.644531 -1.78125 19.28125 -1.847656 17.875 -1.984375 C 16.46875 -2.128906 15.132812 -2.445312 13.875 -2.9375 C 12.40625 -3.570312 11.210938 -5.023438 10.296875 -7.296875 C 9.390625 -9.578125 8.707031 -12.3125 8.25 -15.5 C 7.789062 -18.695312 7.472656 -21.957031 7.296875 -25.28125 C 7.128906 -28.613281 7.046875 -31.664062 7.046875 -34.4375 C 7.046875 -37.207031 7.046875 -39.289062 7.046875 -40.6875 C 7.046875 -44.332031 7.148438 -47.976562 7.359375 -51.625 C 7.566406 -55.269531 7.953125 -58.878906 8.515625 -62.453125 C 8.796875 -63.921875 9.25 -65.707031 9.875 -67.8125 C 10.507812 -69.914062 11.390625 -71.457031 12.515625 -72.4375 C 13.703125 -73.414062 15.363281 -74.1875 17.5 -74.75 C 19.644531 -75.3125 21.957031 -75.710938 24.4375 -75.953125 C 26.925781 -76.203125 29.328125 -76.363281 31.640625 -76.4375 C 33.953125 -76.507812 35.882812 -76.546875 37.4375 -76.546875 C 41.007812 -76.546875 44.53125 -76.019531 48 -74.96875 C 51.46875 -73.914062 54.640625 -72.351562 57.515625 -70.28125 C 60.390625 -68.21875 62.679688 -65.675781 64.390625 -62.65625 C 66.109375 -59.644531 66.96875 -56.175781 66.96875 -52.25 C 66.96875 -50.914062 66.828125 -49.582031 66.546875 -48.25 C 66.273438 -46.925781 65.753906 -45.664062 64.984375 -44.46875 C 63.859375 -42.644531 62.539062 -40.976562 61.03125 -39.46875 C 59.53125 -37.96875 57.867188 -36.625 56.046875 -35.4375 C 55.828125 -35.363281 55.4375 -35.113281 54.875 -34.6875 C 54.320312 -34.269531 54.046875 -33.921875 54.046875 -33.640625 C 54.046875 -33.429688 54.289062 -33.03125 54.78125 -32.4375 C 55.269531 -31.84375 55.8125 -31.265625 56.40625 -30.703125 C 57 -30.140625 57.398438 -29.753906 57.609375 -29.546875 C 58.390625 -28.703125 59.25 -27.226562 60.1875 -25.125 C 61.132812 -23.019531 62.046875 -20.707031 62.921875 -18.1875 C 63.796875 -15.664062 64.515625 -13.28125 65.078125 -11.03125 C 65.640625 -8.789062 65.921875 -7.078125 65.921875 -5.890625 C 65.921875 -4.972656 65.359375 -4.234375 64.234375 -3.671875 C 63.117188 -3.117188 61.769531 -2.703125 60.1875 -2.421875 C 58.613281 -2.140625 57.085938 -1.945312 55.609375 -1.84375 C 54.140625 -1.738281 53.09375 -1.6875 52.46875 -1.6875 C 50.21875 -1.6875 48.5 -2.296875 47.3125 -3.515625 C 46.125 -4.742188 45.226562 -6.320312 44.625 -8.25 C 44.03125 -10.175781 43.488281 -12.242188 43 -14.453125 C 42.507812 -16.660156 41.84375 -18.726562 41 -20.65625 C 40.164062 -22.582031 38.941406 -24.160156 37.328125 -25.390625 C 35.710938 -26.617188 33.429688 -27.234375 30.484375 -27.234375 C 29.648438 -27.234375 29.039062 -26.617188 28.65625 -25.390625 C 28.269531 -24.160156 28.039062 -22.828125 27.96875 -21.390625 C 27.894531 -19.953125 27.859375 -18.921875 27.859375 -18.296875 C 27.859375 -17.035156 27.910156 -15.753906 28.015625 -14.453125 C 28.117188 -13.160156 28.171875 -11.847656 28.171875 -10.515625 Z M 27.96875 -55.9375 L 27.96875 -46.890625 C 27.96875 -45.910156 28.109375 -44.820312 28.390625 -43.625 C 28.671875 -42.4375 29.476562 -41.84375 30.8125 -41.84375 C 33.40625 -41.84375 35.820312 -42.050781 38.0625 -42.46875 C 40.300781 -42.894531 42.140625 -43.828125 43.578125 -45.265625 C 45.015625 -46.703125 45.734375 -49 45.734375 -52.15625 C 45.734375 -54.039062 45.207031 -55.648438 44.15625 -56.984375 C 43.101562 -58.316406 41.753906 -59.347656 40.109375 -60.078125 C 38.460938 -60.816406 36.796875 -61.1875 35.109375 -61.1875 L 32.0625 -61.1875 C 30.457031 -61.1875 29.375 -60.660156 28.8125 -59.609375 C 28.25 -58.554688 27.96875 -57.332031 27.96875 -55.9375 Z M 27.96875 -55.9375 "/></g></g></g><g fill="#037f8c" fill-opacity="1"><g transform="translate(585.586449, 178.794867)"><g><path d="M 18.078125 -2 C 15.835938 -2 13.820312 -2.082031 12.03125 -2.25 C 10.25 -2.425781 8.832031 -3.078125 7.78125 -4.203125 C 6.726562 -5.328125 6.203125 -7.289062 6.203125 -10.09375 C 6.203125 -11.84375 6.585938 -14.46875 7.359375 -17.96875 C 8.128906 -21.476562 9.179688 -25.472656 10.515625 -29.953125 C 11.847656 -34.441406 13.351562 -39.070312 15.03125 -43.84375 C 16.71875 -48.613281 18.4375 -53.097656 20.1875 -57.296875 C 21.9375 -61.503906 23.648438 -65.097656 25.328125 -68.078125 C 27.015625 -71.054688 28.523438 -73 29.859375 -73.90625 C 31.046875 -74.75 32.21875 -75.238281 33.375 -75.375 C 34.53125 -75.519531 35.8125 -75.59375 37.21875 -75.59375 C 39.457031 -75.59375 41.296875 -75.363281 42.734375 -74.90625 C 44.171875 -74.457031 45.628906 -73.320312 47.109375 -71.5 C 48.160156 -70.164062 49.421875 -67.972656 50.890625 -64.921875 C 52.359375 -61.867188 53.878906 -58.273438 55.453125 -54.140625 C 57.035156 -50.003906 58.597656 -45.691406 60.140625 -41.203125 C 61.679688 -36.722656 63.066406 -32.363281 64.296875 -28.125 C 65.523438 -23.882812 66.503906 -20.097656 67.234375 -16.765625 C 67.972656 -13.441406 68.34375 -10.898438 68.34375 -9.140625 C 68.34375 -7.316406 67.867188 -5.914062 66.921875 -4.9375 C 65.972656 -3.957031 64.742188 -3.253906 63.234375 -2.828125 C 61.734375 -2.410156 60.175781 -2.148438 58.5625 -2.046875 C 56.945312 -1.941406 55.507812 -1.890625 54.25 -1.890625 C 52.144531 -1.890625 50.722656 -2.222656 49.984375 -2.890625 C 49.253906 -3.554688 48.835938 -4.394531 48.734375 -5.40625 C 48.628906 -6.425781 48.554688 -7.53125 48.515625 -8.71875 C 48.484375 -9.914062 48.148438 -11.019531 47.515625 -12.03125 C 46.890625 -13.050781 45.679688 -13.894531 43.890625 -14.5625 C 42.109375 -15.226562 39.394531 -15.5625 35.75 -15.5625 C 32.738281 -15.5625 30.546875 -15.226562 29.171875 -14.5625 C 27.804688 -13.894531 26.894531 -13.050781 26.4375 -12.03125 C 25.988281 -11.019531 25.742188 -9.9375 25.703125 -8.78125 C 25.671875 -7.625 25.53125 -6.535156 25.28125 -5.515625 C 25.039062 -4.503906 24.394531 -3.664062 23.34375 -3 C 22.289062 -2.332031 20.535156 -2 18.078125 -2 Z M 36.375 -30.703125 L 38.59375 -30.703125 C 39.632812 -30.703125 40.503906 -31 41.203125 -31.59375 C 41.910156 -32.1875 42.265625 -33.046875 42.265625 -34.171875 C 42.265625 -34.660156 42.160156 -35.585938 41.953125 -36.953125 C 41.742188 -38.316406 41.460938 -39.859375 41.109375 -41.578125 C 40.753906 -43.296875 40.367188 -44.976562 39.953125 -46.625 C 39.535156 -48.269531 39.0625 -49.632812 38.53125 -50.71875 C 38.007812 -51.8125 37.503906 -52.359375 37.015625 -52.359375 C 36.585938 -52.359375 36.128906 -51.8125 35.640625 -50.71875 C 35.148438 -49.632812 34.675781 -48.269531 34.21875 -46.625 C 33.769531 -44.976562 33.351562 -43.28125 32.96875 -41.53125 C 32.582031 -39.78125 32.28125 -38.21875 32.0625 -36.84375 C 31.851562 -35.476562 31.75 -34.550781 31.75 -34.0625 C 31.75 -32.664062 32.222656 -31.753906 33.171875 -31.328125 C 34.117188 -30.910156 35.1875 -30.703125 36.375 -30.703125 Z M 36.375 -30.703125 "/></g></g></g><g fill="#037f8c" fill-opacity="1"><g transform="translate(668.331074, 178.794867)"><g><path d="M 34.0625 -60.671875 C 32.175781 -60.671875 30.425781 -60.265625 28.8125 -59.453125 C 27.195312 -58.648438 26.390625 -57.128906 26.390625 -54.890625 C 26.390625 -53.128906 27.195312 -51.671875 28.8125 -50.515625 C 30.425781 -49.359375 32.507812 -48.320312 35.0625 -47.40625 C 37.625 -46.5 40.359375 -45.519531 43.265625 -44.46875 C 46.171875 -43.414062 48.898438 -42.082031 51.453125 -40.46875 C 54.015625 -38.863281 56.101562 -36.796875 57.71875 -34.265625 C 59.332031 -31.742188 60.140625 -28.554688 60.140625 -24.703125 C 60.140625 -19.734375 58.820312 -15.390625 56.1875 -11.671875 C 53.5625 -7.953125 50.164062 -5.09375 46 -3.09375 C 41.832031 -1.101562 37.363281 -0.109375 32.59375 -0.109375 C 29.09375 -0.109375 25.796875 -0.300781 22.703125 -0.6875 C 19.617188 -1.070312 16.90625 -1.894531 14.5625 -3.15625 C 12.21875 -4.414062 10.378906 -6.289062 9.046875 -8.78125 C 7.710938 -11.269531 7.046875 -14.613281 7.046875 -18.8125 C 7.046875 -19.3125 7.113281 -19.753906 7.25 -20.140625 C 7.394531 -20.523438 7.75 -20.71875 8.3125 -20.71875 C 9.914062 -20.71875 11.523438 -20.453125 13.140625 -19.921875 C 14.753906 -19.398438 16.332031 -18.894531 17.875 -18.40625 C 19.769531 -17.84375 21.695312 -17.316406 23.65625 -16.828125 C 25.613281 -16.335938 27.578125 -16.09375 29.546875 -16.09375 C 30.878906 -16.09375 32.207031 -16.265625 33.53125 -16.609375 C 34.863281 -16.960938 35.984375 -17.59375 36.890625 -18.5 C 37.804688 -19.414062 38.265625 -20.644531 38.265625 -22.1875 C 38.265625 -24.425781 37.460938 -26.109375 35.859375 -27.234375 C 34.523438 -28.210938 33.085938 -28.894531 31.546875 -29.28125 C 30.003906 -29.664062 28.460938 -30.066406 26.921875 -30.484375 C 24.328125 -31.253906 21.734375 -32.320312 19.140625 -33.6875 C 16.546875 -35.0625 14.160156 -36.710938 11.984375 -38.640625 C 9.816406 -40.566406 8.066406 -42.773438 6.734375 -45.265625 C 5.398438 -47.753906 4.734375 -50.46875 4.734375 -53.40625 C 4.734375 -57.257812 5.554688 -60.625 7.203125 -63.5 C 8.847656 -66.375 11.054688 -68.773438 13.828125 -70.703125 C 16.597656 -72.628906 19.664062 -74.066406 23.03125 -75.015625 C 26.394531 -75.960938 29.789062 -76.4375 33.21875 -76.4375 C 36.445312 -76.4375 39.515625 -76.332031 42.421875 -76.125 C 45.328125 -75.914062 47.921875 -75.316406 50.203125 -74.328125 C 52.484375 -73.347656 54.285156 -71.71875 55.609375 -69.4375 C 56.941406 -67.164062 57.609375 -64 57.609375 -59.9375 C 57.609375 -58.175781 56.703125 -57.296875 54.890625 -57.296875 C 53.347656 -57.296875 51.785156 -57.488281 50.203125 -57.875 C 48.628906 -58.257812 47.101562 -58.628906 45.625 -58.984375 C 43.738281 -59.398438 41.832031 -59.785156 39.90625 -60.140625 C 37.976562 -60.492188 36.03125 -60.671875 34.0625 -60.671875 Z M 34.0625 -60.671875 "/></g></g></g><g fill="#037f8c" fill-opacity="0.3804"><g transform="translate(750.41624, 181.484869)"><g/></g></g><g fill="#037f8c" fill-opacity="1"><g transform="translate(741.617656, 178.794867)"><g/></g></g></svg>