<svg xmlns="http://www.w3.org/2000/svg" xmlns:xlink="http://www.w3.org/1999/xlink" width="300" zoomAndPan="magnify" viewBox="0 0 224.87999 225" height="300" preserveAspectRatio="xMidYMid meet" version="1.0"><defs><clipPath id="f565498e83"><path d="M 0 0.0585938 L 224.761719 0.0585938 L 224.761719 224.9375 L 0 224.9375 Z M 0 0.0585938 " clip-rule="nonzero"/></clipPath></defs><g clip-path="url(#f565498e83)"><path fill="#00b2b2" d="M 112.441406 0.0585938 C 174.496094 0.0585938 224.878906 50.441406 224.878906 112.5 C 224.878906 174.558594 174.496094 224.941406 112.441406 224.941406 C 50.382812 224.941406 0 174.558594 0 112.5 C 0 50.441406 50.382812 0.0585938 112.441406 0.0585938 Z M 92.636719 172.304688 C 142.390625 172.304688 169.597656 131.074219 169.597656 95.34375 C 169.597656 94.164062 169.597656 92.984375 169.539062 91.863281 C 174.8125 88.050781 179.414062 83.28125 183.058594 77.839844 C 178.234375 79.972656 173.019531 81.429688 167.519531 82.101562 C 173.128906 78.738281 177.394531 73.464844 179.414062 67.125 C 174.195312 70.210938 168.417969 72.457031 162.25 73.6875 C 157.3125 68.417969 150.300781 65.164062 142.503906 65.164062 C 127.582031 65.164062 115.464844 77.28125 115.464844 92.199219 C 115.464844 94.332031 115.691406 96.40625 116.195312 98.371094 C 93.699219 97.25 73.789062 86.480469 60.4375 70.097656 C 58.136719 74.082031 56.789062 78.738281 56.789062 83.675781 C 56.789062 93.042969 61.558594 101.34375 68.851562 106.167969 C 64.417969 106.054688 60.269531 104.820312 56.621094 102.800781 L 56.621094 103.140625 C 56.621094 116.265625 65.933594 127.148438 78.332031 129.671875 C 76.085938 130.289062 73.675781 130.625 71.207031 130.625 C 69.46875 130.625 67.785156 130.457031 66.101562 130.121094 C 69.523438 140.890625 79.507812 148.6875 91.34375 148.910156 C 82.089844 156.148438 70.421875 160.46875 57.746094 160.46875 C 55.558594 160.46875 53.425781 160.355469 51.292969 160.074219 C 63.128906 167.816406 77.378906 172.304688 92.636719 172.304688 Z M 92.636719 172.304688 " fill-opacity="1" fill-rule="evenodd"/></g></svg>