<svg xmlns="http://www.w3.org/2000/svg" xmlns:xlink="http://www.w3.org/1999/xlink" width="100" zoomAndPan="magnify" viewBox="0 0 75 74.999997" height="100" preserveAspectRatio="xMidYMid meet" version="1.0"><defs><clipPath id="78cc961040"><path d="M 4.203125 29.1875 L 15 29.1875 L 15 41.089844 L 4.203125 41.089844 Z M 4.203125 29.1875 " clip-rule="nonzero"/></clipPath><clipPath id="1cd075e7af"><path d="M 12.148438 38.925781 C 4.351562 35.25 4.125 34.726562 4.273438 34.351562 C 4.351562 33.976562 4.800781 33.523438 5.25 33.449219 C 5.773438 33.375 6.523438 33.824219 7.273438 34.273438 C 8.699219 35.101562 12.523438 37.726562 12.601562 38.625 C 12.601562 39 11.925781 39.523438 11.773438 39.449219 C 11.25 39.226562 11.324219 32.324219 12.148438 31.199219 C 12.601562 30.75 13.800781 30.675781 13.875 30.824219 C 14.023438 31.125 8.625 35.25 7.199219 35.476562 C 6.523438 35.550781 6 35.324219 5.699219 35.023438 C 5.476562 34.726562 5.324219 34.199219 5.476562 33.824219 C 5.625 33.375 6.148438 33 6.75 32.625 C 7.875 32.023438 10.425781 30.976562 11.625 31.125 C 12.449219 31.199219 13.273438 31.726562 13.5 32.175781 C 13.726562 32.550781 13.574219 33.148438 13.351562 33.449219 C 13.125 33.824219 11.925781 33.976562 11.925781 34.199219 C 11.851562 34.425781 12.75 34.648438 12.898438 34.949219 C 13.050781 35.324219 13.050781 35.925781 12.898438 36.226562 C 12.675781 36.601562 12 36.976562 11.476562 36.898438 C 10.800781 36.75 9.226562 35.324219 9.148438 34.574219 C 9.074219 33.976562 9.824219 32.925781 10.5 32.699219 C 11.324219 32.476562 13.875 33.375 14.023438 34.050781 C 14.175781 34.5 13.425781 35.476562 13.050781 35.699219 C 12.675781 35.773438 12.074219 35.550781 11.773438 35.324219 C 11.550781 35.023438 11.324219 34.5 11.398438 34.125 C 11.476562 33.75 11.851562 33.300781 12.226562 33.148438 C 12.523438 33 13.199219 33 13.5 33.226562 C 13.800781 33.449219 14.175781 34.351562 14.023438 34.726562 C 13.949219 35.175781 13.199219 35.625 12.75 35.699219 C 12.226562 35.773438 11.25 35.324219 11.023438 34.875 C 10.875 34.5 11.25 33.375 11.476562 33.300781 C 11.851562 33.226562 12.976562 34.648438 13.050781 35.25 C 13.050781 35.773438 12.601562 36.675781 12.148438 36.824219 C 11.625 36.976562 10.425781 36.449219 9.976562 36 C 9.675781 35.699219 9.523438 35.25 9.601562 34.800781 C 9.675781 34.199219 10.648438 32.625 11.101562 32.625 C 11.398438 32.550781 12.074219 33.375 12 33.75 C 11.851562 34.425781 8.25 35.398438 7.199219 35.476562 C 6.601562 35.550781 6.226562 35.476562 5.925781 35.25 C 5.625 35.023438 5.324219 34.351562 5.476562 33.824219 C 5.851562 32.699219 9.449219 30.449219 11.101562 29.773438 C 12.148438 29.324219 13.425781 29.023438 14.023438 29.324219 C 14.550781 29.625 14.699219 30.226562 14.851562 30.976562 C 15.148438 32.773438 15 38.625 14.023438 40.050781 C 13.5 40.726562 12.675781 40.949219 12.074219 41.023438 C 11.550781 41.023438 11.324219 40.875 10.726562 40.574219 C 9.375 39.898438 5.25 36.601562 4.5 35.476562 C 4.273438 35.023438 4.125 34.648438 4.273438 34.351562 C 4.351562 33.976562 4.949219 33.523438 5.550781 33.449219 C 6.75 33.300781 9.449219 34.726562 10.949219 35.476562 C 12.148438 36.148438 13.648438 36.976562 13.875 37.648438 C 13.949219 38.101562 13.726562 38.699219 13.425781 38.851562 C 13.125 39.074219 12.148438 38.925781 12.148438 38.925781 " clip-rule="nonzero"/></clipPath><clipPath id="edd5a9b31a"><path d="M 31.707031 13.0625 L 39.859375 13.0625 L 39.859375 18.496094 L 31.707031 18.496094 Z M 31.707031 13.0625 " clip-rule="nonzero"/></clipPath><clipPath id="9205ec53fd"><path d="M 38.175781 17.476562 C 32.175781 17.851562 31.726562 16.949219 31.726562 16.273438 C 31.800781 15.601562 32.699219 14.324219 33.375 14.023438 C 33.75 13.800781 34.351562 13.800781 34.800781 14.023438 C 35.324219 14.25 36.074219 15.074219 36.300781 15.601562 C 36.449219 16.050781 36.375 16.648438 36.148438 17.101562 C 35.925781 17.625 35.175781 18.375 34.5 18.449219 C 33.824219 18.523438 32.324219 17.925781 32.023438 17.25 C 31.648438 16.574219 31.875 15.148438 32.476562 14.476562 C 33.300781 13.648438 35.851562 13.125 37.125 13.125 C 37.949219 13.050781 38.699219 13.125 39.148438 13.574219 C 39.675781 14.101562 39.976562 15.449219 39.75 16.125 C 39.601562 16.726562 38.175781 17.476562 38.175781 17.476562 " clip-rule="nonzero"/></clipPath><clipPath id="ecbc489ade"><path d="M 36.445312 14.074219 L 43.074219 14.074219 L 43.074219 18.957031 L 36.445312 18.957031 Z M 36.445312 14.074219 " clip-rule="nonzero"/></clipPath><clipPath id="e19944ddcf"><path d="M 38.699219 14.101562 C 42.226562 14.851562 42.824219 15.449219 42.976562 16.050781 C 43.125 16.648438 42.976562 17.699219 42.523438 18.148438 C 42 18.675781 40.5 18.976562 39.824219 18.675781 C 39.226562 18.449219 38.625 17.625 38.550781 17.023438 C 38.476562 16.351562 38.773438 15.375 39.226562 15 C 39.75 14.550781 40.726562 14.324219 41.324219 14.398438 C 41.925781 14.550781 42.675781 15.226562 42.898438 15.824219 C 43.125 16.425781 43.050781 17.398438 42.675781 17.925781 C 42.300781 18.449219 41.476562 18.824219 40.800781 18.898438 C 39.898438 19.050781 38.398438 18.75 37.648438 18.375 C 37.125 18.074219 36.75 17.625 36.601562 17.175781 C 36.375 16.574219 36.449219 15.601562 36.824219 15.074219 C 37.199219 14.550781 38.699219 14.101562 38.699219 14.101562 " clip-rule="nonzero"/></clipPath><clipPath id="6514175626"><path d="M 60.316406 27.554688 L 71.902344 27.554688 L 71.902344 41.746094 L 60.316406 41.746094 Z M 60.316406 27.554688 " clip-rule="nonzero"/></clipPath><clipPath id="a4aa8f7f43"><path d="M 60.375 39.449219 C 60.75 30.375 61.351562 28.125 62.476562 27.675781 C 63.601562 27.226562 65.625 28.574219 67.050781 29.398438 C 68.625 30.300781 70.949219 32.023438 71.550781 33 C 71.851562 33.449219 71.925781 33.75 71.851562 34.199219 C 71.773438 34.800781 71.324219 35.851562 70.726562 36.300781 C 70.125 36.675781 69 36.75 68.398438 36.523438 C 67.800781 36.375 66.976562 35.398438 67.050781 35.324219 C 67.050781 35.25 69.75 36.226562 69.75 36.675781 C 69.675781 37.425781 63.976562 39.675781 62.476562 39.148438 C 61.574219 38.851562 60.976562 37.5 60.824219 36.75 C 60.824219 36.148438 61.125 35.398438 61.5 35.023438 C 61.875 34.574219 63.074219 34.050781 63.148438 34.199219 C 63.300781 34.273438 61.351562 36.449219 61.199219 36.375 C 60.976562 36.300781 62.324219 32.324219 63.300781 31.648438 C 63.976562 31.199219 65.101562 31.199219 65.773438 31.5 C 66.449219 31.949219 67.273438 33.449219 67.199219 34.351562 C 67.199219 35.023438 66.375 35.925781 65.773438 36.300781 C 65.101562 36.601562 63.898438 36.523438 63.300781 36.148438 C 62.699219 35.773438 62.101562 34.800781 62.023438 34.050781 C 62.023438 33.300781 62.476562 32.25 63.074219 31.800781 C 63.601562 31.425781 64.800781 31.125 65.476562 31.425781 C 66.226562 31.726562 67.125 33.074219 67.273438 34.050781 C 67.351562 35.023438 66.601562 36.226562 66 37.125 C 65.398438 37.949219 64.5 39.148438 63.75 39.300781 C 63.148438 39.523438 62.398438 39.226562 61.949219 38.851562 C 61.5 38.550781 61.050781 37.875 60.898438 37.351562 C 60.824219 36.824219 60.824219 36.074219 61.199219 35.550781 C 61.648438 34.726562 63 33.976562 64.125 33.375 C 65.476562 32.699219 67.351562 31.648438 68.699219 31.726562 C 69.75 31.726562 71.101562 32.398438 71.550781 33 C 71.851562 33.300781 71.925781 33.75 71.851562 34.199219 C 71.773438 34.800781 71.25 35.851562 70.726562 36.300781 C 70.273438 36.675781 69.675781 36.824219 69 36.675781 C 67.425781 36.449219 62.324219 32.851562 62.476562 32.25 C 62.550781 31.949219 64.5 31.574219 65.101562 32.101562 C 66 33 65.398438 38.476562 64.949219 39.976562 C 64.726562 40.648438 64.425781 41.023438 63.976562 41.324219 C 63.601562 41.625 62.925781 41.773438 62.398438 41.699219 C 61.949219 41.699219 61.351562 41.324219 60.976562 40.949219 C 60.675781 40.574219 60.375 39.449219 60.375 39.449219 " clip-rule="nonzero"/></clipPath><clipPath id="0f5153cb27"><path d="M 40.640625 15.441406 L 44.9375 15.441406 L 44.9375 19.085938 L 40.640625 19.085938 Z M 40.640625 15.441406 " clip-rule="nonzero"/></clipPath><clipPath id="4ce84f785f"><path d="M 44.925781 16.726562 C 42.976562 19.726562 41.175781 19.199219 40.800781 18.601562 C 40.425781 17.925781 40.800781 16.125 41.398438 15.601562 C 41.925781 15.148438 44.324219 15.824219 44.324219 15.824219 " clip-rule="nonzero"/></clipPath><clipPath id="99c94a2355"><path d="M 25.871094 53.242188 L 49.199219 53.242188 L 49.199219 60.625 L 25.871094 60.625 Z M 25.871094 53.242188 " clip-rule="nonzero"/></clipPath><clipPath id="f348a85bdc"><path d="M 26.476562 55.875 C 30.898438 53.175781 35.175781 56.175781 37.648438 55.875 C 39.523438 55.726562 41.023438 53.851562 42.523438 53.550781 C 43.648438 53.25 45.148438 53.101562 45.824219 53.476562 C 46.273438 53.773438 46.125 54.601562 46.5 55.125 C 47.023438 55.800781 48.75 56.25 49.050781 57.074219 C 49.273438 57.75 49.050781 58.949219 48.523438 59.476562 C 47.925781 60.074219 46.199219 60.449219 45.375 60.148438 C 44.699219 59.851562 44.023438 58.875 43.875 58.125 C 43.800781 57.449219 44.175781 56.324219 44.699219 55.800781 C 45.226562 55.351562 46.351562 54.976562 47.101562 55.199219 C 47.851562 55.425781 48.976562 56.851562 49.125 57.601562 C 49.273438 58.199219 49.050781 58.800781 48.675781 59.25 C 48.226562 59.773438 47.25 60.449219 46.5 60.375 C 45.449219 60.300781 42.976562 58.425781 43.050781 57.976562 C 43.199219 57.601562 45.675781 57.375 45.898438 57.675781 C 45.976562 57.898438 45.226562 58.949219 44.398438 59.398438 C 43.050781 60.226562 39.601562 60.675781 37.273438 60.601562 C 34.949219 60.449219 31.574219 59.699219 30.300781 58.648438 C 29.625 58.050781 29.25 56.324219 29.25 56.324219 C 29.25 56.324219 30.449219 57.898438 30.300781 58.5 C 30.074219 59.101562 28.425781 59.773438 27.675781 59.699219 C 27 59.625 26.175781 58.949219 25.949219 58.351562 C 25.726562 57.75 26.476562 55.875 26.476562 55.875 " clip-rule="nonzero"/></clipPath><clipPath id="750a97ab78"><path d="M 3 38 L 31 38 L 31 71 L 3 71 Z M 3 38 " clip-rule="nonzero"/></clipPath><clipPath id="75b66155be"><path d="M 7.964844 38.351562 L 30.800781 52.175781 L 15.300781 77.773438 L -7.53125 63.949219 Z M 7.964844 38.351562 " clip-rule="nonzero"/></clipPath><clipPath id="dd383d3f71"><path d="M 3.929688 70.789062 L 30.800781 52.175781 L 7.964844 38.351562 Z M 3.929688 70.789062 " clip-rule="nonzero"/></clipPath><clipPath id="f442237b80"><path d="M 45 38 L 73 38 L 73 71 L 45 71 Z M 45 38 " clip-rule="nonzero"/></clipPath><clipPath id="4313a71637"><path d="M 45.476562 53.070312 L 67.855469 38.515625 L 84.171875 63.605469 L 61.792969 78.15625 Z M 45.476562 53.070312 " clip-rule="nonzero"/></clipPath><clipPath id="0d4518b11b"><path d="M 72.933594 70.808594 L 67.855469 38.515625 L 45.476562 53.070312 Z M 72.933594 70.808594 " clip-rule="nonzero"/></clipPath><clipPath id="e47014b728"><path d="M 50 36 L 74 36 L 74 66 L 50 66 Z M 50 36 " clip-rule="nonzero"/></clipPath><clipPath id="5ebfa1570f"><path d="M 50.859375 47.164062 L 72.007812 36.308594 L 84.179688 60.019531 L 63.03125 70.875 Z M 50.859375 47.164062 " clip-rule="nonzero"/></clipPath><clipPath id="ddc61639e7"><path d="M 73.570312 65.382812 L 72.007812 36.308594 L 50.859375 47.164062 Z M 73.570312 65.382812 " clip-rule="nonzero"/></clipPath><clipPath id="5b88cd00f8"><path d="M 0 35 L 22 35 L 22 63 L 0 63 Z M 0 35 " clip-rule="nonzero"/></clipPath><clipPath id="13a872441e"><path d="M 2.070312 35.894531 L 21.429688 45.863281 L 10.25 67.5625 L -9.105469 57.59375 Z M 2.070312 35.894531 " clip-rule="nonzero"/></clipPath><clipPath id="d9dab20e14"><path d="M 0.605469 62.519531 L 21.429688 45.863281 L 2.070312 35.894531 Z M 0.605469 62.519531 " clip-rule="nonzero"/></clipPath><clipPath id="46dbcddfa4"><path d="M 30.199219 15.800781 L 32.792969 15.800781 L 32.792969 17.949219 L 30.199219 17.949219 Z M 30.199219 15.800781 " clip-rule="nonzero"/></clipPath><clipPath id="e9743f12b2"><path d="M 32.398438 17.023438 C 30.75 17.023438 32.25 16.726562 32.25 16.574219 C 32.25 16.425781 31.5 16.199219 31.425781 16.199219 C 31.425781 16.273438 32.25 16.726562 32.25 16.726562 C 32.25 16.800781 31.574219 16.574219 31.574219 16.574219 C 31.574219 16.574219 32.25 16.726562 32.25 16.726562 C 32.25 16.726562 31.648438 16.648438 31.574219 16.5 C 31.5 16.351562 31.949219 15.824219 32.101562 15.824219 C 32.324219 15.824219 32.773438 16.273438 32.773438 16.574219 C 32.773438 16.949219 32.324219 17.773438 31.949219 17.925781 C 31.574219 18 30.226562 17.324219 30.226562 17.023438 C 30.226562 16.800781 30.898438 16.425781 31.273438 16.273438 C 31.648438 16.125 32.398438 16.125 32.550781 16.351562 C 32.699219 16.425781 32.398438 17.023438 32.398438 17.023438 " clip-rule="nonzero"/></clipPath><clipPath id="28cde47d11"><path d="M 2.324219 55.199219 L 43.574219 55.199219 L 43.574219 72.601562 L 2.324219 72.601562 Z M 2.324219 55.199219 " clip-rule="nonzero"/></clipPath><clipPath id="392f639057"><path d="M 30.230469 55.199219 L 71.480469 55.199219 L 71.480469 72.601562 L 30.230469 72.601562 Z M 30.230469 55.199219 " clip-rule="nonzero"/></clipPath><clipPath id="a6aaed3a0a"><path d="M 15 18.898438 L 60.300781 18.898438 L 60.300781 43.277344 L 15 43.277344 Z M 15 18.898438 " clip-rule="nonzero"/></clipPath><clipPath id="fa40109351"><path d="M 14.773438 42.339844 L 60.527344 42.339844 L 60.527344 57.039062 L 14.773438 57.039062 Z M 14.773438 42.339844 " clip-rule="nonzero"/></clipPath><clipPath id="150bcb6276"><path d="M 37.648438 57.039062 L 60.523438 42.339844 L 14.773438 42.339844 Z M 37.648438 57.039062 " clip-rule="nonzero"/></clipPath><clipPath id="0ab29eaca6"><path d="M 0.449219 11.554688 L 74.699219 11.554688 L 74.699219 75 L 0.449219 75 Z M 0.449219 11.554688 " clip-rule="nonzero"/></clipPath></defs><g clip-path="url(#78cc961040)"><g clip-path="url(#1cd075e7af)"><path fill="#f20574" d="M 1.273438 26.324219 L 17.925781 26.324219 L 17.925781 44.015625 L 1.273438 44.015625 Z M 1.273438 26.324219 " fill-opacity="1" fill-rule="nonzero"/></g></g><g clip-path="url(#edd5a9b31a)"><g clip-path="url(#9205ec53fd)"><path fill="#f20574" d="M 28.726562 10.125 L 42.839844 10.125 L 42.839844 21.523438 L 28.726562 21.523438 Z M 28.726562 10.125 " fill-opacity="1" fill-rule="nonzero"/></g></g><g clip-path="url(#ecbc489ade)"><g clip-path="url(#e19944ddcf)"><path fill="#f20574" d="M 33.601562 11.101562 L 46.046875 11.101562 L 46.046875 21.976562 L 33.601562 21.976562 Z M 33.601562 11.101562 " fill-opacity="1" fill-rule="nonzero"/></g></g><g clip-path="url(#6514175626)"><g clip-path="url(#a4aa8f7f43)"><path fill="#f20574" d="M 57.300781 24.675781 L 74.851562 24.675781 L 74.851562 44.761719 L 57.300781 44.761719 Z M 57.300781 24.675781 " fill-opacity="1" fill-rule="nonzero"/></g></g><g clip-path="url(#0f5153cb27)"><g clip-path="url(#4ce84f785f)"><path fill="#f20574" d="M 37.800781 12.601562 L 47.933594 12.601562 L 47.933594 22.425781 L 37.800781 22.425781 Z M 37.800781 12.601562 " fill-opacity="1" fill-rule="nonzero"/></g></g><g clip-path="url(#99c94a2355)"><g clip-path="url(#f348a85bdc)"><path fill="#f20574" d="M 22.949219 50.476562 L 52.121094 50.476562 L 52.121094 63.601562 L 22.949219 63.601562 Z M 22.949219 50.476562 " fill-opacity="1" fill-rule="nonzero"/></g></g><g clip-path="url(#750a97ab78)"><g clip-path="url(#75b66155be)"><g clip-path="url(#dd383d3f71)"><path fill="#f20574" d="M 7.964844 38.351562 L 30.800781 52.175781 L 15.355469 77.683594 L -7.476562 63.859375 Z M 7.964844 38.351562 " fill-opacity="1" fill-rule="nonzero"/></g></g></g><g clip-path="url(#f442237b80)"><g clip-path="url(#4313a71637)"><g clip-path="url(#0d4518b11b)"><path fill="#f20574" d="M 45.476562 53.070312 L 67.855469 38.515625 L 84.113281 63.515625 L 61.734375 78.070312 Z M 45.476562 53.070312 " fill-opacity="1" fill-rule="nonzero"/></g></g></g><g clip-path="url(#e47014b728)"><g clip-path="url(#5ebfa1570f)"><g clip-path="url(#ddc61639e7)"><path fill="#f20574" d="M 50.859375 47.164062 L 72.007812 36.308594 L 84.136719 59.9375 L 62.988281 70.792969 Z M 50.859375 47.164062 " fill-opacity="1" fill-rule="nonzero"/></g></g></g><g clip-path="url(#5b88cd00f8)"><g clip-path="url(#13a872441e)"><g clip-path="url(#d9dab20e14)"><path fill="#f20574" d="M 2.070312 35.894531 L 21.429688 45.863281 L 10.289062 67.488281 L -9.066406 57.519531 Z M 2.070312 35.894531 " fill-opacity="1" fill-rule="nonzero"/></g></g></g><g clip-path="url(#46dbcddfa4)"><g clip-path="url(#e9743f12b2)"><path fill="#f20574" d="M 27.226562 12.824219 L 35.769531 12.824219 L 35.769531 20.925781 L 27.226562 20.925781 Z M 27.226562 12.824219 " fill-opacity="1" fill-rule="nonzero"/></g></g><g clip-path="url(#28cde47d11)"><path fill="#f20574" d="M 2.324219 55.199219 L 43.582031 55.199219 L 43.582031 72.601562 L 2.324219 72.601562 Z M 2.324219 55.199219 " fill-opacity="1" fill-rule="nonzero"/></g><g clip-path="url(#392f639057)"><path fill="#f20574" d="M 30.230469 55.199219 L 71.488281 55.199219 L 71.488281 72.601562 L 30.230469 72.601562 Z M 30.230469 55.199219 " fill-opacity="1" fill-rule="nonzero"/></g><g clip-path="url(#a6aaed3a0a)"><path fill="#f9f9f9" d="M 15 18.898438 L 60.324219 18.898438 L 60.324219 43.277344 L 15 43.277344 Z M 15 18.898438 " fill-opacity="1" fill-rule="nonzero"/></g><g clip-path="url(#fa40109351)"><g clip-path="url(#150bcb6276)"><path fill="#f9f9f9" d="M 14.773438 42.339844 L 60.527344 42.339844 L 60.527344 57.039062 L 14.773438 57.039062 Z M 14.773438 42.339844 " fill-opacity="1" fill-rule="nonzero"/></g></g><g clip-path="url(#0ab29eaca6)"><path fill="#170b26" d="M 3.328125 32.0625 L 12.75 26.105469 L 12.75 18.5 C 12.75 17.761719 13.347656 17.164062 14.085938 17.164062 L 26.882812 17.164062 L 34.203125 12.535156 C 35.234375 11.882812 36.367188 11.558594 37.5 11.558594 C 38.636719 11.558594 39.769531 11.882812 40.796875 12.535156 L 48.121094 17.164062 L 60.917969 17.164062 C 61.65625 17.164062 62.253906 17.761719 62.253906 18.5 L 62.253906 26.105469 L 71.671875 32.0625 L 71.695312 32.074219 L 71.714844 32.085938 L 71.714844 32.089844 L 71.738281 32.101562 L 71.757812 32.117188 L 71.78125 32.132812 L 71.800781 32.144531 L 71.839844 32.171875 L 71.84375 32.175781 L 71.867188 32.1875 L 71.882812 32.199219 L 71.886719 32.203125 L 71.910156 32.21875 L 71.925781 32.230469 L 71.929688 32.234375 L 71.953125 32.246094 L 71.964844 32.257812 L 71.972656 32.261719 L 71.992188 32.277344 L 72.007812 32.285156 L 72.015625 32.292969 L 72.035156 32.308594 L 72.046875 32.316406 L 72.054688 32.324219 L 72.074219 32.335938 L 72.085938 32.347656 L 72.097656 32.351562 L 72.117188 32.367188 L 72.128906 32.375 L 72.136719 32.382812 L 72.199219 32.429688 L 72.207031 32.4375 L 72.21875 32.445312 L 72.277344 32.492188 L 72.285156 32.496094 C 72.347656 32.550781 72.410156 32.601562 72.472656 32.65625 C 72.535156 32.710938 72.59375 32.765625 72.65625 32.820312 C 72.699219 32.863281 72.738281 32.902344 72.78125 32.941406 L 72.792969 32.957031 L 72.796875 32.960938 L 72.816406 32.976562 L 72.828125 32.992188 L 72.832031 32.996094 L 72.851562 33.011719 L 72.863281 33.027344 L 72.902344 33.066406 L 72.917969 33.085938 L 72.929688 33.09375 L 72.933594 33.101562 L 72.953125 33.121094 C 73.285156 33.480469 73.566406 33.871094 73.796875 34.292969 C 74.289062 35.1875 74.550781 36.199219 74.550781 37.277344 L 74.550781 68.820312 C 74.550781 70.519531 73.855469 72.066406 72.738281 73.183594 C 71.769531 74.152344 70.480469 74.800781 69.046875 74.957031 L 69.035156 74.960938 L 68.992188 74.964844 L 68.941406 74.96875 L 68.925781 74.96875 L 68.890625 74.972656 L 68.847656 74.976562 L 68.839844 74.976562 L 68.789062 74.980469 L 68.769531 74.980469 L 68.738281 74.984375 L 68.691406 74.988281 L 68.632812 74.988281 L 68.613281 74.992188 L 68.53125 74.992188 L 68.457031 74.996094 L 6.542969 74.996094 L 6.472656 74.992188 L 6.386719 74.992188 L 6.367188 74.988281 L 6.308594 74.988281 L 6.265625 74.984375 L 6.230469 74.980469 L 6.214844 74.980469 L 6.164062 74.976562 L 6.152344 74.976562 L 6.074219 74.96875 L 6.0625 74.96875 L 6.011719 74.964844 L 5.996094 74.964844 L 5.960938 74.957031 L 5.957031 74.957031 C 4.519531 74.800781 3.230469 74.152344 2.261719 73.183594 C 1.144531 72.066406 0.449219 70.519531 0.449219 68.820312 L 0.449219 37.277344 C 0.449219 36.199219 0.710938 35.1875 1.203125 34.292969 C 1.433594 33.871094 1.71875 33.480469 2.050781 33.121094 L 2.066406 33.101562 L 2.074219 33.097656 L 2.082031 33.085938 L 2.117188 33.050781 L 2.132812 33.03125 L 2.140625 33.027344 L 2.152344 33.011719 L 2.207031 32.957031 L 2.21875 32.941406 L 2.238281 32.925781 L 2.242188 32.921875 L 2.257812 32.910156 L 2.308594 32.855469 L 2.3125 32.855469 L 2.328125 32.839844 L 2.34375 32.820312 L 2.347656 32.820312 C 2.382812 32.789062 2.417969 32.753906 2.457031 32.722656 C 2.539062 32.644531 2.628906 32.570312 2.71875 32.496094 L 2.722656 32.492188 L 2.757812 32.46875 L 2.761719 32.460938 L 2.863281 32.382812 L 2.875 32.375 L 2.882812 32.367188 L 2.90625 32.351562 L 2.914062 32.347656 L 2.925781 32.335938 L 2.945312 32.324219 L 2.953125 32.316406 L 2.988281 32.292969 L 2.996094 32.285156 L 3.007812 32.277344 L 3.027344 32.261719 L 3.035156 32.257812 L 3.050781 32.246094 L 3.070312 32.234375 L 3.078125 32.230469 L 3.09375 32.21875 L 3.113281 32.203125 L 3.117188 32.199219 L 3.15625 32.175781 L 3.160156 32.171875 L 3.175781 32.160156 L 3.199219 32.144531 L 3.203125 32.144531 L 3.222656 32.132812 L 3.242188 32.117188 L 3.246094 32.117188 L 3.265625 32.101562 L 3.285156 32.089844 L 3.289062 32.085938 Z M 12.75 29.253906 L 4.75 34.3125 L 4.742188 34.320312 L 4.726562 34.328125 L 4.722656 34.328125 L 4.710938 34.339844 L 4.703125 34.34375 L 4.699219 34.34375 L 4.6875 34.355469 L 4.679688 34.359375 L 4.675781 34.359375 L 4.664062 34.371094 L 4.65625 34.375 L 4.652344 34.378906 L 4.640625 34.386719 L 4.632812 34.390625 L 4.628906 34.394531 L 4.625 34.394531 L 4.617188 34.402344 L 4.609375 34.40625 L 4.605469 34.410156 L 4.601562 34.410156 L 4.59375 34.417969 L 4.585938 34.421875 L 4.582031 34.425781 L 4.578125 34.425781 L 4.566406 34.4375 L 4.558594 34.441406 L 4.550781 34.449219 L 4.535156 34.457031 L 4.535156 34.460938 L 4.519531 34.46875 L 4.511719 34.476562 L 4.503906 34.480469 L 4.496094 34.488281 L 4.453125 34.519531 L 4.449219 34.523438 L 4.433594 34.535156 L 4.425781 34.542969 L 4.410156 34.550781 L 4.40625 34.558594 L 4.398438 34.5625 L 4.390625 34.570312 L 4.382812 34.574219 L 4.347656 34.605469 L 4.339844 34.609375 L 4.335938 34.617188 L 4.332031 34.617188 L 4.328125 34.621094 L 4.28125 34.664062 L 12.75 40.019531 Z M 62.253906 40.019531 L 70.722656 34.664062 L 70.710938 34.652344 L 70.707031 34.652344 L 70.703125 34.644531 L 70.695312 34.640625 L 70.6875 34.632812 L 70.679688 34.628906 L 70.675781 34.621094 L 70.667969 34.617188 L 70.660156 34.609375 L 70.652344 34.605469 L 70.648438 34.597656 L 70.644531 34.597656 L 70.632812 34.585938 L 70.625 34.582031 L 70.605469 34.5625 L 70.601562 34.5625 L 70.589844 34.550781 L 70.574219 34.542969 L 70.570312 34.535156 L 70.5625 34.53125 L 70.554688 34.523438 L 70.539062 34.515625 L 70.519531 34.496094 L 70.503906 34.488281 L 70.492188 34.476562 L 70.488281 34.476562 L 70.480469 34.46875 L 70.472656 34.464844 L 70.460938 34.453125 L 70.453125 34.449219 L 70.445312 34.441406 L 70.429688 34.433594 L 70.421875 34.425781 L 70.40625 34.417969 L 70.398438 34.410156 L 70.390625 34.40625 L 70.382812 34.398438 L 70.375 34.394531 L 70.371094 34.390625 L 70.363281 34.386719 L 70.355469 34.378906 L 70.351562 34.378906 L 70.347656 34.375 L 70.339844 34.371094 L 70.332031 34.363281 L 70.316406 34.355469 L 70.308594 34.347656 L 70.292969 34.339844 L 70.285156 34.332031 L 70.261719 34.320312 L 70.253906 34.3125 L 62.253906 29.253906 Z M 31.863281 17.164062 L 43.136719 17.164062 L 39.378906 14.789062 C 38.789062 14.414062 38.144531 14.230469 37.5 14.230469 C 36.859375 14.230469 36.210938 14.414062 35.625 14.789062 Z M 61.714844 43.507812 C 61.660156 43.550781 61.601562 43.585938 61.539062 43.621094 L 46.425781 53.179688 L 71.851562 69.261719 C 71.871094 69.113281 71.878906 68.96875 71.878906 68.820312 L 71.878906 37.277344 C 71.878906 37.210938 71.878906 37.148438 71.875 37.082031 Z M 47.738281 19.835938 L 15.417969 19.835938 L 15.417969 41.707031 L 35.34375 54.308594 C 36.019531 54.738281 36.761719 54.949219 37.5 54.949219 C 38.238281 54.949219 38.980469 54.738281 39.65625 54.308594 L 59.582031 41.707031 L 59.582031 19.835938 Z M 3.148438 69.257812 L 28.578125 53.179688 L 13.375 43.566406 L 13.355469 43.554688 L 3.125 37.082031 C 3.125 37.148438 3.121094 37.210938 3.121094 37.277344 L 3.121094 68.820312 C 3.121094 68.96875 3.132812 69.113281 3.148438 69.257812 Z M 31.066406 54.753906 L 4.46875 71.578125 C 4.976562 71.976562 5.59375 72.238281 6.269531 72.304688 L 6.277344 72.308594 L 6.3125 72.3125 L 6.332031 72.3125 L 6.359375 72.316406 L 6.402344 72.316406 L 6.421875 72.320312 L 6.480469 72.320312 L 6.492188 72.324219 L 68.511719 72.324219 L 68.523438 72.320312 L 68.582031 72.320312 L 68.597656 72.316406 L 68.644531 72.316406 L 68.667969 72.3125 L 68.6875 72.3125 L 68.726562 72.308594 L 68.734375 72.304688 C 69.40625 72.238281 70.027344 71.976562 70.535156 71.578125 L 43.933594 54.753906 L 41.074219 56.5625 C 39.960938 57.269531 38.730469 57.621094 37.5 57.621094 C 36.269531 57.621094 35.042969 57.269531 33.925781 56.5625 Z M 31.066406 54.753906 " fill-opacity="1" fill-rule="nonzero"/></g><path fill="#170b26" d="M 45.332031 40.640625 L 47.554688 40.640625 C 46.863281 42.0625 45.792969 43.171875 44.351562 43.976562 C 42.710938 44.898438 40.699219 45.359375 38.328125 45.359375 C 36.035156 45.359375 34.054688 44.972656 32.386719 44.195312 C 30.71875 43.417969 29.476562 42.273438 28.667969 40.761719 C 27.851562 39.246094 27.445312 37.597656 27.445312 35.8125 C 27.445312 33.855469 27.910156 32.03125 28.832031 30.34375 C 29.753906 28.65625 31.023438 27.390625 32.625 26.542969 C 34.230469 25.695312 36.066406 25.273438 38.128906 25.273438 C 39.882812 25.273438 41.4375 25.613281 42.796875 26.292969 C 44.160156 26.976562 45.203125 27.945312 45.921875 29.199219 C 46.640625 30.457031 47 31.828125 47 33.3125 C 47 35.089844 46.457031 36.691406 45.363281 38.125 C 43.996094 39.929688 42.242188 40.835938 40.105469 40.835938 C 39.527344 40.835938 39.09375 40.734375 38.804688 40.535156 C 38.511719 40.332031 38.320312 40.042969 38.21875 39.652344 C 37.402344 40.441406 36.453125 40.835938 35.386719 40.835938 C 34.234375 40.835938 33.277344 40.4375 32.515625 39.644531 C 31.753906 38.84375 31.375 37.789062 31.375 36.46875 C 31.375 34.835938 31.832031 33.347656 32.746094 32 C 33.859375 30.359375 35.285156 29.542969 37.019531 29.542969 C 38.253906 29.542969 39.167969 30.015625 39.757812 30.960938 L 40.015625 29.796875 L 42.765625 29.796875 L 41.191406 37.261719 C 41.09375 37.734375 41.042969 38.042969 41.042969 38.179688 C 41.042969 38.351562 41.082031 38.484375 41.164062 38.566406 C 41.242188 38.65625 41.339844 38.699219 41.449219 38.699219 C 41.785156 38.699219 42.214844 38.496094 42.746094 38.09375 C 43.453125 37.570312 44.027344 36.855469 44.464844 35.972656 C 44.902344 35.082031 45.121094 34.160156 45.121094 33.207031 C 45.121094 31.5 44.503906 30.070312 43.269531 28.917969 C 42.03125 27.769531 40.304688 27.195312 38.089844 27.195312 C 36.207031 27.195312 34.609375 27.578125 33.300781 28.347656 C 31.988281 29.117188 31.003906 30.199219 30.34375 31.597656 C 29.675781 32.992188 29.347656 34.449219 29.347656 35.960938 C 29.347656 37.429688 29.714844 38.765625 30.457031 39.96875 C 31.195312 41.175781 32.234375 42.054688 33.574219 42.609375 C 34.90625 43.160156 36.4375 43.4375 38.164062 43.4375 C 39.820312 43.4375 41.25 43.203125 42.441406 42.738281 C 43.636719 42.273438 44.601562 41.574219 45.332031 40.640625 Z M 34.085938 36.359375 C 34.085938 37.242188 34.261719 37.890625 34.617188 38.308594 C 34.976562 38.722656 35.417969 38.933594 35.945312 38.933594 C 36.339844 38.933594 36.710938 38.839844 37.054688 38.644531 C 37.320312 38.503906 37.578125 38.285156 37.835938 37.984375 C 38.207031 37.5625 38.523438 36.945312 38.789062 36.132812 C 39.054688 35.320312 39.1875 34.5625 39.1875 33.859375 C 39.1875 33.074219 39.003906 32.46875 38.644531 32.050781 C 38.277344 31.628906 37.816406 31.421875 37.265625 31.421875 C 36.667969 31.421875 36.117188 31.652344 35.613281 32.113281 C 35.105469 32.578125 34.726562 33.234375 34.46875 34.089844 C 34.214844 34.941406 34.085938 35.699219 34.085938 36.359375 Z M 34.085938 36.359375 " fill-opacity="1" fill-rule="nonzero"/></svg>