<svg xmlns="http://www.w3.org/2000/svg" xmlns:xlink="http://www.w3.org/1999/xlink" width="845" zoomAndPan="magnify" viewBox="0 0 633.75 492.749982" height="657" preserveAspectRatio="xMidYMid meet" version="1.0"><defs><filter x="0%" y="0%" width="100%" height="100%" id="0189f9d86b"><feColorMatrix values="0 0 0 0 1 0 0 0 0 1 0 0 0 0 1 0 0 0 1 0" color-interpolation-filters="sRGB"/></filter><g/><clipPath id="1ec4899dac"><path d="M 0.0351562 0 L 633.464844 0 L 633.464844 492.5 L 0.0351562 492.5 Z M 0.0351562 0 " clip-rule="nonzero"/></clipPath><clipPath id="b5aba1e8da"><path d="M 0.0351562 0 L 365 0 L 365 366 L 0.0351562 366 Z M 0.0351562 0 " clip-rule="nonzero"/></clipPath><mask id="f6846e5657"><g filter="url(#0189f9d86b)"><rect x="-63.375" width="760.5" fill="#000000" y="-49.274998" height="591.299979" fill-opacity="0.6"/></g></mask><clipPath id="9c7da9a5db"><path d="M 0.0351562 0 L 364.351562 0 L 364.351562 364.316406 L 0.0351562 364.316406 Z M 0.0351562 0 " clip-rule="nonzero"/></clipPath><clipPath id="6d138f57d9"><rect x="0" width="365" y="0" height="366"/></clipPath><mask id="8e7658486d"><g filter="url(#0189f9d86b)"><rect x="-63.375" width="760.5" fill="#000000" y="-49.274998" height="591.299979" fill-opacity="0.6"/></g></mask><clipPath id="3b8c93e197"><path d="M 1.121094 0.828125 L 365.433594 0.828125 L 365.433594 365.140625 L 1.121094 365.140625 Z M 1.121094 0.828125 " clip-rule="nonzero"/></clipPath><clipPath id="d1682490bc"><rect x="0" width="367" y="0" height="366"/></clipPath><clipPath id="7f00aca8b5"><path d="M 15.839844 125.683594 L 394.394531 125.683594 L 394.394531 467.507812 L 15.839844 467.507812 Z M 15.839844 125.683594 " clip-rule="nonzero"/></clipPath><clipPath id="0f39863d02"><path d="M 54.894531 164 L 355.492188 164 L 355.492188 333.0625 L 54.894531 333.0625 Z M 54.894531 164 " clip-rule="nonzero"/></clipPath><clipPath id="34ac5185bb"><path d="M 54.894531 327 L 355.492188 327 L 355.492188 333.0625 L 54.894531 333.0625 Z M 54.894531 327 " clip-rule="nonzero"/></clipPath><clipPath id="9e89ba6033"><path d="M 54.894531 157.648438 L 355.492188 157.648438 L 355.492188 333.0625 L 54.894531 333.0625 Z M 54.894531 157.648438 " clip-rule="nonzero"/></clipPath></defs><g clip-path="url(#1ec4899dac)"><path fill="transparent" d="M 0.0351562 0 L 633.464844 0 L 633.464844 492.5 L 0.0351562 492.5 Z M 0.0351562 0 " fill-opacity="1" fill-rule="nonzero"/></g><g clip-path="url(#b5aba1e8da)"><g mask="url(#f6846e5657)"><g transform="matrix(1, 0, 0, 1, 0.000000000000000007, 0)"><g clip-path="url(#6d138f57d9)"><g clip-path="url(#9c7da9a5db)"><path fill="#05f2f2" d="M 364.5625 182.261719 C 364.5625 185.246094 364.488281 188.226562 364.34375 191.207031 C 364.195312 194.183594 363.976562 197.160156 363.683594 200.128906 C 363.390625 203.097656 363.027344 206.054688 362.589844 209.007812 C 362.152344 211.957031 361.640625 214.894531 361.058594 217.820312 C 360.476562 220.746094 359.824219 223.65625 359.097656 226.550781 C 358.375 229.441406 357.578125 232.316406 356.714844 235.171875 C 355.847656 238.027344 354.914062 240.855469 353.90625 243.664062 C 352.902344 246.472656 351.828125 249.257812 350.6875 252.011719 C 349.546875 254.769531 348.335938 257.492188 347.0625 260.191406 C 345.785156 262.886719 344.445312 265.550781 343.039062 268.179688 C 341.632812 270.8125 340.164062 273.40625 338.632812 275.964844 C 337.097656 278.523438 335.503906 281.042969 333.84375 283.523438 C 332.1875 286.003906 330.46875 288.441406 328.695312 290.835938 C 326.917969 293.234375 325.082031 295.582031 323.191406 297.890625 C 321.296875 300.195312 319.351562 302.453125 317.347656 304.664062 C 315.34375 306.875 313.289062 309.03125 311.179688 311.140625 C 309.070312 313.25 306.910156 315.308594 304.699219 317.3125 C 302.488281 319.3125 300.230469 321.261719 297.925781 323.152344 C 295.621094 325.046875 293.269531 326.882812 290.871094 328.65625 C 288.476562 330.433594 286.039062 332.152344 283.558594 333.808594 C 281.078125 335.464844 278.558594 337.0625 276 338.59375 C 273.441406 340.128906 270.847656 341.597656 268.21875 343.003906 C 265.585938 344.410156 262.921875 345.75 260.226562 347.027344 C 257.53125 348.300781 254.804688 349.511719 252.046875 350.652344 C 249.292969 351.792969 246.507812 352.867188 243.703125 353.871094 C 240.894531 354.875 238.0625 355.8125 235.207031 356.675781 C 232.351562 357.542969 229.476562 358.339844 226.585938 359.0625 C 223.691406 359.789062 220.78125 360.441406 217.855469 361.023438 C 214.929688 361.605469 211.992188 362.117188 209.042969 362.554688 C 206.089844 362.992188 203.132812 363.355469 200.164062 363.648438 C 197.195312 363.941406 194.222656 364.160156 191.242188 364.304688 C 188.261719 364.453125 185.28125 364.527344 182.296875 364.527344 C 179.316406 364.527344 176.335938 364.453125 173.355469 364.304688 C 170.375 364.160156 167.402344 363.941406 164.433594 363.648438 C 161.464844 363.355469 158.503906 362.992188 155.554688 362.554688 C 152.605469 362.117188 149.667969 361.605469 146.742188 361.023438 C 143.816406 360.441406 140.90625 359.789062 138.011719 359.0625 C 135.117188 358.339844 132.246094 357.542969 129.390625 356.675781 C 126.535156 355.8125 123.703125 354.875 120.894531 353.871094 C 118.085938 352.867188 115.304688 351.792969 112.550781 350.652344 C 109.792969 349.511719 107.066406 348.300781 104.371094 347.027344 C 101.675781 345.75 99.011719 344.410156 96.378906 343.003906 C 93.75 341.597656 91.15625 340.128906 88.597656 338.59375 C 86.039062 337.0625 83.519531 335.464844 81.039062 333.808594 C 78.558594 332.152344 76.121094 330.433594 73.726562 328.65625 C 71.328125 326.882812 68.976562 325.046875 66.671875 323.152344 C 64.367188 321.261719 62.109375 319.3125 59.898438 317.3125 C 57.6875 315.308594 55.527344 313.25 53.417969 311.140625 C 51.308594 309.03125 49.253906 306.875 47.25 304.664062 C 45.246094 302.453125 43.300781 300.195312 41.40625 297.890625 C 39.515625 295.582031 37.679688 293.234375 35.902344 290.835938 C 34.125 288.441406 32.410156 286.003906 30.753906 283.523438 C 29.09375 281.042969 27.5 278.523438 25.964844 275.964844 C 24.433594 273.40625 22.964844 270.8125 21.558594 268.179688 C 20.152344 265.550781 18.808594 262.886719 17.535156 260.191406 C 16.257812 257.492188 15.050781 254.769531 13.910156 252.011719 C 12.769531 249.257812 11.695312 246.472656 10.691406 243.664062 C 9.683594 240.855469 8.75 238.027344 7.882812 235.171875 C 7.019531 232.316406 6.222656 229.441406 5.496094 226.550781 C 4.773438 223.65625 4.121094 220.746094 3.539062 217.820312 C 2.957031 214.894531 2.445312 211.957031 2.007812 209.007812 C 1.570312 206.054688 1.207031 203.097656 0.914062 200.128906 C 0.621094 197.160156 0.402344 194.183594 0.253906 191.207031 C 0.109375 188.226562 0.0351562 185.246094 0.0351562 182.261719 C 0.0351562 179.28125 0.109375 176.300781 0.253906 173.320312 C 0.402344 170.339844 0.621094 167.367188 0.914062 164.398438 C 1.207031 161.429688 1.570312 158.46875 2.007812 155.519531 C 2.445312 152.570312 2.957031 149.628906 3.539062 146.707031 C 4.121094 143.78125 4.773438 140.871094 5.496094 137.976562 C 6.222656 135.082031 7.019531 132.210938 7.882812 129.355469 C 8.75 126.5 9.683594 123.667969 10.691406 120.859375 C 11.695312 118.050781 12.769531 115.269531 13.910156 112.515625 C 15.050781 109.757812 16.257812 107.03125 17.535156 104.335938 C 18.808594 101.640625 20.152344 98.976562 21.558594 96.34375 C 22.964844 93.714844 24.433594 91.121094 25.964844 88.5625 C 27.5 86.003906 29.09375 83.484375 30.753906 81.003906 C 32.410156 78.523438 34.125 76.085938 35.902344 73.6875 C 37.679688 71.292969 39.515625 68.941406 41.40625 66.636719 C 43.300781 64.332031 45.246094 62.074219 47.25 59.863281 C 49.253906 57.652344 51.308594 55.492188 53.417969 53.382812 C 55.527344 51.273438 57.6875 49.21875 59.898438 47.214844 C 62.109375 45.210938 64.367188 43.265625 66.671875 41.371094 C 68.976562 39.480469 71.328125 37.644531 73.726562 35.867188 C 76.121094 34.089844 78.558594 32.375 81.039062 30.71875 C 83.519531 29.058594 86.039062 27.464844 88.597656 25.929688 C 91.15625 24.398438 93.75 22.925781 96.378906 21.519531 C 99.011719 20.117188 101.675781 18.773438 104.371094 17.5 C 107.066406 16.222656 109.792969 15.015625 112.550781 13.875 C 115.304688 12.734375 118.085938 11.660156 120.894531 10.65625 C 123.703125 9.648438 126.535156 8.714844 129.390625 7.847656 C 132.246094 6.980469 135.117188 6.1875 138.011719 5.460938 C 140.90625 4.738281 143.816406 4.085938 146.742188 3.503906 C 149.667969 2.921875 152.605469 2.410156 155.554688 1.972656 C 158.503906 1.535156 161.464844 1.171875 164.433594 0.878906 C 167.402344 0.585938 170.375 0.367188 173.355469 0.21875 C 176.335938 0.0742188 179.316406 0 182.296875 0 C 185.28125 0 188.261719 0.0742188 191.242188 0.21875 C 194.222656 0.367188 197.195312 0.585938 200.164062 0.878906 C 203.132812 1.171875 206.089844 1.535156 209.042969 1.972656 C 211.992188 2.410156 214.929688 2.921875 217.855469 3.503906 C 220.78125 4.085938 223.691406 4.738281 226.585938 5.460938 C 229.476562 6.1875 232.351562 6.980469 235.207031 7.847656 C 238.0625 8.714844 240.894531 9.648438 243.703125 10.65625 C 246.507812 11.660156 249.292969 12.734375 252.046875 13.875 C 254.804688 15.015625 257.53125 16.222656 260.226562 17.5 C 262.921875 18.773438 265.585938 20.117188 268.21875 21.519531 C 270.847656 22.925781 273.441406 24.398438 276 25.929688 C 278.558594 27.464844 281.078125 29.058594 283.558594 30.71875 C 286.039062 32.375 288.476562 34.089844 290.871094 35.867188 C 293.269531 37.644531 295.621094 39.480469 297.925781 41.371094 C 300.230469 43.265625 302.488281 45.210938 304.699219 47.214844 C 306.910156 49.21875 309.070312 51.273438 311.179688 53.382812 C 313.289062 55.492188 315.34375 57.652344 317.347656 59.863281 C 319.351562 62.074219 321.296875 64.332031 323.191406 66.636719 C 325.082031 68.941406 326.917969 71.292969 328.695312 73.6875 C 330.46875 76.085938 332.1875 78.523438 333.84375 81.003906 C 335.503906 83.484375 337.097656 86.003906 338.632812 88.5625 C 340.164062 91.121094 341.632812 93.714844 343.039062 96.34375 C 344.445312 98.976562 345.785156 101.640625 347.0625 104.335938 C 348.335938 107.03125 349.546875 109.757812 350.6875 112.515625 C 351.828125 115.269531 352.902344 118.050781 353.90625 120.859375 C 354.914062 123.667969 355.847656 126.5 356.714844 129.355469 C 357.578125 132.210938 358.375 135.082031 359.097656 137.976562 C 359.824219 140.871094 360.476562 143.78125 361.058594 146.707031 C 361.640625 149.628906 362.152344 152.570312 362.589844 155.519531 C 363.027344 158.46875 363.390625 161.429688 363.683594 164.398438 C 363.976562 167.367188 364.195312 170.339844 364.34375 173.320312 C 364.488281 176.300781 364.5625 179.28125 364.5625 182.261719 Z M 364.5625 182.261719 " fill-opacity="1" fill-rule="nonzero"/></g></g></g></g></g><g mask="url(#8e7658486d)"><g transform="matrix(1, 0, 0, 1, 161, 45)"><g clip-path="url(#d1682490bc)"><g clip-path="url(#3b8c93e197)"><path fill="#f20574" d="M 365.644531 183.089844 C 365.644531 186.074219 365.574219 189.054688 365.425781 192.035156 C 365.28125 195.011719 365.058594 197.988281 364.769531 200.957031 C 364.476562 203.921875 364.109375 206.882812 363.671875 209.832031 C 363.234375 212.785156 362.726562 215.722656 362.144531 218.648438 C 361.5625 221.574219 360.910156 224.484375 360.183594 227.375 C 359.457031 230.269531 358.664062 233.144531 357.796875 236 C 356.929688 238.851562 355.996094 241.683594 354.992188 244.492188 C 353.988281 247.300781 352.914062 250.082031 351.773438 252.839844 C 350.628906 255.59375 349.421875 258.320312 348.148438 261.019531 C 346.871094 263.714844 345.53125 266.378906 344.125 269.007812 C 342.71875 271.640625 341.25 274.234375 339.714844 276.792969 C 338.179688 279.351562 336.585938 281.871094 334.929688 284.351562 C 333.273438 286.832031 331.554688 289.269531 329.777344 291.664062 C 328 294.058594 326.167969 296.410156 324.273438 298.714844 C 322.382812 301.023438 320.433594 303.28125 318.429688 305.492188 C 316.425781 307.699219 314.371094 309.859375 312.261719 311.96875 C 310.152344 314.078125 307.992188 316.136719 305.78125 318.136719 C 303.574219 320.140625 301.316406 322.089844 299.007812 323.980469 C 296.703125 325.875 294.351562 327.707031 291.957031 329.484375 C 289.5625 331.261719 287.121094 332.980469 284.644531 334.636719 C 282.164062 336.292969 279.644531 337.890625 277.085938 339.421875 C 274.527344 340.957031 271.929688 342.425781 269.300781 343.832031 C 266.671875 345.238281 264.007812 346.578125 261.308594 347.855469 C 258.613281 349.128906 255.886719 350.335938 253.132812 351.480469 C 250.375 352.621094 247.59375 353.695312 244.785156 354.699219 C 241.976562 355.703125 239.144531 356.640625 236.289062 357.503906 C 233.4375 358.371094 230.5625 359.167969 227.667969 359.890625 C 224.777344 360.617188 221.867188 361.269531 218.941406 361.851562 C 216.015625 362.433594 213.078125 362.941406 210.125 363.378906 C 207.175781 363.816406 204.214844 364.183594 201.246094 364.476562 C 198.277344 364.769531 195.304688 364.988281 192.324219 365.132812 C 189.347656 365.28125 186.367188 365.351562 183.382812 365.351562 C 180.398438 365.351562 177.417969 365.28125 174.441406 365.132812 C 171.460938 364.988281 168.488281 364.769531 165.519531 364.476562 C 162.550781 364.183594 159.589844 363.816406 156.640625 363.378906 C 153.6875 362.941406 150.75 362.433594 147.824219 361.851562 C 144.898438 361.269531 141.988281 360.617188 139.097656 359.890625 C 136.203125 359.167969 133.328125 358.371094 130.476562 357.503906 C 127.621094 356.640625 124.789062 355.703125 121.980469 354.699219 C 119.171875 353.695312 116.390625 352.621094 113.632812 351.480469 C 110.878906 350.335938 108.152344 349.128906 105.457031 347.855469 C 102.757812 346.578125 100.09375 345.238281 97.464844 343.832031 C 94.832031 342.425781 92.238281 340.957031 89.679688 339.421875 C 87.121094 337.890625 84.601562 336.292969 82.121094 334.636719 C 79.644531 332.980469 77.203125 331.261719 74.808594 329.484375 C 72.414062 327.707031 70.0625 325.875 67.757812 323.980469 C 65.449219 322.089844 63.191406 320.140625 60.984375 318.136719 C 58.773438 316.136719 56.613281 314.078125 54.503906 311.96875 C 52.394531 309.859375 50.339844 307.699219 48.335938 305.492188 C 46.332031 303.28125 44.382812 301.023438 42.492188 298.714844 C 40.597656 296.410156 38.765625 294.058594 36.988281 291.664062 C 35.210938 289.269531 33.492188 286.832031 31.835938 284.351562 C 30.179688 281.871094 28.585938 279.351562 27.050781 276.792969 C 25.515625 274.234375 24.046875 271.640625 22.640625 269.007812 C 21.234375 266.378906 19.894531 263.714844 18.617188 261.019531 C 17.34375 258.320312 16.136719 255.59375 14.992188 252.839844 C 13.851562 250.082031 12.777344 247.300781 11.773438 244.492188 C 10.769531 241.683594 9.832031 238.851562 8.96875 236 C 8.101562 233.144531 7.308594 230.269531 6.582031 227.375 C 5.855469 224.484375 5.203125 221.574219 4.621094 218.648438 C 4.039062 215.722656 3.53125 212.785156 3.09375 209.832031 C 2.65625 206.882812 2.289062 203.921875 1.996094 200.957031 C 1.707031 197.988281 1.484375 195.011719 1.339844 192.035156 C 1.191406 189.054688 1.121094 186.074219 1.121094 183.089844 C 1.121094 180.105469 1.191406 177.125 1.339844 174.148438 C 1.484375 171.167969 1.707031 168.195312 1.996094 165.226562 C 2.289062 162.257812 2.65625 159.296875 3.09375 156.347656 C 3.53125 153.394531 4.039062 150.457031 4.621094 147.53125 C 5.203125 144.605469 5.855469 141.699219 6.582031 138.804688 C 7.308594 135.910156 8.101562 133.035156 8.96875 130.183594 C 9.832031 127.328125 10.769531 124.496094 11.773438 121.6875 C 12.777344 118.878906 13.851562 116.097656 14.992188 113.339844 C 16.136719 110.585938 17.34375 107.859375 18.617188 105.164062 C 19.894531 102.464844 21.234375 99.804688 22.640625 97.171875 C 24.046875 94.542969 25.515625 91.945312 27.050781 89.386719 C 28.585938 86.828125 30.179688 84.3125 31.835938 81.832031 C 33.492188 79.351562 35.210938 76.914062 36.988281 74.515625 C 38.765625 72.121094 40.597656 69.769531 42.492188 67.464844 C 44.382812 65.15625 46.332031 62.898438 48.335938 60.691406 C 50.339844 58.480469 52.394531 56.320312 54.503906 54.210938 C 56.613281 52.101562 58.773438 50.046875 60.984375 48.042969 C 63.191406 46.039062 65.449219 44.089844 67.757812 42.199219 C 70.0625 40.308594 72.414062 38.472656 74.808594 36.695312 C 77.203125 34.917969 79.644531 33.203125 82.121094 31.542969 C 84.601562 29.886719 87.121094 28.292969 89.679688 26.757812 C 92.238281 25.222656 94.832031 23.753906 97.464844 22.347656 C 100.09375 20.941406 102.757812 19.601562 105.457031 18.328125 C 108.152344 17.050781 110.878906 15.84375 113.632812 14.703125 C 116.390625 13.558594 119.171875 12.488281 121.980469 11.480469 C 124.789062 10.476562 127.621094 9.542969 130.476562 8.675781 C 133.328125 7.808594 136.203125 7.015625 139.097656 6.289062 C 141.988281 5.566406 144.898438 4.910156 147.824219 4.328125 C 150.75 3.746094 153.6875 3.238281 156.640625 2.800781 C 159.589844 2.363281 162.550781 1.996094 165.519531 1.703125 C 168.488281 1.414062 171.460938 1.191406 174.441406 1.046875 C 177.417969 0.902344 180.398438 0.828125 183.382812 0.828125 C 186.367188 0.828125 189.347656 0.902344 192.324219 1.046875 C 195.304688 1.191406 198.277344 1.414062 201.246094 1.703125 C 204.214844 1.996094 207.175781 2.363281 210.125 2.800781 C 213.078125 3.238281 216.015625 3.746094 218.941406 4.328125 C 221.867188 4.910156 224.777344 5.566406 227.667969 6.289062 C 230.5625 7.015625 233.4375 7.808594 236.289062 8.675781 C 239.144531 9.542969 241.976562 10.476562 244.785156 11.480469 C 247.59375 12.488281 250.375 13.558594 253.132812 14.703125 C 255.886719 15.84375 258.613281 17.050781 261.308594 18.328125 C 264.007812 19.601562 266.671875 20.941406 269.300781 22.347656 C 271.933594 23.753906 274.527344 25.222656 277.085938 26.757812 C 279.644531 28.292969 282.164062 29.886719 284.644531 31.542969 C 287.121094 33.203125 289.5625 34.917969 291.957031 36.695312 C 294.351562 38.472656 296.703125 40.308594 299.007812 42.199219 C 301.316406 44.089844 303.574219 46.039062 305.78125 48.042969 C 307.992188 50.046875 310.152344 52.101562 312.261719 54.210938 C 314.371094 56.320312 316.425781 58.480469 318.429688 60.691406 C 320.433594 62.898438 322.382812 65.15625 324.273438 67.464844 C 326.167969 69.769531 328 72.121094 329.777344 74.515625 C 331.554688 76.914062 333.273438 79.351562 334.929688 81.832031 C 336.585938 84.3125 338.179688 86.828125 339.714844 89.386719 C 341.25 91.945312 342.71875 94.542969 344.125 97.171875 C 345.53125 99.804688 346.871094 102.464844 348.148438 105.164062 C 349.421875 107.859375 350.628906 110.585938 351.773438 113.339844 C 352.914062 116.097656 353.988281 118.878906 354.992188 121.6875 C 355.996094 124.496094 356.933594 127.328125 357.796875 130.183594 C 358.664062 133.035156 359.457031 135.910156 360.183594 138.804688 C 360.910156 141.699219 361.5625 144.605469 362.144531 147.53125 C 362.726562 150.457031 363.234375 153.394531 363.671875 156.347656 C 364.109375 159.296875 364.476562 162.257812 364.769531 165.226562 C 365.058594 168.195312 365.28125 171.167969 365.425781 174.148438 C 365.574219 177.125 365.644531 180.105469 365.644531 183.089844 Z M 365.644531 183.089844 " fill-opacity="1" fill-rule="nonzero"/></g></g></g></g><path fill="#d9d9d9" d="M 54.113281 152.613281 C 48.625 152.613281 44.15625 157.074219 44.15625 162.570312 L 44.15625 363.945312 C 44.15625 369.433594 48.625 373.898438 54.113281 373.898438 L 357.8125 373.898438 C 363.300781 373.898438 367.769531 369.433594 367.769531 363.945312 L 367.769531 162.570312 C 367.769531 157.074219 363.300781 152.613281 357.8125 152.613281 Z M 357.8125 384.6875 L 54.113281 384.6875 C 42.675781 384.6875 33.371094 375.378906 33.371094 363.945312 L 33.371094 162.570312 C 33.371094 151.128906 42.675781 141.824219 54.113281 141.824219 L 357.8125 141.824219 C 369.25 141.824219 378.554688 151.128906 378.554688 162.570312 L 378.554688 363.945312 C 378.554688 375.378906 369.25 384.6875 357.8125 384.6875 " fill-opacity="1" fill-rule="nonzero"/><path fill="#d9d9d9" d="M 373.160156 339.292969 L 38.761719 339.292969 C 35.785156 339.292969 33.371094 336.878906 33.371094 333.898438 C 33.371094 330.921875 35.785156 328.503906 38.761719 328.503906 L 373.160156 328.503906 C 376.140625 328.503906 378.554688 330.921875 378.554688 333.898438 C 378.554688 336.878906 376.140625 339.292969 373.160156 339.292969 " fill-opacity="1" fill-rule="nonzero"/><path fill="#d9d9d9" d="M 181.316406 417.519531 C 178.335938 417.519531 175.921875 415.101562 175.921875 412.125 L 175.921875 379.292969 C 175.921875 376.316406 178.335938 373.898438 181.316406 373.898438 C 184.296875 373.898438 186.710938 376.316406 186.710938 379.292969 L 186.710938 412.125 C 186.710938 415.101562 184.296875 417.519531 181.316406 417.519531 " fill-opacity="1" fill-rule="nonzero"/><path fill="#d9d9d9" d="M 230.609375 417.519531 C 227.628906 417.519531 225.214844 415.101562 225.214844 412.125 L 225.214844 379.292969 C 225.214844 376.316406 227.628906 373.898438 230.609375 373.898438 C 233.589844 373.898438 236.003906 376.316406 236.003906 379.292969 L 236.003906 412.125 C 236.003906 415.101562 233.589844 417.519531 230.609375 417.519531 " fill-opacity="1" fill-rule="nonzero"/><path fill="#d9d9d9" d="M 125.359375 439.226562 L 286.570312 439.226562 C 284.089844 427.859375 273.945312 419.316406 261.84375 419.316406 L 150.082031 419.316406 C 137.980469 419.316406 127.835938 427.859375 125.359375 439.226562 Z M 292.542969 450.011719 L 119.386719 450.011719 C 116.40625 450.011719 113.992188 447.597656 113.992188 444.621094 C 113.992188 424.71875 130.179688 408.53125 150.082031 408.53125 L 261.84375 408.53125 C 281.742188 408.53125 297.933594 424.71875 297.933594 444.621094 C 297.933594 447.597656 295.519531 450.011719 292.542969 450.011719 " fill-opacity="1" fill-rule="nonzero"/><g clip-path="url(#7f00aca8b5)"><path fill="#d9d9d9" d="M 205.960938 8.265625 C 47.09375 8.265625 -81.691406 137.054688 -81.691406 295.921875 C -81.691406 454.789062 47.09375 583.574219 205.960938 583.574219 C 364.832031 583.574219 493.617188 454.789062 493.617188 295.921875 C 493.617188 137.054688 364.832031 8.265625 205.960938 8.265625 Z M 205.960938 18.621094 C 224.78125 18.621094 243.589844 20.515625 261.859375 24.253906 C 279.65625 27.898438 297.164062 33.332031 313.894531 40.410156 C 330.324219 47.359375 346.171875 55.960938 360.996094 65.972656 C 375.679688 75.894531 389.492188 87.289062 402.039062 99.839844 C 414.589844 112.390625 425.988281 126.199219 435.90625 140.886719 C 445.921875 155.710938 454.523438 171.558594 461.472656 187.984375 C 468.550781 204.71875 473.984375 222.222656 477.625 240.023438 C 481.367188 258.292969 483.257812 277.097656 483.257812 295.921875 C 483.257812 314.742188 481.367188 333.546875 477.625 351.816406 C 473.984375 369.617188 468.550781 387.125 461.472656 403.851562 C 454.523438 420.28125 445.921875 436.128906 435.90625 450.953125 C 425.988281 465.636719 414.589844 479.449219 402.039062 492 C 389.492188 504.550781 375.679688 515.941406 360.996094 525.867188 C 346.171875 535.878906 330.324219 544.480469 313.894531 551.433594 C 297.164062 558.507812 279.65625 563.941406 261.859375 567.582031 C 243.589844 571.324219 224.78125 573.21875 205.960938 573.21875 C 187.140625 573.21875 168.335938 571.324219 150.066406 567.582031 C 132.265625 563.941406 114.757812 558.507812 98.027344 551.433594 C 81.597656 544.480469 65.753906 535.878906 50.929688 525.867188 C 36.242188 515.941406 22.433594 504.550781 9.882812 492 C -2.667969 479.449219 -14.0625 465.636719 -23.984375 450.953125 C -34 436.128906 -42.601562 420.28125 -49.550781 403.851562 C -56.625 387.125 -62.0625 369.617188 -65.703125 351.816406 C -69.441406 333.546875 -71.335938 314.742188 -71.335938 295.921875 C -71.335938 277.097656 -69.441406 258.292969 -65.703125 240.023438 C -62.0625 222.222656 -56.625 204.71875 -49.550781 187.984375 C -42.601562 171.558594 -34 155.710938 -23.984375 140.886719 C -14.0625 126.199219 -2.667969 112.390625 9.882812 99.839844 C 22.433594 87.289062 36.242188 75.894531 50.929688 65.972656 C 65.753906 55.960938 81.597656 47.359375 98.027344 40.410156 C 114.757812 33.332031 132.265625 27.898438 150.066406 24.253906 C 168.335938 20.515625 187.140625 18.621094 205.960938 18.621094 " fill-opacity="1" fill-rule="nonzero"/></g><g clip-path="url(#0f39863d02)"><path fill="#d9d9d9" d="M 72.804688 173.992188 C 68.023438 173.992188 64.132812 177.878906 64.132812 182.664062 L 64.132812 358.058594 C 64.132812 362.839844 68.023438 366.730469 72.804688 366.730469 L 337.320312 366.730469 C 342.101562 366.730469 345.992188 362.839844 345.992188 358.058594 L 345.992188 182.664062 C 345.992188 177.878906 342.101562 173.992188 337.320312 173.992188 Z M 337.320312 376.125 L 72.804688 376.125 C 62.839844 376.125 54.738281 368.019531 54.738281 358.058594 L 54.738281 182.664062 C 54.738281 172.699219 62.839844 164.59375 72.804688 164.59375 L 337.320312 164.59375 C 347.28125 164.59375 355.386719 172.699219 355.386719 182.664062 L 355.386719 358.058594 C 355.386719 368.019531 347.28125 376.125 337.320312 376.125 " fill-opacity="1" fill-rule="nonzero"/></g><g clip-path="url(#34ac5185bb)"><path fill="#d9d9d9" d="M 350.691406 336.585938 L 59.433594 336.585938 C 56.839844 336.585938 54.738281 334.484375 54.738281 331.890625 C 54.738281 329.296875 56.839844 327.191406 59.433594 327.191406 L 350.691406 327.191406 C 353.285156 327.191406 355.386719 329.296875 355.386719 331.890625 C 355.386719 334.484375 353.285156 336.585938 350.691406 336.585938 " fill-opacity="1" fill-rule="nonzero"/></g><g clip-path="url(#9e89ba6033)"><path fill="#d9d9d9" d="M 205.0625 48.269531 C 66.691406 48.269531 -45.480469 160.441406 -45.480469 298.808594 C -45.480469 437.179688 66.691406 549.351562 205.0625 549.351562 C 343.433594 549.351562 455.601562 437.179688 455.601562 298.808594 C 455.601562 160.441406 343.433594 48.269531 205.0625 48.269531 Z M 205.0625 57.289062 C 221.453125 57.289062 237.835938 58.9375 253.746094 62.195312 C 269.25 65.367188 284.496094 70.101562 299.070312 76.265625 C 313.378906 82.316406 327.179688 89.808594 340.09375 98.53125 C 352.882812 107.171875 364.914062 117.09375 375.84375 128.027344 C 386.773438 138.957031 396.699219 150.988281 405.339844 163.777344 C 414.0625 176.691406 421.554688 190.492188 427.605469 204.800781 C 433.769531 219.375 438.503906 234.621094 441.675781 250.125 C 444.933594 266.039062 446.582031 282.417969 446.582031 298.808594 C 446.582031 315.203125 444.933594 331.582031 441.675781 347.496094 C 438.503906 363 433.769531 378.246094 427.605469 392.820312 C 421.554688 407.128906 414.0625 420.929688 405.339844 433.84375 C 396.699219 446.632812 386.773438 458.660156 375.84375 469.59375 C 364.914062 480.523438 352.882812 490.445312 340.09375 499.089844 C 327.179688 507.8125 313.378906 515.304688 299.070312 521.355469 C 284.496094 527.519531 269.25 532.253906 253.746094 535.425781 C 237.835938 538.679688 221.453125 540.332031 205.0625 540.332031 C 188.667969 540.332031 172.289062 538.679688 156.375 535.425781 C 140.875 532.253906 125.625 527.519531 111.054688 521.355469 C 96.742188 515.304688 82.941406 507.8125 70.03125 499.089844 C 57.238281 490.445312 45.210938 480.523438 34.277344 469.59375 C 23.347656 458.660156 13.421875 446.632812 4.78125 433.84375 C -3.941406 420.929688 -11.433594 407.128906 -17.484375 392.820312 C -23.648438 378.246094 -28.382812 363 -31.554688 347.496094 C -34.808594 331.582031 -36.460938 315.203125 -36.460938 298.808594 C -36.460938 282.417969 -34.808594 266.039062 -31.554688 250.125 C -28.382812 234.621094 -23.648438 219.375 -17.484375 204.800781 C -11.433594 190.492188 -3.941406 176.691406 4.78125 163.777344 C 13.421875 150.988281 23.347656 138.957031 34.277344 128.027344 C 45.210938 117.09375 57.238281 107.171875 70.03125 98.53125 C 82.941406 89.808594 96.742188 82.316406 111.054688 76.265625 C 125.625 70.101562 140.875 65.367188 156.375 62.195312 C 172.289062 58.9375 188.667969 57.289062 205.0625 57.289062 " fill-opacity="1" fill-rule="nonzero"/></g><g fill="#d9d9d9" fill-opacity="1"><g transform="translate(395.233643, 301.747592)"><g><path d="M 56.261719 -138.257812 L 37.507812 -138.257812 C 37.507812 -138.257812 37.507812 -138.257812 37.363281 -138.257812 L 34.164062 -138.257812 L 34.164062 -138.113281 C 18.027344 -136.511719 7.269531 -123.71875 7.269531 -108.308594 L 7.269531 1.019531 C 7.269531 1.019531 7.414062 1.019531 7.414062 1.019531 L 56.261719 1.019531 C 84.902344 1.019531 106.5625 -20.207031 106.5625 -45.359375 L 106.5625 -87.957031 C 106.5625 -119.792969 84.902344 -138.257812 56.261719 -138.257812 Z M 77.050781 -50.15625 C 77.050781 -38.671875 67.746094 -28.496094 56.261719 -28.496094 L 37.507812 -28.496094 C 37.507812 -28.640625 37.507812 -28.929688 37.507812 -29.078125 L 37.507812 -108.746094 L 56.261719 -108.746094 C 67.746094 -108.746094 77.050781 -98.570312 77.050781 -87.082031 Z M 77.050781 -50.15625 "/></g></g></g><g fill="#d9d9d9" fill-opacity="1"><g transform="translate(387.397775, 437.428742)"><g><path d="M 91.648438 -126.320312 L 64.90625 -86.542969 L 38.164062 -126.457031 L 38.03125 -126.457031 C 20.695312 -126.457031 6.71875 -112.480469 6.71875 -95.144531 L 6.71875 0.539062 C 24.054688 0.539062 38.03125 -13.4375 38.03125 -30.773438 L 38.03125 -74.046875 L 64.90625 -43.40625 L 91.648438 -75.253906 L 91.648438 0.539062 C 108.984375 0.539062 122.960938 -13.4375 122.960938 -30.773438 L 122.960938 -126.320312 Z M 91.648438 -126.320312 "/></g></g></g></svg>