<svg xmlns="http://www.w3.org/2000/svg" xmlns:xlink="http://www.w3.org/1999/xlink" width="100" zoomAndPan="magnify" viewBox="0 0 75 74.999997" height="100" preserveAspectRatio="xMidYMid meet" version="1.0"><defs><clipPath id="be68c05adf"><path d="M 14.25 0 L 60.75 0 C 64.53125 0 68.152344 1.5 70.828125 4.171875 C 73.5 6.847656 75 10.46875 75 14.25 L 75 60.75 C 75 64.53125 73.5 68.152344 70.828125 70.828125 C 68.152344 73.5 64.53125 75 60.75 75 L 14.25 75 C 10.46875 75 6.847656 73.5 4.171875 70.828125 C 1.5 68.152344 0 64.53125 0 60.75 L 0 14.25 C 0 10.46875 1.5 6.847656 4.171875 4.171875 C 6.847656 1.5 10.46875 0 14.25 0 Z M 14.25 0 " clip-rule="nonzero"/></clipPath><clipPath id="34a0e69979"><path d="M 8 3 L 67 3 L 67 72 L 8 72 Z M 8 3 " clip-rule="nonzero"/></clipPath><clipPath id="22778ed814"><path d="M 36.964844 -0.585938 L 70.828125 18.757812 L 38.09375 76.066406 L 4.230469 56.722656 Z M 36.964844 -0.585938 " clip-rule="nonzero"/></clipPath><clipPath id="d132743908"><path d="M 33.617188 5.273438 L 7.769531 50.527344 C 5.917969 53.765625 7.042969 57.886719 10.28125 59.734375 L 32.171875 72.242188 C 35.410156 74.089844 39.535156 72.964844 41.382812 69.726562 L 67.230469 24.476562 C 69.078125 21.238281 67.953125 17.117188 64.71875 15.265625 L 42.824219 2.761719 C 39.589844 0.914062 35.464844 2.039062 33.617188 5.273438 Z M 33.617188 5.273438 " clip-rule="nonzero"/></clipPath><clipPath id="6e16ab9acf"><path d="M 37.242188 0.4375 L 69.804688 19.035156 L 37.8125 75.042969 L 5.25 56.445312 Z M 37.242188 0.4375 " clip-rule="nonzero"/></clipPath><clipPath id="60dd34a115"><path d="M 43.160156 3.988281 L 63.488281 15.601562 C 66.726562 17.449219 67.851562 21.574219 66.003906 24.8125 L 41.046875 68.5 C 39.199219 71.738281 35.074219 72.863281 31.839844 71.011719 L 11.507812 59.402344 C 8.273438 57.550781 7.148438 53.429688 8.996094 50.191406 L 33.949219 6.503906 C 35.800781 3.265625 39.921875 2.140625 43.160156 3.988281 Z M 43.160156 3.988281 " clip-rule="nonzero"/></clipPath><clipPath id="ff9ba550d9"><path d="M 36.964844 -0.585938 L 70.828125 18.757812 L 38.464844 75.414062 L 4.601562 56.070312 Z M 36.964844 -0.585938 " clip-rule="nonzero"/></clipPath><clipPath id="36022c2d52"><path d="M 6 1 L 69 1 L 69 74 L 6 74 Z M 6 1 " clip-rule="nonzero"/></clipPath><clipPath id="bdee93b6d4"><path d="M 36.964844 -0.585938 L 70.828125 18.757812 L 38.09375 76.066406 L 4.230469 56.722656 Z M 36.964844 -0.585938 " clip-rule="nonzero"/></clipPath><clipPath id="3a2de15d74"><path d="M 33.617188 5.273438 L 7.769531 50.527344 C 5.917969 53.765625 7.042969 57.886719 10.28125 59.734375 L 32.171875 72.242188 C 35.410156 74.089844 39.535156 72.964844 41.382812 69.726562 L 67.230469 24.476562 C 69.078125 21.238281 67.953125 17.117188 64.71875 15.265625 L 42.824219 2.761719 C 39.589844 0.914062 35.464844 2.039062 33.617188 5.273438 Z M 33.617188 5.273438 " clip-rule="nonzero"/></clipPath><clipPath id="eb715c9a63"><path d="M 36.964844 -0.585938 L 70.828125 18.757812 L 38.464844 75.414062 L 4.601562 56.070312 Z M 36.964844 -0.585938 " clip-rule="nonzero"/></clipPath><clipPath id="02fca75f84"><path d="M 36.964844 -0.585938 L 70.824219 18.753906 L 38.089844 76.0625 L 4.230469 56.722656 Z M 36.964844 -0.585938 " clip-rule="nonzero"/></clipPath><clipPath id="3807f3a225"><path d="M 33.617188 5.273438 L 7.769531 50.527344 C 5.917969 53.761719 7.042969 57.886719 10.28125 59.734375 L 32.171875 72.238281 C 35.40625 74.085938 39.53125 72.960938 41.378906 69.722656 L 67.226562 24.472656 C 69.074219 21.234375 67.949219 17.113281 64.714844 15.265625 L 42.824219 2.761719 C 39.585938 0.914062 35.464844 2.039062 33.617188 5.273438 Z M 33.617188 5.273438 " clip-rule="nonzero"/></clipPath><clipPath id="b887b33df3"><path d="M 36 5 L 65 5 L 65 25 L 36 25 Z M 36 5 " clip-rule="nonzero"/></clipPath><clipPath id="60f0f911be"><path d="M 38.597656 5.804688 L 64.242188 20.453125 L 61.9375 24.492188 L 36.292969 9.84375 Z M 38.597656 5.804688 " clip-rule="nonzero"/></clipPath><clipPath id="c751bda28e"><path d="M 38.597656 5.804688 L 64.242188 20.453125 L 61.9375 24.492188 L 36.292969 9.84375 Z M 38.597656 5.804688 " clip-rule="nonzero"/></clipPath><clipPath id="6a73b222bf"><path d="M 43 8 L 59 8 L 59 18 L 43 18 Z M 43 8 " clip-rule="nonzero"/></clipPath><clipPath id="c0c627d045"><path d="M 44.800781 7.859375 L 59.128906 16.042969 L 58.011719 17.996094 L 43.683594 9.8125 Z M 44.800781 7.859375 " clip-rule="nonzero"/></clipPath><clipPath id="a7fe9ba4bf"><path d="M 44.800781 7.859375 L 59.128906 16.042969 L 58.011719 17.996094 L 43.683594 9.8125 Z M 44.800781 7.859375 " clip-rule="nonzero"/></clipPath><clipPath id="11ac29beec"><path d="M 11 43 L 43 43 L 43 69 L 11 69 Z M 11 43 " clip-rule="nonzero"/></clipPath><clipPath id="ce16394635"><path d="M 16.863281 43.855469 L 42.507812 58.503906 L 37.082031 68.007812 L 11.4375 53.359375 Z M 16.863281 43.855469 " clip-rule="nonzero"/></clipPath><clipPath id="2af6f38d16"><path d="M 16.863281 43.855469 L 42.507812 58.503906 L 37.082031 68.007812 L 11.4375 53.359375 Z M 16.863281 43.855469 " clip-rule="nonzero"/></clipPath><clipPath id="0d3eb024ed"><path d="M 21 55 L 29 55 L 29 63 L 21 63 Z M 21 55 " clip-rule="nonzero"/></clipPath><clipPath id="1b898fef4f"><path d="M 23.796875 54.117188 L 30.148438 57.746094 L 26.519531 64.09375 L 20.167969 60.46875 Z M 23.796875 54.117188 " clip-rule="nonzero"/></clipPath><clipPath id="46679496a6"><path d="M 26.972656 55.929688 C 25.21875 54.929688 22.984375 55.539062 21.984375 57.292969 C 20.980469 59.046875 21.589844 61.28125 23.34375 62.28125 C 25.097656 63.285156 27.332031 62.671875 28.332031 60.921875 C 29.335938 59.167969 28.726562 56.933594 26.972656 55.929688 Z M 26.972656 55.929688 " clip-rule="nonzero"/></clipPath></defs><g clip-path="url(#be68c05adf)"><rect x="-7.5" width="90" fill="#F20574" y="-7.5" height="89.999996" fill-opacity="1"/></g><g clip-path="url(#34a0e69979)"><g clip-path="url(#22778ed814)"><g clip-path="url(#d132743908)"><g clip-path="url(#6e16ab9acf)"><g clip-path="url(#60dd34a115)"><g clip-path="url(#ff9ba550d9)"><path fill="#170b26" d="M 42.132812 2.371094 C 42.132812 2.371094 36.960938 -0.582031 34.003906 4.597656 L 7.378906 51.207031 C 4.421875 56.382812 9.59375 59.335938 9.59375 59.335938 L 32.863281 72.628906 C 32.863281 72.628906 38.03125 75.582031 40.992188 70.402344 L 67.613281 23.792969 C 70.574219 18.617188 65.402344 15.660156 65.402344 15.660156 Z M 36.230469 7.308594 L 12.800781 48.328125 L 40.714844 64.269531 L 64.144531 23.253906 Z M 22.707031 63.394531 C 23.777344 64.003906 25.140625 63.632812 25.753906 62.558594 C 26.367188 61.488281 25.996094 60.121094 24.925781 59.507812 C 23.855469 58.898438 22.488281 59.269531 21.875 60.34375 C 21.265625 61.417969 21.636719 62.78125 22.707031 63.394531 Z M 46.398438 8.242188 C 46.082031 8.058594 45.683594 8.164062 45.5 8.484375 L 45.410156 8.636719 C 45.230469 8.953125 45.34375 9.355469 45.65625 9.535156 L 57.441406 16.265625 C 57.757812 16.445312 58.15625 16.34375 58.339844 16.019531 L 58.425781 15.871094 C 58.605469 15.554688 58.492188 15.148438 58.179688 14.972656 Z M 46.398438 8.242188 " fill-opacity="1" fill-rule="evenodd"/></g></g></g></g></g></g><g clip-path="url(#36022c2d52)"><g clip-path="url(#bdee93b6d4)"><g clip-path="url(#3a2de15d74)"><g clip-path="url(#eb715c9a63)"><g clip-path="url(#02fca75f84)"><g clip-path="url(#3807f3a225)"><path stroke-linecap="butt" transform="matrix(0.651246, 0.371993, -0.371993, 0.651246, 36.964005, -0.586401)" fill="none" stroke-linejoin="miter" d="M 0.000388764 8.997669 L 0.00209925 78.484906 C -0.00262467 83.454048 4.027817 87.485865 8.998897 87.483483 L 42.612314 87.483404 C 47.578872 87.483605 51.610689 83.453164 51.608307 78.482083 L 51.609179 8.999368 C 51.606798 4.028288 47.578939 0.000993447 42.612382 0.000792074 L 8.998965 0.000871128 C 4.027885 0.00325304 0.000590137 4.031111 0.000388764 8.997669 Z M 0.000388764 8.997669 " stroke="#170b26" stroke-width="18" stroke-opacity="1" stroke-miterlimit="4"/></g></g></g></g></g></g><g clip-path="url(#b887b33df3)"><g clip-path="url(#60f0f911be)"><g clip-path="url(#c751bda28e)"><path fill="#170b26" d="M 38.597656 5.804688 L 64.242188 20.453125 L 61.9375 24.492188 L 36.292969 9.84375 Z M 38.597656 5.804688 " fill-opacity="1" fill-rule="nonzero"/></g></g></g><g clip-path="url(#6a73b222bf)"><g clip-path="url(#c0c627d045)"><g clip-path="url(#a7fe9ba4bf)"><path fill="#F20574" d="M 45.726562 8.390625 L 58.394531 15.625 C 58.515625 15.695312 58.617188 15.78125 58.703125 15.890625 C 58.785156 16 58.847656 16.125 58.882812 16.257812 C 58.921875 16.390625 58.929688 16.527344 58.914062 16.664062 C 58.894531 16.800781 58.851562 16.929688 58.78125 17.050781 L 58.539062 17.472656 C 58.472656 17.59375 58.382812 17.699219 58.273438 17.78125 C 58.164062 17.867188 58.042969 17.929688 57.910156 17.964844 C 57.773438 18 57.640625 18.011719 57.5 17.992188 C 57.363281 17.976562 57.234375 17.933594 57.113281 17.863281 L 44.449219 10.628906 C 44.328125 10.558594 44.226562 10.46875 44.140625 10.359375 C 44.054688 10.25 43.996094 10.128906 43.957031 9.996094 C 43.921875 9.863281 43.914062 9.726562 43.929688 9.589844 C 43.945312 9.453125 43.988281 9.324219 44.058594 9.203125 L 44.300781 8.777344 C 44.371094 8.65625 44.457031 8.554688 44.570312 8.46875 C 44.679688 8.386719 44.800781 8.324219 44.933594 8.289062 C 45.066406 8.253906 45.203125 8.242188 45.339844 8.261719 C 45.476562 8.277344 45.605469 8.320312 45.726562 8.390625 Z M 45.726562 8.390625 " fill-opacity="1" fill-rule="nonzero"/></g></g></g><g clip-path="url(#11ac29beec)"><g clip-path="url(#ce16394635)"><g clip-path="url(#2af6f38d16)"><path fill="#170b26" d="M 16.863281 43.855469 L 42.507812 58.503906 L 37.082031 68.007812 L 11.4375 53.359375 Z M 16.863281 43.855469 " fill-opacity="1" fill-rule="nonzero"/></g></g></g><g clip-path="url(#0d3eb024ed)"><g clip-path="url(#1b898fef4f)"><g clip-path="url(#46679496a6)"><path fill="#F20574" d="M 23.796875 54.117188 L 30.148438 57.746094 L 26.519531 64.09375 L 20.167969 60.46875 Z M 23.796875 54.117188 " fill-opacity="1" fill-rule="nonzero"/></g></g></g></svg>