<svg xmlns="http://www.w3.org/2000/svg" xmlns:xlink="http://www.w3.org/1999/xlink" width="100" zoomAndPan="magnify" viewBox="0 0 75 74.999997" height="100" preserveAspectRatio="xMidYMid meet" version="1.2"><g id="bcc13d4298"><rect x="0" width="75" y="0" height="74.999997" style="fill:#ffffff;fill-opacity:1;stroke:none;"/><rect x="0" width="75" y="0" height="74.999997" style="fill:#ffffff;fill-opacity:1;stroke:none;"/><path style=" stroke:none;fill-rule:nonzero;fill:#000000;fill-opacity:1;" d="M 1.84375 -13.4375 L 73.152344 -13.4375 C 74.15625 -13.4375 75.152344 -13.339844 76.136719 -13.144531 C 77.121094 -12.945312 78.074219 -12.65625 79 -12.273438 C 79.929688 -11.890625 80.808594 -11.417969 81.644531 -10.859375 C 82.476562 -10.304688 83.25 -9.671875 83.960938 -8.960938 C 84.667969 -8.25 85.300781 -7.480469 85.859375 -6.644531 C 86.417969 -5.8125 86.886719 -4.929688 87.273438 -4.003906 C 87.65625 -3.078125 87.945312 -2.121094 88.140625 -1.136719 C 88.335938 -0.152344 88.433594 0.839844 88.433594 1.84375 L 88.433594 73.152344 C 88.433594 74.15625 88.335938 75.152344 88.140625 76.136719 C 87.945312 77.121094 87.65625 78.074219 87.273438 79 C 86.886719 79.929688 86.417969 80.808594 85.859375 81.644531 C 85.300781 82.476562 84.667969 83.25 83.960938 83.960938 C 83.25 84.667969 82.476562 85.300781 81.644531 85.859375 C 80.808594 86.417969 79.929688 86.886719 79 87.273438 C 78.074219 87.65625 77.121094 87.945312 76.136719 88.140625 C 75.152344 88.335938 74.15625 88.433594 73.152344 88.433594 L 1.84375 88.433594 C 0.839844 88.433594 -0.152344 88.335938 -1.136719 88.140625 C -2.121094 87.945312 -3.078125 87.65625 -4.003906 87.273438 C -4.929688 86.886719 -5.8125 86.417969 -6.644531 85.859375 C -7.480469 85.300781 -8.25 84.667969 -8.960938 83.960938 C -9.671875 83.25 -10.304688 82.476562 -10.859375 81.644531 C -11.417969 80.808594 -11.890625 79.929688 -12.273438 79 C -12.65625 78.074219 -12.945312 77.121094 -13.144531 76.136719 C -13.339844 75.152344 -13.4375 74.15625 -13.4375 73.152344 L -13.4375 1.84375 C -13.4375 0.839844 -13.339844 -0.152344 -13.144531 -1.136719 C -12.945312 -2.121094 -12.65625 -3.078125 -12.273438 -4.003906 C -11.890625 -4.929688 -11.417969 -5.8125 -10.859375 -6.644531 C -10.304688 -7.480469 -9.671875 -8.25 -8.960938 -8.960938 C -8.25 -9.671875 -7.480469 -10.304688 -6.644531 -10.859375 C -5.8125 -11.417969 -4.929688 -11.890625 -4.003906 -12.273438 C -3.078125 -12.65625 -2.121094 -12.945312 -1.136719 -13.144531 C -0.152344 -13.339844 0.839844 -13.4375 1.84375 -13.4375 Z M 1.84375 -13.4375 "/><path style=" stroke:none;fill-rule:nonzero;fill:#f20574;fill-opacity:1;" d="M 10.042969 5.464844 C 6.859375 7.457031 0.292969 14.816406 0.292969 16.609375 L 0.292969 19.792969 C 0.292969 23.96875 4.074219 27.351562 7.457031 27.351562 C 11.632812 27.351562 15.015625 23.96875 15.015625 19.992188 C 15.015625 23.96875 18.398438 27.351562 22.578125 27.351562 C 26.554688 27.351562 29.738281 23.96875 29.738281 19.992188 C 29.738281 23.96875 33.320312 27.351562 37.5 27.351562 C 41.675781 27.351562 45.257812 23.96875 45.257812 19.992188 C 45.257812 23.96875 48.441406 27.351562 52.421875 27.351562 C 56.601562 27.351562 59.984375 23.96875 59.984375 19.992188 C 59.984375 23.96875 63.363281 27.351562 67.542969 27.351562 C 70.925781 27.351562 74.707031 23.96875 74.707031 19.792969 L 74.707031 16.609375 C 74.707031 14.816406 68.140625 7.457031 64.957031 5.464844 C 46.652344 4.746094 28.347656 4.746094 10.042969 5.464844 Z M 29.738281 25.5625 L 28.347656 27.351562 C 28.117188 27.585938 27.871094 27.808594 27.613281 28.011719 C 27.355469 28.21875 27.089844 28.410156 26.808594 28.585938 C 26.53125 28.761719 26.242188 28.917969 25.945312 29.0625 C 25.648438 29.203125 25.34375 29.328125 25.03125 29.433594 C 24.71875 29.542969 24.402344 29.628906 24.082031 29.699219 C 23.757812 29.769531 23.433594 29.820312 23.105469 29.855469 C 22.777344 29.886719 22.449219 29.898438 22.121094 29.894531 C 21.792969 29.890625 21.464844 29.867188 21.136719 29.820312 C 20.808594 29.777344 20.488281 29.71875 20.167969 29.636719 C 19.847656 29.554688 19.535156 29.457031 19.226562 29.339844 C 18.917969 29.222656 18.617188 29.089844 18.324219 28.9375 C 18.03125 28.785156 17.75 28.617188 17.476562 28.433594 C 17.203125 28.25 16.941406 28.050781 16.691406 27.835938 C 16.441406 27.621094 16.203125 27.394531 15.980469 27.152344 C 15.757812 26.910156 15.546875 26.65625 15.351562 26.390625 C 15.15625 26.125 14.980469 25.847656 14.816406 25.5625 L 13.425781 27.351562 C 11.832031 28.945312 9.644531 29.9375 7.257812 29.9375 L 6.460938 29.738281 L 6.0625 38.890625 L 6.0625 42.472656 C 6.0625 49.636719 5.265625 65.953125 9.246094 69.929688 C 15.214844 71.324219 26.355469 71.921875 37.5 71.921875 C 48.640625 71.921875 59.785156 71.324219 65.753906 69.929688 C 69.730469 65.953125 68.9375 49.636719 68.9375 42.472656 L 68.9375 38.890625 L 68.539062 29.738281 L 67.742188 29.9375 C 65.355469 29.9375 63.167969 28.945312 61.574219 27.351562 L 60.179688 25.5625 L 58.789062 27.351562 C 58.558594 27.585938 58.3125 27.808594 58.054688 28.011719 C 57.800781 28.21875 57.53125 28.410156 57.253906 28.585938 C 56.972656 28.761719 56.683594 28.917969 56.386719 29.0625 C 56.089844 29.203125 55.785156 29.328125 55.472656 29.433594 C 55.164062 29.542969 54.84375 29.628906 54.523438 29.699219 C 54.203125 29.769531 53.875 29.820312 53.546875 29.855469 C 53.222656 29.886719 52.890625 29.898438 52.5625 29.894531 C 52.234375 29.890625 51.90625 29.867188 51.578125 29.820312 C 51.25 29.777344 50.929688 29.71875 50.609375 29.636719 C 50.289062 29.554688 49.976562 29.457031 49.667969 29.339844 C 49.359375 29.222656 49.058594 29.089844 48.765625 28.9375 C 48.472656 28.785156 48.191406 28.617188 47.917969 28.433594 C 47.644531 28.25 47.382812 28.050781 47.132812 27.835938 C 46.882812 27.621094 46.644531 27.394531 46.421875 27.152344 C 46.199219 26.910156 45.988281 26.65625 45.792969 26.390625 C 45.601562 26.125 45.421875 25.847656 45.257812 25.5625 C 44.882812 26.230469 44.425781 26.839844 43.886719 27.390625 C 43.347656 27.9375 42.746094 28.402344 42.078125 28.789062 C 41.414062 29.171875 40.710938 29.464844 39.964844 29.660156 C 39.222656 29.855469 38.46875 29.945312 37.699219 29.9375 L 37.300781 29.9375 C 36.53125 29.945312 35.777344 29.855469 35.03125 29.660156 C 34.289062 29.464844 33.585938 29.171875 32.917969 28.789062 C 32.253906 28.402344 31.652344 27.9375 31.113281 27.390625 C 30.574219 26.839844 30.113281 26.230469 29.738281 25.5625 Z M 23.570312 33.519531 C 25.960938 33.519531 28.148438 33.519531 30.933594 36.503906 L 37.5 36.105469 L 44.066406 36.503906 C 46.851562 33.519531 49.039062 33.519531 51.425781 33.519531 C 52.621094 33.519531 57.195312 33.519531 60.378906 42.671875 L 63.960938 55.207031 C 66.546875 64.359375 63.167969 64.558594 58.789062 64.558594 C 52.621094 64.359375 49.039062 59.785156 49.039062 55.207031 C 41.28125 56.445312 33.519531 56.445312 25.761719 55.207031 C 25.960938 59.785156 22.378906 64.359375 16.210938 64.558594 C 11.832031 64.558594 8.449219 64.359375 11.035156 55.207031 L 14.617188 42.671875 C 17.800781 33.519531 22.378906 33.519531 23.570312 33.519531 Z M 37.5 40.683594 C 37.5 40.683594 30.933594 46.851562 29.738281 49.039062 L 34.117188 48.839844 L 34.117188 52.621094 L 40.882812 52.621094 L 40.882812 48.839844 L 45.257812 49.039062 C 44.066406 46.851562 37.5 40.683594 37.5 40.683594 Z M 37.5 40.683594 "/></g></svg>