<?xml version="1.0" encoding="UTF-8"?>
<svg xmlns="http://www.w3.org/2000/svg" xmlns:xlink="http://www.w3.org/1999/xlink" width="48px" height="48px" viewBox="0 0 48 48" version="1.1">
<g id="surface1">
<path style=" stroke:none;fill-rule:evenodd;fill:#02975f;fill-opacity:1;" d="M 42.460938 0 L 5.539062 0 C 2.480469 0 0 2.480469 0 5.539062 L 0 42.457031 C 0 45.519531 2.480469 48 5.539062 48 L 42.464844 48 C 45.523438 48 48 45.519531 48 42.457031 L 48 5.539062 C 48 2.480469 45.523438 0 42.460938 0 Z M 24 14.769531 C 29.097656 14.769531 33.230469 18.898438 33.230469 24 C 33.230469 29.097656 29.097656 33.230469 24 33.230469 C 18.902344 33.230469 14.769531 29.097656 14.769531 24 C 14.769531 18.898438 18.902344 14.769531 24 14.769531 Z M 42 40.15625 C 42 41.175781 41.175781 42 40.152344 42 L 7.847656 42 C 6.824219 42 6 41.175781 6 40.15625 L 6 20 L 9.792969 20 C 9.617188 20.628906 9.488281 21.28125 9.394531 21.941406 C 9.292969 22.617188 9.230469 23.300781 9.230469 24 C 9.230469 32.15625 15.84375 38.769531 24 38.769531 C 32.15625 38.769531 38.769531 32.15625 38.769531 24 C 38.769531 23.300781 38.707031 22.617188 38.605469 21.945312 C 38.511719 21.28125 38.382812 20.632812 38.207031 20.003906 L 42 20.003906 Z M 42 12.195312 C 42 13.214844 41.175781 14.042969 40.152344 14.042969 L 35.804688 14.042969 C 34.78125 14.042969 33.957031 13.214844 33.957031 12.195312 L 33.957031 7.847656 C 33.957031 6.824219 34.78125 6 35.804688 6 L 40.152344 6 C 41.175781 6 42 6.824219 42 7.847656 Z M 42 12.195312 "/>
</g>
</svg>
