<?xml version="1.0" encoding="UTF-8"?>
<svg xmlns="http://www.w3.org/2000/svg" xmlns:xlink="http://www.w3.org/1999/xlink" width="48px" height="48px" viewBox="0 0 48 48" version="1.1">
<g id="surface1">
<path style=" stroke:none;fill-rule:nonzero;fill:#02975f;fill-opacity:1;" d="M 38 0 L 10 0 C 4.476562 0 0 4.476562 0 10 L 0 38 C 0 43.523438 4.476562 48 10 48 L 38 48 C 43.523438 48 48 43.523438 48 38 L 48 10 C 48 4.476562 43.523438 0 38 0 Z M 37.722656 18.472656 C 38.140625 27.707031 31.253906 38.003906 19.0625 38.003906 C 15.355469 38.003906 11.902344 36.917969 8.996094 35.054688 C 12.480469 35.464844 15.957031 34.496094 18.71875 32.335938 C 15.84375 32.28125 13.421875 30.382812 12.585938 27.777344 C 13.617188 27.972656 14.628906 27.914062 15.550781 27.664062 C 12.390625 27.03125 10.214844 24.1875 10.285156 21.144531 C 11.167969 21.636719 12.183594 21.933594 13.257812 21.964844 C 10.335938 20.011719 9.507812 16.152344 11.222656 13.199219 C 14.460938 17.171875 19.300781 19.785156 24.757812 20.058594 C 23.796875 15.953125 26.914062 12 31.152344 12 C 33.039062 12 34.746094 12.796875 35.945312 14.074219 C 37.441406 13.78125 38.847656 13.234375 40.117188 12.480469 C 39.625 14.015625 38.585938 15.300781 37.230469 16.113281 C 38.558594 15.953125 39.824219 15.601562 41 15.078125 C 40.121094 16.390625 39.007812 17.546875 37.722656 18.472656 Z M 37.722656 18.472656 "/>
</g>
</svg>
